<?xml version="1.0" encoding="utf-8"?>
<!-- Generator: Adobe Illustrator 16.0.0, SVG Export Plug-In . SVG Version: 6.00 Build 0)  -->
<!DOCTYPE svg PUBLIC "-//W3C//DTD SVG 1.1//EN" "http://www.w3.org/Graphics/SVG/1.1/DTD/svg11.dtd">
<svg version="1.1" id="Layer_1" xmlns="http://www.w3.org/2000/svg" xmlns:xlink="http://www.w3.org/1999/xlink" x="0px" y="0px"
	 width="685.917px" height="353.599px" viewBox="0 0 685.917 353.599" enable-background="new 0 0 685.917 353.599"
	 xml:space="preserve">
<g>
	<g>
		<g>
			<path fill="#6DC6B0" d="M469.267,0c-3.903,0-7.059,3.153-7.059,7.051v75.597c0,3.901,3.155,7.059,7.059,7.059h18.14
				c3.904,0,7.059-3.158,7.059-7.059V7.051c0-3.898-3.154-7.051-7.059-7.051H469.267z"/>
			<path fill="#084364" d="M487.406,90.529h-18.14c-4.346,0-7.882-3.531-7.882-7.881V7.051c0-4.346,3.536-7.876,7.882-7.876h18.14
				c4.352,0,7.882,3.53,7.882,7.876v75.597C495.288,86.998,491.758,90.529,487.406,90.529z M469.267,0.82
				c-3.438,0-6.23,2.795-6.23,6.23v75.597c0,3.44,2.793,6.233,6.23,6.233h18.14c3.438,0,6.241-2.793,6.241-6.233V7.051
				c0-3.435-2.804-6.23-6.241-6.23H469.267z"/>
		</g>
		<g>
			<path fill="#FFFFFF" d="M467.405,15.651c0,0.945,0.764,1.712,1.709,1.712h18.324c0.948,0,1.712-0.767,1.712-1.712v-4.398
				c0-0.945-0.764-1.709-1.712-1.709h-18.324c-0.945,0-1.709,0.764-1.709,1.709V15.651z"/>
			<path fill="#084364" d="M487.438,18.186h-18.324c-1.397,0-2.534-1.14-2.534-2.535v-4.398c0-1.396,1.137-2.53,2.534-2.53h18.324
				c1.398,0,2.532,1.134,2.532,2.53v4.398C489.971,17.046,488.836,18.186,487.438,18.186z M469.114,10.368
				c-0.489,0-0.887,0.397-0.887,0.884v4.398c0,0.487,0.397,0.887,0.887,0.887h18.324c0.484,0,0.884-0.399,0.884-0.887v-4.398
				c0-0.487-0.399-0.884-0.884-0.884H469.114z"/>
		</g>
		<g>
			<path fill="#FFD950" d="M478.575,74.606c-2.062,0-3.733,1.677-3.733,3.741c0,2.061,1.672,3.73,3.733,3.73
				c2.063,0,3.729-1.669,3.729-3.73C482.305,76.284,480.639,74.606,478.575,74.606z"/>
			<path fill="#084364" d="M478.575,82.906c-2.514,0-4.559-2.047-4.559-4.559c0-2.519,2.045-4.563,4.559-4.563
				c2.513,0,4.556,2.045,4.556,4.563C483.131,80.858,481.088,82.906,478.575,82.906z M478.575,75.432
				c-1.608,0-2.905,1.305-2.905,2.916c0,1.608,1.297,2.911,2.905,2.911c1.603,0,2.91-1.302,2.91-2.911
				C481.485,76.736,480.178,75.432,478.575,75.432z"/>
		</g>
		<g>
			<path fill="#FFFFFF" d="M467.405,27.827c0,0.942,0.764,1.707,1.709,1.707h18.324c0.948,0,1.712-0.764,1.712-1.707v-4.401
				c0-0.942-0.764-1.709-1.712-1.709h-18.324c-0.945,0-1.709,0.767-1.709,1.709V27.827z"/>
			<path fill="#084364" d="M487.438,30.359h-18.324c-1.397,0-2.534-1.137-2.534-2.532v-4.401c0-1.396,1.137-2.535,2.534-2.535
				h18.324c1.398,0,2.532,1.139,2.532,2.535v4.401C489.971,29.222,488.836,30.359,487.438,30.359z M469.114,22.542
				c-0.489,0-0.887,0.394-0.887,0.884v4.401c0,0.487,0.397,0.887,0.887,0.887h18.324c0.484,0,0.884-0.399,0.884-0.887v-4.401
				c0-0.49-0.399-0.884-0.884-0.884H469.114z"/>
		</g>
	</g>
	<g>
		<g>
			<path fill="#858585" d="M546.612,46.409c-3.9,0-7.062,3.158-7.062,7.056v75.602c0,3.898,3.161,7.051,7.062,7.051h18.14
				c3.901,0,7.053-3.153,7.053-7.051V53.465c0-3.898-3.152-7.056-7.053-7.056H546.612z"/>
			<path fill="#084364" d="M564.752,136.943h-18.14c-4.351,0-7.887-3.533-7.887-7.876V53.465c0-4.343,3.536-7.879,7.887-7.879h18.14
				c4.346,0,7.881,3.536,7.881,7.879v75.602C572.634,133.41,569.099,136.943,564.752,136.943z M546.612,47.235
				c-3.438,0-6.236,2.798-6.236,6.23v75.602c0,3.43,2.798,6.225,6.236,6.225h18.14c3.438,0,6.231-2.795,6.231-6.225V53.465
				c0-3.432-2.793-6.23-6.231-6.23H546.612z"/>
		</g>
		<g>
			<path fill="#FFFFFF" d="M544.749,62.071c0,0.94,0.764,1.707,1.711,1.707h18.325c0.945,0,1.706-0.767,1.706-1.707v-4.407
				c0-0.942-0.761-1.707-1.706-1.707H546.46c-0.948,0-1.711,0.764-1.711,1.707V62.071z"/>
			<path fill="#084364" d="M564.785,64.6H546.46c-1.4,0-2.529-1.139-2.529-2.529v-4.407c0-1.397,1.129-2.532,2.529-2.532h18.325
				c1.395,0,2.529,1.135,2.529,2.532v4.407C567.314,63.461,566.18,64.6,564.785,64.6z M546.46,56.777
				c-0.495,0-0.889,0.399-0.889,0.887v4.407c0,0.482,0.395,0.884,0.889,0.884h18.325c0.487,0,0.887-0.402,0.887-0.884v-4.407
				c0-0.487-0.399-0.887-0.887-0.887H546.46z"/>
		</g>
		<g>
			<path fill="#FFD950" d="M555.92,121.026c-2.058,0-3.735,1.672-3.735,3.73c0,2.061,1.677,3.738,3.735,3.738
				c2.064,0,3.734-1.678,3.734-3.738C559.654,122.698,557.984,121.026,555.92,121.026z"/>
			<path fill="#084364" d="M555.92,129.313c-2.516,0-4.558-2.04-4.558-4.556c0-2.517,2.042-4.562,4.558-4.562
				c2.511,0,4.551,2.045,4.551,4.562C560.472,127.273,558.432,129.313,555.92,129.313z M555.92,121.852
				c-1.61,0-2.91,1.299-2.91,2.905c0,1.61,1.3,2.91,2.91,2.91c1.603,0,2.908-1.3,2.908-2.91
				C558.828,123.151,557.523,121.852,555.92,121.852z"/>
		</g>
		<g>
			<path fill="#FFFFFF" d="M544.749,74.242c0,0.942,0.764,1.707,1.711,1.707h18.325c0.945,0,1.706-0.764,1.706-1.707V69.84
				c0-0.943-0.761-1.704-1.706-1.704H546.46c-0.948,0-1.711,0.761-1.711,1.704V74.242z"/>
			<path fill="#084364" d="M564.785,76.771H546.46c-1.4,0-2.529-1.137-2.529-2.529V69.84c0-1.403,1.129-2.529,2.529-2.529h18.325
				c1.395,0,2.529,1.126,2.529,2.529v4.401C567.314,75.634,566.18,76.771,564.785,76.771z M546.46,68.951
				c-0.495,0-0.889,0.404-0.889,0.889v4.401c0,0.484,0.395,0.884,0.889,0.884h18.325c0.487,0,0.887-0.399,0.887-0.884V69.84
				c0-0.485-0.399-0.889-0.887-0.889H546.46z"/>
		</g>
	</g>
	<g>
		<path fill="#084364" d="M550.386,40.935c-0.102,0-0.211-0.019-0.314-0.059c-0.418-0.173-0.62-0.652-0.447-1.076
			c5.173-12.642-0.887-27.14-13.529-32.324c-8.267-3.387-17.754-2.05-24.77,3.499c-0.357,0.282-0.879,0.224-1.153-0.136
			c-0.285-0.36-0.221-0.876,0.128-1.153c7.487-5.916,17.607-7.343,26.421-3.733c13.481,5.528,19.951,20.992,14.429,34.47
			C551.014,40.743,550.702,40.935,550.386,40.935z"/>
	</g>
	<g>
		<g>
			<polygon fill="#084364" points="518.938,14.325 503.742,20.087 506.346,4.044 			"/>
			<path fill="#084364" d="M503.742,20.917c-0.185,0-0.379-0.064-0.525-0.187c-0.226-0.186-0.332-0.479-0.292-0.769l2.606-16.048
				c0.053-0.288,0.245-0.535,0.52-0.636c0.273-0.106,0.591-0.059,0.814,0.13l12.589,10.283c0.231,0.186,0.343,0.474,0.295,0.764
				c-0.042,0.295-0.247,0.535-0.514,0.636l-15.203,5.77C503.941,20.896,503.84,20.917,503.742,20.917z M506.932,5.586l-2.146,13.23
				l12.525-4.755L506.932,5.586z"/>
		</g>
	</g>
	<g>
		<g>
			<path fill="#084364" d="M505.659,134.582c-3.385,0-6.783-0.649-10.004-1.973c-13.483-5.522-19.953-20.981-14.431-34.465
				c0.178-0.426,0.662-0.623,1.075-0.458c0.424,0.178,0.623,0.66,0.453,1.081c-5.185,12.637,0.889,27.135,13.522,32.322
				c8.266,3.379,17.763,2.042,24.77-3.496c0.36-0.288,0.879-0.229,1.164,0.133c0.28,0.362,0.216,0.878-0.135,1.155
				C517.324,132.641,511.517,134.582,505.659,134.582z"/>
		</g>
		<g>
			<g>
				<polygon fill="#6DC6B0" points="513.437,124.243 528.635,118.476 526.025,134.521 				"/>
				<path fill="#084364" d="M526.025,135.343c-0.176,0-0.367-0.062-0.52-0.187l-12.592-10.272c-0.224-0.191-0.341-0.487-0.29-0.775
					c0.054-0.287,0.242-0.532,0.522-0.639l15.198-5.768c0.269-0.111,0.583-0.048,0.809,0.133c0.223,0.181,0.341,0.485,0.293,0.772
					l-2.61,16.045c-0.042,0.288-0.242,0.533-0.513,0.634C526.225,135.324,526.124,135.343,526.025,135.343z M515.056,124.509
					l10.389,8.467l2.146-13.223L515.056,124.509z"/>
			</g>
		</g>
	</g>
	<path fill="#D7E8F7" d="M684.155,204.675c0-26.368-20.585-47.752-45.971-47.752c-0.162,0-0.312,0.016-0.474,0.021
		c-0.092-20.72-16.279-37.49-36.251-37.49c-5.485,0-10.659,1.302-15.315,3.563c-9.7-21.011-30.306-35.554-54.237-35.554
		c-31.169,0-56.797,24.605-59.88,56.131c-28.802,0.16-52.099,24.458-52.099,54.413c0,28.973,21.814,52.592,49.309,54.256v0.166
		h172.028v-0.166C665.212,250.611,684.155,229.97,684.155,204.675z"/>
	<path fill="#084364" d="M641.266,254.195H467.478v-0.297c-27.785-2.564-49.314-26.787-49.314-55.891
		c0-30.264,23.311-55.11,52.28-56.149c3.89-32.122,30.053-56.16,61.464-56.16c23.084,0,44.516,13.675,55.076,34.995
		c4.638-1.992,9.492-3.003,14.476-3.003c20.299,0,36.984,16.66,37.969,37.484c25.747,0.689,46.488,22.627,46.488,49.501
		c0,25.379-18.705,46.664-42.889,49.209v0.143L641.266,254.195z M471.002,250.664l168.498-0.043l1.641-0.111
		c23.133-1.604,41.252-21.732,41.252-45.834c0-25.356-19.831-45.988-44.208-45.988h-1.757l-0.479-1.736
		c-0.093-19.699-15.558-35.733-34.489-35.733c-5.022,0-9.918,1.143-14.543,3.39l-1.622,0.78l-0.753-1.627
		c-9.688-20.981-30.348-34.537-52.634-34.537c-30.096,0-55.082,23.452-58.125,54.546l-0.154,1.582l-1.595,0.01
		c-27.758,0.155-50.345,23.772-50.345,52.645c0,27.818,20.936,50.885,47.66,52.502L471.002,250.664z"/>
	<g>
		<path fill="#FFFFFF" d="M572.874,119.088c-0.543,0-1.079-0.245-1.425-0.713c-9.49-12.914-23.906-20.321-39.559-20.321
			c-0.975,0-1.763-0.786-1.763-1.763c0-0.972,0.789-1.768,1.763-1.768c16.788,0,32.244,7.932,42.399,21.765
			c0.578,0.783,0.413,1.885-0.375,2.465C573.601,118.979,573.236,119.088,572.874,119.088z"/>
	</g>
	<g>
		<path fill="#FFFFFF" d="M673.576,196.144c-0.777,0-1.496-0.527-1.699-1.332c-3.338-13.11-13.153-23.383-25.598-26.814
			c-0.943-0.256-1.496-1.228-1.236-2.173c0.256-0.935,1.23-1.476,2.17-1.233c13.662,3.771,24.432,15.018,28.085,29.354
			c0.24,0.947-0.33,1.906-1.272,2.143C673.872,196.123,673.73,196.144,673.576,196.144z"/>
	</g>
	<g>
		<path fill="#FFFFFF" d="M626.64,147.695c-0.694,0-1.36-0.415-1.64-1.091c-4.186-10.262-13.713-16.892-24.28-16.892
			c-0.978,0-1.763-0.783-1.763-1.76c0-0.972,0.785-1.765,1.763-1.765c12,0,22.821,7.49,27.544,19.078
			c0.373,0.905-0.061,1.936-0.964,2.304C627.082,147.656,626.858,147.695,626.64,147.695z"/>
	</g>
	<g>
		<g>
			<path fill="#FFFFFF" d="M649.826,233.167c0,30.346-24.587,54.945-54.936,54.945c-30.356,0-54.948-24.6-54.948-54.945
				c0-30.352,24.592-54.953,54.948-54.953C625.239,178.214,649.826,202.816,649.826,233.167z"/>
			<path fill="#084364" d="M594.891,289.634c-31.145,0-56.471-25.33-56.471-56.467c0-31.139,25.327-56.469,56.471-56.469
				c31.129,0,56.458,25.33,56.458,56.469C651.349,264.304,626.02,289.634,594.891,289.634z M594.891,179.737
				c-29.462,0-53.433,23.97-53.433,53.431s23.971,53.426,53.433,53.426c29.448,0,53.418-23.965,53.418-53.426
				S624.339,179.737,594.891,179.737z"/>
		</g>
		<g>
			<g>
				<path fill="#084364" d="M594.891,270.857c-18.968,0-34.393-15.428-34.393-34.396c0-0.84,0.685-1.521,1.521-1.521
					c0.839,0,1.521,0.682,1.521,1.521c0,17.291,14.059,31.355,31.352,31.355c11.292,0,21.765-6.123,27.332-15.98
					c0.399-0.73,1.328-0.996,2.063-0.572c0.732,0.406,0.987,1.334,0.572,2.063C618.767,264.142,607.277,270.857,594.891,270.857z"/>
			</g>
			<g>
				<g>
					<polygon fill="#FFD950" points="611.942,251.787 627.188,237.539 631.906,257.863 					"/>
					<path fill="#084364" d="M631.906,259.384c-0.146,0-0.293-0.014-0.437-0.063l-19.978-6.08c-0.514-0.156-0.91-0.576-1.033-1.111
						c-0.12-0.523,0.046-1.08,0.445-1.453l15.246-14.248c0.396-0.375,0.966-0.506,1.475-0.342c0.524,0.156,0.918,0.582,1.036,1.109
						l4.638,19.926c0.12,0.225,0.184,0.477,0.184,0.74c0,0.857-0.828,1.529-1.539,1.521
						C631.933,259.384,631.923,259.384,631.906,259.384z M614.905,251.101l14.927,4.547l-3.53-15.195L614.905,251.101z"/>
				</g>
			</g>
		</g>
		<g>
			<g>
				<path fill="#084364" d="M627.747,231.388c-0.838,0-1.515-0.676-1.515-1.518c0-17.285-14.069-31.354-31.342-31.354
					c-11.305,0-21.78,6.125-27.329,15.982c-0.415,0.727-1.342,0.988-2.068,0.58c-0.735-0.414-0.996-1.342-0.581-2.07
					c6.09-10.811,17.573-17.537,29.979-17.537c18.958,0,34.375,15.434,34.375,34.398
					C629.266,230.712,628.594,231.388,627.747,231.388z"/>
			</g>
			<g>
				<g>
					<polygon fill="#FFD950" points="577.829,214.548 562.587,228.796 557.867,208.464 					"/>
					<path fill="#084364" d="M562.587,230.316c-0.148,0-0.3-0.023-0.447-0.07c-0.519-0.154-0.91-0.574-1.038-1.102l-4.719-20.34
						c-0.125-0.523,0.046-1.076,0.442-1.451c0.396-0.373,0.959-0.506,1.48-0.34l19.967,6.076c0.522,0.158,0.916,0.58,1.041,1.113
						c0.12,0.525-0.045,1.082-0.441,1.449l-15.255,14.254C563.339,230.177,562.966,230.316,562.587,230.316z M559.941,210.687
						l3.528,15.201l11.401-10.658L559.941,210.687z"/>
				</g>
			</g>
		</g>
	</g>
	<g>
		<path fill="#FFFFFF" d="M189.765,73.435c-7.418,0-13.431,6.013-13.431,13.433v143.917c0,7.418,6.013,13.436,13.431,13.436h34.536
			c7.418,0,13.431-6.018,13.431-13.436V86.868c0-7.42-6.013-13.433-13.431-13.433H189.765z"/>
		<path fill="#084364" d="M224.301,245.964h-34.536c-8.377,0-15.195-6.807-15.195-15.18V86.868c0-8.374,6.818-15.19,15.195-15.19
			h34.536c8.382,0,15.19,6.816,15.19,15.19v143.917C239.491,239.158,232.683,245.964,224.301,245.964z M189.765,75.197
			c-6.436,0-11.673,5.229-11.673,11.67v143.917c0,6.438,5.237,11.67,11.673,11.67h34.536c6.434,0,11.671-5.232,11.671-11.67V86.868
			c0-6.441-5.237-11.67-11.671-11.67H189.765z"/>
	</g>
	<path fill="#858585" d="M186.215,103.245c0,1.795,1.454,3.246,3.249,3.246h34.894c1.805,0,3.256-1.451,3.256-3.246v-8.376
		c0-1.805-1.451-3.253-3.256-3.253h-34.894c-1.795,0-3.249,1.448-3.249,3.253V103.245z"/>
	<path fill="#084364" d="M224.357,108.251h-34.894c-2.759,0-5.003-2.247-5.003-5.006v-8.376c0-2.769,2.244-5.016,5.003-5.016h34.894
		c2.768,0,5.014,2.247,5.014,5.016v8.376C229.371,106.004,227.125,108.251,224.357,108.251z M189.464,93.373
		c-0.823,0-1.48,0.671-1.48,1.496v8.376c0,0.82,0.657,1.489,1.48,1.489h34.894c0.836,0,1.496-0.668,1.496-1.489v-8.376
		c0-0.825-0.66-1.496-1.496-1.496H189.464z"/>
	<path fill="#63B7E6" d="M114.956,73.435c-7.416,0-13.431,6.013-13.431,13.433v143.917c0,7.418,6.015,13.436,13.431,13.436h34.542
		c7.423,0,13.433-6.018,13.433-13.436V86.868c0-7.42-6.01-13.433-13.433-13.433H114.956z"/>
	<path fill="#084364" d="M149.498,245.964h-34.542c-8.374,0-15.193-6.807-15.193-15.18V86.868c0-8.374,6.819-15.19,15.193-15.19
		h34.542c8.376,0,15.198,6.816,15.198,15.19v143.917C164.696,239.158,157.874,245.964,149.498,245.964z M114.956,75.197
		c-6.431,0-11.671,5.229-11.671,11.67v143.917c0,6.438,5.24,11.67,11.671,11.67h34.542c6.443,0,11.678-5.232,11.678-11.67V86.868
		c0-6.441-5.234-11.67-11.678-11.67H114.956z"/>
	<g>
		<path fill="#FFFFFF" d="M40.152,73.435c-7.415,0-13.42,6.013-13.42,13.433v143.917c0,7.418,6.005,13.436,13.42,13.436h34.542
			c7.426,0,13.433-6.018,13.433-13.436V86.868c0-7.42-6.007-13.433-13.433-13.433H40.152z"/>
		<path fill="#084364" d="M74.694,245.964H40.152c-8.368,0-15.183-6.807-15.183-15.18V86.868c0-8.374,6.814-15.19,15.183-15.19
			h34.542c8.374,0,15.19,6.816,15.19,15.19v143.917C89.885,239.158,83.068,245.964,74.694,245.964z M40.152,75.197
			c-6.436,0-11.659,5.229-11.659,11.67v143.917c0,6.438,5.224,11.67,11.659,11.67h34.542c6.441,0,11.67-5.232,11.67-11.67V86.868
			c0-6.441-5.229-11.67-11.67-11.67H40.152z"/>
	</g>
	<path fill="#6DC6B0" d="M207.486,215.474c-3.933,0-7.111,3.18-7.111,7.109c0,3.92,3.179,7.111,7.111,7.111
		c3.923,0,7.112-3.191,7.112-7.111C214.599,218.654,211.409,215.474,207.486,215.474z"/>
	<path fill="#084364" d="M207.486,231.453c-4.891,0-8.863-3.986-8.863-8.869s3.973-8.871,8.863-8.871
		c4.881,0,8.864,3.988,8.864,8.871S212.367,231.453,207.486,231.453z M207.486,217.238c-2.955,0-5.356,2.396-5.356,5.346
		c0,2.953,2.401,5.355,5.356,5.355c2.948,0,5.347-2.402,5.347-5.355C212.833,219.634,210.435,217.238,207.486,217.238z"/>
	<path fill="#FFFFFF" d="M111.412,103.245c0,1.795,1.459,3.246,3.262,3.246h34.88c1.808,0,3.256-1.451,3.256-3.246v-8.376
		c0-1.805-1.448-3.253-3.256-3.253h-34.88c-1.803,0-3.262,1.448-3.262,3.253V103.245z"/>
	<path fill="#084364" d="M149.554,108.251h-34.88c-2.77,0-5.027-2.247-5.027-5.006v-8.376c0-2.769,2.258-5.016,5.027-5.016h34.88
		c2.77,0,5.014,2.247,5.014,5.016v8.376C154.567,106.004,152.323,108.251,149.554,108.251z M114.674,93.373
		c-0.826,0-1.499,0.671-1.499,1.496v8.376c0,0.82,0.673,1.489,1.499,1.489h34.88c0.825,0,1.499-0.668,1.499-1.489v-8.376
		c0-0.825-0.674-1.496-1.499-1.496H114.674z"/>
	<path fill="#FFD950" d="M132.678,215.474c-3.922,0-7.104,3.18-7.104,7.109c0,3.92,3.182,7.111,7.104,7.111
		c3.925,0,7.106-3.191,7.106-7.111C139.784,218.654,136.603,215.474,132.678,215.474z"/>
	<path fill="#084364" d="M132.678,231.453c-4.878,0-8.866-3.986-8.866-8.869s3.988-8.871,8.866-8.871
		c4.896,0,8.869,3.988,8.869,8.871S137.574,231.453,132.678,231.453z M132.678,217.238c-2.947,0-5.344,2.396-5.344,5.346
		c0,2.953,2.396,5.355,5.344,5.355c2.95,0,5.35-2.402,5.35-5.355C138.027,219.634,135.628,217.238,132.678,217.238z"/>
	<path fill="#858585" d="M36.619,103.245c0,1.795,1.445,3.246,3.243,3.246H74.75c1.811,0,3.25-1.451,3.25-3.246v-8.376
		c0-1.805-1.44-3.253-3.25-3.253H39.862c-1.798,0-3.243,1.448-3.243,3.253V103.245z"/>
	<path fill="#084364" d="M74.75,108.251H39.862c-2.762,0-5.006-2.247-5.006-5.006v-8.376c0-2.769,2.244-5.016,5.006-5.016H74.75
		c2.77,0,5.024,2.247,5.024,5.016v8.376C79.774,106.004,77.52,108.251,74.75,108.251z M39.862,93.373
		c-0.814,0-1.488,0.671-1.488,1.496v8.376c0,0.826,0.674,1.489,1.488,1.489H74.75c0.828,0,1.499-0.663,1.499-1.489v-8.376
		c0-0.825-0.671-1.496-1.499-1.496H39.862z"/>
	<path fill="#858585" d="M186.215,126.416c0,1.8,1.454,3.253,3.249,3.253h34.894c1.805,0,3.256-1.454,3.256-3.253v-8.369
		c0-1.808-1.451-3.262-3.256-3.262h-34.894c-1.795,0-3.249,1.454-3.249,3.262V126.416z"/>
	<path fill="#084364" d="M224.357,131.432h-34.894c-2.759,0-5.003-2.25-5.003-5.016v-8.369c0-2.772,2.244-5.019,5.003-5.019h34.894
		c2.768,0,5.014,2.247,5.014,5.019v8.369C229.371,129.182,227.125,131.432,224.357,131.432z M189.464,116.542
		c-0.823,0-1.48,0.676-1.48,1.504v8.369c0,0.825,0.657,1.496,1.48,1.496h34.894c0.836,0,1.496-0.671,1.496-1.496v-8.369
		c0-0.828-0.66-1.504-1.496-1.504H189.464z"/>
	<path fill="#FFFFFF" d="M111.412,126.416c0,1.8,1.459,3.253,3.262,3.253h34.88c1.808,0,3.256-1.454,3.256-3.253v-8.376
		c0-1.797-1.448-3.249-3.256-3.249h-34.88c-1.803,0-3.262,1.451-3.262,3.249V126.416z"/>
	<path fill="#084364" d="M149.554,131.432h-34.88c-2.77,0-5.027-2.25-5.027-5.016v-8.376c0-2.764,2.258-5.006,5.027-5.006h34.88
		c2.77,0,5.014,2.242,5.014,5.006v8.376C154.567,129.182,152.323,131.432,149.554,131.432z M114.674,116.545
		c-0.826,0-1.499,0.674-1.499,1.494v8.376c0,0.825,0.673,1.496,1.499,1.496h34.88c0.825,0,1.499-0.671,1.499-1.496v-8.376
		c0-0.82-0.674-1.494-1.499-1.494H114.674z"/>
	<path fill="#858585" d="M36.619,126.418c0,1.797,1.445,3.251,3.243,3.251H74.75c1.811,0,3.25-1.454,3.25-3.251v-8.371
		c0-1.805-1.44-3.262-3.25-3.262H39.862c-1.798,0-3.243,1.457-3.243,3.262V126.418z"/>
	<path fill="#084364" d="M74.75,131.432H39.862c-2.762,0-5.006-2.25-5.006-5.014v-8.371c0-2.772,2.244-5.019,5.006-5.019H74.75
		c2.77,0,5.024,2.247,5.024,5.019v8.371C79.774,129.182,77.52,131.432,74.75,131.432z M39.862,116.542
		c-0.814,0-1.488,0.676-1.488,1.504v8.371c0,0.823,0.674,1.494,1.488,1.494H74.75c0.828,0,1.499-0.671,1.499-1.494v-8.371
		c0-0.828-0.671-1.504-1.499-1.504H39.862z"/>
	<path fill="#6DC6B0" d="M57.886,215.474c-3.928,0-7.123,3.18-7.123,7.109c0,3.92,3.195,7.111,7.123,7.111
		c3.924,0,7.093-3.191,7.093-7.111C64.979,218.654,61.81,215.474,57.886,215.474z"/>
	<path fill="#084364" d="M57.886,231.453c-4.895,0-8.872-3.986-8.872-8.869s3.978-8.871,8.872-8.871
		c4.883,0,8.858,3.988,8.858,8.871S62.769,231.453,57.886,231.453z M57.886,217.238c-2.956,0-5.354,2.396-5.354,5.346
		c0,2.953,2.398,5.355,5.354,5.355c2.944,0,5.338-2.402,5.338-5.355C63.224,219.634,60.83,217.238,57.886,217.238z"/>
	<g>
		<path fill="#084364" d="M57.315,270.611c-0.975,0-1.768-0.793-1.768-1.764V244.22c0-0.98,0.793-1.766,1.768-1.766
			c0.977,0,1.758,0.785,1.758,1.766v24.627C59.073,269.818,58.292,270.611,57.315,270.611z"/>
	</g>
	<g>
		<path fill="#084364" d="M132.111,270.611c-0.973,0-1.763-0.793-1.763-1.764V244.22c0-0.98,0.79-1.766,1.763-1.766
			c0.979,0,1.76,0.785,1.76,1.766v24.627C133.871,269.818,133.091,270.611,132.111,270.611z"/>
	</g>
	<g>
		<path fill="#084364" d="M206.92,270.611c-0.985,0-1.763-0.793-1.763-1.764V244.22c0-0.98,0.777-1.766,1.763-1.766
			c0.964,0,1.757,0.785,1.757,1.766v24.627C208.677,269.818,207.884,270.611,206.92,270.611z"/>
	</g>
	<g>
		<path fill="#084364" d="M255.592,270.611H8.869c-0.972,0-1.763-0.793-1.763-1.764c0-0.967,0.791-1.752,1.763-1.752h246.723
			c0.975,0,1.763,0.785,1.763,1.752C257.354,269.818,256.566,270.611,255.592,270.611z"/>
	</g>
	<path fill="#6DC6B0" d="M132.233,261.74c-3.925,0-7.106,3.189-7.106,7.107c0,3.926,3.182,7.111,7.106,7.111
		c3.933,0,7.109-3.186,7.109-7.111C139.343,264.929,136.166,261.74,132.233,261.74z"/>
	<path fill="#084364" d="M132.233,277.716c-4.894,0-8.869-3.979-8.869-8.869c0-4.895,3.976-8.865,8.869-8.865
		c4.889,0,8.858,3.971,8.858,8.865C141.092,273.738,137.122,277.716,132.233,277.716z M132.233,263.503
		c-2.953,0-5.354,2.4-5.354,5.344c0,2.949,2.401,5.355,5.354,5.355c2.95,0,5.341-2.406,5.341-5.355
		C137.574,265.904,135.184,263.503,132.233,263.503z"/>
	<path fill="#FFD950" d="M57.315,261.74c-3.93,0-7.104,3.189-7.104,7.107c0,3.926,3.174,7.111,7.104,7.111
		c3.928,0,7.112-3.186,7.112-7.111C64.428,264.929,61.243,261.74,57.315,261.74z"/>
	<path fill="#084364" d="M57.315,277.716c-4.891,0-8.866-3.979-8.866-8.869c0-4.895,3.976-8.865,8.866-8.865
		c4.894,0,8.866,3.971,8.866,8.865C66.182,273.738,62.209,277.716,57.315,277.716z M57.315,263.503c-2.944,0-5.352,2.4-5.352,5.344
		c0,2.949,2.407,5.355,5.352,5.355c2.953,0,5.339-2.406,5.339-5.355C62.654,265.904,60.269,263.503,57.315,263.503z"/>
	<path fill="#FFD950" d="M206.92,261.74c-3.931,0-7.115,3.189-7.115,7.107c0,3.926,3.185,7.111,7.115,7.111
		c3.933,0,7.104-3.186,7.104-7.111C214.023,264.929,210.853,261.74,206.92,261.74z"/>
	<path fill="#084364" d="M206.92,277.716c-4.899,0-8.872-3.979-8.872-8.869c0-4.895,3.973-8.865,8.872-8.865
		c4.888,0,8.866,3.971,8.866,8.865C215.786,273.738,211.808,277.716,206.92,277.716z M206.92,263.503
		c-2.959,0-5.354,2.4-5.354,5.344c0,2.949,2.396,5.355,5.354,5.355c2.947,0,5.338-2.406,5.338-5.355
		C212.258,265.904,209.867,263.503,206.92,263.503z"/>
	<g>
		<path fill="#6DC6B0" d="M255.592,261.74c-3.922,0-7.106,3.189-7.106,7.107c0,3.926,3.185,7.111,7.106,7.111
			c3.936,0,7.109-3.186,7.109-7.111C262.701,264.929,259.527,261.74,255.592,261.74z"/>
		<path fill="#084364" d="M255.592,277.716c-4.891,0-8.866-3.979-8.866-8.869c0-4.895,3.976-8.865,8.866-8.865
			c4.899,0,8.872,3.971,8.872,8.865C264.464,273.738,260.491,277.716,255.592,277.716z M255.592,263.503
			c-2.947,0-5.347,2.4-5.347,5.344c0,2.949,2.399,5.355,5.347,5.355c2.953,0,5.35-2.406,5.35-5.355
			C260.941,265.904,258.545,263.503,255.592,263.503z"/>
	</g>
	<path fill="#6DC6B0" d="M8.872,261.74c3.928,0,7.106,3.189,7.106,7.107c0,3.926-3.179,7.111-7.106,7.111
		c-3.936,0-7.109-3.186-7.109-7.111C1.763,264.929,4.937,261.74,8.872,261.74z"/>
	<path fill="#084364" d="M8.872,277.716c-4.894,0-8.872-3.979-8.872-8.869c0-4.895,3.979-8.865,8.872-8.865
		c4.889,0,8.866,3.971,8.866,8.865C17.738,273.738,13.761,277.716,8.872,277.716z M8.872,263.503c-2.955,0-5.357,2.4-5.357,5.344
		c0,2.949,2.402,5.355,5.357,5.355c2.95,0,5.341-2.406,5.341-5.355C14.213,265.904,11.822,263.503,8.872,263.503z"/>
	<path fill="#AAB8B8" d="M486.433,112.868c0,10.368-8.403,18.766-18.761,18.766H266.591c-10.37,0-18.771-8.398-18.771-18.766V64.611
		c0-10.365,8.4-18.766,18.771-18.766h201.081c10.357,0,18.761,8.401,18.761,18.766V112.868z"/>
	<path fill="#084364" d="M467.672,133.799H266.591c-11.547,0-20.936-9.38-20.936-20.931V64.611c0-11.545,9.389-20.933,20.936-20.933
		h201.081c11.539,0,20.928,9.388,20.928,20.933v48.257C488.6,124.418,479.211,133.799,467.672,133.799z M266.591,48.007
		c-9.159,0-16.604,7.445-16.604,16.604v48.257c0,9.154,7.444,16.604,16.604,16.604h201.081c9.151,0,16.596-7.45,16.596-16.604
		V64.611c0-9.159-7.444-16.604-16.596-16.604H266.591z"/>
	<g>
		<path fill="#FFFFFF" d="M392.205,94.752c0,2.519-2.029,4.547-4.548,4.547H338.91c-2.514,0-4.545-2.029-4.545-4.547v-11.7
			c0-2.514,2.031-4.553,4.545-4.553h48.747c2.519,0,4.548,2.04,4.548,4.553V94.752z"/>
		<path fill="#084364" d="M387.657,101.461H338.91c-3.698,0-6.707-3.009-6.707-6.709v-11.7c0-3.699,3.009-6.715,6.707-6.715h48.747
			c3.706,0,6.718,3.017,6.718,6.715v11.7C394.375,98.453,391.363,101.461,387.657,101.461z M338.91,80.672
			c-1.307,0-2.38,1.067-2.38,2.38v11.7c0,1.315,1.073,2.383,2.38,2.383h48.747c1.318,0,2.386-1.068,2.386-2.383v-11.7
			c0-1.313-1.067-2.38-2.386-2.38H338.91z"/>
	</g>
	<path fill="#AAB8B8" d="M486.433,198.66c0,10.377-8.403,18.77-18.761,18.77H266.591c-10.37,0-18.771-8.393-18.771-18.77v-48.252
		c0-10.371,8.4-18.773,18.771-18.773h201.081c10.357,0,18.761,8.403,18.761,18.773V198.66z"/>
	<path fill="#084364" d="M467.672,219.595H266.591c-11.547,0-20.936-9.387-20.936-20.936v-48.252
		c0-11.542,9.389-20.936,20.936-20.936h201.081c11.539,0,20.928,9.394,20.928,20.936v48.252
		C488.6,210.208,479.211,219.595,467.672,219.595z M266.591,133.799c-9.159,0-16.604,7.447-16.604,16.609v48.252
		c0,9.152,7.444,16.604,16.604,16.604h201.081c9.151,0,16.596-7.451,16.596-16.604v-48.252c0-9.162-7.444-16.609-16.596-16.609
		H266.591z"/>
	<path fill="#AAB8B8" d="M486.433,284.457c0,10.357-8.403,18.762-18.761,18.762H266.591c-10.37,0-18.771-8.404-18.771-18.762
		v-48.262c0-10.363,8.4-18.766,18.771-18.766h201.081c10.357,0,18.761,8.402,18.761,18.766V284.457z"/>
	<path fill="#084364" d="M467.672,305.386H266.591c-11.547,0-20.936-9.385-20.936-20.93v-48.262
		c0-11.539,9.389-20.932,20.936-20.932h201.081c11.539,0,20.928,9.393,20.928,20.932v48.262
		C488.6,296.001,479.211,305.386,467.672,305.386z M266.591,219.595c-9.159,0-16.604,7.443-16.604,16.6v48.262
		c0,9.154,7.444,16.602,16.604,16.602h201.081c9.151,0,16.596-7.447,16.596-16.602v-48.262c0-9.156-7.444-16.6-16.596-16.6H266.591z
		"/>
	<g>
		<path fill="#FFD950" d="M287.975,88.106c0,5.49-4.446,9.937-9.937,9.937c-5.479,0-9.924-4.446-9.924-9.937
			c0-5.48,4.444-9.924,9.924-9.924C283.528,78.182,287.975,82.626,287.975,88.106z"/>
		<path fill="#084364" d="M278.038,100.213c-6.67,0-12.094-5.427-12.094-12.107c0-6.672,5.424-12.088,12.094-12.088
			c6.667,0,12.099,5.416,12.099,12.088C290.137,94.786,284.705,100.213,278.038,100.213z M278.038,80.347
			c-4.279,0-7.762,3.478-7.762,7.759c0,4.287,3.482,7.775,7.762,7.775c4.286,0,7.774-3.488,7.774-7.775
			C285.813,83.824,282.324,80.347,278.038,80.347z"/>
	</g>
	<g>
		<path fill="#FFD950" d="M320.728,88.899c0,5.487-4.455,9.934-9.939,9.934c-5.485,0-9.932-4.447-9.932-9.934
			c0-5.477,4.446-9.924,9.932-9.924C316.272,78.976,320.728,83.422,320.728,88.899z"/>
		<path fill="#084364" d="M310.788,101.001c-6.673,0-12.097-5.435-12.097-12.102c0-6.673,5.424-12.088,12.097-12.088
			c6.67,0,12.099,5.416,12.099,12.088C322.887,95.566,317.458,101.001,310.788,101.001z M310.788,81.141
			c-4.284,0-7.767,3.482-7.767,7.759c0,4.287,3.482,7.77,7.767,7.77c4.281,0,7.767-3.483,7.767-7.77
			C318.555,84.623,315.069,81.141,310.788,81.141z"/>
	</g>
	<g>
		<path fill="#FFFFFF" d="M392.205,180.546c0,2.508-2.029,4.553-4.548,4.553H338.91c-2.514,0-4.545-2.045-4.545-4.553v-11.707
			c0-2.506,2.031-4.545,4.545-4.545h48.747c2.519,0,4.548,2.039,4.548,4.545V180.546z"/>
		<path fill="#084364" d="M387.657,187.267H338.91c-3.698,0-6.707-3.02-6.707-6.721v-11.707c0-3.699,3.009-6.711,6.707-6.711h48.747
			c3.706,0,6.718,3.012,6.718,6.711v11.707C394.375,184.248,391.363,187.267,387.657,187.267z M338.91,166.456
			c-1.307,0-2.38,1.075-2.38,2.384v11.707c0,1.314,1.073,2.391,2.38,2.391h48.747c1.318,0,2.386-1.076,2.386-2.391v-11.707
			c0-1.309-1.067-2.384-2.386-2.384H338.91z"/>
	</g>
	<g>
		<path fill="#FFD950" d="M287.975,173.912c0,5.474-4.446,9.92-9.937,9.92c-5.479,0-9.924-4.446-9.924-9.92
			c0-5.49,4.444-9.939,9.924-9.939C283.528,163.972,287.975,168.421,287.975,173.912z"/>
		<path fill="#084364" d="M278.038,185.994c-6.67,0-12.094-5.421-12.094-12.082c0-6.678,5.424-12.102,12.094-12.102
			c6.667,0,12.099,5.424,12.099,12.102C290.137,180.573,284.705,185.994,278.038,185.994z M278.038,166.142
			c-4.279,0-7.762,3.477-7.762,7.77c0,4.275,3.482,7.753,7.762,7.753c4.286,0,7.774-3.478,7.774-7.753
			C285.813,169.619,282.324,166.142,278.038,166.142z"/>
	</g>
	<g>
		<path fill="#FFD950" d="M320.728,174.705c0,5.475-4.455,9.924-9.939,9.924c-5.485,0-9.932-4.449-9.932-9.924
			c0-5.496,4.446-9.938,9.932-9.938C316.272,164.767,320.728,169.208,320.728,174.705z"/>
		<path fill="#084364" d="M310.788,186.787c-6.673,0-12.097-5.415-12.097-12.082c0-6.672,5.424-12.102,12.097-12.102
			c6.67,0,12.099,5.43,12.099,12.102C322.887,181.372,317.458,186.787,310.788,186.787z M310.788,166.929
			c-4.284,0-7.767,3.488-7.767,7.775c0,4.271,3.482,7.759,7.767,7.759c4.281,0,7.767-3.487,7.767-7.759
			C318.555,170.417,315.069,166.929,310.788,166.929z"/>
	</g>
	<g>
		<path fill="#FFFFFF" d="M392.205,266.347c0,2.51-2.029,4.531-4.548,4.531H338.91c-2.514,0-4.545-2.021-4.545-4.531v-11.701
			c0-2.518,2.031-4.561,4.545-4.561h48.747c2.519,0,4.548,2.043,4.548,4.561V266.347z"/>
		<path fill="#084364" d="M387.657,273.05H338.91c-3.698,0-6.707-3.008-6.707-6.703v-11.701c0-3.705,3.009-6.729,6.707-6.729h48.747
			c3.706,0,6.718,3.023,6.718,6.729v11.701C394.375,270.042,391.363,273.05,387.657,273.05z M338.91,252.253
			c-1.307,0-2.38,1.072-2.38,2.393v11.701c0,1.309,1.073,2.371,2.38,2.371h48.747c1.318,0,2.386-1.063,2.386-2.371v-11.701
			c0-1.32-1.067-2.393-2.386-2.393H338.91z"/>
	</g>
	<g>
		<path fill="#FFD950" d="M287.975,259.701c0,5.484-4.446,9.928-9.937,9.928c-5.479,0-9.924-4.443-9.924-9.928
			s4.444-9.934,9.924-9.934C283.528,249.767,287.975,254.216,287.975,259.701z"/>
		<path fill="#084364" d="M278.038,271.796c-6.67,0-12.094-5.426-12.094-12.096c0-6.672,5.424-12.1,12.094-12.1
			c6.667,0,12.099,5.428,12.099,12.1C290.137,266.371,284.705,271.796,278.038,271.796z M278.038,251.927
			c-4.279,0-7.762,3.486-7.762,7.773c0,4.275,3.482,7.766,7.762,7.766c4.286,0,7.774-3.49,7.774-7.766
			C285.813,255.414,282.324,251.927,278.038,251.927z"/>
	</g>
	<g>
		<path fill="#FFD950" d="M320.728,260.486c0,5.488-4.455,9.939-9.939,9.939c-5.485,0-9.932-4.451-9.932-9.939
			c0-5.482,4.446-9.924,9.932-9.924C316.272,250.562,320.728,255.003,320.728,260.486z"/>
		<path fill="#084364" d="M310.788,272.593c-6.673,0-12.097-5.432-12.097-12.107c0-6.656,5.424-12.088,12.097-12.088
			c6.67,0,12.099,5.432,12.099,12.088C322.887,267.162,317.458,272.593,310.788,272.593z M310.788,252.722
			c-4.284,0-7.767,3.484-7.767,7.764c0,4.283,3.482,7.777,7.767,7.777c4.281,0,7.767-3.494,7.767-7.777
			C318.555,256.207,315.069,252.722,310.788,252.722z"/>
	</g>
	<path fill="#6DC6B0" d="M534.479,282.455l-5.873-0.287l-0.882-0.053l-3.427-0.172c-0.524-0.023-0.998,0.072-1.442,0.197
		c-0.029-0.186-0.029-0.377-0.059-0.564c-0.166-1.195-0.399-2.385-0.65-3.559c-0.071-0.342-0.114-0.674-0.194-1.008
		c-0.25-1.096-0.597-2.207-0.932-3.299c0.477-0.061,0.953-0.17,1.419-0.426l9.085-4.639c1.598-0.809,2.394-2.422,1.784-3.588
		l-5.751-11.279c-0.603-1.16-2.378-1.453-3.976-0.654l-9.082,4.648c-0.464,0.236-0.834,0.553-1.143,0.9
		c-0.293-0.377-0.62-0.752-0.921-1.119c-0.442-0.555-0.879-1.123-1.353-1.656c-0.164-0.186-0.299-0.395-0.464-0.57
		c-0.389-0.441-0.814-0.811-1.214-1.225c0.102,0.113,0.218,0.176,0.327,0.283c-0.287-0.299-0.596-0.543-0.892-0.848
		c-0.274-0.277-0.517-0.566-0.796-0.844c0.093,0.102,0.17,0.211,0.258,0.307c-0.25-0.24-0.49-0.5-0.74-0.74
		c0.373-0.271,0.725-0.613,1.012-1.063l1.494-2.299l0,0l0.591-0.91l3.459-5.336c0.966-1.506,0.852-3.295-0.259-4.02l-10.61-6.881
		c-1.104-0.719-2.801-0.086-3.772,1.428l-5.536,8.557c-0.293,0.443-0.455,0.9-0.557,1.367c-0.165-0.084-0.338-0.143-0.516-0.211
		c-0.93-0.379-1.856-0.764-2.804-1.092c-0.535-0.176-1.101-0.328-1.641-0.479c-0.942-0.289-1.877-0.576-2.828-0.811
		c-0.141-0.025-0.284-0.059-0.42-0.09c0.178-0.424,0.309-0.889,0.332-1.406l0.146-2.742l0,0l0.077-1.561l0,0l0.299-5.873
		c0.093-1.803-0.905-3.291-2.218-3.365l-12.647-0.637c-1.313-0.088-2.45,1.32-2.559,3.111l-0.509,10.18
		c-0.017,0.529,0.062,1.014,0.21,1.443c-0.381,0.061-0.774,0.074-1.158,0.135c-0.785,0.123-1.561,0.299-2.349,0.465
		c-0.748,0.139-1.496,0.26-2.247,0.439c-0.825,0.205-1.643,0.477-2.466,0.721c-0.071,0.031-0.151,0.053-0.221,0.072
		c-0.063-0.479-0.165-0.945-0.429-1.424l-1.24-2.439l0,0l-0.344-0.697l-3.049-5.934c-0.813-1.609-2.42-2.396-3.6-1.799
		l-11.271,5.758c-1.169,0.605-1.465,2.379-0.65,3.977l2.676,5.229l0.152,0.309l1.818,3.533c0.234,0.467,0.543,0.85,0.89,1.162
		c-1.14,0.854-2.264,1.758-3.345,2.73c-1.078,0.971-2.082,2.006-3.054,3.049c-0.285-0.361-0.618-0.719-1.063-0.994l-2.303-1.498
		l-1.311-0.857l0,0l-4.776-3.082c0,0,0,0,0.002,0l-0.162-0.102c-1.513-0.982-3.304-0.865-4.028,0.24l-6.864,10.607
		c-0.722,1.127-0.091,2.811,1.408,3.785l4.937,3.201l0.304,0.17l3.32,2.162c0.45,0.285,0.916,0.455,1.368,0.549
		c-1.131,2.68-2.034,5.414-2.659,8.217c-0.442-0.176-0.9-0.324-1.417-0.336l-10.185-0.527c-1.8-0.096-3.296,0.9-3.362,2.221
		l-0.647,12.633c-0.063,1.314,1.321,2.455,3.123,2.555l5.869,0.305c0,0,0,0,0,0.006l1.27,0.061l3.044,0.152
		c0.514,0.025,1.001-0.064,1.438-0.203c0.364,2.857,0.972,5.668,1.832,8.445c-0.475,0.049-0.956,0.166-1.42,0.414l-9.076,4.648
		c-1.605,0.801-2.396,2.41-1.789,3.592l5.751,11.262c0.606,1.18,2.396,1.473,3.976,0.66l9.076-4.635
		c0.469-0.248,0.839-0.563,1.161-0.908c0.852,1.135,1.744,2.273,2.734,3.348c0.399,0.469,0.847,0.875,1.283,1.314
		c-0.157-0.156-0.324-0.324-0.492-0.461c0.316,0.33,0.66,0.643,0.982,0.963c0.298,0.295,0.591,0.609,0.892,0.898
		c-0.144-0.156-0.293-0.297-0.434-0.449c0.274,0.262,0.529,0.535,0.81,0.801c-0.376,0.279-0.722,0.605-0.999,1.057l-1.491,2.299
		c-0.005,0-0.005,0-0.005,0l-0.725,1.121l-3.314,5.125c-0.988,1.516-0.868,3.311,0.237,4.025l10.623,6.865
		c1.116,0.727,2.791,0.094,3.766-1.408l5.54-8.561c0.288-0.445,0.45-0.91,0.549-1.357c0.33,0.141,0.66,0.264,0.993,0.389
		c0.626,0.244,1.228,0.535,1.869,0.758c1.047,0.371,2.111,0.65,3.174,0.947c0.455,0.123,0.897,0.289,1.35,0.389
		c0.274,0.078,0.541,0.129,0.823,0.188c-0.173,0.426-0.309,0.895-0.33,1.406l-0.144,2.748l0,0l-0.075,1.551l-0.29,5.678
		l-0.014,0.201c-0.093,1.801,0.906,3.295,2.224,3.359l12.637,0.643c1.313,0.07,2.458-1.33,2.551-3.115l0.524-10.174
		c0.024-0.523-0.069-1.014-0.205-1.455c0.347-0.037,0.682-0.057,1.033-0.107c0.825-0.113,1.638-0.309,2.461-0.471
		c0.721-0.145,1.442-0.24,2.161-0.424c0.925-0.229,1.813-0.523,2.714-0.805c0.021-0.008,0.042-0.008,0.082-0.016
		c0.054,0.463,0.168,0.949,0.405,1.414l1.248,2.447l0,0l0.711,1.393l2.682,5.236c0.814,1.596,2.418,2.396,3.603,1.801l11.263-5.76
		c1.172-0.607,1.473-2.377,0.658-3.969l-4.646-9.08c-0.231-0.463-0.549-0.836-0.893-1.143c2.264-1.717,4.407-3.645,6.409-5.799
		c0.271,0.359,0.612,0.721,1.052,0.996l2.304,1.516l0,0l1.313,0.83l4.758,3.094l0.179,0.109c1.51,0.975,3.302,0.859,4.021-0.25
		l6.875-10.617c0.721-1.107,0.082-2.797-1.414-3.779l-4.939-3.191l-0.33-0.201l-3.299-2.131c-0.444-0.303-0.913-0.461-1.358-0.559
		c0.384-0.924,0.796-1.826,1.121-2.766c0.09-0.254,0.154-0.531,0.237-0.775c0.415-1.229,0.807-2.482,1.107-3.738
		c0.083-0.309,0.12-0.621,0.191-0.938c0.438,0.189,0.897,0.316,1.422,0.346l10.192,0.521c1.779,0.092,3.28-0.904,3.348-2.223
		l0.646-12.635C537.672,283.707,536.266,282.572,534.479,282.455z M497.25,313.548c-14.031,12.678-35.694,11.594-48.374-2.455
		c-12.669-14.031-11.571-35.691,2.463-48.363c14.032-12.674,35.695-11.58,48.363,2.453
		C512.376,279.228,511.282,300.865,497.25,313.548z"/>
	<path fill="#084364" d="M477.513,353.599c-0.048,0-0.184,0-0.231,0l-12.618-0.648c-1.318-0.064-2.535-0.789-3.334-1.992
		c-0.677-1.012-1.012-2.311-0.939-3.635l0.508-9.881l-0.25-0.082c-1.297-0.359-2.306-0.637-3.31-0.998
		c-0.349-0.113-0.692-0.256-1.03-0.402l-5.381,8.314c-1.582,2.439-4.705,3.393-6.761,2.051l-10.621-6.863
		c-0.919-0.592-1.553-1.539-1.792-2.674c-0.304-1.406,0.026-2.998,0.91-4.354l5.382-8.311l-0.845-0.82
		c-0.048-0.059-0.101-0.111-0.146-0.17c-0.253-0.252-0.497-0.512-0.727-0.783c-0.527-0.57-1.033-1.166-1.528-1.783l-8.811,4.504
		c-2.569,1.326-5.768,0.604-6.888-1.596l-5.757-11.27c-0.495-0.975-0.578-2.111-0.219-3.217c0.453-1.367,1.531-2.563,2.969-3.295
		l8.811-4.512c-0.412-1.561-0.751-3.127-1.017-4.723l-4.005-0.182c-0.085,0-0.168-0.014-0.25-0.025l-5.634-0.281
		c-3.033-0.172-5.294-2.287-5.177-4.82l0.647-12.643c0.13-2.447,2.401-4.277,5.29-4.277l10.23,0.504
		c0.418-1.525,0.918-3.057,1.485-4.582l-8.329-5.373c-2.537-1.67-3.435-4.645-2.042-6.785l6.859-10.613
		c1.317-2.004,4.393-2.457,6.818-1.006c0.314,0.125,0.604,0.303,0.828,0.535l7.666,4.963c0.572-0.561,1.147-1.131,1.757-1.674
		c0.597-0.539,1.212-1.066,1.83-1.564l-4.503-8.805c-1.382-2.689-0.685-5.709,1.579-6.889l11.281-5.754
		c2.215-1.145,5.194,0.135,6.516,2.74l4.491,8.797c0.27-0.076,0.535-0.148,0.81-0.217c0.594-0.146,1.175-0.254,1.763-0.359
		l1.087-0.213c0.361-0.076,0.713-0.156,1.064-0.223l0.504-9.877c0.162-2.908,2.188-5.168,4.608-5.168l12.855,0.646
		c1.326,0.072,2.534,0.797,3.333,1.994c0.671,1.02,1.01,2.309,0.935,3.643l-0.5,9.887c0.316,0.088,0.636,0.193,0.947,0.285
		l0.845,0.25c0.418,0.117,0.847,0.238,1.265,0.377c0.521,0.176,1.038,0.373,1.536,0.568l5.381-8.32
		c1.568-2.432,4.718-3.396,6.766-2.051l10.61,6.863c2.144,1.391,2.538,4.469,0.9,7.012l-5.402,8.336l0.367,0.359
		c0.341,0.195,0.623,0.482,0.815,0.818c0.184,0.191,0.359,0.371,0.526,0.564c0.038,0.037,0.322,0.377,0.35,0.426
		c0.471,0.541,0.814,0.971,1.155,1.406l8.851-4.535c2.609-1.318,5.754-0.588,6.877,1.582l5.76,11.291
		c0.492,0.951,0.577,2.094,0.224,3.189c-0.437,1.381-1.518,2.59-2.957,3.313l-8.81,4.506c0.134,0.486,0.259,0.969,0.368,1.461
		c0.05,0.184,0.093,0.432,0.141,0.693c0.194,0.945,0.367,1.781,0.508,2.574l9.884,0.484c3.046,0.188,5.312,2.316,5.162,4.852
		l-0.644,12.621c-0.126,2.441-2.403,4.289-5.305,4.289l0,0l-10.179-0.521c-0.266,0.938-0.567,1.898-0.891,2.842l-0.237,0.793
		c-0.117,0.324-0.237,0.654-0.365,0.975l8.3,5.354c2.545,1.676,3.44,4.641,2.045,6.781l-6.864,10.609
		c-1.355,2.078-4.563,2.471-7.011,0.895l-8.305-5.395c-1.15,1.139-2.338,2.229-3.589,3.248l4.519,8.809
		c1.373,2.697,0.676,5.713-1.598,6.879l-11.266,5.768c-2.242,1.145-5.196-0.148-6.513-2.748l-4.506-8.789
		c-0.29,0.078-0.577,0.168-0.884,0.232c-0.529,0.139-1.063,0.238-1.605,0.33l-1.313,0.256c-0.309,0.061-0.612,0.127-0.916,0.186
		l-0.509,9.873C481.967,351.33,479.943,353.599,477.513,353.599z M455.194,331.019c0.274,0,0.541,0.045,0.799,0.148l1.758,0.705
		c0.338,0.15,0.673,0.287,1.027,0.41c0.9,0.32,1.821,0.57,2.742,0.83l0.86,0.252c0.224,0.066,0.455,0.148,0.674,0.197l0.577,0.127
		c0.626,0.125,1.273,0.549,1.577,1.115c0.301,0.564,0.447,1.268,0.202,1.859c-0.112,0.273-0.163,0.492-0.173,0.689l-0.512,9.994
		c-0.048,0.863,0.202,1.264,0.304,1.322l12.381,0.594c0.125-0.109,0.357-0.469,0.389-1.059l0.522-10.174
		c0.011-0.205-0.027-0.422-0.104-0.678c-0.196-0.629-0.104-1.299,0.256-1.844c0.346-0.537,0.924-0.895,1.568-0.971l0.939-0.094
		c0.581-0.076,1.121-0.201,1.67-0.311l1.47-0.283c0.432-0.082,0.862-0.146,1.286-0.252c0.671-0.174,1.323-0.373,1.973-0.582
		l0.634-0.201c0.6-0.137,1.36-0.033,1.866,0.324c0.498,0.373,0.945,0.902,1.01,1.523c0.021,0.244,0.08,0.447,0.178,0.645
		l4.642,9.074c0.304,0.59,0.71,0.799,0.828,0.814l11.121-5.719c-0.056-0.006,0.019-0.475-0.283-1.07l-4.651-9.07
		c-0.088-0.191-0.224-0.352-0.432-0.539c-0.467-0.436-0.72-1.055-0.689-1.699c0.029-0.637,0.344-1.23,0.857-1.611
		c2.187-1.662,4.245-3.525,6.122-5.543c0.432-0.48,1.05-0.756,1.691-0.705c0.642,0.045,1.229,0.354,1.618,0.857
		c0.176,0.23,0.325,0.383,0.482,0.486l8.406,5.443c0.481,0.305,0.819,0.436,1.104,0.436l6.968-10.543
		c0-0.021-0.184-0.41-0.785-0.795l-8.547-5.531c-0.197-0.115-0.399-0.197-0.655-0.256c-0.628-0.135-1.158-0.539-1.456-1.111
		c-0.301-0.566-0.325-1.248-0.075-1.84l0.267-0.623c0.288-0.67,0.567-1.326,0.807-2.012l0.231-0.752
		c0.397-1.18,0.768-2.359,1.052-3.557l0.102-0.455c0.005-0.025,0.072-0.402,0.077-0.43c0.139-0.633,0.541-1.166,1.113-1.469
		c0.572-0.283,1.238-0.326,1.843-0.078c0.276,0.119,0.486,0.17,0.691,0.191l10.19,0.525c0.002,0,0.013,0,0.013,0
		c0.698,0,1.052-0.24,1.113-0.328l0.602-12.484c-0.051,0.096-0.412-0.258-1.078-0.299l-10.169-0.516
		c-0.295-0.107-0.457,0.033-0.731,0.119c-0.597,0.178-1.257,0.074-1.788-0.264c-0.524-0.34-0.876-0.895-0.966-1.518l1.995-0.826
		l-0.006-0.02l-2.042,0.275c-0.151-1.139-0.375-2.279-0.618-3.396c-0.013-0.033-0.093-0.467-0.098-0.51
		c-0.006-0.023-0.088-0.459-0.094-0.471c-0.239-1.047-0.564-2.092-0.887-3.137c-0.188-0.611-0.101-1.271,0.24-1.807
		c0.343-0.533,0.905-0.898,1.541-0.984c0.317-0.037,0.527-0.1,0.706-0.191l9.101-4.656c0.585-0.291,0.799-0.701,0.807-0.814
		l-5.711-11.133c-0.493,0.064-0.794,0.152-1.073,0.299l-9.079,4.633c-0.182,0.096-0.347,0.223-0.52,0.42
		c-0.435,0.48-0.999,0.74-1.681,0.723c-0.642-0.029-1.235-0.334-1.626-0.836l-1.26-1.537c-0.307-0.383-0.607-0.762-0.935-1.129
		c-0.035-0.037-0.271-0.342-0.314-0.387c-0.362-0.428-0.577-0.631-0.793-0.844l-0.504-0.494c-0.063-0.063-0.119-0.129-0.173-0.195
		l-0.722-0.719c-0.048-0.045-0.093-0.088-0.139-0.131c-0.027-0.018-0.38-0.377-0.4-0.396l-0.321-0.316
		c-0.477-0.438-0.732-1.063-0.695-1.709c0.029-0.645,0.346-1.23,0.868-1.625c0.224-0.16,0.37-0.314,0.474-0.484l5.548-8.566
		c0.36-0.547,0.338-1.025,0.289-1.131l-10.507-6.771c0.016,0.053-0.426,0.232-0.783,0.781l-5.535,8.563
		c-0.12,0.189-0.2,0.377-0.261,0.666c-0.145,0.623-0.563,1.16-1.135,1.445c-0.588,0.293-1.257,0.314-1.845,0.051l0.343-2.104h-0.024
		l-0.783,1.924c-1.137-0.463-1.906-0.773-2.687-1.045c-0.338-0.113-0.7-0.213-1.067-0.314l-0.474-0.133
		c-0.009-0.006-0.429-0.137-0.435-0.137c-0.77-0.223-1.531-0.465-2.311-0.652c-0.61-0.148-1.334-0.6-1.622-1.16
		c-0.287-0.564-0.524-1.268-0.287-1.844c0.108-0.279,0.173-0.494,0.176-0.686l0.521-10.201c0.032-0.668-0.221-1.063-0.317-1.127
		l-12.492-0.605c0.048,0.037-0.251,0.41-0.29,1.088l-0.507,10.158c-0.01,0.213,0.024,0.434,0.094,0.645
		c0.21,0.607,0.133,1.277-0.2,1.816c-0.338,0.557-0.895,0.926-1.539,1.02l-1.149,0.133c-0.563,0.076-1.121,0.197-1.686,0.322
		l-1.209,0.234c-0.503,0.088-1.004,0.186-1.502,0.301c-0.575,0.146-1.152,0.328-1.733,0.508l-0.617,0.188
		c-0.603,0.197-1.374,0.127-1.909-0.209c-0.538-0.346-1.007-0.867-1.087-1.506c-0.048-0.326-0.096-0.51-0.187-0.682l-4.659-9.111
		c-0.298-0.598-0.708-0.814-0.831-0.82l-11.124,5.73c0.062,0-0.014,0.463,0.293,1.053l4.644,9.07
		c0.102,0.209,0.229,0.377,0.429,0.547c0.472,0.439,0.727,1.061,0.695,1.711c-0.029,0.641-0.35,1.242-0.863,1.621
		c-1.089,0.814-2.156,1.678-3.185,2.607c-1.041,0.926-1.999,1.922-2.926,2.914c-0.435,0.473-1.113,0.76-1.683,0.693
		c-0.64-0.025-1.23-0.338-1.619-0.848c-0.187-0.227-0.336-0.377-0.495-0.477l-8.419-5.453c-0.475-0.309-0.817-0.426-1.105-0.426
		l-6.949,10.533l0,0c0.048,0,0.221,0.434,0.772,0.793l8.552,5.518c0.182,0.123,0.381,0.213,0.629,0.246
		c0.634,0.135,1.179,0.545,1.478,1.117c0.304,0.58,0.327,1.258,0.077,1.854c-1.092,2.586-1.952,5.225-2.543,7.855
		c-0.141,0.623-0.557,1.148-1.118,1.447c-0.575,0.295-1.238,0.32-1.826,0.066c-0.277-0.111-0.485-0.17-0.672-0.17l-10.205-0.525
		c-0.003,0-0.008,0-0.019,0c-0.711,0-1.052,0.23-1.113,0.314l-0.604,12.486c0.074-0.105,0.421,0.252,1.081,0.289l5.857,0.291
		c0.069,0.014,0.142,0.014,0.222,0.033l4.09,0.201c0.188-0.113,0.46-0.045,0.691-0.113c0.61-0.188,1.273-0.098,1.813,0.246
		c0.543,0.348,0.893,0.908,0.98,1.547c0.335,2.727,0.929,5.445,1.743,8.072c0.192,0.613,0.099,1.295-0.258,1.832
		c-0.354,0.547-0.938,0.895-1.579,0.969c-0.264,0.021-0.469,0.08-0.657,0.176l-9.085,4.654c-0.591,0.299-0.802,0.703-0.814,0.811
		l5.725,11.141c0.484-0.066,0.777-0.139,1.06-0.285l9.079-4.646c0.179-0.09,0.362-0.234,0.557-0.441
		c0.439-0.475,1.073-0.762,1.701-0.693c0.634,0.035,1.225,0.35,1.608,0.852c0.82,1.092,1.664,2.174,2.606,3.193
		c0.293,0.344,0.564,0.6,0.831,0.871l-0.008,0.01l0.218,0.197l-0.011,0.012l0.967,0.953c0.059,0.041,0.109,0.09,0.162,0.135
		l0.176,0.178c0.256,0.168,0.467,0.387,0.634,0.635c0.437,0.439,0.674,1.043,0.634,1.656c-0.026,0.645-0.344,1.24-0.857,1.613
		c-0.221,0.176-0.362,0.309-0.458,0.475l-5.562,8.576c-0.362,0.561-0.347,1.029-0.296,1.131l10.522,6.764
		c-0.021-0.037,0.416-0.221,0.777-0.783l5.538-8.541c0.104-0.16,0.187-0.389,0.251-0.666c0.139-0.617,0.54-1.137,1.103-1.434
		C454.502,331.101,454.851,331.019,455.194,331.019z M474.293,324.55c-10.285,0-20.132-4.371-27.018-12.014
		c-13.459-14.891-12.282-37.957,2.609-51.414c6.705-6.055,15.372-9.389,24.4-9.389c10.283,0,20.134,4.371,27.018,11.992
		c6.523,7.225,9.844,16.545,9.346,26.264c-0.489,9.703-4.734,18.633-11.955,25.156C491.992,321.207,483.322,324.55,474.293,324.55z
		 M474.285,256.058c-7.953,0-15.587,2.934-21.495,8.281c-13.129,11.85-14.159,32.174-2.303,45.303
		c6.065,6.719,14.742,10.58,23.806,10.58c7.956,0,15.587-2.945,21.5-8.289c6.362-5.744,10.102-13.609,10.537-22.166
		c0.434-8.553-2.49-16.775-8.241-23.141C492.026,259.906,483.349,256.058,474.285,256.058z"/>
</g>
</svg>
