<?xml version="1.0" encoding="utf-8"?>
<!-- Generator: Adobe Illustrator 16.0.0, SVG Export Plug-In . SVG Version: 6.00 Build 0)  -->
<!DOCTYPE svg PUBLIC "-//W3C//DTD SVG 1.1//EN" "http://www.w3.org/Graphics/SVG/1.1/DTD/svg11.dtd">
<svg version="1.1" id="Layer_1" xmlns="http://www.w3.org/2000/svg" xmlns:xlink="http://www.w3.org/1999/xlink" x="0px" y="0px"
	 width="412.338px" height="197.954px" viewBox="0 0 412.338 197.954" enable-background="new 0 0 412.338 197.954"
	 xml:space="preserve">
<g>
	<path fill="#FFFFFF" d="M58.699,70.605c-7.287-2.235-11.096-10.919-8.49-19.378c2.592-8.467,10.611-13.51,17.891-11.273
		c7.294,2.244,11.096,10.919,8.505,19.37C74.006,67.799,65.986,72.842,58.699,70.605z"/>
	<path fill="#FFFFFF" d="M71.161,33.354c-7.649-3.594-10.464-13.703-6.285-22.562c4.172-8.854,13.765-13.117,21.406-9.509
		c7.635,3.608,10.456,13.702,6.277,22.563C88.388,32.706,78.803,36.97,71.161,33.354z"/>
	<path fill="#FFFFFF" d="M70.69,93.392c-0.123-8.328-5.729-14.881-12.508-14.62c-6.777,0.255-12.168,7.21-12.044,15.554
		c0.139,8.336,5.736,14.883,12.522,14.636C65.432,108.698,70.821,101.735,70.69,93.392z"/>
	<path fill="#FFFFFF" d="M28.434,42.021c-3.178,7.233-10.703,10.942-16.795,8.267c-6.107-2.669-8.49-10.695-5.32-17.937
		c3.168-7.24,10.688-10.957,16.795-8.281C29.213,26.745,31.596,34.78,28.434,42.021z"/>
	<path fill="#FFFFFF" d="M21.91,71.731c-0.401,7.565-5.629,13.448-11.659,13.117C4.205,84.532-0.383,78.14,0.025,70.575
		c0.4-7.588,5.629-13.456,11.675-13.132C17.746,57.759,22.318,64.159,21.91,71.731z"/>
	<path fill="#FFFFFF" d="M24.57,100.208c1.904,6.855-0.602,13.533-5.598,14.906c-4.99,1.396-10.58-3.046-12.484-9.9
		C4.591,98.358,7.097,91.681,12.094,90.3C17.083,88.912,22.674,93.354,24.57,100.208z"/>
	<path fill="#FFFFFF" d="M32.906,126.534c3.284,5.49,3.092,11.659-0.455,13.78c-3.531,2.12-9.061-0.625-12.346-6.116
		c-3.293-5.505-3.092-11.674,0.447-13.787C24.092,118.299,29.621,121.044,32.906,126.534z"/>
	<path fill="#FFFFFF" d="M45.953,148.071c3.74,4.049,4.996,8.968,2.807,10.98c-2.182,2.021-6.986,0.371-10.719-3.678
		c-3.732-4.041-4.98-8.952-2.799-10.965C37.424,142.389,42.221,144.03,45.953,148.071z"/>
	<path fill="#FFFFFF" d="M60.389,164.372c3.863,2.554,6.021,6.1,4.827,7.92c-1.203,1.82-5.313,1.234-9.185-1.311
		c-3.863-2.545-6.022-6.092-4.818-7.92C52.415,161.242,56.518,161.835,60.389,164.372z"/>
	<path fill="#FFFFFF" d="M76.242,174.736c3.493,1.874,5.606,4.743,4.719,6.386c-0.879,1.65-4.434,1.457-7.927-0.418
		c-3.501-1.873-5.613-4.741-4.719-6.384C69.194,172.678,72.749,172.863,76.242,174.736z"/>
	<path fill="#FFFFFF" d="M74.346,126.411c-1.912-7.188-8.298-11.721-14.25-10.141c-5.953,1.589-9.215,8.707-7.295,15.893
		c1.92,7.188,8.297,11.729,14.25,10.148C73.004,140.715,76.266,133.599,74.346,126.411z"/>
	<path fill="#FFFFFF" d="M82.411,152.013c-3.794-5.052-9.854-6.918-13.525-4.157c-3.678,2.753-3.585,9.083,0.201,14.135
		c3.793,5.059,9.839,6.925,13.518,4.171C86.282,163.409,86.189,157.071,82.411,152.013z"/>
	<path fill="#FFFFFF" d="M98.319,169.354c-4.634-3.362-10.217-3.586-12.453-0.494c-2.237,3.085-0.294,8.313,4.349,11.684
		c4.642,3.354,10.21,3.585,12.454,0.5C104.912,177.944,102.962,172.724,98.319,169.354z"/>
	<path fill="#FFFFFF" d="M117.42,179.888c-4.904-1.488-9.585-0.371-10.472,2.506c-0.879,2.892,2.382,6.446,7.279,7.942
		c4.903,1.488,9.593,0.362,10.472-2.514C125.578,184.938,122.315,181.384,117.42,179.888z"/>
	<g>
		<polygon fill="#FFFFFF" points="412.338,74.376 333.037,74.376 333.037,92.983 363.381,92.983 363.381,144.632 381.988,144.632 
			381.988,92.983 412.338,92.983 		"/>
		<path fill="#FFFFFF" d="M204.34,144.471c9.5,0,14.635-7.503,14.635-14.929v-5.999h0.016V74.376h-18.614v49.244l-38.432-38.44
			c-9.909-9.053-15.076-10.966-20.713-10.966c-9.508,0-14.644,7.504-14.644,14.915v4.07h-0.016v51.649h18.607V94.741l41.416,41.416
			C194.5,142.96,198.74,144.471,204.34,144.471z"/>
		<path fill="#FFFFFF" d="M254.508,125.995c-2.267-0.093-4.087-1.943-4.087-4.234c0-2.29,1.82-4.141,4.087-4.225v-0.016h66.709
			v-16.031h-66.709v-0.039c-2.267-0.077-4.087-1.928-4.087-4.219c0-2.297,1.82-4.148,4.087-4.232v-0.016h66.709V74.376h-74.035
			c-8.497,0.533-16.339,6.756-16.339,16.625v36.791c0,10.332,8.552,16.84,17.481,16.84h72.893v-18.613h-66.709V125.995z"/>
		<rect x="96.114" y="74.376" fill="#FFFFFF" width="18.621" height="70.465"/>
	</g>
	<g>
		<path fill="#FFFFFF" d="M161.396,192.874h-2.506l-1.743-5.09h-7.719l-1.734,5.09h-2.407l6.479-18.314h3.152L161.396,192.874z
			 M156.423,185.687l-3.132-9.021l-3.146,9.021H156.423z"/>
		<path fill="#FFFFFF" d="M165.769,192.874h-2.236v-19.161h2.236V192.874z"/>
		<path fill="#FFFFFF" d="M186.674,179.124l-3.479,13.75h-2.082l-3.432-10.604l-3.408,10.604h-2.066l-3.517-13.75h2.336
			l2.461,10.649l3.339-10.649h1.851l3.416,10.649l2.313-10.649H186.674z"/>
		<path fill="#FFFFFF" d="M199.636,192.874h-2.221v-1.457c-0.2,0.137-0.471,0.33-0.803,0.585c-0.34,0.247-0.671,0.446-0.986,0.602
			c-0.371,0.185-0.802,0.347-1.279,0.47c-0.487,0.131-1.05,0.186-1.697,0.186c-1.203,0-2.221-0.408-3.054-1.227
			c-0.825-0.824-1.241-1.873-1.241-3.146c0-1.041,0.216-1.889,0.647-2.528c0.424-0.647,1.049-1.157,1.842-1.526
			c0.818-0.371,1.783-0.617,2.916-0.757c1.133-0.123,2.352-0.224,3.655-0.293v-0.354c0-0.531-0.093-0.964-0.271-1.303
			c-0.177-0.347-0.439-0.617-0.771-0.818c-0.316-0.184-0.693-0.315-1.134-0.377c-0.447-0.069-0.91-0.101-1.388-0.101
			c-0.587,0-1.249,0.085-1.968,0.247c-0.716,0.162-1.464,0.4-2.228,0.709h-0.125v-2.359c0.433-0.123,1.065-0.253,1.891-0.408
			c0.824-0.146,1.642-0.225,2.436-0.225c0.934,0,1.751,0.087,2.445,0.239c0.693,0.162,1.295,0.439,1.804,0.817
			c0.494,0.379,0.88,0.871,1.142,1.466c0.262,0.601,0.386,1.341,0.386,2.229V192.874z M197.415,189.504v-3.849
			c-0.688,0.039-1.481,0.101-2.407,0.186c-0.916,0.084-1.649,0.201-2.181,0.354c-0.641,0.192-1.157,0.485-1.551,0.888
			c-0.4,0.4-0.594,0.955-0.594,1.656c0,0.795,0.231,1.396,0.687,1.797c0.463,0.394,1.156,0.595,2.098,0.595
			c0.787,0,1.495-0.155,2.144-0.479C196.258,190.336,196.859,189.958,197.415,189.504z"/>
		<path fill="#FFFFFF" d="M214.95,179.124l-7.804,18.83h-2.384l2.477-5.736l-5.321-13.094h2.444l4.095,10.188l4.141-10.188H214.95z"
			/>
		<path fill="#FFFFFF" d="M227.01,188.886c0,1.25-0.501,2.275-1.511,3.077c-1.003,0.802-2.375,1.204-4.118,1.204
			c-0.979,0-1.881-0.124-2.707-0.363c-0.824-0.239-1.511-0.502-2.065-0.787v-2.591h0.115c0.709,0.556,1.48,0.987,2.352,1.319
			c0.856,0.323,1.688,0.485,2.475,0.485c0.972,0,1.743-0.162,2.299-0.493c0.555-0.332,0.833-0.848,0.833-1.559
			c0-0.539-0.155-0.947-0.448-1.225c-0.309-0.284-0.879-0.518-1.735-0.718c-0.315-0.069-0.731-0.162-1.241-0.255
			c-0.509-0.1-0.971-0.208-1.388-0.316c-1.156-0.323-1.981-0.786-2.467-1.409c-0.486-0.618-0.726-1.374-0.726-2.276
			c0-0.563,0.108-1.095,0.34-1.596c0.224-0.501,0.569-0.949,1.024-1.334c0.44-0.387,1.011-0.687,1.697-0.918
			c0.687-0.224,1.458-0.34,2.305-0.34c0.787,0,1.598,0.102,2.407,0.301c0.817,0.209,1.496,0.447,2.035,0.732v2.484h-0.123
			c-0.57-0.448-1.257-0.818-2.066-1.127c-0.817-0.3-1.612-0.446-2.391-0.446c-0.817,0-1.496,0.161-2.059,0.485
			c-0.564,0.325-0.841,0.803-0.841,1.45c0,0.563,0.169,0.995,0.509,1.279c0.332,0.285,0.864,0.517,1.612,0.702
			c0.408,0.092,0.87,0.192,1.38,0.293c0.508,0.092,0.925,0.185,1.265,0.27c1.032,0.247,1.835,0.663,2.39,1.266
			C226.732,187.083,227.01,187.884,227.01,188.886z"/>
		<path fill="#FFFFFF" d="M249.835,185.896c0,1.148-0.154,2.182-0.479,3.106c-0.308,0.918-0.732,1.689-1.265,2.313
			c-0.57,0.647-1.188,1.143-1.873,1.465c-0.679,0.324-1.427,0.479-2.236,0.479c-0.756,0-1.427-0.085-1.99-0.271
			c-0.563-0.185-1.118-0.431-1.673-0.747l-0.139,0.633h-2.099v-19.161h2.237v6.838c0.633-0.532,1.304-0.972,2.013-1.312
			c0.709-0.338,1.503-0.508,2.398-0.508c1.572,0,2.822,0.625,3.732,1.873C249.38,181.854,249.835,183.612,249.835,185.896z
			 M247.506,185.956c0-1.65-0.262-2.899-0.786-3.748c-0.532-0.855-1.373-1.279-2.545-1.279c-0.663,0-1.326,0.146-1.989,0.439
			c-0.664,0.293-1.296,0.67-1.866,1.134v7.903c0.64,0.301,1.188,0.51,1.65,0.617c0.454,0.123,0.972,0.17,1.558,0.17
			c1.241,0,2.213-0.417,2.915-1.258C247.151,189.088,247.506,187.761,247.506,185.956z"/>
		<path fill="#FFFFFF" d="M264.439,179.124l-7.796,18.83h-2.383l2.468-5.736l-5.313-13.094h2.444l4.088,10.188l4.148-10.188H264.439
			z"/>
		<path fill="#FFFFFF" d="M286.771,179.124l-7.796,18.83h-2.39l2.475-5.736l-5.321-13.094h2.445l4.094,10.188l4.149-10.188H286.771z
			"/>
		<path fill="#FFFFFF" d="M300.451,186.004c0,2.243-0.557,4.017-1.667,5.312c-1.109,1.303-2.599,1.943-4.457,1.943
			c-1.889,0-3.376-0.641-4.486-1.943c-1.104-1.295-1.659-3.068-1.659-5.312c0-2.245,0.556-4.019,1.659-5.322
			c1.11-1.303,2.598-1.95,4.486-1.95c1.858,0,3.348,0.647,4.457,1.95C299.895,181.985,300.451,183.759,300.451,186.004z
			 M298.122,186.004c0-1.774-0.333-3.084-1.003-3.95c-0.679-0.863-1.604-1.287-2.792-1.287c-1.21,0-2.144,0.424-2.813,1.287
			c-0.671,0.866-0.994,2.176-0.994,3.95c0,1.71,0.323,3.015,1.002,3.9c0.671,0.888,1.604,1.326,2.806,1.326
			c1.181,0,2.105-0.438,2.784-1.311C297.783,189.04,298.122,187.729,298.122,186.004z"/>
		<path fill="#FFFFFF" d="M314.623,192.874h-2.221v-1.52c-0.764,0.616-1.488,1.094-2.182,1.419
			c-0.702,0.323-1.458,0.485-2.298,0.485c-1.411,0-2.499-0.439-3.278-1.318c-0.786-0.879-1.172-2.176-1.172-3.887v-8.93h2.222v7.836
			c0,0.701,0.038,1.294,0.107,1.796c0.062,0.501,0.193,0.925,0.401,1.271c0.216,0.362,0.5,0.632,0.848,0.787
			c0.34,0.169,0.833,0.254,1.496,0.254c0.578,0,1.219-0.153,1.912-0.47c0.695-0.309,1.342-0.709,1.943-1.195v-10.279h2.221V192.874z
			"/>
		<path fill="#FFFFFF" d="M327.008,181.646h-0.124c-0.34-0.077-0.662-0.139-0.972-0.17c-0.322-0.037-0.693-0.061-1.125-0.061
			c-0.694,0-1.366,0.161-2.021,0.477c-0.639,0.316-1.265,0.726-1.865,1.227v9.756h-2.229v-13.75h2.229v2.028
			c0.894-0.741,1.681-1.265,2.375-1.564c0.679-0.317,1.372-0.464,2.082-0.464c0.394,0,0.679,0.008,0.855,0.031
			c0.178,0.017,0.439,0.055,0.795,0.115V181.646z"/>
		<path fill="#FFFFFF" d="M346.478,188.886c0,1.25-0.501,2.275-1.503,3.077c-1.003,0.802-2.375,1.204-4.117,1.204
			c-0.988,0-1.897-0.124-2.715-0.363s-1.512-0.502-2.066-0.787v-2.591h0.123c0.694,0.556,1.48,0.987,2.344,1.319
			c0.864,0.323,1.682,0.485,2.482,0.485c0.972,0,1.743-0.162,2.291-0.493c0.556-0.332,0.832-0.848,0.832-1.559
			c0-0.539-0.153-0.947-0.455-1.225c-0.293-0.284-0.87-0.518-1.726-0.718c-0.316-0.069-0.726-0.162-1.235-0.255
			c-0.508-0.1-0.971-0.208-1.395-0.316c-1.157-0.323-1.982-0.786-2.46-1.409c-0.493-0.618-0.741-1.374-0.741-2.276
			c0-0.563,0.124-1.095,0.34-1.596c0.231-0.501,0.57-0.949,1.034-1.334c0.446-0.387,1.01-0.687,1.696-0.918
			c0.686-0.224,1.456-0.34,2.297-0.34c0.803,0,1.604,0.102,2.422,0.301c0.809,0.209,1.487,0.447,2.028,0.732v2.484h-0.116
			c-0.57-0.448-1.265-0.818-2.074-1.127c-0.81-0.3-1.611-0.446-2.391-0.446c-0.809,0-1.504,0.161-2.059,0.485
			c-0.563,0.325-0.841,0.803-0.841,1.45c0,0.563,0.162,0.995,0.502,1.279c0.339,0.285,0.871,0.517,1.618,0.702
			c0.409,0.092,0.864,0.192,1.374,0.293c0.508,0.092,0.939,0.185,1.279,0.27c1.033,0.247,1.835,0.663,2.391,1.266
			C346.193,187.083,346.478,187.884,346.478,188.886z"/>
		<path fill="#FFFFFF" d="M351.698,176.826H349.2v-2.398h2.498V176.826z M351.561,192.874h-2.237v-13.75h2.237V192.874z"/>
		<path fill="#FFFFFF" d="M366.504,192.874h-2.236v-1.436c-0.647,0.578-1.319,1.025-2.021,1.342
			c-0.709,0.324-1.465,0.479-2.282,0.479c-1.604,0-2.868-0.625-3.81-1.889c-0.933-1.266-1.403-3.023-1.403-5.268
			c0-1.172,0.162-2.205,0.485-3.115c0.325-0.917,0.764-1.695,1.304-2.336c0.556-0.625,1.188-1.103,1.904-1.428
			c0.718-0.33,1.473-0.492,2.244-0.492c0.701,0,1.326,0.076,1.867,0.231c0.539,0.146,1.109,0.385,1.711,0.7v-5.95h2.236V192.874z
			 M364.268,189.504v-7.905c-0.609-0.277-1.148-0.468-1.619-0.578c-0.478-0.099-1.002-0.161-1.573-0.161
			c-1.257,0-2.236,0.455-2.946,1.356c-0.693,0.91-1.048,2.184-1.048,3.849c0,1.634,0.276,2.876,0.817,3.724
			c0.54,0.857,1.403,1.28,2.605,1.28c0.633,0,1.281-0.146,1.937-0.439S363.696,189.958,364.268,189.504z"/>
		<path fill="#FFFFFF" d="M381.725,186.211h-9.777c0,0.84,0.124,1.581,0.37,2.206c0.247,0.623,0.579,1.133,1.003,1.541
			c0.417,0.386,0.902,0.688,1.465,0.88c0.571,0.2,1.195,0.293,1.874,0.293c0.901,0,1.812-0.186,2.722-0.548
			c0.926-0.37,1.573-0.732,1.959-1.088h0.124v2.521c-0.757,0.324-1.527,0.594-2.321,0.818c-0.787,0.223-1.611,0.332-2.483,0.332
			c-2.213,0-3.94-0.618-5.183-1.852c-1.241-1.234-1.857-2.984-1.857-5.26c0-2.242,0.594-4.031,1.781-5.343
			c1.188-1.327,2.761-1.981,4.695-1.981c1.806,0,3.193,0.539,4.164,1.619c0.972,1.079,1.465,2.614,1.465,4.604V186.211z
			 M379.521,184.444c0-1.226-0.293-2.174-0.879-2.837c-0.579-0.671-1.458-1.011-2.653-1.011c-1.188,0-2.137,0.37-2.838,1.103
			c-0.709,0.733-1.109,1.651-1.203,2.745H379.521z"/>
	</g>
</g>
</svg>
