<?xml version="1.0" encoding="utf-8"?>
<!-- Generator: Adobe Illustrator 16.0.0, SVG Export Plug-In . SVG Version: 6.00 Build 0)  -->
<!DOCTYPE svg PUBLIC "-//W3C//DTD SVG 1.1//EN" "http://www.w3.org/Graphics/SVG/1.1/DTD/svg11.dtd">
<svg version="1.1" id="Layer_1" xmlns="http://www.w3.org/2000/svg" xmlns:xlink="http://www.w3.org/1999/xlink" x="0px" y="0px"
	 width="196.099px" height="122.566px" viewBox="0 0 196.099 122.566" enable-background="new 0 0 196.099 122.566"
	 xml:space="preserve">
<g>
	<g>
		<linearGradient id="SVGID_1_" gradientUnits="userSpaceOnUse" x1="65.4697" y1="110.4951" x2="81.1714" y2="110.4951">
			<stop  offset="0" style="stop-color:#263678"/>
			<stop  offset="0.1965" style="stop-color:#254080"/>
			<stop  offset="0.5822" style="stop-color:#245898"/>
			<stop  offset="0.9677" style="stop-color:#1C75BC"/>
		</linearGradient>
		<path fill="url(#SVGID_1_)" d="M81.166,115.699c-0.061,1.115-0.268,2.105-0.637,2.971c-0.368,0.869-0.939,1.605-1.714,2.199
			c-0.789,0.609-1.772,1.076-2.958,1.395c-1.192,0.324-2.639,0.488-4.345,0.488c-0.676,0-1.2-0.007-1.56-0.023
			c-0.373-0.017-0.723-0.037-1.04-0.068c-0.329-0.057-0.719-0.107-1.19-0.154c-0.468-0.043-1.222-0.098-2.252-0.153V98.598
			c1.03-0.094,1.835-0.155,2.425-0.205c0.593-0.044,1.062-0.077,1.412-0.115c0.356-0.023,0.656-0.037,0.906-0.037
			c0.251,0,0.554,0,0.897,0c2.477-0.035,4.47,0.451,5.999,1.45c1.528,0.999,2.295,2.578,2.295,4.724
			c0,0.994-0.247,1.975-0.728,2.932c-0.484,0.954-1.239,1.709-2.267,2.264c0.699,0.152,1.353,0.422,1.954,0.82
			c0.607,0.398,1.118,0.864,1.546,1.407c0.43,0.548,0.75,1.147,0.966,1.81C81.097,114.31,81.196,114.994,81.166,115.699z
			 M75.657,104.723c0-0.506-0.1-0.982-0.286-1.436c-0.195-0.454-0.545-0.847-1.062-1.166c-0.51-0.322-1.199-0.555-2.048-0.685
			c-0.848-0.132-1.936-0.124-3.26,0.024c0.03,0.145,0.055,0.258,0.064,0.356c0.016,0.075,0.022,0.153,0.022,0.212v5.641
			c0,0.152,0,0.275,0,0.376c0,0.106-0.027,0.23-0.086,0.374c0.146-0.023,0.272-0.047,0.372-0.068
			c0.104-0.01,0.217-0.014,0.334-0.014h2.555c0.325,0,0.685-0.078,1.079-0.227c0.399-0.147,0.762-0.375,1.104-0.684
			c0.338-0.301,0.628-0.682,0.862-1.121C75.544,105.862,75.657,105.334,75.657,104.723z M77.293,115.473
			c0-0.496-0.12-0.992-0.359-1.471c-0.229-0.489-0.589-0.912-1.057-1.281c-0.472-0.367-1.058-0.672-1.762-0.904
			c-0.711-0.235-1.53-0.355-2.47-0.355h-1.94c-0.356,0-0.572-0.01-0.662-0.04c0,0.115,0.012,0.219,0.021,0.308
			c0.016,0.088,0.022,0.203,0.022,0.355v6.529c0,0.141-0.006,0.261-0.022,0.346c-0.009,0.086-0.035,0.207-0.064,0.352
			c0.35,0.033,0.709,0.05,1.082,0.068c0.359,0.015,0.694,0.038,0.997,0.062c0.138,0.035,0.303,0.047,0.481,0.047
			c0.172,0,0.345,0,0.523,0c1.616,0.06,2.894-0.266,3.816-0.971C76.826,117.809,77.293,116.797,77.293,115.473z"/>
		<linearGradient id="SVGID_2_" gradientUnits="userSpaceOnUse" x1="83.8516" y1="113.1699" x2="100.6055" y2="113.1699">
			<stop  offset="0" style="stop-color:#1C75BC"/>
			<stop  offset="0.0665" style="stop-color:#1C75BC"/>
			<stop  offset="0.9677" style="stop-color:#1C75BC"/>
		</linearGradient>
		<path fill="url(#SVGID_2_)" d="M100.124,122.531c-0.267,0.174-0.609,0.301-1.039,0.371c-0.424,0.075-0.858,0.043-1.292-0.09
			c-0.45-0.131-0.866-0.368-1.265-0.723c-0.398-0.354-0.696-0.865-0.9-1.543c-1.126,1.056-2.362,1.754-3.705,2.092
			c-1.354,0.339-2.632,0.362-3.837,0.066c-1.213-0.297-2.217-0.867-3.019-1.719c-0.814-0.855-1.217-1.957-1.217-3.311
			c0-1.316,0.294-2.436,0.883-3.346c0.589-0.914,1.408-1.645,2.448-2.206c1.048-0.558,2.261-0.954,3.66-1.194
			c1.398-0.23,2.885-0.348,4.474-0.348c-0.061-0.117-0.103-0.279-0.128-0.486c-0.026-0.205-0.053-0.397-0.053-0.595
			c0-0.188,0-0.369,0-0.526c0-0.165,0-0.259,0-0.291c0-0.467-0.238-0.9-0.722-1.296c-0.482-0.404-1.162-0.675-2.029-0.839
			c-0.866-0.16-1.9-0.155-3.105,0.021c-1.213,0.176-2.512,0.605-3.919,1.278l-0.798-2.6c0.849-0.47,1.789-0.862,2.825-1.173
			c1.026-0.306,2.057-0.512,3.101-0.606c1.044-0.108,2.053-0.097,3.023,0.035c0.97,0.132,1.833,0.416,2.599,0.842
			c0.766,0.428,1.377,0.987,1.832,1.69c0.459,0.709,0.68,1.6,0.68,2.697v9.961c0,1.117,0.663,1.674,1.984,1.674L100.124,122.531z
			 M95.356,112.654c-2.756,0.266-4.774,0.771-6.034,1.517c-1.265,0.757-1.893,1.788-1.893,3.107c0,0.71,0.216,1.273,0.658,1.702
			c0.446,0.43,1.031,0.705,1.763,0.844c0.731,0.127,1.572,0.094,2.491-0.095c0.926-0.19,1.857-0.536,2.793-1.034v-5.111
			C95.134,113.407,95.213,113.1,95.356,112.654z"/>
		<linearGradient id="SVGID_3_" gradientUnits="userSpaceOnUse" x1="102.3726" y1="113.1699" x2="119.1221" y2="113.1699">
			<stop  offset="0" style="stop-color:#1C75BC"/>
			<stop  offset="0.2275" style="stop-color:#1E7EC2"/>
			<stop  offset="0.6701" style="stop-color:#2296D4"/>
			<stop  offset="0.9677" style="stop-color:#27AAE1"/>
		</linearGradient>
		<path fill="url(#SVGID_3_)" d="M118.641,122.531c-0.269,0.174-0.615,0.301-1.039,0.371c-0.425,0.075-0.863,0.043-1.3-0.09
			c-0.442-0.131-0.858-0.368-1.256-0.723c-0.398-0.354-0.701-0.865-0.911-1.543c-1.112,1.056-2.346,1.754-3.696,2.092
			c-1.353,0.339-2.627,0.362-3.839,0.066c-1.195-0.297-2.209-0.867-3.014-1.719c-0.811-0.855-1.213-1.957-1.213-3.311
			c0-1.316,0.294-2.436,0.884-3.346c0.584-0.914,1.398-1.645,2.446-2.206c1.04-0.558,2.262-0.954,3.656-1.194
			c1.39-0.23,2.889-0.348,4.474-0.348c-0.065-0.117-0.099-0.279-0.13-0.486c-0.034-0.205-0.047-0.397-0.047-0.595
			c0-0.188,0-0.369,0-0.526c0-0.165,0-0.259,0-0.291c0-0.467-0.237-0.9-0.723-1.296c-0.489-0.404-1.166-0.675-2.036-0.839
			c-0.866-0.16-1.896-0.155-3.106,0.021c-1.204,0.176-2.507,0.605-3.923,1.278l-0.789-2.6c0.849-0.47,1.789-0.862,2.819-1.173
			c1.026-0.306,2.067-0.512,3.105-0.606c1.049-0.108,2.054-0.097,3.028,0.035c0.965,0.132,1.828,0.416,2.6,0.842
			c0.757,0.428,1.373,0.987,1.823,1.69c0.455,0.709,0.684,1.6,0.684,2.697v9.961c0,1.117,0.663,1.674,1.984,1.674L118.641,122.531z
			 M113.876,112.654c-2.763,0.266-4.777,0.771-6.037,1.517c-1.262,0.757-1.898,1.788-1.898,3.107c0,0.71,0.222,1.273,0.659,1.702
			c0.446,0.43,1.026,0.705,1.768,0.844c0.731,0.127,1.563,0.094,2.494-0.095c0.922-0.19,1.854-0.536,2.793-1.034v-5.111
			C113.655,113.407,113.733,113.1,113.876,112.654z"/>
		<linearGradient id="SVGID_4_" gradientUnits="userSpaceOnUse" x1="120.7593" y1="110.5508" x2="137.5" y2="110.5508">
			<stop  offset="0" style="stop-color:#1C75BC"/>
			<stop  offset="0.0556" style="stop-color:#2585C7"/>
			<stop  offset="0.123" style="stop-color:#2D96D3"/>
			<stop  offset="0.2003" style="stop-color:#34A4DC"/>
			<stop  offset="0.2907" style="stop-color:#3AAFE4"/>
			<stop  offset="0.4025" style="stop-color:#3FB7E9"/>
			<stop  offset="0.5593" style="stop-color:#41BBEC"/>
			<stop  offset="0.9946" style="stop-color:#42BDED"/>
		</linearGradient>
		<path fill="url(#SVGID_4_)" d="M137.5,115.431c0,1.709-0.471,3.183-1.426,4.409c-0.957,1.236-2.226,2.113-3.784,2.645
			c-1.581,0.533-3.366,0.648-5.367,0.354c-2.002-0.294-4.054-1.116-6.164-2.47l1.226-3.66c1.859,1.268,3.503,2.033,4.958,2.315
			c1.46,0.28,2.695,0.261,3.708-0.044c1.014-0.311,1.777-0.8,2.292-1.475c0.511-0.68,0.754-1.35,0.732-2.033
			c-0.035-0.521-0.164-0.978-0.398-1.342c-0.235-0.369-0.53-0.677-0.883-0.928c-0.347-0.245-0.745-0.454-1.165-0.613
			c-0.43-0.163-0.854-0.32-1.256-0.466c-0.955-0.292-1.902-0.595-2.89-0.903c-0.992-0.31-1.888-0.721-2.694-1.236
			c-0.805-0.512-1.464-1.175-1.983-1.98c-0.508-0.807-0.771-1.857-0.771-3.156c0-1.587,0.458-2.93,1.363-4.031
			c0.914-1.103,2.101-1.873,3.553-2.313c1.454-0.439,3.104-0.516,4.938-0.227c1.834,0.301,3.685,1.063,5.53,2.297l-1.499,3.312
			c-1.321-0.911-2.599-1.54-3.833-1.88c-1.234-0.334-2.312-0.431-3.239-0.287c-0.931,0.15-1.655,0.515-2.209,1.104
			c-0.542,0.585-0.78,1.356-0.723,2.296c0.031,0.438,0.173,0.814,0.442,1.127c0.263,0.303,0.584,0.566,0.944,0.787
			c0.373,0.221,0.762,0.406,1.19,0.555c0.434,0.143,0.819,0.275,1.17,0.39c0.971,0.299,1.945,0.606,2.927,0.929
			c0.991,0.324,1.867,0.752,2.652,1.276c0.779,0.53,1.419,1.21,1.914,2.032C137.257,113.041,137.5,114.107,137.5,115.431z"/>
		<linearGradient id="SVGID_5_" gradientUnits="userSpaceOnUse" x1="0" y1="61.2832" x2="196.0991" y2="61.2832">
			<stop  offset="0" style="stop-color:#1C75BC"/>
			<stop  offset="0.9946" style="stop-color:#42BDED"/>
		</linearGradient>
		<path fill="url(#SVGID_5_)" d="M156.805,122.553c20.055-0.381,39.294-16.732,39.294-36.758c0-16.945-11.456-31.21-27.045-35.477
			c-5.67-15.076-20.237-25.807-37.298-25.807c-3.929,0-7.718,0.574-11.309,1.639C110.728,10.443,93.351,0,73.534,0
			C43.488,0,19.032,24.052,18.4,53.953C7.394,60.311,0,72.205,0,85.795c0,20.295,16.464,36.771,36.765,36.771h18.396l0.082-12.205
			l-18.5-0.055c-13.497,0-24.485-10.979-24.485-24.512c0-11.602,8.069-21.334,18.916-23.877c-0.356-2.207-0.535-4.461-0.535-6.762
			c0-23.696,19.206-42.896,42.895-42.896c19.378,0,35.764,12.845,41.075,30.484c4.708-3.742,10.65-5.975,17.147-5.975
			c14.198,0,25.894,10.725,27.409,24.514h0.186c13.506,0,24.499,10.975,24.499,24.512c0,13.515-10.932,24.754-24.463,24.754h-3.049
			h-9.114l-6.531,12.018"/>
		<path fill="#676767" d="M109.81,50.57c-0.577-0.724-1.451-1.14-2.37-1.14h-3.058c0-1.694-1.369-3.056-3.045-3.056h-3.054v-3.046
			c0-1.685-1.364-3.051-3.044-3.051H58.651c-1.681,0-3.049,1.366-3.049,3.051v36.588c0,1.683,1.369,3.054,3.049,3.054h6.099h14.466
			V72.084h-3.824c-0.606,0-1.169-0.363-1.399-0.938c-0.238-0.571-0.108-1.225,0.33-1.664L84.99,58.813
			c0.598-0.594,1.56-0.594,2.158,0L97.82,69.486c0.428,0.435,0.567,1.096,0.333,1.659c-0.246,0.575-0.796,0.942-1.411,0.942h-3.812
			v10.883h2.309h6.098c1.426,0,2.669-1,2.967-2.391l6.107-27.443C110.611,52.228,110.395,51.283,109.81,50.57z M95.239,46.375
			h-3.054c-1.68,0-3.044,1.361-3.044,3.056H70.848c-1.434,0-2.668,0.985-2.98,2.388l-6.102,27.429
			c-0.043,0.222-0.069,0.451-0.069,0.67h-3.046V43.329h36.588V46.375z"/>
		<path fill="#676767" d="M144.76,63.126c-0.459-0.581-1.156-0.909-1.894-0.909h-2.421c0-1.338-1.086-2.422-2.434-2.422h-2.414
			v-2.43c0-1.335-1.091-2.421-2.438-2.421h-29.085c-1.338,0-2.426,1.086-2.426,2.421v29.1c0,1.338,1.087,2.431,2.426,2.431h4.847
			h24.238h4.852c1.139,0,2.126-0.794,2.374-1.903l4.852-21.824C145.388,64.451,145.215,63.697,144.76,63.126z M133.16,59.795h-2.412
			c-1.27,0-2.283,0.957-2.405,2.184v8.77h3.029c0.488,0,0.939,0.289,1.126,0.745c0.182,0.452,0.078,0.971-0.265,1.323l-8.489,8.482
			c-0.234,0.24-0.546,0.355-0.857,0.355c-0.308,0-0.621-0.115-0.858-0.355l-8.485-8.482c-0.346-0.353-0.442-0.871-0.255-1.323
			c0.185-0.456,0.618-0.749,1.113-0.749h3.032v-8.527h-3.666c-1.139,0-2.122,0.792-2.369,1.903l-4.843,21.821
			c-0.042,0.171-0.056,0.346-0.056,0.523h-2.425v-29.1h29.085V59.795z"/>
	</g>
</g>
</svg>
