<?xml version="1.0" encoding="utf-8"?>
<!-- Generator: Adobe Illustrator 16.0.0, SVG Export Plug-In . SVG Version: 6.00 Build 0)  -->
<!DOCTYPE svg PUBLIC "-//W3C//DTD SVG 1.1//EN" "http://www.w3.org/Graphics/SVG/1.1/DTD/svg11.dtd">
<svg version="1.1" id="Layer_1" xmlns="http://www.w3.org/2000/svg" xmlns:xlink="http://www.w3.org/1999/xlink" x="0px" y="0px"
	 width="180.673px" height="181.04px" viewBox="0 0 180.673 181.04" enable-background="new 0 0 180.673 181.04"
	 xml:space="preserve">
<g>
	<g>
		<path fill="#858585" d="M32.932,127.538l-1.529-0.076l-0.232-0.01l-0.892-0.042c-0.137-0.006-0.256,0.021-0.375,0.046
			c0-0.04-0.006-0.096-0.014-0.144c-0.04-0.308-0.105-0.62-0.171-0.934c-0.014-0.084-0.027-0.174-0.055-0.252
			c-0.052-0.294-0.152-0.578-0.232-0.864c0.126-0.02,0.24-0.044,0.369-0.11l2.368-1.199c0.415-0.22,0.617-0.641,0.462-0.945
			l-1.5-2.934c-0.159-0.31-0.617-0.39-1.028-0.17l-2.375,1.206c-0.12,0.067-0.216,0.142-0.298,0.239
			c-0.08-0.098-0.159-0.199-0.239-0.298c-0.115-0.14-0.225-0.288-0.351-0.429c-0.044-0.043-0.08-0.1-0.12-0.149
			c-0.103-0.112-0.222-0.208-0.315-0.317c0.023,0.027,0.057,0.054,0.083,0.072c-0.072-0.072-0.156-0.143-0.235-0.221
			c-0.069-0.074-0.132-0.144-0.206-0.217c0.024,0.025,0.047,0.057,0.07,0.075c-0.067-0.059-0.125-0.132-0.193-0.185
			c0.094-0.072,0.187-0.169,0.26-0.281l0.397-0.594l0,0l0.146-0.239l0.903-1.391c0.252-0.4,0.221-0.861-0.066-1.057l-2.766-1.784
			c-0.279-0.186-0.731-0.023-0.975,0.364l-1.453,2.231c-0.072,0.12-0.113,0.239-0.139,0.358c-0.043-0.021-0.087-0.036-0.133-0.053
			c-0.25-0.096-0.487-0.202-0.73-0.285c-0.143-0.05-0.292-0.083-0.431-0.127c-0.242-0.071-0.483-0.145-0.736-0.202
			c-0.034-0.017-0.073-0.026-0.113-0.028c0.054-0.113,0.087-0.235,0.09-0.372l0.041-0.707l0,0l0.016-0.407l0,0l0.08-1.532
			c0.023-0.471-0.232-0.859-0.57-0.879l-3.294-0.169c-0.354-0.017-0.646,0.352-0.666,0.819l-0.14,2.646
			c-0.006,0.139,0.02,0.269,0.057,0.375c-0.1,0.013-0.202,0.019-0.306,0.04c-0.202,0.032-0.405,0.072-0.613,0.119
			c-0.198,0.033-0.384,0.066-0.584,0.109c-0.212,0.057-0.425,0.129-0.644,0.192c-0.017,0.013-0.039,0.013-0.056,0.023
			c-0.013-0.127-0.046-0.249-0.109-0.372l-0.322-0.637l0,0l-0.096-0.18l-0.795-1.553c-0.203-0.414-0.624-0.623-0.936-0.47
			l-2.932,1.499c-0.306,0.162-0.385,0.623-0.169,1.037l0.7,1.368l0.04,0.079l0.471,0.919c0.06,0.122,0.143,0.221,0.232,0.302
			c-0.295,0.226-0.59,0.464-0.875,0.716c-0.279,0.254-0.544,0.517-0.79,0.79c-0.079-0.093-0.166-0.184-0.279-0.26l-0.603-0.388
			l-0.342-0.218l0,0l-1.244-0.814l0,0l-0.039-0.019c-0.399-0.262-0.863-0.233-1.045,0.059l-1.794,2.767
			c-0.182,0.293-0.02,0.73,0.371,0.983l1.28,0.834l0.083,0.04l0.865,0.571c0.12,0.074,0.24,0.115,0.353,0.142
			c-0.293,0.692-0.525,1.41-0.698,2.135c-0.105-0.046-0.225-0.085-0.365-0.089l-2.649-0.137c-0.468-0.018-0.859,0.234-0.879,0.581
			l-0.165,3.293c-0.014,0.338,0.344,0.641,0.814,0.671l1.53,0.071l0,0l0.322,0.015l0.796,0.047c0.138,0.006,0.264-0.027,0.378-0.057
			c0.091,0.741,0.252,1.479,0.471,2.198c-0.12,0.014-0.243,0.05-0.365,0.109l-2.368,1.218c-0.411,0.198-0.624,0.623-0.46,0.928
			l1.501,2.938c0.153,0.302,0.617,0.384,1.035,0.165l2.361-1.206c0.126-0.061,0.219-0.14,0.301-0.232
			c0.222,0.295,0.455,0.59,0.709,0.869c0.11,0.122,0.225,0.229,0.342,0.341c-0.05-0.039-0.089-0.074-0.133-0.114
			c0.083,0.09,0.17,0.165,0.252,0.251c0.083,0.074,0.16,0.159,0.235,0.229c-0.042-0.037-0.069-0.076-0.116-0.115
			c0.073,0.072,0.146,0.142,0.216,0.208c-0.096,0.077-0.189,0.159-0.262,0.274l-0.391,0.605l0,0l-0.187,0.284l-0.866,1.341
			c-0.254,0.391-0.221,0.857,0.067,1.044l2.762,1.787c0.288,0.192,0.73,0.024,0.983-0.36l1.444-2.232
			c0.074-0.12,0.113-0.238,0.14-0.355c0.087,0.04,0.17,0.064,0.26,0.1c0.162,0.066,0.317,0.14,0.49,0.202
			c0.271,0.098,0.551,0.17,0.823,0.247c0.112,0.028,0.232,0.068,0.352,0.096c0.071,0.025,0.142,0.036,0.215,0.05
			c-0.05,0.116-0.083,0.231-0.086,0.368l-0.037,0.715l0,0l-0.021,0.403l-0.079,1.48v0.054c-0.027,0.467,0.235,0.85,0.584,0.872
			l3.283,0.166c0.345,0.025,0.644-0.345,0.667-0.809l0.139-2.65c0.011-0.139-0.022-0.263-0.055-0.381
			c0.092-0.004,0.182-0.014,0.269-0.03c0.222-0.023,0.428-0.072,0.643-0.115c0.189-0.037,0.375-0.064,0.568-0.114
			c0.231-0.055,0.464-0.143,0.702-0.208c0.007-0.004,0.014-0.004,0.02-0.004c0.014,0.118,0.047,0.243,0.106,0.37l0.322,0.636l0,0
			l0.189,0.361l0.702,1.363c0.205,0.42,0.63,0.626,0.936,0.467l2.939-1.499c0.302-0.159,0.381-0.616,0.165-1.031l-1.213-2.365
			c-0.06-0.129-0.139-0.216-0.225-0.302c0.587-0.447,1.144-0.945,1.664-1.506c0.074,0.097,0.16,0.194,0.276,0.26l0.594,0.389l0,0
			l0.351,0.221l1.241,0.81l0.04,0.027c0.395,0.251,0.856,0.219,1.055-0.066l1.784-2.763c0.186-0.292,0.02-0.737-0.372-0.989
			l-1.279-0.826l-0.093-0.056l-0.856-0.56c-0.112-0.07-0.238-0.117-0.351-0.144c0.099-0.239,0.206-0.474,0.292-0.716
			c0.026-0.066,0.036-0.133,0.059-0.207c0.114-0.32,0.219-0.643,0.292-0.968c0.02-0.079,0.027-0.162,0.049-0.243
			c0.11,0.038,0.229,0.081,0.372,0.085l2.657,0.132c0.458,0.026,0.852-0.235,0.869-0.574l0.162-3.297
			C33.764,127.87,33.402,127.564,32.932,127.538z M23.237,135.638c-3.661,3.31-9.299,3.021-12.602-0.634
			c-3.3-3.651-3.012-9.303,0.646-12.603c3.645-3.303,9.29-3.015,12.593,0.641C27.171,126.703,26.892,132.334,23.237,135.638z"/>
		<path fill="#084364" d="M18.097,146.276c-0.014,0-0.06,0-0.073,0l-3.287-0.169c-0.341-0.02-0.653-0.172-0.899-0.438
			c-0.281-0.313-0.431-0.775-0.403-1.239l0.118-2.421H13.55c-0.255-0.07-0.521-0.144-0.78-0.233
			c-0.039-0.009-0.08-0.025-0.126-0.047l-1.306,2.023c-0.471,0.728-1.41,1.002-2.037,0.597l-2.766-1.791
			c-0.282-0.182-0.484-0.472-0.557-0.825c-0.087-0.42,0.007-0.885,0.265-1.286l1.31-2.02l-0.096-0.096
			c-0.027-0.021-0.047-0.047-0.06-0.067c-0.076-0.079-0.126-0.133-0.179-0.185c-0.106-0.12-0.205-0.229-0.305-0.359l-2.149,1.106
			c-0.77,0.394-1.728,0.16-2.063-0.51l-1.506-2.936c-0.153-0.294-0.176-0.646-0.07-0.986c0.137-0.409,0.454-0.764,0.879-0.976
			l2.149-1.105c-0.076-0.309-0.146-0.615-0.199-0.932l-2.417-0.12c-0.903-0.051-1.579-0.697-1.536-1.469l0.159-3.292
			c0.047-0.743,0.731-1.305,1.585-1.305l2.515,0.123c0.086-0.298,0.186-0.604,0.289-0.898l-2.027-1.313
			c-0.756-0.493-1.014-1.393-0.6-2.039l1.794-2.775c0.388-0.598,1.301-0.746,2.016-0.343c0.113,0.036,0.216,0.103,0.293,0.192
			l1.823,1.171c0.105-0.109,0.226-0.215,0.346-0.321c0.118-0.106,0.231-0.209,0.364-0.314l-1.101-2.149
			c-0.408-0.8-0.189-1.702,0.491-2.063l2.945-1.507c0.684-0.34,1.576,0.038,1.97,0.811l1.095,2.142c0.017,0,0.036-0.005,0.06-0.01
			c0.151-0.045,0.312-0.066,0.463-0.095l0.159-0.027c0.096-0.023,0.18-0.04,0.246-0.06l0.126-2.411
			c0.046-0.887,0.652-1.549,1.402-1.549l3.36,0.18c0.332,0.016,0.647,0.169,0.886,0.428c0.292,0.318,0.441,0.769,0.414,1.246
			l-0.119,2.422c0.025,0.009,0.053,0.017,0.085,0.025l0.007,0.796l0.198-0.738c0.126,0.04,0.246,0.068,0.362,0.108
			c0.086,0.037,0.169,0.063,0.251,0.097l1.317-2.036c0.461-0.72,1.413-0.995,2.036-0.598l2.766,1.795
			c0.65,0.427,0.78,1.347,0.293,2.104l-1.307,2.025c0.085,0.063,0.172,0.149,0.225,0.252c0.039,0.04,0.074,0.069,0.103,0.11
			c0.01,0.012,0.09,0.104,0.101,0.118c0.068,0.086,0.135,0.156,0.194,0.239l2.163-1.111c0.776-0.401,1.718-0.162,2.063,0.502
			l1.499,2.94c0.148,0.292,0.179,0.649,0.073,0.988c-0.136,0.408-0.458,0.77-0.878,0.979l-2.146,1.095
			c0.016,0.079,0.041,0.16,0.053,0.232c0.007,0.009,0.039,0.17,0.039,0.182c0.041,0.182,0.074,0.355,0.101,0.521l2.417,0.12
			c0.484,0.026,0.92,0.231,1.205,0.551c0.235,0.258,0.354,0.596,0.334,0.924l-0.162,3.281c-0.046,0.752-0.723,1.313-1.586,1.313l0,0
			l-2.504-0.126c-0.063,0.192-0.122,0.395-0.188,0.597l-0.066,0.205c-0.014,0.037-0.021,0.065-0.041,0.106l2.026,1.306
			c0.401,0.263,0.677,0.655,0.767,1.069c0.072,0.358,0.01,0.692-0.173,0.979l-1.791,2.762c-0.416,0.633-1.386,0.767-2.109,0.288
			l-2.024-1.306c-0.225,0.219-0.464,0.427-0.709,0.629l1.101,2.152c0.411,0.803,0.196,1.715-0.501,2.066l-2.928,1.5
			c-0.673,0.334-1.575-0.027-1.963-0.8l-1.107-2.142c-0.026,0.006-0.052,0.011-0.079,0.017c-0.146,0.036-0.296,0.065-0.444,0.093
			l-0.163,0.028c-0.089,0.021-0.173,0.033-0.242,0.048l-0.125,2.422C19.45,145.6,18.83,146.276,18.097,146.276z M14.979,144.588
			l2.944,0.154l0.184-2.733c-0.07-0.22-0.051-0.515,0.079-0.704c0.122-0.193,0.328-0.375,0.554-0.395l0.235-0.027
			c0.149-0.023,0.296-0.057,0.441-0.079l0.345-0.066c0.11-0.021,0.229-0.046,0.335-0.065c0.183-0.057,0.348-0.104,0.511-0.153
			l0.163-0.054c0.046-0.019,0.106-0.021,0.148-0.028c0.209-0.029,0.415,0.039,0.574,0.169c0.165,0.126,0.258,0.314,0.285,0.514
			l1.237,2.462l-0.09,0.128l2.772-1.415l-1.214-2.448c-0.166-0.148-0.292-0.422-0.279-0.641c0.014-0.226,0.087-0.477,0.266-0.62
			c0.557-0.417,1.088-0.896,1.569-1.419c0.155-0.169,0.375-0.258,0.597-0.242c0.229,0.013,0.438,0.126,0.573,0.298l2.388,1.556
			l1.605-2.48l-2.275-1.515c-0.225-0.048-0.464-0.217-0.57-0.415c-0.109-0.203-0.165-0.454-0.076-0.669l0.08-0.184
			c0.069-0.17,0.132-0.325,0.195-0.498l0.782,0.053l-0.726-0.237c0.103-0.299,0.196-0.604,0.279-0.909l0.752,0.017v-0.01
			l-0.717-0.227c0.041-0.218,0.183-0.417,0.392-0.523c0.206-0.111,0.449-0.121,0.663-0.029l2.76,0.17
			c0.046-0.018,0.069,0,0.072,0.012l0.156-2.98l-2.729-0.176c-0.213,0.056-0.512,0.039-0.696-0.093
			c-0.187-0.123-0.372-0.302-0.402-0.524c-0.057-0.438-0.109-0.724-0.175-1.012l0.696-0.42l-0.742,0.164
			c-0.063-0.269-0.14-0.533-0.225-0.799c-0.067-0.223-0.034-0.45,0.085-0.644c0.12-0.185,0.318-0.314,0.544-0.348l2.49-1.233
			c0.031-0.026,0.057-0.037,0.077-0.026l-1.363-2.661l-2.454,1.215c-0.149,0.169-0.416,0.324-0.634,0.285
			c-0.232-0.011-0.477-0.088-0.616-0.266l-0.232-0.289c-0.132-0.158-0.232-0.279-0.339-0.398c0,0-0.093-0.126-0.1-0.126
			c-0.063-0.075-0.109-0.122-0.162-0.165l-0.14-0.137c0-0.003,0-0.003,0-0.003l-0.003-0.006c-0.021-0.024-0.037-0.034-0.046-0.061
			l-0.094-0.079c-0.007-0.006-0.052-0.056-0.086-0.089c-0.009-0.015-0.02-0.027-0.042-0.04c-0.163-0.152-0.342-0.469-0.328-0.69
			c0.009-0.228,0.025-0.531,0.206-0.663l1.525-2.314c0.02-0.041,0.037-0.05,0.053-0.05l-2.533-1.644l-1.486,2.291
			c-0.054,0.218-0.219,0.46-0.424,0.563c-0.2,0.104-0.461,0.171-0.661,0.082l0.063-0.76l-0.007-0.003l-0.274,0.677
			c-0.203-0.087-0.402-0.166-0.601-0.232c-0.093-0.026-0.184-0.06-0.273-0.08c-0.006,0-0.238-0.076-0.244-0.076
			c-0.187-0.05-0.381-0.112-0.578-0.155c-0.219-0.063-0.457-0.216-0.557-0.415c-0.103-0.198-0.166-0.447-0.079-0.649l0.165-2.764
			c-0.006-0.05,0-0.069,0.014-0.078l-2.978-0.153l-0.18,2.729c0.076,0.212,0.057,0.494-0.063,0.689
			c-0.122,0.192-0.314,0.375-0.54,0.406c-0.007,0.001-0.173,0.016-0.179,0.016c-0.252,0.033-0.392,0.06-0.531,0.096l-0.337,0.06
			c-0.123,0.031-0.246,0.053-0.372,0.076c-0.15,0.04-0.293,0.093-0.425,0.13l-0.183,0.049c-0.218,0.067-0.474,0.044-0.666-0.076
			c-0.186-0.122-0.342-0.312-0.372-0.541l-1.264-2.557l-2.663,1.37l1.219,2.435c0.167,0.162,0.29,0.428,0.287,0.65
			c-0.021,0.232-0.097,0.484-0.279,0.62c-0.276,0.208-0.551,0.424-0.816,0.666c-0.265,0.242-0.514,0.491-0.75,0.749
			c-0.149,0.164-0.397,0.24-0.59,0.243c-0.226-0.008-0.428-0.117-0.574-0.289l-2.391-1.562l-1.612,2.483l2.282,1.517
			c0.219,0.045,0.457,0.202,0.567,0.414c0.104,0.199,0.167,0.455,0.069,0.666c-0.275,0.657-0.496,1.326-0.646,2.01
			c-0.05,0.219-0.189,0.401-0.396,0.504c-0.191,0.106-0.43,0.116-0.632,0.039l-2.78-0.167c-0.049,0.003-0.069-0.012-0.075-0.021
			l-0.156,2.981l2.726,0.172c0.222-0.065,0.507-0.04,0.706,0.086c0.186,0.113,0.368,0.312,0.398,0.53
			c0.079,0.697,0.232,1.4,0.448,2.07c0.066,0.223,0.029,0.458-0.097,0.646c-0.122,0.192-0.325,0.319-0.551,0.341l-2.474,1.242
			c-0.03,0.028-0.061,0.028-0.077,0.022l1.364,2.663l2.446-1.217c0.153-0.173,0.433-0.309,0.651-0.281
			c0.225,0.013,0.474,0.089,0.611,0.269c0.212,0.271,0.431,0.553,0.663,0.812c0.072,0.078,0.139,0.146,0.205,0.205l0.116,0.124
			c0.017,0.012,0.023,0.025,0.043,0.043l0.08,0.08c0,0,0.04,0.036,0.066,0.065c0.02,0.017,0.033,0.026,0.053,0.048
			c0.006,0.002,0.006,0.012,0.017,0.016c0.209,0.136,0.352,0.374,0.352,0.643c0,0.098-0.02,0.19-0.05,0.276
			c-0.02,0.168-0.066,0.342-0.188,0.43l-1.52,2.307c-0.023,0.043-0.036,0.055-0.053,0.061l2.51,1.624l1.513-2.279
			c0.05-0.216,0.209-0.454,0.404-0.563c0.2-0.109,0.458-0.169,0.668-0.086l0.444,0.183c0.09,0.036,0.176,0.069,0.266,0.108
			c0.225,0.074,0.458,0.146,0.686,0.209l0.411,0.119c0.219,0.044,0.505,0.214,0.618,0.412c0.099,0.191,0.219,0.45,0.139,0.659
			l-0.164,2.717C14.969,144.449,14.972,144.524,14.979,144.588z M17.254,138.709c-2.735,0-5.353-1.165-7.183-3.194
			c-1.734-1.925-2.617-4.401-2.487-6.981c0.132-2.587,1.26-4.969,3.177-6.692c1.784-1.614,4.093-2.504,6.493-2.504
			c2.736,0,5.354,1.158,7.184,3.193c1.737,1.924,2.62,4.397,2.487,6.982c-0.129,2.576-1.253,4.964-3.18,6.688
			C21.964,137.822,19.658,138.709,17.254,138.709z M17.254,120.866c-2.016,0-3.959,0.753-5.465,2.101
			c-1.619,1.463-2.567,3.468-2.673,5.646c-0.116,2.176,0.626,4.255,2.086,5.874c1.542,1.706,3.75,2.689,6.052,2.689
			c2.018,0,3.96-0.747,5.466-2.109c1.619-1.456,2.563-3.456,2.676-5.629c0.112-2.178-0.633-4.265-2.093-5.883
			C21.758,121.851,19.557,120.866,17.254,120.866z"/>
		<path fill="#6DC6B0" d="M63.704,135.515l-1.315-0.063l-0.203-0.01l-0.763-0.046c-0.112-0.005-0.222,0.019-0.324,0.052
			c-0.007-0.046-0.007-0.092-0.013-0.132c-0.033-0.265-0.087-0.533-0.14-0.8c-0.014-0.076-0.022-0.148-0.049-0.225
			c-0.05-0.249-0.126-0.492-0.2-0.729c0.104-0.021,0.202-0.043,0.314-0.104l2.024-1.031c0.358-0.189,0.543-0.544,0.404-0.806
			l-1.287-2.527c-0.136-0.26-0.531-0.325-0.882-0.146l-2.033,1.046c-0.11,0.05-0.189,0.122-0.262,0.198
			c-0.07-0.086-0.14-0.173-0.206-0.252c-0.093-0.119-0.186-0.248-0.302-0.371c-0.029-0.046-0.063-0.087-0.109-0.12
			c-0.08-0.105-0.179-0.186-0.265-0.278c0.027,0.026,0.046,0.041,0.072,0.058c-0.066-0.062-0.129-0.125-0.195-0.184
			c-0.063-0.06-0.116-0.133-0.183-0.188c0.021,0.02,0.047,0.045,0.061,0.066c-0.053-0.047-0.11-0.113-0.169-0.16
			c0.09-0.069,0.169-0.139,0.229-0.239l0.329-0.521h0.006l0.13-0.198l0.773-1.2c0.222-0.332,0.195-0.733-0.057-0.902l-2.375-1.535
			c-0.244-0.159-0.622-0.011-0.841,0.32l-1.241,1.915c-0.06,0.1-0.1,0.198-0.12,0.305c-0.043-0.018-0.072-0.026-0.118-0.04
			c-0.206-0.09-0.415-0.176-0.624-0.248c-0.12-0.044-0.249-0.073-0.372-0.107c-0.206-0.068-0.42-0.133-0.636-0.184
			c-0.027,0-0.061-0.008-0.087-0.023c0.035-0.091,0.07-0.194,0.074-0.31l0.032-0.616l0,0l0.021-0.346l0,0l0.073-1.322
			c0.007-0.402-0.212-0.73-0.51-0.743l-2.824-0.146c-0.294-0.02-0.553,0.295-0.567,0.696l-0.116,2.279
			c0,0.122,0.01,0.222,0.044,0.324c-0.084,0.011-0.173,0.021-0.259,0.026c-0.179,0.026-0.352,0.066-0.524,0.105
			c-0.166,0.026-0.335,0.052-0.504,0.093c-0.186,0.044-0.372,0.11-0.551,0.166c-0.02,0.009-0.04,0.01-0.053,0.02
			c-0.013-0.105-0.04-0.211-0.092-0.324l-0.279-0.545l0,0l-0.079-0.148l-0.677-1.33c-0.183-0.361-0.544-0.537-0.81-0.402
			l-2.521,1.282c-0.258,0.136-0.331,0.534-0.148,0.896l0.6,1.164l0.04,0.072l0.401,0.796c0.049,0.096,0.123,0.187,0.203,0.262
			c-0.259,0.184-0.504,0.389-0.756,0.604c-0.244,0.22-0.458,0.446-0.681,0.688c-0.063-0.08-0.138-0.166-0.234-0.232l-0.511-0.331
			l-0.298-0.182l0,0l-1.068-0.698l0,0l-0.039-0.025c-0.332-0.22-0.736-0.193-0.896,0.057l-1.539,2.374
			c-0.159,0.249-0.02,0.627,0.318,0.846l1.101,0.708l0.066,0.038l0.75,0.488c0.099,0.064,0.2,0.102,0.302,0.121
			c-0.252,0.602-0.455,1.218-0.594,1.844c-0.102-0.046-0.206-0.065-0.324-0.078l-2.275-0.109c-0.404-0.026-0.732,0.202-0.753,0.496
			l-0.143,2.823c-0.009,0.291,0.299,0.553,0.701,0.573l1.309,0.064l0,0l0.286,0.012l0.684,0.037c0.115,0.007,0.225-0.01,0.324-0.049
			c0.08,0.639,0.213,1.272,0.401,1.896c-0.093,0.004-0.205,0.037-0.312,0.087l-2.033,1.048c-0.352,0.175-0.537,0.53-0.401,0.803
			l1.29,2.513c0.133,0.267,0.537,0.326,0.889,0.152l2.03-1.041c0.105-0.053,0.189-0.121,0.266-0.198
			c0.185,0.259,0.387,0.507,0.606,0.743c0.093,0.099,0.191,0.202,0.288,0.298c-0.037-0.033-0.079-0.073-0.105-0.106
			c0.063,0.077,0.146,0.144,0.212,0.212c0.069,0.067,0.133,0.143,0.199,0.207c-0.027-0.033-0.066-0.064-0.093-0.106
			c0.063,0.059,0.12,0.125,0.179,0.185c-0.08,0.061-0.159,0.136-0.223,0.235l-0.335,0.512l0,0l-0.161,0.263l-0.74,1.14
			c-0.226,0.339-0.199,0.747,0.053,0.899l2.375,1.542c0.252,0.159,0.625,0.014,0.849-0.321l1.233-1.915
			c0.063-0.094,0.106-0.197,0.126-0.304c0.074,0.029,0.139,0.06,0.219,0.093c0.14,0.047,0.276,0.117,0.419,0.162
			c0.239,0.083,0.471,0.146,0.712,0.216c0.096,0.025,0.195,0.066,0.295,0.09c0.066,0.012,0.129,0.026,0.186,0.04
			c-0.037,0.086-0.066,0.198-0.066,0.314l-0.033,0.61l0,0l-0.02,0.348l-0.066,1.274v0.047c-0.023,0.4,0.202,0.725,0.491,0.748
			l2.831,0.137c0.293,0.02,0.548-0.289,0.571-0.689l0.112-2.275c0.007-0.123-0.012-0.229-0.039-0.325
			c0.079-0.015,0.152-0.015,0.228-0.025c0.186-0.028,0.368-0.077,0.547-0.102c0.167-0.035,0.333-0.059,0.488-0.102
			c0.208-0.05,0.401-0.116,0.607-0.18c0.007,0,0.014-0.003,0.02-0.011c0.003,0.117,0.033,0.22,0.086,0.322l0.282,0.548l0,0
			l0.152,0.314l0.608,1.168c0.179,0.361,0.537,0.533,0.809,0.401l2.517-1.286c0.256-0.131,0.335-0.532,0.143-0.894l-1.035-2.026
			c-0.052-0.1-0.122-0.179-0.198-0.252c0.51-0.391,0.981-0.818,1.435-1.307c0.058,0.093,0.137,0.17,0.232,0.229l0.514,0.338l0,0
			l0.292,0.191l1.065,0.69l0.039,0.026c0.342,0.209,0.744,0.19,0.899-0.06l1.539-2.378c0.166-0.241,0.02-0.623-0.318-0.843
			l-1.095-0.712l-0.079-0.05l-0.742-0.474c-0.094-0.068-0.204-0.096-0.306-0.124c0.093-0.208,0.182-0.41,0.259-0.623
			c0.013-0.054,0.033-0.11,0.047-0.169c0.099-0.286,0.179-0.554,0.251-0.84c0.027-0.066,0.027-0.138,0.037-0.208
			c0.103,0.043,0.209,0.07,0.322,0.076l2.281,0.115c0.401,0.017,0.743-0.202,0.749-0.493l0.147-2.822
			C64.421,135.786,64.104,135.534,63.704,135.515z M55.374,142.455c-3.15,2.85-7.993,2.604-10.822-0.54
			c-2.835-3.134-2.594-7.979,0.551-10.818c3.141-2.835,7.99-2.593,10.821,0.55C58.757,134.782,58.515,139.633,55.374,142.455z"/>
		<path fill="#084364" d="M50.956,151.708c-0.013,0-0.046,0-0.066,0l-2.818-0.139c-0.323-0.023-0.616-0.165-0.85-0.422
			c-0.266-0.29-0.405-0.706-0.372-1.143l0.101-1.981c-0.24-0.07-0.419-0.122-0.604-0.181c-0.006-0.007-0.013-0.007-0.022-0.017
			l-1.078,1.674c-0.444,0.68-1.31,0.919-1.904,0.545l-2.368-1.547c-0.268-0.159-0.457-0.431-0.53-0.769
			c-0.08-0.389,0.007-0.827,0.246-1.191l1.08-1.661c-0.012-0.021-0.033-0.03-0.046-0.05c-0.013-0.011-0.023-0.027-0.033-0.04
			l-0.146-0.146c-0.073-0.079-0.149-0.162-0.216-0.252l-1.773,0.912c-0.733,0.367-1.596,0.14-1.917-0.485l-1.287-2.52
			c-0.332-0.66-0.006-1.46,0.736-1.844l1.771-0.903c-0.05-0.212-0.096-0.421-0.135-0.636l-1.991-0.099
			c-0.829-0.038-1.455-0.641-1.422-1.375l0.14-2.821c0.042-0.703,0.676-1.228,1.466-1.228l2.083,0.104
			c0.06-0.21,0.129-0.412,0.202-0.628l-1.674-1.076c-0.366-0.234-0.618-0.592-0.704-0.983c-0.073-0.332-0.014-0.66,0.159-0.922
			l1.54-2.368c0.375-0.591,1.287-0.724,1.956-0.282l1.667,1.071c0.077-0.072,0.156-0.148,0.233-0.214
			c0.082-0.077,0.169-0.153,0.248-0.22l-0.902-1.774c-0.378-0.74-0.172-1.572,0.476-1.917l2.529-1.284
			c0.624-0.325,1.463,0.017,1.832,0.73l0.909,1.768c0.129-0.027,0.238-0.052,0.357-0.077l0.292,0.732l-0.103-0.765
			c0.029-0.008,0.063-0.018,0.086-0.018l0.103-1.993c0.041-0.798,0.621-1.426,1.317-1.426l2.882,0.142
			c0.729,0.051,1.267,0.733,1.227,1.563l-0.099,1.993l0.464,0.135c0.054,0.018,0.103,0.041,0.153,0.057l1.082-1.668
			c0.441-0.679,1.32-0.931,1.907-0.544l2.375,1.536c0.606,0.396,0.732,1.255,0.281,1.957l-0.898,1.386
			c-0.016,0.026-0.029,0.05-0.051,0.074l-0.121,0.191c0.055,0.05,0.109,0.117,0.148,0.188c0.024,0.022,0.044,0.05,0.074,0.084
			c0.014,0.002,0.1,0.118,0.106,0.129c0.033,0.027,0.059,0.066,0.092,0.103l1.782-0.912c0.706-0.362,1.595-0.146,1.907,0.484
			l1.292,2.518c0.332,0.646,0.014,1.456-0.733,1.836l-1.768,0.907c0.007,0.039,0.014,0.068,0.02,0.105
			c0,0.01,0.054,0.242,0.054,0.252c0.025,0.088,0.039,0.186,0.056,0.281l1.993,0.103c0.441,0.023,0.843,0.21,1.108,0.504
			c0.221,0.251,0.332,0.564,0.312,0.881l-0.146,2.821c-0.02,0.676-0.67,1.218-1.459,1.218l0,0l-2.076-0.104
			c-0.04,0.144-0.089,0.296-0.139,0.442l-0.053,0.169c0,0,0,0.01-0.006,0.01l1.668,1.084c0.365,0.233,0.62,0.594,0.706,0.979
			c0.073,0.331,0.007,0.657-0.159,0.92l-1.538,2.378c-0.385,0.589-1.297,0.723-1.963,0.284l-1.671-1.083
			c-0.156,0.147-0.313,0.297-0.479,0.432l0.905,1.776c0.378,0.739,0.173,1.588-0.474,1.912l-2.527,1.302
			c-0.636,0.324-1.479-0.024-1.837-0.744l-0.908-1.765c-0.12,0.034-0.232,0.054-0.358,0.08l-0.276,0.044l-0.103,1.996
			C52.224,151.081,51.653,151.708,50.956,151.708z M48.375,150.051l2.362,0.12l0.116-2.235c-0.066-0.217-0.04-0.485,0.082-0.678
			c0.121-0.188,0.316-0.338,0.541-0.368l0.306,0.69h0.013l-0.117-0.713c0.129-0.016,0.246-0.04,0.361-0.063l0.633-0.127
			c0.13-0.026,0.26-0.075,0.385-0.114l0.113-0.038c0.172-0.067,0.364-0.076,0.547-0.006c0.271,0.097,0.474,0.335,0.508,0.636
			l1.035,2.044l2.102-1.064l-1.009-2c-0.179-0.156-0.277-0.394-0.271-0.627c0.008-0.222,0.099-0.451,0.293-0.59
			c0.471-0.365,0.921-0.772,1.332-1.215c0.153-0.169,0.378-0.258,0.611-0.237c0.225,0.012,0.444,0.136,0.57,0.324l1.904,1.237l0,0
			l1.29-1.981l-1.88-1.22c-0.225-0.05-0.438-0.212-0.544-0.411c-0.105-0.205-0.139-0.457-0.046-0.662
			c0.083-0.189,0.166-0.375,0.226-0.574c0.007-0.007,0.053-0.152,0.059-0.163c0.08-0.255,0.16-0.504,0.219-0.76
			c0.054-0.222,0.219-0.507,0.416-0.614c0.198-0.102,0.458-0.218,0.666-0.132l2.309,0.132l0.116-2.354l-2.232-0.118
			c-0.222,0.065-0.497,0.024-0.69-0.101c-0.188-0.136-0.351-0.338-0.357-0.563c-0.046-0.333-0.096-0.589-0.14-0.838l0.677-0.371
			c-0.027,0.007-0.047,0.007-0.074,0.017l-0.65,0.157c-0.052-0.229-0.12-0.452-0.186-0.672c-0.068-0.215-0.039-0.464,0.087-0.652
			c0.126-0.193,0.324-0.318,0.551-0.354l2.05-1.032l-1.075-2.105l-2.004,1.021c-0.149,0.163-0.387,0.266-0.617,0.256
			c-0.222-0.007-0.451-0.093-0.59-0.272l-0.104-0.13c-0.006-0.006-0.143-0.167-0.146-0.176c-0.076-0.09-0.136-0.175-0.219-0.262
			c-0.007-0.007-0.096-0.125-0.096-0.125c-0.067-0.074-0.113-0.12-0.169-0.17l0.006-0.004c-0.023-0.026-0.076-0.072-0.089-0.078
			c-0.027-0.023-0.046-0.047-0.063-0.07l-0.076-0.076c-0.017-0.011-0.033-0.027-0.041-0.037c-0.02-0.019-0.033-0.039-0.059-0.057
			l0.013-0.012c-0.013-0.011-0.013-0.018-0.026-0.037l-0.013,0.022c-0.027-0.022-0.041-0.039-0.054-0.053
			c-0.017-0.026-0.04-0.046-0.053-0.066l-0.014,0.003c-0.173-0.152-0.269-0.373-0.258-0.6c0.013-0.232,0.123-0.441,0.308-0.581
			l0.375-0.563c0.013-0.02,0.026-0.032,0.033-0.057l0.857-1.307l-2.03-1.309l-1.177,1.899c-0.05,0.228-0.209,0.454-0.421,0.563
			c-0.219,0.097-0.471,0.119-0.69,0.01c-0.308-0.119-0.471-0.191-0.636-0.241l-0.511-0.149c-0.146-0.043-0.285-0.09-0.431-0.119
			c-0.216-0.055-0.451-0.209-0.55-0.415c-0.106-0.186-0.16-0.435-0.074-0.646l0.137-2.306l-2.361-0.114l-0.121,2.236
			c0.071,0.22,0.044,0.466-0.069,0.661c-0.126,0.195-0.312,0.348-0.534,0.385l-0.2,0.023c-0.202,0.019-0.344,0.056-0.477,0.076
			l-0.25,0.056c-0.106,0.01-0.198,0.037-0.304,0.056c-0.101,0.026-0.227,0.066-0.345,0.107l-0.159,0.044
			c-0.216,0.069-0.481,0.045-0.67-0.085c-0.191-0.122-0.338-0.318-0.365-0.539l-1.028-2.054l-2.103,1.078l1.008,1.993
			c0.159,0.159,0.269,0.407,0.255,0.626c-0.017,0.229-0.096,0.461-0.277,0.594c-0.236,0.184-0.468,0.372-0.694,0.572
			c-0.223,0.198-0.432,0.411-0.637,0.639c-0.156,0.169-0.375,0.266-0.601,0.239c-0.232-0.006-0.448-0.122-0.581-0.313l-1.903-1.246
			c0,0,0,0,0-0.01l-1.294,1.986l1.884,1.227c0.217,0.048,0.436,0.195,0.537,0.401c0.105,0.202,0.146,0.451,0.053,0.664
			c-0.235,0.56-0.424,1.13-0.557,1.7c-0.046,0.229-0.196,0.412-0.398,0.518c-0.198,0.104-0.444,0.11-0.643,0.018l-2.295-0.125
			l-0.12,2.354l2.235,0.122c0.219-0.072,0.477-0.046,0.677,0.08c0.191,0.122,0.331,0.321,0.372,0.551
			c0.06,0.567,0.191,1.154,0.378,1.758c0.06,0.215,0.033,0.454-0.094,0.643c-0.125,0.183-0.331,0.319-0.554,0.345l-2.053,1.029
			l1.079,2.098l1.997-1.015c0.155-0.165,0.401-0.262,0.626-0.265c0.232,0.01,0.458,0.109,0.597,0.294
			c0.18,0.233,0.358,0.472,0.564,0.691l0.269,0.274c0.017,0.01,0.021,0.014,0.03,0.026c0.041,0.043,0.08,0.086,0.087,0.086
			l0.046,0.047c0.012,0.014,0.029,0.03,0.037,0.033v0.007l0,0c0.096,0.061,0.172,0.136,0.228,0.236
			c0.133,0.139,0.193,0.331,0.179,0.536c-0.007,0.22-0.12,0.438-0.298,0.57l-1.26,1.918l2.022,1.31l1.181-1.9
			c0.046-0.229,0.209-0.444,0.412-0.544c0.206-0.103,0.45-0.143,0.663-0.056l0.576,0.235c0.216,0.076,0.432,0.135,0.644,0.194
			l0.172,0.057l-0.046,0.733l0.01,0.009l0.263-0.689c0.229,0.054,0.45,0.199,0.557,0.405c0.109,0.206,0.146,0.448,0.053,0.667
			l-0.119,2.281C48.383,150.047,48.375,150.047,48.375,150.051z M50.236,145.219c-2.378,0-4.66-1.024-6.251-2.789
			c-1.513-1.67-2.275-3.822-2.166-6.074c0.119-2.24,1.098-4.316,2.766-5.823c1.555-1.402,3.565-2.175,5.651-2.175
			c2.382,0,4.66,1.008,6.257,2.772c1.503,1.669,2.273,3.831,2.16,6.075c-0.116,2.252-1.091,4.326-2.765,5.828
			C54.336,144.439,52.33,145.219,50.236,145.219z M50.236,129.887c-1.711,0-3.353,0.637-4.623,1.788
			c-1.363,1.224-2.169,2.918-2.262,4.758c-0.09,1.841,0.531,3.604,1.774,4.973c1.299,1.444,3.164,2.271,5.11,2.271
			c1.714,0,3.36-0.631,4.627-1.781c1.366-1.229,2.168-2.917,2.255-4.758c0.096-1.851-0.53-3.615-1.764-4.975
			C54.048,130.712,52.184,129.887,50.236,129.887z"/>
		<path fill="#FFD950" d="M49.411,73.186l-4.712-0.239c-0.492-0.026-0.919,0.494-0.958,1.171l-0.189,3.786
			c-0.037,0.672,0.332,1.234,0.833,1.254l4.709,0.229c0.494,0.038,0.918-0.491,0.955-1.155l0.046-1.02l0,0l0.034-0.587l0,0
			l0.108-2.184C50.273,73.771,49.895,73.209,49.411,73.186z"/>
		<path fill="#084364" d="M49.132,80.159c-0.017,0-0.072-0.003-0.086-0.003l-4.706-0.235c-0.395-0.026-0.769-0.206-1.051-0.515
			c-0.345-0.392-0.537-0.951-0.504-1.542l0.192-3.786c0.06-1.064,0.797-1.898,1.685-1.898l4.782,0.239
			c0.484,0.033,0.925,0.285,1.214,0.727c0.252,0.379,0.372,0.846,0.345,1.332l-0.196,3.795
			C50.757,79.331,50.018,80.159,49.132,80.159z M49.129,78.631l0.003,0.76v-0.76H49.129z M44.662,73.716
			c-0.014,0.01-0.14,0.162-0.152,0.435l-0.193,3.79c-0.02,0.279,0.09,0.435,0.14,0.454l4.656,0.232
			c0.046-0.039,0.152-0.176,0.162-0.435l0.196-3.794c0.014-0.271-0.096-0.431-0.136-0.454L44.662,73.716z"/>
		<path fill="#FFD950" d="M39.859,77.679L39.859,77.679l-0.132-0.255L38.6,75.212c-0.305-0.602-0.91-0.897-1.351-0.673l-4.199,2.152
			c-0.441,0.225-0.553,0.881-0.242,1.485l0.995,1.943l0,0l0.059,0.122l0.677,1.31c0.305,0.604,0.906,0.903,1.347,0.671l4.191-2.149
			c0.444-0.222,0.554-0.884,0.246-1.479L39.859,77.679z"/>
		<path fill="#084364" d="M35.567,83.068L35.567,83.068c-0.677,0-1.349-0.46-1.711-1.156l-1.731-3.391
			c-0.505-0.98-0.245-2.089,0.584-2.518l4.188-2.145c0.813-0.412,1.897,0.056,2.384,1l1.725,3.387
			c0.271,0.521,0.335,1.113,0.169,1.614c-0.13,0.402-0.395,0.721-0.753,0.898l-4.192,2.146C36.025,83.008,35.8,83.068,35.567,83.068
			z M37.564,75.231l-4.158,2.139c-0.004,0.023-0.047,0.206,0.085,0.444l1.725,3.393c0.12,0.229,0.279,0.312,0.334,0.322l4.183-2.139
			c0-0.014,0.033-0.201-0.094-0.441l-1.73-3.386C37.79,75.314,37.604,75.231,37.564,75.231z"/>
		<path fill="#FFD950" d="M25.366,87.157l1.838,1.191l0,0l0.115,0.077l1.237,0.794c0.564,0.365,1.23,0.322,1.499-0.089l2.561-3.957
			c0.271-0.418,0.033-1.048-0.531-1.41l-0.856-0.557l0,0l-0.494-0.312l0,0l-1.775-1.15l0,0l-0.059-0.044
			c-0.561-0.361-1.234-0.32-1.5,0.09l-2.563,3.961C24.569,86.165,24.806,86.803,25.366,87.157z"/>
		<path fill="#084364" d="M29.339,90.23c-0.411,0-0.825-0.118-1.2-0.367l-3.19-2.063c-0.49-0.316-0.839-0.796-0.951-1.313
			c-0.083-0.411-0.011-0.819,0.195-1.146l2.567-3.968c0.464-0.727,1.618-0.892,2.5-0.349c0.103,0.047,0.199,0.098,0.268,0.176
			l2.976,1.923c0.928,0.591,1.263,1.679,0.762,2.465l-2.567,3.953C30.414,89.99,29.916,90.23,29.339,90.23z M28.112,82.22
			l-2.626,3.952c0,0.014,0.066,0.189,0.299,0.343l3.189,2.068c0.18,0.116,0.432,0.123,0.465,0.105l2.54-3.927
			c-0.014-0.025-0.072-0.204-0.313-0.354l-3.123-2.025C28.357,82.262,28.226,82.22,28.112,82.22z"/>
		<path fill="#FFD950" d="M25.608,98.774l0.471,0.027l1.131,0.05c0.671,0.036,1.228-0.335,1.254-0.822l0.239-4.714
			c0.026-0.497-0.491-0.918-1.158-0.955l-3.8-0.192c-0.664-0.035-1.224,0.342-1.251,0.83l-0.239,4.715
			c-0.025,0.488,0.498,0.916,1.167,0.946L25.608,98.774L25.608,98.774z"/>
		<path fill="#084364" d="M27.3,99.627L27.3,99.627c-0.013,0-0.116-0.007-0.129-0.007l-3.794-0.194
			c-0.584-0.024-1.128-0.27-1.479-0.662c-0.286-0.313-0.424-0.701-0.408-1.102l0.249-4.7c0.04-0.896,0.869-1.556,1.924-1.556
			l3.917,0.191c0.487,0.027,0.948,0.192,1.29,0.468c0.404,0.343,0.626,0.81,0.596,1.294l-0.238,4.708
			C29.188,98.95,28.357,99.627,27.3,99.627z M23.701,92.941c-0.285,0-0.431,0.097-0.45,0.133l-0.226,4.679
			c0.013,0.011,0.159,0.126,0.431,0.149l3.794,0.186l0.049,0.764v-0.764c0.249,0,0.389-0.097,0.408-0.132l0.232-4.674
			c-0.014-0.017-0.166-0.142-0.44-0.159l-3.792-0.182C23.708,92.941,23.708,92.941,23.701,92.941z"/>
		<path fill="#FFD950" d="M31.532,106.521l-2.149-4.194c-0.222-0.438-0.885-0.551-1.476-0.245l-3.386,1.737
			c-0.601,0.291-0.896,0.895-0.666,1.34L26,109.361c0.222,0.431,0.886,0.545,1.482,0.241l3.383-1.733
			C31.458,107.563,31.754,106.96,31.532,106.521z"/>
		<path fill="#084364" d="M26.796,110.535c-0.657,0-1.214-0.311-1.476-0.829l-2.152-4.205c-0.173-0.342-0.209-0.76-0.077-1.161
			c0.16-0.504,0.559-0.941,1.089-1.21l3.375-1.726c0.945-0.482,2.103-0.225,2.514,0.575l2.148,4.191
			c0.412,0.835-0.025,1.874-1.001,2.382l-3.383,1.73C27.5,110.452,27.147,110.535,26.796,110.535z M28.697,102.675
			c-0.213,0-0.332,0.027-0.438,0.09l-3.386,1.729c-0.252,0.127-0.328,0.3-0.328,0.339l2.135,4.169h0.116
			c0.106,0,0.226-0.022,0.338-0.086l3.383-1.724c0.249-0.13,0.329-0.306,0.329-0.354l-2.142-4.163H28.697z"/>
		<path fill="#FFD950" d="M34.48,109.789c-0.411-0.266-1.038-0.037-1.4,0.527l-0.557,0.858l0,0l-0.278,0.421l-1.234,1.907
			c-0.362,0.567-0.319,1.237,0.093,1.499l3.959,2.567c0.418,0.27,1.049,0.029,1.407-0.534l2.065-3.184
			c0.362-0.561,0.321-1.233-0.096-1.499L34.48,109.789z"/>
		<path fill="#084364" d="M35.449,118.445L35.449,118.445c-0.285,0-0.564-0.076-0.799-0.236l-3.963-2.563
			c-0.325-0.209-0.557-0.554-0.647-0.955c-0.109-0.527,0.014-1.098,0.329-1.602l2.063-3.183c0.577-0.897,1.717-1.242,2.464-0.764
			l3.962,2.566c0.78,0.508,0.919,1.628,0.322,2.561l-2.066,3.187C36.715,118.074,36.079,118.445,35.449,118.445z M34.069,110.432
			c-0.034,0.017-0.207,0.083-0.352,0.307l-2.063,3.183c-0.146,0.231-0.13,0.424-0.106,0.464l3.914,2.528
			c0.066-0.011,0.229-0.083,0.365-0.285l2.065-3.191c0.139-0.226,0.137-0.422,0.106-0.472L34.069,110.432z"/>
		<path fill="#FFD950" d="M47.342,113.94l-4.717-0.238c-0.494-0.026-0.915,0.494-0.952,1.161l-0.049,1.018l0,0l-0.033,0.584l0,0
			l-0.106,2.116l0,0v0.079c-0.033,0.664,0.335,1.221,0.827,1.254l4.699,0.238c0.504,0.026,0.928-0.497,0.962-1.16l0.193-3.799
			C48.203,114.521,47.832,113.971,47.342,113.94z"/>
		<path fill="#084364" d="M47.052,120.916L47.052,120.916c-0.009,0-0.063-0.004-0.076-0.004l-4.703-0.238
			c-0.928-0.051-1.617-0.949-1.554-2.046l0.191-3.802c0.057-1.079,0.779-1.891,1.686-1.891l4.779,0.242
			c0.935,0.054,1.611,0.958,1.551,2.056l-0.192,3.795C48.688,120.086,47.945,120.916,47.052,120.916z M42.585,114.465
			c-0.01,0.011-0.132,0.159-0.143,0.435l-0.188,3.729c-0.021,0.337,0.09,0.503,0.129,0.521l4.653,0.231
			c0.054-0.029,0.159-0.176,0.18-0.438l0.185-3.791c0.01-0.278-0.099-0.431-0.139-0.455L42.585,114.465z"/>
		<path fill="#FFD950" d="M57.181,111.539c-0.306-0.592-0.902-0.892-1.342-0.669l-4.207,2.154c-0.438,0.218-0.547,0.884-0.238,1.474
			l0.465,0.915l0,0l0.271,0.519l0,0l0.995,1.952c0.298,0.602,0.901,0.896,1.34,0.67l4.198-2.145c0.445-0.224,0.548-0.89,0.242-1.479
			L57.181,111.539z"/>
		<path fill="#084364" d="M54.152,119.396L54.152,119.396c-0.683,0-1.353-0.457-1.71-1.166l-1.731-3.387
			c-0.272-0.515-0.331-1.101-0.172-1.605c0.132-0.404,0.396-0.719,0.756-0.898l4.191-2.148c0.829-0.411,1.89,0.056,2.375,1.004
			l1.73,3.38c0.266,0.527,0.332,1.123,0.167,1.622c-0.133,0.398-0.398,0.717-0.75,0.896l-4.192,2.146
			C54.617,119.337,54.386,119.396,54.152,119.396z M56.146,111.567l-4.162,2.141c-0.004,0.018-0.034,0.2,0.093,0.442l1.728,3.393
			c0.116,0.219,0.275,0.305,0.339,0.322l4.169-2.146c0.006-0.013,0.039-0.203-0.087-0.451l-1.724-3.379
			C56.376,111.643,56.196,111.567,56.146,111.567z"/>
		<path fill="#FFD950" d="M66.352,105.94l-1.838-1.196l0,0l-0.119-0.072l-1.241-0.799c-0.557-0.362-1.223-0.325-1.492,0.096
			l-2.567,3.953c-0.265,0.413-0.026,1.041,0.534,1.405l0.859,0.562c-0.006,0-0.006,0-0.006,0l0.497,0.314l0,0l1.777,1.145l0,0
			l0.06,0.046c0.564,0.361,1.233,0.321,1.493-0.093l2.577-3.959C67.154,106.931,66.908,106.303,66.352,105.94z"/>
		<path fill="#084364" d="M63.608,112.405L63.608,112.405c-0.408,0-0.839-0.133-1.203-0.372l-3.197-2.062
			c-0.92-0.602-1.265-1.679-0.753-2.458l2.563-3.966c0.483-0.744,1.671-0.896,2.557-0.322l3.193,2.066
			c0.408,0.27,0.717,0.648,0.869,1.059c0.189,0.489,0.146,1.011-0.119,1.415l-2.56,3.949
			C64.677,112.153,64.185,112.405,63.608,112.405z M62.372,104.386l-2.63,3.949c0.009,0.015,0.069,0.201,0.301,0.353l3.131,2.027
			c0.271,0.172,0.497,0.162,0.521,0.146l2.543-3.937c-0.005-0.01-0.08-0.193-0.305-0.354l-3.197-2.055
			C62.624,104.439,62.49,104.386,62.372,104.386z"/>
		<path fill="#FFD950" d="M68.297,94.43l-2.189-0.105l0,0l-0.324-0.021L64.5,94.237c-0.67-0.032-1.221,0.339-1.246,0.829
			l-0.239,4.717c-0.033,0.487,0.494,0.909,1.16,0.955l3.794,0.188c0.67,0.037,1.221-0.341,1.248-0.835l0.245-4.707
			C69.488,94.895,68.965,94.468,68.297,94.43z"/>
		<path fill="#084364" d="M68.056,101.696L68.056,101.696c-0.017,0-0.106,0-0.126-0.002l-3.794-0.2
			c-0.591-0.023-1.127-0.265-1.486-0.67c-0.281-0.306-0.417-0.686-0.404-1.087l0.245-4.707c0.047-0.892,0.876-1.555,1.925-1.555
			l3.926,0.192c0.481,0.023,0.939,0.192,1.287,0.473c0.405,0.336,0.624,0.811,0.59,1.287l-0.239,4.711
			C69.939,101.022,69.107,101.696,68.056,101.696z M64.461,95.008c-0.292,0-0.432,0.099-0.452,0.139l-0.232,4.674
			c0.017,0.006,0.159,0.136,0.438,0.145l3.787,0.193l0.053,0.769v-0.769c0.242,0,0.392-0.101,0.405-0.136l0.232-4.678
			c-0.013-0.003-0.162-0.136-0.431-0.145L64.461,95.008L64.461,95.008z"/>
		<path fill="#FFD950" d="M60.183,86.569l2.143,4.202c0.226,0.444,0.889,0.551,1.485,0.242l3.383-1.728
			c0.6-0.308,0.896-0.908,0.677-1.349l-2.156-4.196c-0.219-0.435-0.885-0.544-1.479-0.248l-3.389,1.728
			C60.255,85.532,59.964,86.132,60.183,86.569z"/>
		<path fill="#084364" d="M63.128,91.953L63.128,91.953c-0.667,0-1.214-0.309-1.486-0.844l-2.135-4.194
			c-0.424-0.818,0.009-1.868,0.995-2.372l3.383-1.728c0.961-0.483,2.109-0.218,2.515,0.577l2.148,4.189
			c0.225,0.44,0.212,0.951-0.027,1.425c-0.201,0.399-0.543,0.74-0.981,0.959l-3.375,1.735C63.84,91.863,63.476,91.953,63.128,91.953
			z M65.034,84.094c-0.222,0-0.334,0.032-0.451,0.087l-3.386,1.729c-0.245,0.123-0.325,0.299-0.325,0.348l2.143,4.16h0.113
			c0.106,0,0.225-0.023,0.332-0.087l3.385-1.729c0.246-0.133,0.332-0.304,0.332-0.352L65.034,84.094z"/>
		<path fill="#FFD950" d="M57.231,83.31c0.414,0.266,1.044,0.033,1.405-0.53L59.2,81.92l0,0l0.22-0.342l1.287-1.992
			c0.364-0.558,0.318-1.228-0.093-1.492l-3.964-2.568c-0.412-0.264-1.044-0.025-1.403,0.528l-2.07,3.196
			c-0.357,0.564-0.315,1.225,0.101,1.493L57.231,83.31z"/>
		<path fill="#084364" d="M57.622,84.181L57.622,84.181c-0.292,0-0.563-0.075-0.803-0.228l-3.96-2.563
			c-0.331-0.211-0.563-0.561-0.65-0.972c-0.109-0.514,0.007-1.094,0.329-1.585l2.066-3.197c0.577-0.882,1.717-1.237,2.467-0.756
			l3.96,2.563c0.331,0.223,0.56,0.57,0.646,0.979c0.109,0.517-0.011,1.091-0.335,1.585l-2.063,3.183
			C58.882,83.808,58.249,84.181,57.622,84.181z M56.239,76.166c-0.027,0.018-0.208,0.087-0.348,0.307l-2.07,3.188
			c-0.152,0.233-0.126,0.429-0.105,0.462l3.913,2.527c0.067-0.003,0.233-0.073,0.369-0.289l2.066-3.189
			c0.153-0.233,0.139-0.414,0.109-0.461L56.239,76.166z"/>
		<path fill="#6DC6B0" d="M61.86,106.055c0.007,0,0.014-0.011,0.014-0.011c0.152-0.245,0.271-0.504,0.404-0.752
			c0.153-0.293,0.313-0.578,0.451-0.863c0.05-0.1,0.08-0.195,0.125-0.288c0.2-0.469,0.392-0.915,0.559-1.389
			c0.026-0.077,0.046-0.159,0.073-0.236c0.171-0.492,0.311-0.981,0.44-1.477c0.037-0.151,0.056-0.301,0.097-0.457
			c0.086-0.424,0.185-0.852,0.252-1.276c0.033-0.282,0.053-0.561,0.08-0.833c0.035-0.318,0.072-0.609,0.093-0.919
			c0.02-0.38,0.006-0.765,0.006-1.154c-0.006-0.198,0.007-0.4,0-0.594c-0.017-0.447-0.057-0.885-0.113-1.329
			c-0.013-0.143-0.019-0.285-0.041-0.421c-0.059-0.46-0.148-0.908-0.245-1.362c-0.027-0.125-0.04-0.257-0.073-0.378
			c-0.102-0.433-0.232-0.864-0.361-1.288c-0.044-0.146-0.08-0.289-0.124-0.428c-0.138-0.388-0.294-0.775-0.453-1.164
			c-0.07-0.172-0.13-0.345-0.209-0.517c-0.152-0.336-0.332-0.68-0.514-1.021c-0.104-0.2-0.202-0.402-0.323-0.6
			c-0.172-0.308-0.371-0.608-0.561-0.899c-0.142-0.227-0.271-0.444-0.428-0.653c-0.205-0.278-0.431-0.552-0.649-0.83
			c-0.166-0.215-0.328-0.417-0.51-0.626c-0.061-0.067-0.117-0.152-0.18-0.219c-0.142-0.163-0.305-0.307-0.46-0.459
			c0.043,0.038,0.083,0.066,0.116,0.104c-0.096-0.115-0.219-0.209-0.324-0.322c-0.106-0.105-0.2-0.214-0.312-0.32
			c0.039,0.039,0.066,0.078,0.1,0.116c-0.226-0.223-0.452-0.445-0.697-0.657c-0.167-0.148-0.335-0.281-0.504-0.415
			c-0.315-0.248-0.621-0.505-0.942-0.729c-0.172-0.119-0.351-0.235-0.531-0.349c-0.328-0.222-0.663-0.44-1.001-0.64
			c-0.177-0.096-0.365-0.193-0.547-0.282c-0.355-0.188-0.694-0.367-1.052-0.536c-0.192-0.081-0.392-0.146-0.577-0.239
			c-0.357-0.14-0.72-0.285-1.08-0.408c-0.207-0.07-0.413-0.126-0.618-0.183c-0.357-0.108-0.723-0.226-1.088-0.316
			c-0.219-0.044-0.438-0.081-0.652-0.121c-0.362-0.076-0.724-0.146-1.079-0.199c-0.232-0.029-0.471-0.042-0.709-0.066
			c-0.345-0.04-0.703-0.076-1.047-0.089c-0.256-0.018-0.508,0-0.76,0c-0.329,0-0.673-0.018-1,0.005
			c-0.276,0.016-0.548,0.051-0.819,0.073c-0.312,0.028-0.627,0.054-0.942,0.104c-0.292,0.042-0.581,0.097-0.87,0.159
			c-0.285,0.06-0.583,0.106-0.878,0.173c-0.302,0.079-0.601,0.175-0.906,0.269c-0.266,0.087-0.537,0.153-0.802,0.238
			c-0.333,0.113-0.645,0.262-0.956,0.392c-0.242,0.093-0.483,0.187-0.723,0.291c-0.337,0.163-0.669,0.346-0.998,0.525
			c-0.203,0.116-0.414,0.212-0.617,0.327c-0.369,0.216-0.72,0.464-1.079,0.709c-0.152,0.111-0.322,0.197-0.471,0.32
			c-0.497,0.369-0.988,0.763-1.459,1.19c-7.635,6.892-8.235,18.661-1.341,26.292c0.153,0.176,0.326,0.339,0.492,0.508
			c-0.067-0.063-0.13-0.126-0.193-0.179c0.12,0.122,0.246,0.234,0.372,0.352c0.112,0.115,0.225,0.245,0.348,0.352
			c-0.056-0.053-0.109-0.113-0.169-0.169c0.142,0.143,0.279,0.288,0.432,0.42c0.965,0.886,1.997,1.646,3.084,2.279
			c0.146,0.094,0.305,0.162,0.45,0.243c0.386,0.218,0.764,0.42,1.152,0.608c0.341,0.163,0.686,0.286,1.03,0.416
			c0.22,0.085,0.422,0.182,0.645,0.257c0.41,0.146,0.835,0.266,1.256,0.38c0.156,0.038,0.302,0.099,0.458,0.132
			c0.425,0.104,0.865,0.18,1.301,0.259c0.151,0.017,0.301,0.063,0.46,0.082c0.401,0.061,0.809,0.096,1.221,0.127
			c0.185,0.01,0.371,0.04,0.563,0.046c0.361,0.03,0.73,0.011,1.096,0c0.231,0,0.471,0.014,0.695,0
			c0.332-0.011,0.657-0.046,0.982-0.086c0.264-0.026,0.537-0.04,0.809-0.083c0.315-0.039,0.617-0.115,0.928-0.171
			c0.271-0.052,0.554-0.098,0.829-0.167c0.346-0.083,0.673-0.195,1.018-0.295c0.232-0.066,0.471-0.134,0.704-0.217
			c0.455-0.148,0.912-0.344,1.356-0.543c0.1-0.046,0.206-0.082,0.312-0.126c2.215-1.029,4.258-2.503,5.996-4.421
			c0.007-0.004,0.007-0.01,0.007-0.01C60.521,108.098,61.25,107.102,61.86,106.055z M36.493,86.183
			c5.728-5.177,14.563-4.726,19.736,0.994c5.167,5.728,4.716,14.563-1.004,19.739c-5.732,5.175-14.561,4.723-19.734-1.004
			C30.322,100.188,30.766,91.35,36.493,86.183z"/>
		<path fill="#084364" d="M45.438,115.917c-0.181,0-0.362-0.002-0.534-0.012c-0.123,0-0.263-0.024-0.402-0.033l-0.186-0.017
			c-0.46-0.045-0.861-0.07-1.267-0.137c-0.1-0.007-0.213-0.037-0.325-0.054l-0.159-0.028c-0.531-0.097-0.942-0.163-1.347-0.266
			c-0.105-0.024-0.212-0.061-0.311-0.09l-0.166-0.048c-0.531-0.155-0.929-0.265-1.313-0.394c-0.14-0.05-0.285-0.117-0.432-0.168
			l-0.379-0.153c-0.314-0.124-0.619-0.245-0.925-0.389c-0.374-0.165-0.732-0.372-1.097-0.57l-0.279-0.146
			c-0.106-0.052-0.199-0.105-0.301-0.162c-1.145-0.666-2.212-1.47-3.208-2.381c-0.08-0.07-0.159-0.146-0.232-0.22
			c-0.014-0.01-0.026-0.021-0.036-0.029c-0.076-0.073-0.149-0.152-0.229-0.223l-0.513-0.523c-0.024-0.017-0.038-0.036-0.051-0.054
			c-0.099-0.096-0.182-0.185-0.271-0.282c-3.471-3.836-5.24-8.801-4.978-13.979c0.268-5.166,2.526-9.922,6.364-13.391
			c0.491-0.449,1.007-0.862,1.525-1.249c0.101-0.068,0.2-0.132,0.296-0.197l0.358-0.241c0.315-0.217,0.636-0.429,0.965-0.631
			c0.133-0.069,0.271-0.146,0.41-0.219l0.412-0.217c0.278-0.159,0.563-0.309,0.849-0.451c0.18-0.076,0.355-0.142,0.531-0.207
			l0.498-0.211c0.239-0.096,0.477-0.205,0.729-0.283c0.186-0.071,0.385-0.124,0.577-0.18l0.505-0.154
			c0.225-0.065,0.457-0.135,0.693-0.202c0.205-0.049,0.405-0.081,0.6-0.122l0.554-0.105c0.222-0.047,0.445-0.093,0.667-0.123
			c0.275-0.039,0.557-0.065,0.842-0.089l0.435-0.043c0.183-0.021,0.365-0.044,0.551-0.05c0.176-0.008,0.352-0.017,0.518-0.017
			l0.53,0.009l0.435-0.009c0.119,0,0.241,0.009,0.365,0.009c0.318,0.014,0.663,0.053,1.001,0.08l0.318,0.04
			c0.172,0.01,0.338,0.023,0.501,0.053c0.354,0.047,0.699,0.114,1.055,0.181l0.262,0.056c0.159,0.025,0.319,0.059,0.481,0.096
			c0.348,0.085,0.689,0.182,1.027,0.286l0.315,0.095c0.143,0.04,0.292,0.077,0.435,0.134c0.342,0.116,0.677,0.252,1.008,0.381
			l0.335,0.139c0.126,0.05,0.26,0.103,0.385,0.162c0.379,0.174,0.74,0.352,1.102,0.553c0.265,0.131,0.417,0.211,0.57,0.301
			c0.351,0.192,0.704,0.428,1.049,0.656c0.252,0.172,0.4,0.265,0.543,0.36c0.331,0.239,0.649,0.499,0.969,0.754l0.159,0.132
			c0.126,0.101,0.252,0.202,0.378,0.307c0.176,0.152,0.348,0.321,0.518,0.483c0.036,0.026,0.069,0.05,0.112,0.09
			c0.003,0,0.01,0.003,0.016,0.01l0,0c0,0,0.003,0.01,0.006,0.01c0.051,0.056,0.167,0.18,0.177,0.182l0.242,0.247
			c0.027,0.029,0.06,0.057,0.09,0.085c0.119,0.066,0.215,0.169,0.278,0.285c0.067,0.066,0.14,0.144,0.21,0.223
			c0.033,0.027,0.083,0.094,0.135,0.16c0.187,0.215,0.315,0.37,0.438,0.542l0.312,0.379c0.172,0.22,0.342,0.428,0.498,0.646
			c0.132,0.177,0.245,0.363,0.365,0.549l0.192,0.312c0.173,0.248,0.338,0.508,0.488,0.763c0.082,0.136,0.156,0.292,0.235,0.441
			l0.093,0.179c0.202,0.397,0.378,0.729,0.534,1.067l0.215,0.544c0.176,0.419,0.335,0.809,0.471,1.214l0.13,0.444
			c0.136,0.432,0.269,0.882,0.374,1.344c0.021,0.069,0.04,0.172,0.054,0.276c0.119,0.586,0.219,1.057,0.282,1.528
			c0.017,0.103,0.022,0.209,0.03,0.313c0.063,0.589,0.105,1.04,0.126,1.504c0.012,0.125,0.006,0.251,0.006,0.37l-0.006,0.243
			l0.006,0.304c0.006,0.303,0.006,0.598-0.014,0.914c-0.016,0.221-0.039,0.438-0.063,0.669l-0.056,0.515
			c-0.013,0.215-0.041,0.417-0.067,0.63c-0.065,0.444-0.162,0.899-0.258,1.333l-0.04,0.183c-0.012,0.108-0.025,0.205-0.056,0.302
			c-0.129,0.507-0.296,1.027-0.462,1.535l-0.072,0.239c-0.172,0.491-0.372,0.962-0.583,1.438c0,0.005-0.12,0.3-0.12,0.3
			c-0.116,0.242-0.235,0.455-0.365,0.687l-0.242,0.474c-0.09,0.178-0.183,0.353-0.289,0.531c-0.656,1.098-1.413,2.126-2.268,3.071
			c-0.01,0.017-0.02,0.026-0.031,0.032v0.007c-1.771,1.954-3.862,3.506-6.248,4.601l-0.195,0.072
			c-0.597,0.257-1.062,0.462-1.532,0.624c-0.173,0.057-0.357,0.116-0.53,0.163l-0.216,0.063c-0.418,0.133-0.723,0.232-1.045,0.309
			c-0.198,0.051-0.395,0.079-0.59,0.116l-0.594,0.119c-0.215,0.044-0.425,0.085-0.646,0.116c-0.2,0.036-0.398,0.05-0.604,0.066
			l-0.425,0.039c-0.271,0.021-0.547,0.061-0.829,0.076c-0.086,0-0.186,0.005-0.275,0.005l-0.434-0.005l-0.17-0.769l0.01,0.769
			L45.438,115.917z M33.737,109.646c0.03,0.03,0.066,0.061,0.093,0.095c0.92,0.841,1.917,1.575,2.96,2.193l0.449,0.233
			c0.431,0.235,0.756,0.418,1.101,0.58c0.271,0.122,0.549,0.229,0.825,0.331l0.428,0.173c0.112,0.053,0.226,0.103,0.339,0.136
			c0.357,0.123,0.723,0.226,1.074,0.328l0.573,0.167c0.372,0.089,0.75,0.155,1.125,0.222l0.332,0.06
			c0.073,0.017,0.149,0.033,0.232,0.05c0.378,0.057,0.743,0.081,1.115,0.106l0.28,0.029c0.104,0.011,0.21,0.021,0.315,0.029
			c0.16,0.007,0.312,0.007,0.459,0.007h0.458c0.002,0,0.175-0.007,0.179-0.007l0.434,0.007l0.189-0.007
			c0.255-0.009,0.504-0.042,0.743-0.065l0.477-0.043c0.167-0.023,0.335-0.027,0.504-0.053c0.187-0.024,0.372-0.066,0.558-0.106
			l0.63-0.122c0.168-0.023,0.338-0.067,0.497-0.1c0.279-0.074,0.551-0.16,0.829-0.246c0.007,0,0.144-0.04,0.149-0.04l0.24-0.072
			c0.142-0.041,0.291-0.08,0.434-0.126c0.438-0.16,0.865-0.338,1.3-0.524l0.186-0.077c2.288-1.05,4.211-2.478,5.843-4.261
			c0.007-0.016,0.014-0.027,0.027-0.033c0.795-0.89,1.499-1.834,2.092-2.842c0.103-0.163,0.176-0.315,0.25-0.468l0.272-0.498
			c0.106-0.207,0.219-0.398,0.312-0.607c0.066-0.156,0.086-0.214,0.126-0.287c0.179-0.414,0.364-0.859,0.53-1.305l0.067-0.231
			c0.159-0.468,0.302-0.935,0.42-1.409l0.037-0.199c0.017-0.084,0.033-0.173,0.053-0.259c0.087-0.397,0.179-0.81,0.235-1.213
			c0.03-0.177,0.043-0.362,0.057-0.537l0.059-0.563c0.021-0.188,0.046-0.384,0.054-0.583c0.016-0.274,0.016-0.537,0.013-0.812
			l-0.004-0.297l0.004-0.562c-0.017-0.43-0.067-0.857-0.113-1.275c0-0.009-0.013-0.172-0.013-0.182l-0.021-0.223
			c-0.059-0.438-0.146-0.872-0.238-1.307c0-0.006-0.033-0.166-0.033-0.175l-0.033-0.174c-0.103-0.438-0.219-0.842-0.351-1.246
			l-0.12-0.421c-0.123-0.353-0.266-0.718-0.419-1.078l-0.211-0.534c-0.14-0.295-0.298-0.606-0.465-0.906l-0.132-0.265
			c-0.063-0.129-0.126-0.249-0.199-0.365c-0.139-0.244-0.285-0.467-0.437-0.697l-0.207-0.327c-0.099-0.162-0.198-0.314-0.311-0.467
			c-0.147-0.207-0.298-0.402-0.458-0.591l-0.306-0.389c-0.112-0.143-0.225-0.281-0.348-0.417c-0.011-0.018-0.093-0.124-0.106-0.133
			c-0.156-0.176-0.235-0.259-0.321-0.342l-0.183-0.172c-0.026-0.03-0.05-0.058-0.063-0.083l-0.278-0.273
			c-0.027-0.026-0.044-0.045-0.063-0.063c-0.246-0.229-0.462-0.431-0.667-0.62c-0.11-0.096-0.226-0.179-0.335-0.275l-0.156-0.132
			c-0.305-0.24-0.594-0.478-0.898-0.697c-0.124-0.087-0.25-0.165-0.368-0.248l-0.134-0.077c-0.325-0.222-0.643-0.427-0.968-0.612
			c-0.133-0.08-0.265-0.151-0.392-0.212c-0.007,0-0.136-0.066-0.139-0.066c-0.333-0.187-0.671-0.359-1.012-0.52
			c-0.098-0.038-0.209-0.088-0.315-0.121l-0.239-0.1c-0.417-0.173-0.724-0.295-1.032-0.401c-0.123-0.036-0.242-0.072-0.364-0.106
			l-0.223-0.065c-0.425-0.124-0.736-0.224-1.051-0.297c-0.13-0.026-0.269-0.053-0.408-0.082l-0.21-0.037
			c-0.4-0.086-0.718-0.151-1.044-0.186c-0.14-0.025-0.274-0.035-0.411-0.046l-0.259-0.026c-0.398-0.047-0.702-0.07-1.001-0.08
			l-0.298-0.016l-0.435,0.002l-0.53-0.002c-0.144,0-0.289,0.002-0.438,0.016c-0.156,0.01-0.309,0.031-0.461,0.041l-0.321,0.028
			c-0.395,0.037-0.647,0.058-0.893,0.098c-0.212,0.028-0.4,0.069-0.59,0.108l-0.584,0.105c-0.172,0.041-0.338,0.07-0.511,0.11
			c-0.203,0.05-0.405,0.113-0.606,0.173l-0.538,0.169c-0.168,0.05-0.335,0.093-0.491,0.151c-0.219,0.073-0.428,0.159-0.633,0.25
			l-0.547,0.215c-0.14,0.061-0.288,0.116-0.431,0.176c-0.263,0.131-0.515,0.266-0.78,0.407l-0.437,0.239
			c-0.103,0.05-0.219,0.106-0.333,0.181c-0.298,0.171-0.593,0.371-0.878,0.569l-0.388,0.27c-0.068,0.039-0.146,0.086-0.216,0.139
			c-0.48,0.354-0.951,0.739-1.408,1.15c-3.537,3.191-5.618,7.571-5.864,12.33c-0.236,4.767,1.386,9.34,4.583,12.878
			c0.104,0.107,0.199,0.203,0.295,0.299l0.175,0.179c0.014,0.01,0.033,0.033,0.054,0.057l0.239,0.239
			c0.026,0.017,0.039,0.037,0.063,0.057c0,0,0.036,0.036,0.069,0.073C33.598,109.48,33.681,109.546,33.737,109.646z M45.865,111.291
			c-4.166,0-8.158-1.779-10.944-4.865c-2.633-2.925-3.983-6.695-3.777-10.62c0.199-3.933,1.914-7.558,4.839-10.189
			c2.709-2.455,6.218-3.805,9.873-3.805c4.162,0,8.151,1.771,10.938,4.859c5.442,6.03,4.971,15.363-1.055,20.813
			C53.019,109.938,49.517,111.291,45.865,111.291z M45.855,83.337c-3.276,0-6.414,1.214-8.845,3.416
			c-2.624,2.357-4.156,5.599-4.345,9.124c-0.175,3.524,1.028,6.903,3.392,9.521c2.498,2.766,6.073,4.354,9.807,4.354
			c3.274,0,6.414-1.199,8.852-3.401c5.393-4.89,5.817-13.251,0.942-18.653C53.158,84.926,49.589,83.337,45.855,83.337z"/>
	</g>
	<path fill="#C4C6C2" d="M179.124,144.363c0,14.11-11.436,25.541-25.544,25.541H84.95c-14.111,0-25.547-11.431-25.547-25.541V75.729
		c0-14.112,11.436-25.543,25.547-25.543h68.63c14.108,0,25.544,11.431,25.544,25.543V144.363z"/>
	<path fill="#084364" d="M153.58,171.455H84.95c-14.938,0-27.093-12.155-27.093-27.092V75.729c0-14.937,12.155-27.092,27.093-27.092
		h68.63c14.938,0,27.093,12.155,27.093,27.092v68.635C180.673,159.3,168.518,171.455,153.58,171.455z M84.95,51.731
		c-13.233,0-23.998,10.766-23.998,23.997v68.635c0,13.232,10.765,23.998,23.998,23.998h68.63c13.233,0,23.998-10.766,23.998-23.998
		V75.729c0-13.231-10.765-23.997-23.998-23.997H84.95z"/>
	<path fill="#7B7778" d="M150.516,129.611c0,0-0.116-47.682-0.116-61.659c0-36.28-20.253-65.686-45.226-65.686
		c-24.98,0-45.23,29.405-45.23,65.686c0,13.978,0,61.659,0,61.659H150.516z"/>
	<path fill="#084364" d="M151.747,130.839H58.716V67.952c0-36.896,20.842-66.913,46.458-66.913c25.613,0,46.45,30.018,46.45,66.913
		c0,13.978,0.115,61.659,0.115,61.659L151.747,130.839z M61.171,128.387h88.119c-0.021-7.558-0.12-47.789-0.12-60.435
		c0-35.546-19.74-64.456-43.996-64.456c-24.263,0-44.003,28.91-44.003,64.456V128.387z"/>
	<g>
		<path fill="#FFFFFF" d="M115.692,98.785h-9.458h-2.009h-9.459c0,0,3.198,22.811-12.018,41.671l21.477,34.664h2.009l21.478-34.664
			C112.496,121.596,115.692,98.785,115.692,98.785z"/>
		<path fill="#084364" d="M106.918,176.342h-3.376l-22.3-35.979l0.55-0.677c14.712-18.237,11.792-40.504,11.759-40.732l-0.191-1.396
			H117.1l-0.191,1.396c-0.035,0.229-2.93,22.525,11.759,40.732l0.544,0.677L106.918,176.342z M104.908,173.893h0.644l20.661-33.351
			c-12.831-16.44-12.323-35.271-11.886-40.534H96.132c0.438,5.264,0.95,24.094-11.892,40.534L104.908,173.893z"/>
	</g>
	<polygon fill="#084364" points="82.962,140.809 104.225,175.12 106.234,175.12 127.5,140.809 	"/>
	<path fill="#084364" d="M106.918,176.342h-3.376l-22.784-36.761h48.94L106.918,176.342z M104.908,173.893h0.644l19.739-31.861
		H85.162L104.908,173.893z"/>
	<g>
		<path fill="#FFFEFE" d="M139.758,55.678c-1.016-2.614-2.786-1.267-4.166,0.454c0.397-20.282-10.311-30.575-10.311-30.575
			l-20.107-6.639L85.06,25.557c0,0-10.779,10.275-10.438,30.433c-1.359-1.651-3.051-2.849-4.035-0.312
			c-1.828,4.716,2.467,11.176,1.641,17.723c-0.557,4.424,2.938,3.982,5.154,2.746c0.829,3.35,2.066,7.301,4.053,11.919
			c4.205,9.78,16.27,18.688,23.676,18.688c7.406,0,19.294-8.977,23.677-18.688c2.016-4.456,3.273-8.164,4.071-11.972
			c2.202,1.276,5.817,1.805,5.25-2.693C137.287,66.854,141.585,60.394,139.758,55.678z"/>
		<path fill="#084364" d="M105.111,107.981c-8.297,0-20.585-9.625-24.803-19.428c-1.561-3.632-2.793-7.146-3.755-10.7
			c-0.601,0.207-1.3,0.366-2.027,0.366c-1.107,0-2.03-0.385-2.663-1.104c-0.776-0.875-1.063-2.179-0.849-3.866
			c0.358-2.879-0.365-5.811-1.061-8.64c-0.826-3.36-1.612-6.538-0.511-9.373c0.717-1.854,1.844-2.249,2.667-2.249
			c0.424,0,0.861,0.114,1.307,0.34c0.57-18.692,10.364-28.24,10.798-28.662l0.464-0.271l20.496-6.766l20.96,7.044
			c0.431,0.415,10.128,9.967,10.675,28.711c0.481-0.266,0.959-0.396,1.427-0.396c0.819,0,1.947,0.396,2.663,2.249
			c1.101,2.835,0.318,6.013-0.51,9.373c-0.696,2.835-1.419,5.761-1.062,8.64c0.213,1.688-0.072,2.991-0.849,3.868
			c-0.633,0.721-1.559,1.103-2.667,1.103l0,0c-0.649,0-1.369-0.136-2.09-0.385c-0.824,3.396-2.029,6.772-3.816,10.739
			C125.484,98.37,113.205,107.981,105.111,107.981z M78.185,74.292l0.384,1.557c0.97,3.91,2.275,7.751,3.994,11.733
			c4.155,9.667,15.872,17.944,22.548,17.944c6.506,0,18.194-8.287,22.555-17.965c1.977-4.373,3.207-7.985,3.993-11.72l0.349-1.666
			l1.466,0.856c0.783,0.448,1.678,0.736,2.338,0.736l0,0c0.392,0,0.67-0.093,0.83-0.278c0.277-0.31,0.368-1.015,0.252-1.938
			c-0.418-3.33,0.394-6.625,1.113-9.527c0.767-3.107,1.427-5.788,0.604-7.9c-0.212-0.557-0.391-0.684-0.408-0.695
			c0,0.012-0.537,0.083-1.648,1.475l-2.255,2.816l0.069-3.611c0.352-18.002-8.375-28.011-9.754-29.48l-19.44-6.418l-19.448,6.418
			c-1.383,1.455-10.182,11.435-9.877,29.333l0.06,3.507l-2.229-2.702c-1.018-1.231-1.525-1.319-1.571-1.325
			c0,0.011-0.172,0.149-0.377,0.684c-0.824,2.112-0.161,4.793,0.605,7.9c0.717,2.898,1.529,6.197,1.112,9.527
			c-0.117,0.923-0.024,1.628,0.252,1.938c0.424,0.48,1.844,0.278,3.078-0.415L78.185,74.292z"/>
	</g>
	<g>
		<path fill="#7B7778" d="M105.174,16.511C75.329,9.765,72.487,41.48,72.487,41.48c24.989,6.05,31.246-7.449,32.687-16.838
			c1.433,9.389,7.687,22.888,32.681,16.838C137.854,41.48,135.015,9.765,105.174,16.511z"/>
		<path fill="#084364" d="M126.509,44.216c-0.003,0-0.003,0-0.003,0c-13.475,0-19.047-7.598-21.332-14.353
			c-2.292,6.755-7.863,14.353-21.338,14.353c-3.496,0-7.409-0.517-11.638-1.546l-1.025-0.245l0.093-1.055
			c0.027-0.269,2.687-27.026,26.028-27.026c2.474,0,5.121,0.306,7.88,0.91c2.752-0.604,5.398-0.91,7.873-0.91
			c23.337,0,26.008,26.758,26.027,27.026l0.093,1.055l-1.024,0.245C133.914,43.699,130.004,44.216,126.509,44.216z M105.359,17.729
			l1.024,6.725c1.204,7.896,5.674,17.31,20.122,17.31l0,0c3.011,0,6.37-0.412,9.996-1.228c-0.693-4.787-4.629-23.739-23.454-23.739
			c-2.371,0-4.928,0.312-7.607,0.911L105.359,17.729z M73.84,40.535c3.628,0.815,6.984,1.228,9.996,1.228
			c14.446,0,18.917-9.413,20.124-17.31l1.028-6.725l-0.086-0.021c-2.674-0.6-5.237-0.911-7.608-0.911
			C78.47,16.796,74.533,35.748,73.84,40.535z"/>
	</g>
	<g>
		<g>
			<path d="M75.969,56.467c-0.219-8.219,0.634-18.357,4.849-26.352c4.763-9.021,12.975-13.646,24.35-13.646
				c11.382,0,19.594,4.624,24.355,13.646c4.215,7.994,5.067,18.133,4.849,26.352h3.814c0.266-9.09-0.696-20.445-5.532-29.679
				c-5.506-10.504-14.771-15.902-27.486-15.902c-12.708,0-21.982,5.398-27.483,15.902c-4.832,9.233-5.794,20.589-5.529,29.679
				H75.969z"/>
			<path d="M139.373,57.691h-6.262l0.038-1.258c0.274-10.476-1.354-19.378-4.71-25.746c-4.553-8.619-12.379-12.996-23.271-12.996
				c-10.888,0-18.715,4.377-23.268,12.996c-3.357,6.364-4.981,15.266-4.706,25.746l0.033,1.258h-6.261l-0.037-1.188
				c-0.245-8.41,0.541-20.482,5.672-30.286c5.754-10.984,15.368-16.559,28.567-16.559c13.206,0,22.817,5.574,28.574,16.559
				c5.127,9.804,5.917,21.876,5.668,30.286L139.373,57.691z M135.622,55.236h1.363c0.129-8.033-0.77-18.993-5.419-27.876
				c-5.3-10.114-14.181-15.245-26.399-15.245c-12.215,0-21.096,5.131-26.396,15.245c-4.65,8.883-5.545,19.843-5.416,27.876h1.362
				c-0.135-10.482,1.55-19.122,5.012-25.689c5.01-9.49,13.571-14.304,25.437-14.304c11.873,0,20.43,4.813,25.44,14.304
				C134.073,36.114,135.758,44.756,135.622,55.236z"/>
		</g>
	</g>
	<g>
		<path fill="#282828" d="M73.929,53.787c-0.805-0.385-1.668-0.607-2.566-0.607c-4.371,0-7.917,4.908-7.917,10.962
			c0,6.046,3.545,10.95,7.917,10.95c0.898,0,1.761-0.222,2.566-0.603V53.787z"/>
		<path fill="#084364" d="M71.362,75.705c-4.703,0-8.526-5.189-8.526-11.563c0-6.382,3.823-11.568,8.526-11.568
			c0.958,0,1.911,0.22,2.832,0.66l0.349,0.159v21.48l-0.349,0.17C73.269,75.48,72.317,75.705,71.362,75.705z M71.362,53.798
			c-4.026,0-7.3,4.64-7.3,10.344c0,5.697,3.273,10.336,7.3,10.336c0.654,0,1.31-0.131,1.953-0.388V54.186
			C72.672,53.927,72.02,53.798,71.362,53.798z"/>
	</g>
	<g>
		<path fill="#54C2C9" d="M77.424,50.981c-0.662-0.358-1.409-0.58-2.211-0.58h-0.1c-2.58,0-4.68,2.096-4.68,4.68v18.998
			c0,2.585,2.1,4.684,4.68,4.684h0.1c0.802,0,1.549-0.225,2.211-0.581V50.981z"/>
		<path fill="#084364" d="M75.213,79.986h-0.1c-3.256,0-5.903-2.648-5.903-5.907V55.081c0-3.257,2.647-5.907,5.903-5.907
			c1.064,0,2.003,0.242,2.895,0.729l0.641,0.352v28.658l-0.644,0.351C77.109,79.743,76.169,79.986,75.213,79.986z M75.213,51.629
			c-2.003,0-3.549,1.548-3.549,3.452v18.998c0,1.909,1.546,3.462,3.449,3.462h0.1c0.325,0,0.657-0.058,0.984-0.164V51.783
			C75.87,51.682,75.538,51.629,75.213,51.629z"/>
	</g>
	<g>
		<path fill="#515151" d="M137.455,74.489l-2.088-0.005c-0.005,0.783-0.315,18.258-21.846,20.059
			c-0.408-0.614-1.072-1.038-1.86-1.038h-8.208c-1.25,0-2.265,1.015-2.265,2.266v0.05c0,1.252,1.014,2.271,2.265,2.271h8.208
			c0.975,0,1.785-0.615,2.109-1.472C137.121,94.595,137.455,74.697,137.455,74.489z"/>
		<path fill="#084364" d="M111.661,99.315h-8.208c-1.927,0-3.492-1.565-3.492-3.495c0-1.974,1.565-3.546,3.492-3.546h8.208
			c0.889,0,1.738,0.364,2.385,0.991c19.835-1.992,20.087-18.087,20.091-18.781l0.003-1.229l4.547,0.013v1.222
			c0,0.208-0.282,20.845-24.141,23.294C113.906,98.729,112.841,99.315,111.661,99.315z M103.452,94.732
			c-0.574,0-1.042,0.468-1.042,1.038c0,0.627,0.467,1.091,1.042,1.091h8.208c0.431,0,0.805-0.267,0.961-0.677l0.189-0.49
			l-0.315-0.471c-0.119-0.18-0.392-0.491-0.835-0.491H103.452z"/>
	</g>
	<g>
		<path fill="#282828" d="M136.411,53.787c0.806-0.385,1.668-0.607,2.57-0.607c4.371,0,7.913,4.908,7.913,10.962
			c0,6.046-3.542,10.95-7.913,10.95c-0.902,0-1.765-0.222-2.57-0.603V53.787z"/>
		<path fill="#084364" d="M138.981,75.705c-0.962,0-1.91-0.225-2.833-0.662l-0.351-0.17v-21.48l0.351-0.159
			c0.919-0.44,1.871-0.66,2.833-0.66c4.7,0,8.523,5.187,8.523,11.568C147.505,70.516,143.681,75.705,138.981,75.705z M137.024,74.09
			c0.644,0.257,1.301,0.388,1.957,0.388c4.02,0,7.296-4.639,7.296-10.336c0-5.704-3.276-10.344-7.296-10.344
			c-0.656,0-1.313,0.129-1.957,0.388V74.09z"/>
	</g>
	<g>
		<path fill="#54C2C9" d="M133.535,50.981c0.66-0.358,1.407-0.58,2.216-0.58h0.093c2.581,0,4.676,2.096,4.676,4.68v18.998
			c0,2.585-2.096,4.684-4.676,4.684h-0.093c-0.809,0-1.556-0.225-2.216-0.581V50.981z"/>
		<path fill="#084364" d="M135.844,79.986h-0.093c-0.965,0-1.906-0.243-2.799-0.723l-0.643-0.351V50.255l0.638-0.352
			c0.892-0.487,1.83-0.729,2.805-0.729c3.35,0,5.996,2.65,5.996,5.907v18.998C141.747,77.338,139.101,79.986,135.844,79.986z
			 M134.759,77.377c0.329,0.106,0.66,0.164,0.992,0.164h0.093c1.901,0,3.449-1.553,3.449-3.462V55.081
			c0-1.904-1.548-3.452-3.449-3.452c-0.391,0-0.75,0.053-1.084,0.161V77.377z"/>
	</g>
	<path fill="#BDD337" d="M158.575,138.613c-2.76-5.889-8.576-10.349-15.757-12.096l-25.092-5.615l-12.553,46.8l-12.573-46.8
		l-24.963,5.615c-7.18,1.747-13,6.207-15.753,12.096c0,0-8.261,28.938-3.243,31.365c9.335,4.518,19.434,7.233,29.745,8.365
		c17.839,1.959,35.848,1.959,53.683,0c10.307-1.132,20.41-3.848,29.749-8.365C166.84,167.551,158.575,138.613,158.575,138.613z"/>
	<path fill="#084364" d="M105.227,181.04c-8.975,0-18.055-0.495-26.976-1.477c-10.819-1.185-20.959-4.039-30.14-8.48
		c-5.522-2.669,0.591-25.788,2.594-32.81c3.001-6.449,9.047-11.104,16.642-12.954l26.133-5.873l11.688,43.521l11.681-43.521
		l26.239,5.87c7.622,1.853,13.664,6.508,16.596,12.775c2.077,7.203,8.192,30.322,2.667,32.991
		c-9.181,4.441-19.321,7.296-30.144,8.48C123.281,180.545,114.208,181.04,105.227,181.04z M91.722,122.354l-23.812,5.359
		c-6.752,1.64-12.337,5.911-14.914,11.419c-3.785,13.318-6.265,28.558-3.818,29.741c8.929,4.318,18.798,7.095,29.344,8.249
		c17.667,1.942,35.745,1.942,53.415,0c10.546-1.154,20.416-3.931,29.344-8.249c2.447-1.184-0.033-16.423-3.887-29.921
		c-2.511-5.328-8.092-9.6-14.864-11.242l-23.926-5.356l-13.431,50.076L91.722,122.354z"/>
	<g>
		<rect x="119.01" y="151.404" fill="#FFFFFF" width="21.205" height="4.625"/>
		<path fill="#084364" d="M141.439,157.254h-23.66v-7.077h23.66V157.254z M120.236,154.807h18.752v-2.18h-18.752V154.807z"/>
	</g>
</g>
</svg>
