<?xml version="1.0" encoding="utf-8"?>
<!-- Generator: Adobe Illustrator 16.0.0, SVG Export Plug-In . SVG Version: 6.00 Build 0)  -->
<!DOCTYPE svg PUBLIC "-//W3C//DTD SVG 1.1//EN" "http://www.w3.org/Graphics/SVG/1.1/DTD/svg11.dtd">
<svg version="1.1" id="Layer_1" xmlns="http://www.w3.org/2000/svg" xmlns:xlink="http://www.w3.org/1999/xlink" x="0px" y="0px"
	 width="267.186px" height="170.763px" viewBox="0 0 267.186 170.763" enable-background="new 0 0 267.186 170.763"
	 xml:space="preserve">
<g>
	<g>
		<path fill="#BDD235" d="M1.938,133.696v10.734c0,9.749,7.901,17.649,17.646,17.649h115.363"/>
		<path fill="#084364" d="M134.946,164.017H19.583C8.786,164.017,0,155.232,0,144.431v-10.734h3.875v10.734
			c0,8.663,7.046,15.712,15.708,15.712h115.363V164.017z"/>
	</g>
	<path fill="#BDD235" d="M136.892,163.789V152.41c0-10.337-7.995-18.714-17.854-18.714H2.301"/>
	<g>
		<path fill="#BDD235" d="M35.203,133.696V2.691h115.562v143.572c0,8.737-7.082,15.816-15.819,15.816l0,0
			c-8.736,0-15.811-7.079-15.811-15.816v-12.567H1.938l0,0"/>
		<path fill="#084364" d="M134.946,164.017c-9.786,0-17.748-7.964-17.748-17.753v-10.631H1.938v-3.875h31.328V0.755h119.438v145.509
			C152.703,156.053,144.737,164.017,134.946,164.017z M37.139,131.758h83.934v14.506c0,7.654,6.224,13.879,13.874,13.879
			c7.655,0,13.882-6.225,13.882-13.879V4.629H37.139V131.758z"/>
	</g>
	<g>
		<rect x="56.493" y="30.645" width="62.643" height="3.875"/>
		<rect x="56.493" y="92.989" width="62.643" height="3.874"/>
		<rect x="56.493" y="72.207" width="62.643" height="3.874"/>
		<rect x="56.493" y="51.427" width="42.576" height="3.876"/>
	</g>
	<path fill="#C4C6C2" d="M244.457,136.836c0,17.673-14.321,31.99-31.99,31.99h-85.954c-17.669,0-31.989-14.317-31.989-31.99V50.883
		c0-17.673,14.32-31.99,31.989-31.99h85.954c17.668,0,31.99,14.317,31.99,31.99V136.836z"/>
	<path fill="#084364" d="M212.467,170.763h-85.954c-18.705,0-33.926-15.22-33.926-33.927V50.883
		c0-18.705,15.221-33.926,33.926-33.926h85.954c18.706,0,33.927,15.221,33.927,33.926v85.953
		C246.394,155.543,231.173,170.763,212.467,170.763z M126.513,20.83c-16.572,0-30.052,13.481-30.052,30.053v85.953
		c0,16.572,13.48,30.053,30.052,30.053h85.954c16.571,0,30.052-13.48,30.052-30.053V50.883c0-16.571-13.481-30.053-30.052-30.053
		H126.513z"/>
	<path fill="#FDFDFE" d="M233.337,102.565c-1.283,1.607-51.101,54.111-51.101,54.111l-60.252-49.5l19.118-43.615l58.456-2.066
		l16.488-0.779L233.337,102.565z"/>
	<path d="M171.9,81.964c2.112-5.456,14.442-10.345,10.928-10.45c-0.145-0.004,15.777-1.631,15.777-1.631l-4.041,7.041l33.067,31.77
		l-2.572,2.748L171.9,81.964z"/>
	<g>
		<path fill="#FDFDFE" d="M183.849,163.869c-2.043,0-4.098-0.644-5.842-1.975l-56.631-43.2c-4.233-3.231-5.047-9.281-1.815-13.515
			c3.227-4.23,9.276-5.048,13.51-1.815l56.632,43.194c4.234,3.232,5.042,9.281,1.819,13.516
			C189.622,162.563,186.751,163.869,183.849,163.869z"/>
	</g>
	<g>
		<path fill="#FDFDFE" d="M197.046,154.051c-2.043,0-4.094-0.643-5.842-1.979l-56.631-43.2c-4.233-3.228-5.047-9.276-1.816-13.511
			c3.228-4.233,9.277-5.047,13.515-1.815l56.627,43.195c4.234,3.231,5.047,9.281,1.821,13.515
			C202.819,152.742,199.947,154.051,197.046,154.051z"/>
	</g>
	<g>
		<path fill="#FDFDFE" d="M209.077,142.02c-2.04,0-4.094-0.646-5.842-1.979l-56.631-43.197c-4.234-3.23-5.048-9.281-1.816-13.515
			c3.231-4.233,9.276-5.046,13.514-1.819l56.631,43.2c4.23,3.23,5.044,9.281,1.817,13.515
			C214.851,140.714,211.982,142.02,209.077,142.02z"/>
	</g>
	<g>
		<path fill="#FDFDFE" d="M220.639,129.954c-2.043,0-4.098-0.644-5.842-1.979l-56.631-43.197c-4.234-3.23-5.047-9.281-1.815-13.515
			c3.227-4.234,9.276-5.047,13.51-1.816l13.368-3.636v10.443l43.265,36.393c4.234,3.228,5.046,9.278,1.819,13.512
			C226.413,128.645,223.54,129.954,220.639,129.954z"/>
	</g>
	<path fill="#FDFDFE" d="M168.983,142.02l1.184-1.495l-0.25-3.054l2.683-0.025l7.465-9.437l-0.462-3.468l3.242-0.054l7.59-9.596
		l-0.844-3.795l4.117-0.341l4.28-5.414l-32.781-44.626c0,0-22.592,0.791-29.825-1.777c-7.87-2.797-26.908,47.398-15.361,56.736
		C131.576,125.02,168.983,142.02,168.983,142.02z"/>
	<path d="M162.764,141.939c0.06-3.469-1.457-6.742-4.208-8.939c-1.873-1.498-4.197-2.361-6.587-2.452
		c0-0.688-0.061-1.377-0.186-2.062c-0.542-2.947-2.198-5.51-4.665-7.212c-1.884-1.293-4.079-1.982-6.357-1.982
		c-0.473,0-0.946,0.03-1.415,0.092c-0.711-2.978-2.595-5.519-5.305-7.077c-1.71-0.986-3.644-1.505-5.603-1.505
		c-3.837,0-7.42,1.983-9.471,5.202c0.61,1.01,1.408,1.931,2.407,2.69l50.768,38.728c0.56-1.347,0.851-2.804,0.851-4.309
		c0-3.001-1.165-5.819-3.28-7.93C167.825,143.294,165.385,142.162,162.764,141.939z"/>
	<path d="M183.788,76.492V66.051l-4.188,1.127v-1.127l-3.053,0.821v-7.424l-10.11,2.713l-0.9-1.212c0,0-0.439,0-1.21,0l-0.875-0.119
		l-16.779-0.277c0,0-1.196,1.851-1.378,3.085c0,0-0.916,4.389-1.01,4.921l-4.325,24.76c-3.609,19.829,25.535,10.636,27.643-1.509
		l2.277-13.042l13.938-2.252L183.788,76.492z"/>
	<g>
		<path fill="#FDFDFE" d="M149.022,100.307c-6.618-0.492-5.915-4.719-5.055-9.705l4.272-24.756c0.575-3.332,2.936-6.076,6.144-7.143
			l26.613-10.416c1.464-0.483,3.027-0.591,4.548-0.311l23.011,5.872c4.971,0.919,8.255,5.697,7.332,10.674
			c-0.919,4.976-5.697,8.259-10.668,7.336l-20.7-0.62l-19.164,3.133l-2.247,13.042C161.027,99.558,151.757,100.511,149.022,100.307z
			"/>
	</g>
	<g>
		<path fill="#FDFDFE" d="M135.557,146.045c-1.515,0-3.039-0.446-4.375-1.365c-3.506-2.418-4.388-7.223-1.971-10.73l5.255-7.764
			c2.422-3.504,7.227-4.385,10.73-1.968c3.508,2.418,4.389,7.223,1.971,10.727l-5.258,7.765
			C140.413,144.875,138.004,146.045,135.557,146.045z"/>
	</g>
	<g>
		<path fill="#FDFDFE" d="M147.64,154.398c-1.688,0-3.39-0.552-4.813-1.691c-3.33-2.662-3.866-7.516-1.207-10.842l3.976-4.867
			c2.656-3.328,7.514-3.865,10.836-1.205c3.33,2.662,3.866,7.516,1.207,10.842l-3.972,4.87
			C152.144,153.408,149.903,154.398,147.64,154.398z"/>
	</g>
	<g>
		<path fill="#FDFDFE" d="M159.861,162.48c-1.975,0-3.949-0.752-5.456-2.259c-3.012-3.011-3.012-7.892,0-10.907l2.047-1.654
			c3.012-3.011,7.897-3.011,10.907,0c3.012,3.013,3.012,7.893,0,10.908l-2.043,1.653C163.811,161.729,161.836,162.48,159.861,162.48
			z"/>
	</g>
	<g>
		<path fill="#FDFDFE" d="M124.849,136.591c-1.31,0-2.633-0.33-3.852-1.033c-3.685-2.128-4.953-6.845-2.822-10.534l3.646-6.794
			c2.131-3.693,6.849-4.956,10.538-2.83c3.688,2.13,4.956,6.848,2.826,10.537l-3.647,6.798
			C130.107,135.205,127.512,136.591,124.849,136.591z"/>
	</g>
	<path d="M135.715,124.792c0.537-1.417,0.621-2.919,0.317-4.335l-11.108,16.129c1.173-0.01,2.324-0.303,3.367-0.821
		c-0.514,1.457-0.563,3.013-0.196,4.469l11.934-17.328C138.454,123.07,136.941,123.712,135.715,124.792z"/>
	<path d="M146.278,136.237l0.889-1.312c1.109-1.612,1.518-3.496,1.302-5.297l-12.478,16.374c1.54-0.09,3.038-0.642,4.286-1.61
		c-0.393,1.273-0.423,2.617-0.147,3.896l10.794-14.165C149.222,134.282,147.573,134.994,146.278,136.237z"/>
	<path d="M158.419,146.045l0.065-0.359c1.362-1.695,1.036-2.842,0.779-4.839l-11.055,13.526c1.513-0.109,2.989-0.662,4.215-1.635
		c-0.348,1.278-0.356,2.629-0.038,3.916l9.186-11.237C160.156,145.48,159.634,145.201,158.419,146.045z"/>
	<path d="M219.837,128.838l-17.881-13.783c-1.021-0.787-2.49-0.602-3.28,0.424c-0.791,1.024-0.602,2.494,0.424,3.279l17.884,13.783
		c0.425,0.33,0.923,0.488,1.423,0.488c0.099,0,0.197-0.022,0.287-0.034c0.073-1.118-0.052-2.247-0.366-3.325
		c0.761,0.19,1.532,0.284,2.304,0.284C220.488,129.527,220.224,129.133,219.837,128.838z"/>
	<path d="M206.67,144.506c0.007-0.988-0.121-1.967-0.408-2.913c0.923,0.28,1.869,0.427,2.815,0.427c0.303,0,0.605-0.022,0.908-0.053
		c-0.105-0.529-0.377-1.033-0.84-1.393l-18.992-14.979c-1.015-0.804-2.482-0.628-3.284,0.386c-0.802,1.013-0.628,2.485,0.385,3.288
		l18.994,14.976C206.383,144.351,206.527,144.434,206.67,144.506z"/>
	<path d="M197.245,154.04c-0.109-0.496-0.366-0.962-0.79-1.306l-12.107-9.924c-1-0.817-2.474-0.67-3.292,0.328
		c-0.818,1-0.674,2.472,0.325,3.293l11.903,9.749c0.189-0.938,0.246-1.892,0.159-2.833c1.157,0.469,2.384,0.703,3.602,0.703
		C197.113,154.051,197.182,154.04,197.245,154.04z"/>
	<polygon fill="#FDFDFE" points="209.985,55.691 224.559,53.334 241.604,97.885 232.186,103.837 	"/>
	<polygon fill="#FDFDFE" points="135.382,58.938 122.423,54.147 102.942,104.377 118.16,110.103 	"/>
	<g>
		<path fill="#A8DEEC" d="M239.227,113.016c0.591,1.684,2.475,2.648,4.189,2.137l12.587-3.745c1.714-0.507,2.629-2.3,2.04-3.987
			l-20.317-57.895c-0.59-1.684-2.474-2.65-4.185-2.139l-12.591,3.745c-1.71,0.507-2.625,2.304-2.036,3.992L239.227,113.016z"/>
		<path fill="#084364" d="M242.475,117.227L242.475,117.227c-2.288,0-4.327-1.435-5.076-3.572l-20.312-57.887
			c-0.464-1.328-0.371-2.736,0.259-3.97c0.631-1.229,1.714-2.126,3.053-2.523l12.589-3.745c2.65-0.799,5.649,0.74,6.566,3.354
			l20.316,57.893c0.464,1.327,0.371,2.731-0.26,3.964c-0.63,1.231-1.716,2.127-3.058,2.525l-12.584,3.746
			C243.485,117.154,242.982,117.227,242.475,117.227z M234.481,49.187c-0.132,0-0.262,0.021-0.385,0.059l-12.593,3.745
			c-0.314,0.091-0.564,0.295-0.707,0.575c-0.144,0.28-0.163,0.605-0.054,0.919l20.313,57.888c0.242,0.688,1.097,1.146,1.807,0.923
			l12.589-3.746c0.317-0.095,0.568-0.295,0.709-0.575c0.144-0.28,0.163-0.605,0.053-0.915l-20.315-57.891
			C235.699,49.6,235.103,49.187,234.481,49.187z"/>
	</g>
	<g>
		<path fill="#B0D9A6" d="M249.833,112.755c0.59,1.687,2.452,2.579,4.139,1.989l9.104-3.197c1.683-0.59,2.58-2.451,1.99-4.135
			l-22.108-62.996c-0.593-1.687-2.455-2.58-4.134-1.989l-9.111,3.197c-1.683,0.59-2.58,2.451-1.986,4.135L249.833,112.755z"/>
		<path fill="#084364" d="M252.902,116.863c-2.203,0-4.172-1.393-4.898-3.471l-22.106-62.99c-0.458-1.302-0.38-2.706,0.219-3.958
			c0.601-1.249,1.65-2.19,2.955-2.648l9.11-3.196c2.629-0.928,5.681,0.552,6.605,3.174l22.107,62.995
			c0.946,2.698-0.48,5.661-3.177,6.606l-9.102,3.196C254.06,116.765,253.486,116.863,252.902,116.863z M239.887,44.183
			c-0.144,0-0.285,0.022-0.422,0.071l-9.112,3.196c-0.327,0.114-0.591,0.354-0.743,0.671c-0.151,0.318-0.173,0.669-0.059,0.994
			l22.109,62.996c0.231,0.666,0.994,1.048,1.671,0.807l9.101-3.198c0.67-0.235,1.039-0.998,0.804-1.669L241.13,45.06
			C240.946,44.533,240.447,44.183,239.887,44.183z"/>
	</g>
	<g>
		<path fill="#A8DEEC" d="M106.56,113.016c-0.59,1.684-2.474,2.648-4.186,2.137l-12.591-3.745c-1.71-0.507-2.625-2.3-2.036-3.987
			l20.314-57.895c0.594-1.684,2.478-2.65,4.188-2.139l12.592,3.745c1.71,0.507,2.625,2.304,2.035,3.992L106.56,113.016z"/>
		<path fill="#084364" d="M103.315,117.227c-0.509,0-1.011-0.072-1.494-0.215l-12.591-3.746c-1.337-0.398-2.42-1.294-3.051-2.525
			c-0.629-1.232-0.722-2.639-0.259-3.96l20.314-57.898c0.92-2.612,3.909-4.147,6.569-3.353l12.59,3.745
			c1.337,0.397,2.42,1.294,3.051,2.523c0.63,1.233,0.723,2.642,0.261,3.965l-20.318,57.896
			C107.639,115.792,105.6,117.227,103.315,117.227z M111.31,49.187c-0.623,0-1.221,0.413-1.421,0.981l-20.312,57.896
			c-0.109,0.31-0.09,0.636,0.053,0.91c0.141,0.28,0.392,0.485,0.705,0.575l12.593,3.746c0.714,0.209,1.563-0.235,1.804-0.919
			L125.05,54.48c0.108-0.31,0.089-0.635-0.055-0.915c-0.143-0.28-0.393-0.484-0.705-0.575l-12.593-3.745
			C111.571,49.207,111.442,49.187,111.31,49.187z"/>
	</g>
	<g>
		<path fill="#505BA9" d="M98.961,112.119c-0.594,1.688-2.455,2.58-4.138,1.989l-9.107-3.197c-1.683-0.59-2.581-2.451-1.986-4.135
			l22.102-62.995c0.591-1.688,2.453-2.582,4.14-1.99l9.103,3.197c1.687,0.59,2.58,2.451,1.99,4.135L98.961,112.119z"/>
		<path fill="#084364" d="M95.889,116.229c-0.581,0-1.156-0.1-1.708-0.293l-9.106-3.196c-1.304-0.458-2.354-1.401-2.955-2.649
			c-0.6-1.251-0.678-2.654-0.218-3.957l22.103-62.996c0.917-2.621,3.963-4.096,6.606-3.173l9.106,3.196
			c1.302,0.455,2.351,1.396,2.954,2.645c0.6,1.254,0.679,2.657,0.222,3.958l-22.103,62.999
			C100.059,114.835,98.089,116.229,95.889,116.229z M108.904,43.547c-0.561,0-1.059,0.351-1.243,0.873l-22.104,63
			c-0.116,0.325-0.094,0.676,0.057,0.994s0.416,0.557,0.743,0.67l9.107,3.197c0.669,0.23,1.439-0.146,1.671-0.806l22.103-62.996
			c0.113-0.325,0.093-0.676-0.06-0.994c-0.152-0.317-0.416-0.557-0.743-0.67l-9.105-3.197
			C109.194,43.569,109.049,43.547,108.904,43.547z"/>
	</g>
</g>
</svg>
