<?xml version="1.0" encoding="utf-8"?>
<!-- Generator: Adobe Illustrator 16.0.0, SVG Export Plug-In . SVG Version: 6.00 Build 0)  -->
<!DOCTYPE svg PUBLIC "-//W3C//DTD SVG 1.1//EN" "http://www.w3.org/Graphics/SVG/1.1/DTD/svg11.dtd">
<svg version="1.1" id="Layer_1" xmlns="http://www.w3.org/2000/svg" xmlns:xlink="http://www.w3.org/1999/xlink" x="0px" y="0px"
	 width="181.808px" height="180.859px" viewBox="0 0 181.808 180.859" enable-background="new 0 0 181.808 180.859"
	 xml:space="preserve">
<g>
	<g>
		<path fill="#FFFFFF" d="M62.68,42.194c-4.196,0-7.599,3.399-7.599,7.599v81.438c0,4.199,3.403,7.602,7.599,7.602h19.543
			c4.202,0,7.602-3.402,7.602-7.602V49.793c0-4.199-3.399-7.599-7.602-7.599H62.68z"/>
		<path fill="#084364" d="M82.223,139.819H62.68c-4.74,0-8.596-3.85-8.596-8.589V49.793c0-4.736,3.855-8.596,8.596-8.596h19.543
			c4.743,0,8.599,3.859,8.599,8.596v81.438C90.822,135.97,86.966,139.819,82.223,139.819z M62.68,43.188
			c-3.64,0-6.605,2.963-6.605,6.605v81.438c0,3.64,2.965,6.604,6.605,6.604h19.543c3.643,0,6.604-2.965,6.604-6.604V49.793
			c0-3.643-2.962-6.605-6.604-6.605H62.68z"/>
	</g>
	<path fill="#858585" d="M60.673,59.061c0,1.017,0.823,1.837,1.833,1.837h19.748c1.023,0,1.847-0.82,1.847-1.837v-4.736
		c0-1.025-0.823-1.846-1.847-1.846H62.506c-1.01,0-1.833,0.82-1.833,1.846V59.061z"/>
	<path fill="#084364" d="M82.254,61.895H62.506c-1.556,0-2.826-1.271-2.826-2.834v-4.736c0-1.566,1.271-2.843,2.826-2.843h19.748
		c1.569,0,2.837,1.276,2.837,2.843v4.736C85.091,60.624,83.824,61.895,82.254,61.895z M62.506,53.475
		c-0.46,0-0.833,0.377-0.833,0.85v4.736c0,0.463,0.373,0.844,0.833,0.844h19.748c0.474,0,0.85-0.381,0.85-0.844v-4.736
		c0-0.473-0.376-0.85-0.85-0.85H62.506z"/>
	<path fill="#D7E8F7" d="M17.656,61.605c-3.087,0-5.592,2.501-5.592,5.592v59.92c0,3.09,2.505,5.596,5.592,5.596h14.381
		c3.094,0,5.596-2.506,5.596-5.596v-59.92c0-3.091-2.502-5.592-5.596-5.592H17.656z"/>
	<path fill="#084364" d="M32.037,133.439H17.656c-3.485,0-6.325-2.834-6.325-6.322v-59.92c0-3.486,2.84-6.326,6.325-6.326h14.381
		c3.489,0,6.329,2.84,6.329,6.326v59.92C38.366,130.605,35.526,133.439,32.037,133.439z M17.656,62.338
		c-2.679,0-4.858,2.178-4.858,4.859v59.92c0,2.678,2.18,4.861,4.858,4.861h14.381c2.686,0,4.862-2.184,4.862-4.861v-59.92
		c0-2.682-2.177-4.859-4.862-4.859H17.656z"/>
	<path fill="#6DC6B0" d="M72.71,122.566c-2.226,0-4.026,1.801-4.026,4.023c0,2.215,1.801,4.022,4.026,4.022
		c2.216,0,4.022-1.808,4.022-4.022C76.733,124.367,74.926,122.566,72.71,122.566z"/>
	<path fill="#084364" d="M72.71,131.605c-2.769,0-5.017-2.25-5.017-5.016c0-2.763,2.248-5.021,5.017-5.021
		c2.763,0,5.017,2.258,5.017,5.021C77.727,129.355,75.473,131.605,72.71,131.605z M72.71,123.563c-1.672,0-3.032,1.356-3.032,3.026
		c0,1.672,1.36,3.032,3.032,3.032c1.669,0,3.026-1.36,3.026-3.032C75.737,124.92,74.379,123.563,72.71,123.563z"/>
	<path fill="#FFFFFF" d="M16.183,74.015c0,0.749,0.608,1.354,1.354,1.354h14.525c0.752,0,1.353-0.604,1.353-1.354v-3.483
		c0-0.756-0.601-1.359-1.353-1.359H17.538c-0.747,0-1.354,0.604-1.354,1.359V74.015z"/>
	<path fill="#084364" d="M32.063,76.102H17.538c-1.151,0-2.091-0.936-2.091-2.087v-3.483c0-1.154,0.939-2.093,2.091-2.093h14.525
		c1.154,0,2.087,0.938,2.087,2.093v3.483C34.15,75.166,33.217,76.102,32.063,76.102z M17.538,69.904
		c-0.345,0-0.622,0.277-0.622,0.627v3.483c0,0.341,0.277,0.62,0.622,0.62h14.525c0.341,0,0.624-0.279,0.624-0.62v-3.483
		c0-0.35-0.283-0.627-0.624-0.627H17.538z"/>
	<path fill="#FFD950" d="M25.033,120.743c-1.63,0-2.955,1.325-2.955,2.962c0,1.631,1.325,2.959,2.955,2.959
		c1.638,0,2.962-1.328,2.962-2.959C27.995,122.068,26.67,120.743,25.033,120.743z"/>
	<path fill="#084364" d="M25.033,127.396c-2.028,0-3.688-1.656-3.688-3.691c0-2.033,1.66-3.695,3.688-3.695
		c2.042,0,3.692,1.662,3.692,3.695C28.725,125.74,27.075,127.396,25.033,127.396z M25.033,121.477c-1.225,0-2.222,1-2.222,2.229
		s0.997,2.231,2.222,2.231c1.232,0,2.229-1.003,2.229-2.231S26.265,121.477,25.033,121.477z"/>
	<path fill="#858585" d="M60.673,72.172c0,1.02,0.823,1.843,1.833,1.843h19.748c1.023,0,1.847-0.823,1.847-1.843v-4.736
		c0-1.02-0.823-1.844-1.847-1.844H62.506c-1.01,0-1.833,0.824-1.833,1.844V72.172z"/>
	<path fill="#084364" d="M82.254,75.008H62.506c-1.556,0-2.826-1.273-2.826-2.836v-4.736c0-1.57,1.271-2.837,2.826-2.837h19.748
		c1.569,0,2.837,1.267,2.837,2.837v4.736C85.091,73.734,83.824,75.008,82.254,75.008z M62.506,66.586
		c-0.46,0-0.833,0.383-0.833,0.85v4.736c0,0.467,0.373,0.85,0.833,0.85h19.748c0.474,0,0.85-0.383,0.85-0.85v-4.736
		c0-0.467-0.376-0.85-0.85-0.85H62.506z"/>
	<path fill="#FFFFFF" d="M16.183,83.662c0,0.752,0.608,1.357,1.354,1.357h14.525c0.752,0,1.353-0.605,1.353-1.357v-3.486
		c0-0.749-0.601-1.351-1.353-1.351H17.538c-0.747,0-1.354,0.602-1.354,1.351V83.662z"/>
	<path fill="#084364" d="M32.063,85.749H17.538c-1.151,0-2.091-0.937-2.091-2.087v-3.486c0-1.154,0.939-2.087,2.091-2.087h14.525
		c1.154,0,2.087,0.933,2.087,2.087v3.486C34.15,84.813,33.217,85.749,32.063,85.749z M17.538,79.553
		c-0.345,0-0.622,0.282-0.622,0.623v3.486c0,0.344,0.277,0.627,0.622,0.627h14.525c0.341,0,0.624-0.283,0.624-0.627v-3.486
		c0-0.341-0.283-0.623-0.624-0.623H17.538z"/>
	<g>
		<path fill="#084364" d="M24.798,143.701c-0.405,0-0.733-0.328-0.733-0.734v-10.254c0-0.409,0.328-0.734,0.733-0.734
			c0.408,0,0.733,0.325,0.733,0.734v10.254C25.532,143.373,25.206,143.701,24.798,143.701z"/>
	</g>
	<g>
		<path fill="#FFFFFF" d="M72.385,153.766c-0.553,0-0.993-0.447-0.993-0.996v-13.938c0-0.557,0.44-0.997,0.993-0.997
			c0.547,0,1,0.44,1,0.997v13.938C73.385,153.318,72.932,153.766,72.385,153.766z"/>
	</g>
	<g>
		<path fill="#084364" d="M76.451,143.701H6.983c-0.273,0-0.498-0.328-0.498-0.734c0-0.401,0.225-0.729,0.498-0.729h69.468
			c0.273,0,0.495,0.328,0.495,0.729C76.946,143.373,76.724,143.701,76.451,143.701z"/>
	</g>
	<circle fill="#6DC6B0" cx="24.85" cy="142.966" r="2.96"/>
	<path fill="#084364" d="M24.85,146.659c-2.039,0-3.695-1.656-3.695-3.692c0-2.038,1.656-3.691,3.695-3.691
		c2.035,0,3.688,1.653,3.688,3.691C28.539,145.003,26.885,146.659,24.85,146.659z M24.85,140.738c-1.229,0-2.229,1.004-2.229,2.229
		c0,1.229,1,2.229,2.229,2.229s2.225-1,2.225-2.229C27.075,141.742,26.079,140.738,24.85,140.738z"/>
	<path fill="#FFD950" d="M72.385,148.746c-2.222,0-4.022,1.805-4.022,4.023c0,2.222,1.801,4.022,4.022,4.022
		c2.226,0,4.023-1.801,4.023-4.022C76.409,150.551,74.611,148.746,72.385,148.746z"/>
	<path fill="#084364" d="M72.385,157.785c-2.769,0-5.02-2.25-5.02-5.016c0-2.77,2.251-5.018,5.02-5.018
		c2.77,0,5.023,2.248,5.023,5.018C77.409,155.535,75.155,157.785,72.385,157.785z M72.385,149.743c-1.669,0-3.025,1.36-3.025,3.026
		c0,1.668,1.356,3.029,3.025,3.029c1.673,0,3.026-1.361,3.026-3.029C75.412,151.104,74.058,149.743,72.385,149.743z"/>
	<path fill="#6DC6B0" d="M5.182,140.006c1.634,0,2.958,1.328,2.958,2.961c0,1.635-1.324,2.959-2.958,2.959
		c-1.64,0-2.959-1.324-2.959-2.959C2.223,141.334,3.542,140.006,5.182,140.006z"/>
	<path fill="#084364" d="M5.182,146.659c-2.039,0-3.691-1.656-3.691-3.692c0-2.038,1.652-3.691,3.691-3.691
		c2.032,0,3.691,1.653,3.691,3.691C8.873,145.003,7.214,146.659,5.182,146.659z M5.182,140.738c-1.229,0-2.231,1.004-2.231,2.229
		c0,1.229,1.003,2.229,2.231,2.229c1.226,0,2.226-1,2.226-2.229C7.408,141.742,6.408,140.738,5.182,140.738z"/>
	<path fill="#C4C6C2" d="M176.439,132.082c0,15.021-12.172,27.189-27.19,27.189H76.193c-15.018,0-27.189-12.168-27.189-27.189
		V59.025c0-15.021,12.172-27.189,27.189-27.189h73.056c15.018,0,27.19,12.169,27.19,27.189V132.082z"/>
	<path fill="#084364" d="M149.249,160.918H76.193c-15.898,0-28.836-12.938-28.836-28.836V59.025
		c0-15.898,12.938-28.836,28.836-28.836h73.056c15.899,0,28.836,12.938,28.836,28.836v73.057
		C178.085,147.98,165.148,160.918,149.249,160.918z M76.193,33.482c-14.085,0-25.543,11.458-25.543,25.543v73.057
		c0,14.085,11.458,25.543,25.543,25.543h73.056c14.085,0,25.543-11.458,25.543-25.543V59.025c0-14.085-11.458-25.543-25.543-25.543
		H76.193z"/>
	<path fill="#D7E8F7" d="M179.372,44.674c-43.107,12.059-67.235-39.793-67.235-39.793S87.992,56.732,44.884,44.674
		c0,0-12.072,105.169,67.252,132.75C191.444,149.843,179.372,44.674,179.372,44.674z"/>
	<path fill="#084364" d="M112.136,179.611l-0.679-0.238C31.5,151.572,42.713,45.504,42.835,44.433l0.276-2.402l2.332,0.649
		c4.129,1.161,8.265,1.743,12.284,1.743c0,0,0,0,0.01,0c33.271,0,52.34-40.008,52.523-40.416L112.136,0l1.865,4.007
		c0.195,0.408,19.243,40.416,52.523,40.416c4.02,0,8.155-0.582,12.29-1.743l2.332-0.649l0.269,2.402
		c0.123,1.071,11.333,107.14-68.605,134.94L112.136,179.611z M46.737,47.271c-1.123,15.564-4.193,103.198,65.399,127.963
		c69.576-24.765,66.502-112.398,65.387-127.963c-3.692,0.855-7.391,1.28-10.998,1.28c-30.084,0-48.665-28.784-54.389-39.181
		c-5.728,10.39-24.318,39.178-54.393,39.181h-0.016C54.114,48.552,50.428,48.127,46.737,47.271z"/>
	<path fill="#EEABB0" d="M112.136,159.287C62.369,140.309,59.374,80.813,60.001,59.231c1.653,0.174,3.293,0.267,4.901,0.267
		c23.183,0,38.975-17.34,47.233-29.537c8.235,12.197,24.038,29.537,47.217,29.537c1.604,0,3.251-0.093,4.889-0.267
		C164.862,80.832,161.807,140.33,112.136,159.287z"/>
	<path fill="#084364" d="M112.136,161.496l-0.74-0.282c-50.385-19.218-54.163-77.761-53.452-102.04l0.061-2.226l2.216,0.231
		c1.576,0.168,3.139,0.254,4.683,0.254c21.609,0,36.682-15.564,45.522-28.627l1.717-2.527l1.705,2.531
		c8.814,13.059,23.87,28.623,45.506,28.623c1.534,0,3.103-0.086,4.67-0.254l2.216-0.231l0.067,2.226
		c0.694,24.289-3.129,82.842-53.431,102.04L112.136,161.496z M62.024,61.477c-0.396,24.414,4.313,77.58,50.112,95.596
		c45.725-17.99,50.459-71.172,50.089-95.596c-0.968,0.058-1.92,0.086-2.872,0.086c-22.992,0-38.934-16.535-47.217-27.99
		C102.135,47.455,85.419,62.904,62.024,61.477z"/>
	<g>
		<path fill="#FFFFFF" d="M112.718,94.625H62.956c4.989,24.545,17.758,52.678,49.18,64.662c0.199-0.083,0.383-0.17,0.582-0.247
			V94.625z"/>
		<path fill="#084364" d="M112.747,161.252l-1.351-0.038c-26.24-10.008-43.69-32.895-50.465-66.181l-0.495-2.471h54.347v67.867
			L112.747,161.252z M65.507,96.689c4.775,21.285,16.516,47.786,45.146,59.784V96.689H65.507z"/>
	</g>
	<g>
		<path fill="#FFFFFF" d="M159.469,59.498c1.569,0,3.177-0.093,4.785-0.267c0.237,8.098-0.029,21.53-3.02,36.146h-48.517
			c0,0-0.489-64.705-0.3-64.991C120.497,42.586,136.807,59.498,159.469,59.498z"/>
		<path fill="#084364" d="M162.919,97.441h-52.247l-0.019-2.049c-0.496-65.351-0.441-65.425,0.063-66.168l1.73-2.54l1.688,2.563
			c5.611,8.473,21.25,28.186,45.333,28.186c1.502,0,3.026-0.086,4.566-0.254l2.222-0.238l0.062,2.232
			c0.254,8.646-0.08,22.018-3.064,36.618L162.919,97.441z M114.77,93.313h44.764c2.386-12.396,2.826-23.784,2.711-31.836
			c-0.933,0.058-1.862,0.086-2.775,0.086c-21.864,0-37.143-14.754-45.031-24.848C114.455,48.35,114.622,74.066,114.77,93.313z"/>
	</g>
	<g>
		<g>
			<path fill="#C4C6C2" d="M125.224,94.834h-25.003c-4.251,0-7.701-3.454-7.701-7.709V62.09c0-4.254,3.45-7.707,7.701-7.707h25.003
				c4.238,0,7.692,3.453,7.692,7.707v25.035C132.916,91.38,129.462,94.834,125.224,94.834z M100.221,56.321
				c-3.177,0-5.763,2.585-5.763,5.769v25.035c0,3.178,2.586,5.766,5.763,5.766h25.003c3.177,0,5.756-2.588,5.756-5.766V62.09
				c0-3.184-2.579-5.769-5.756-5.769H100.221z"/>
			<path fill="#1A0D0B" d="M125.224,96.48h-25.003c-5.154,0-9.348-4.197-9.348-9.355V62.09c0-5.158,4.194-9.354,9.348-9.354h25.003
				c5.15,0,9.339,4.195,9.339,9.354v25.035C134.563,92.283,130.374,96.48,125.224,96.48z M100.221,57.968
				c-2.271,0-4.116,1.849-4.116,4.122v25.035c0,2.271,1.846,4.119,4.116,4.119h25.003c2.266,0,4.109-1.849,4.109-4.119V62.09
				c0-2.273-1.843-4.122-4.109-4.122H100.221z"/>
		</g>
	</g>
	<path fill="#BDD337" d="M140.885,122.541c0,5.451-4.412,9.879-9.863,9.879H94.414c-5.444,0-9.859-4.428-9.859-9.879v-36.65
		c0-5.454,4.415-9.876,9.859-9.876h36.608c5.451,0,9.863,4.422,9.863,9.876V122.541z"/>
	<g>
		<path fill="#C4C6C2" d="M131.022,133.391H94.414c-5.975,0-10.827-4.869-10.827-10.85v-36.65c0-5.984,4.853-10.838,10.827-10.838
			h36.608c5.972,0,10.834,4.854,10.834,10.838v36.65C141.856,128.521,136.994,133.391,131.022,133.391z M94.414,76.979
			c-4.895,0-8.885,4.001-8.885,8.911v36.65c0,4.914,3.99,8.904,8.885,8.904h36.608c4.907,0,8.892-3.99,8.892-8.904v-36.65
			c0-4.91-3.984-8.911-8.892-8.911H94.414z"/>
		<path fill="#1A0D0B" d="M131.022,135.037H94.414c-6.879,0-12.474-5.605-12.474-12.496v-36.65c0-6.885,5.595-12.484,12.474-12.484
			h36.608c6.882,0,12.48,5.6,12.48,12.484v36.65C143.502,129.432,137.904,135.037,131.022,135.037z M94.414,78.626
			c-3.99,0-7.238,3.257-7.238,7.265v36.65c0,4.004,3.248,7.258,7.238,7.258h36.608c3.996,0,7.245-3.254,7.245-7.258v-36.65
			c0-4.008-3.249-7.265-7.245-7.265H94.414z"/>
	</g>
	<g>
		<path fill="#171617" d="M133.691,99.49c-0.533,0-0.968-0.425-0.968-0.965v-9.342c0-2.756-2.244-4.998-4.994-4.998h-9.48
			c-0.541,0-0.974-0.434-0.974-0.975c0-0.536,0.434-0.971,0.974-0.971h9.48c3.83,0,6.927,3.119,6.927,6.943v9.342
			C134.656,99.065,134.228,99.49,133.691,99.49z"/>
	</g>
	<path fill="#FFFFFF" d="M118.377,101.221c0-3.127-2.53-5.667-5.659-5.667c-3.123,0-5.66,2.54-5.66,5.667
		c0,2.996,2.833,4.906,2.833,4.906l-2.833,10.072h5.66h5.659l-2.833-10.072C115.544,106.127,118.377,104.217,118.377,101.221z"/>
	<path fill="#1F2021" d="M119.661,117.17h-13.879l3.003-10.683c-0.938-0.808-2.691-2.663-2.691-5.267
		c0-3.666,2.972-6.641,6.625-6.641s6.628,2.975,6.628,6.641c0,2.604-1.75,4.459-2.692,5.267L119.661,117.17z M108.341,115.231h8.75
		l-2.662-9.522l0.578-0.389c0.022-0.02,2.399-1.669,2.399-4.1c0-2.59-2.1-4.695-4.688-4.695c-2.583,0-4.692,2.105-4.692,4.695
		c0,2.453,2.38,4.08,2.409,4.096l0.578,0.393L108.341,115.231z"/>
</g>
</svg>
