<?xml version="1.0" encoding="utf-8"?>
<!-- Generator: Adobe Illustrator 16.0.0, SVG Export Plug-In . SVG Version: 6.00 Build 0)  -->
<!DOCTYPE svg PUBLIC "-//W3C//DTD SVG 1.1//EN" "http://www.w3.org/Graphics/SVG/1.1/DTD/svg11.dtd">
<svg version="1.1" id="Layer_1" xmlns="http://www.w3.org/2000/svg" xmlns:xlink="http://www.w3.org/1999/xlink" x="0px" y="0px"
	 width="556.406px" height="352.621px" viewBox="0 0 556.406 352.621" enable-background="new 0 0 556.406 352.621"
	 xml:space="preserve">
<g>
	
		<linearGradient id="SVGID_1_" gradientUnits="userSpaceOnUse" x1="-281.6226" y1="206.9668" x2="-219.9316" y2="206.9668" gradientTransform="matrix(1.0104 -0.144 0.1391 0.9763 408.5917 -115.6263)">
		<stop  offset="0" style="stop-color:#155E98"/>
		<stop  offset="0.1" style="stop-color:#1969A3"/>
		<stop  offset="0.3463" style="stop-color:#1F83BC"/>
		<stop  offset="0.5839" style="stop-color:#2397CF"/>
		<stop  offset="0.8068" style="stop-color:#26A4DB"/>
		<stop  offset="1" style="stop-color:#27AAE1"/>
	</linearGradient>
	<path fill="url(#SVGID_1_)" d="M197.298,59.979c-48.662,25.763-62.224,102.514-8.927,122.619
		c-21.195-16.785-6.996-44.328,18.419-41.149c-14.052-20.809-16.047-42.757,0.09-81.47
		C204.471,59.861,199.879,59.914,197.298,59.979z"/>
	
		<linearGradient id="SVGID_2_" gradientUnits="userSpaceOnUse" x1="276.6797" y1="110.96" x2="106.9857" y2="-44.4667" gradientTransform="matrix(0.9991 -0.0434 0.0434 0.9991 105.9213 110.5734)">
		<stop  offset="0" style="stop-color:#155E98"/>
		<stop  offset="0.5062" style="stop-color:#1E7FB8"/>
		<stop  offset="1" style="stop-color:#27AAE1"/>
	</linearGradient>
	<path fill="url(#SVGID_2_)" d="M366.788,11.936C337.167-2.32,307.335-3.638,276.554,7.085
		c-14.588,5.079-28.562,14.545-39.331,24.256c-4.961,4.472-9.003,9.354-13.155,14.673c97.665-66.07,200.228,55.807,122.084,129.086
		c-28.609,26.824-116.927,63.119-153.02,56.404c3.608,1.051,7.316,1.872,11.109,2.443c33.715,5.088,106.759,0.831,139.1-6.965
		c54.183-13.071,91.555-63.997,87.432-119.898C427.774,66.42,403.757,29.726,366.788,11.936z"/>
	
		<linearGradient id="SVGID_3_" gradientUnits="userSpaceOnUse" x1="-213.6831" y1="314.2305" x2="-213.6831" y2="146.0566" gradientTransform="matrix(1.0104 -0.144 0.1391 0.9763 408.5917 -115.6263)">
		<stop  offset="0" style="stop-color:#155E98"/>
		<stop  offset="0.0697" style="stop-color:#196BA5"/>
		<stop  offset="0.1949" style="stop-color:#1E80B9"/>
		<stop  offset="0.3334" style="stop-color:#2191C9"/>
		<stop  offset="0.4903" style="stop-color:#259ED6"/>
		<stop  offset="0.6809" style="stop-color:#27A7DE"/>
		<stop  offset="1" style="stop-color:#27AAE1"/>
	</linearGradient>
	<path fill="url(#SVGID_3_)" d="M154.687,138.547c-1.987-19.902,10.415-56.387,42.612-78.568
		c-95.212,14.884-100.406,126.33-39.739,157.127c51.012,25.902,139.63-10.703,176.623-45.223l3.51-3.423
		C268.076,220.737,160.33,195.033,154.687,138.547z"/>
	
		<linearGradient id="SVGID_4_" gradientUnits="userSpaceOnUse" x1="227.9404" y1="26.834" x2="108.9262" y2="-41.8789" gradientTransform="matrix(0.9991 -0.0434 0.0434 0.9991 105.9213 110.5734)">
		<stop  offset="0" style="stop-color:#155E98"/>
		<stop  offset="0.1323" style="stop-color:#1A6EA7"/>
		<stop  offset="0.3582" style="stop-color:#1F86BE"/>
		<stop  offset="0.5812" style="stop-color:#2398D0"/>
		<stop  offset="0.7976" style="stop-color:#26A5DC"/>
		<stop  offset="1" style="stop-color:#27AAE1"/>
	</linearGradient>
	<path fill="url(#SVGID_4_)" d="M215.037,59.997c-28.316,52.041,4.357,113.07,68.95,120.082
		c-54.846-21.315-58.888-69.694-34.892-101.377c25.266-33.357,76.511-52.335,113.456-4.452
		C339.388,29.914,255.03-13.509,215.037,59.997z"/>
	
		<linearGradient id="SVGID_5_" gradientUnits="userSpaceOnUse" x1="191.6758" y1="77.3066" x2="191.6758" y2="-60.1797" gradientTransform="matrix(0.9991 -0.0434 0.0434 0.9991 105.9213 110.5734)">
		<stop  offset="0" style="stop-color:#155E98"/>
		<stop  offset="0.2724" style="stop-color:#1B73AC"/>
		<stop  offset="0.7554" style="stop-color:#2398D0"/>
		<stop  offset="1" style="stop-color:#27AAE1"/>
	</linearGradient>
	<path fill="url(#SVGID_5_)" d="M227.309,122.56c3.714,26.515,21.778,47.9,44.795,55.131c30.2,9.481,64.344-11.13,58.028-40.255
		c-2.178-10.045-8.315-14.324-15.054-23.465c-16.447-22.313-7.265-44.398,11.844-49.43c12.477-3.288,31.111-1.752,41.133,21.185
		c-1.625-4.106-3.41-7.983-5.504-11.476C324.872,11.386,216.677,46.619,227.309,122.56z"/>
</g>
<g>
	<g>
		<polygon fill="#4F4F4F" points="64.438,263.08 48.3,263.08 48.3,266.867 54.475,266.867 54.475,277.375 58.263,277.375 
			58.263,266.867 64.438,266.867 		"/>
		<path fill="#4F4F4F" d="M22.113,277.345c1.933,0,2.976-1.527,2.976-3.038v-1.221h0.006V263.08h-3.788v10.021l-7.821-7.825
			c-2.017-1.841-3.065-2.229-4.214-2.229c-1.936,0-2.98,1.526-2.98,3.033v0.83H6.288v10.509h3.786v-10.193l8.428,8.425
			C20.112,277.036,20.973,277.345,22.113,277.345z"/>
		<path fill="#4F4F4F" d="M32.322,273.585c-0.461-0.02-0.833-0.395-0.833-0.862c0-0.465,0.372-0.843,0.833-0.86v-0.003h13.575
			v-3.264H32.322v-0.008c-0.461-0.015-0.833-0.392-0.833-0.857c0-0.465,0.372-0.845,0.833-0.858v-0.005h13.575v-3.787H30.831
			c-1.729,0.106-3.325,1.374-3.325,3.384v7.486c0,2.1,1.739,3.425,3.556,3.425h14.834v-3.785H32.322V273.585z"/>
		<rect x="0.089" y="263.08" fill="#4F4F4F" width="3.791" height="14.34"/>
	</g>
	<g>
		<g>
			<path fill="#4F4F4F" d="M45.252,299.361h-32.88v15.349h28.845v9.992H12.372v27.919H0v-63.844h45.252V299.361z"/>
			<path fill="#4F4F4F" d="M64.24,352.621H52.995v-63.844H64.24V352.621z"/>
			<path fill="#4F4F4F" d="M118.294,332.574H84.288c0.088,3.53,1.126,6.376,3.111,8.534c2.16,2.515,5.091,3.771,8.797,3.771
				c5.511,0,9.13-2.471,10.851-7.408h10.851c-1.279,5.202-3.862,9.208-7.74,12.006c-3.883,2.802-8.535,4.2-13.961,4.2
				c-7.232,0-12.901-2.205-17.003-6.614c-4.103-4.411-6.152-10.232-6.152-17.465c0-6.793,2.105-12.559,6.318-17.303
				c4.211-4.74,9.735-7.111,16.573-7.111c6.702,0,12.15,2.326,16.342,6.979c4.188,4.655,6.283,10.287,6.283,16.903
				C118.557,330.217,118.47,331.384,118.294,332.574z M107.046,324.966c-0.354-3.042-1.522-5.612-3.507-7.707
				c-1.984-2.094-4.521-3.144-7.607-3.144c-3.265,0-5.954,1.027-8.071,3.078c-2.118,2.05-3.31,4.642-3.573,7.772H107.046z"/>
			<path fill="#4F4F4F" d="M170.031,352.621l-13.628-0.267l-11.381-16.143l-11.245,16.143l-13.033,0.267l17.729-24.415
				l-16.408-21.766l13.431,0.267l9.66,13.362l9.725-13.362l13.034-0.133L151.77,327.81L170.031,352.621z"/>
			<path fill="#4F4F4F" d="M227.458,308.69c0,13.188-7.388,19.783-22.165,19.783h-16.407v24.147h-12.37v-63.844h28.777
				C220.069,288.777,227.458,295.415,227.458,308.69z M215.284,308.69c0-6.57-3.484-9.857-10.453-9.857h-15.946v19.65h15.682
				c2.821,0,5.225-0.685,7.21-2.052C214.115,314.71,215.284,312.13,215.284,308.69z"/>
			<path fill="#4F4F4F" d="M281.444,329.465c0,7.231-2.118,13.079-6.354,17.53c-4.233,4.456-10.054,6.683-17.465,6.683
				c-7.409,0-13.243-2.227-17.498-6.683c-4.258-4.451-6.386-10.299-6.386-17.53c0-7.232,2.104-13.088,6.318-17.565
				c4.212-4.477,10.067-6.715,17.565-6.715c7.497,0,13.342,2.238,17.533,6.715C279.349,316.377,281.444,322.232,281.444,329.465z
				 M270.197,329.465c0-4.146-0.993-7.675-2.978-10.586c-2.25-3.176-5.448-4.764-9.594-4.764c-4.19,0-7.343,1.523-9.461,4.564
				c-2.117,3.043-3.176,6.64-3.176,10.785c0,4.233,0.993,7.763,2.978,10.585c2.25,3.22,5.469,4.83,9.659,4.83
				c4.146,0,7.344-1.61,9.594-4.83C269.204,337.228,270.197,333.698,270.197,329.465z"/>
			<path fill="#4F4F4F" d="M334.57,352.621h-10.719v-5.026c-2.734,4.056-7.389,6.083-13.959,6.083
				c-7.234,0-12.834-2.336-16.803-7.011c-3.618-4.411-5.427-10.278-5.427-17.6c0-7.896,2.118-14.048,6.351-18.46
				c3.793-3.79,8.538-5.688,14.226-5.688c6.967,0,11.996,2.162,15.083,6.483v-22.625h11.248V352.621z M323.586,329.332
				c0-4.806-1.08-8.59-3.241-11.346c-2.163-2.755-5.14-4.135-8.933-4.135c-4.278,0-7.497,1.677-9.657,5.027
				c-1.897,2.911-2.846,6.574-2.846,10.983c0,4.146,0.992,7.588,2.977,10.319c2.161,3.134,5.27,4.698,9.329,4.698
				c4.102,0,7.278-1.676,9.528-5.028C322.638,337.074,323.586,333.567,323.586,329.332z"/>
		</g>
		<g>
			<g>
				<path fill="#4F4F4F" d="M402.552,332.972c-0.464,1.897-1.17,3.816-2.118,5.756c-0.95,1.941-2.128,3.839-3.54,5.69
					c-1.412,1.852-3.098,3.498-5.061,4.93c-1.964,1.435-4.213,2.593-6.75,3.474c-2.538,0.88-5.415,1.322-8.632,1.322
					c-4.676,0-8.81-0.938-12.406-2.813c-3.595-1.874-6.627-4.367-9.097-7.475c-2.471-3.111-4.346-6.694-5.625-10.751
					c-1.28-4.06-1.94-8.293-1.985-12.705c-0.042-4.718,0.664-9.096,2.118-13.131c1.456-4.037,3.508-7.532,6.153-10.487
					c2.647-2.953,5.788-5.27,9.428-6.945c3.638-1.676,7.642-2.516,12.009-2.516c3.394,0,6.361,0.42,8.897,1.258
					c2.536,0.838,4.717,1.897,6.549,3.178c1.83,1.277,3.352,2.71,4.565,4.299c1.213,1.587,2.205,3.142,2.977,4.664
					c0.771,1.523,1.345,2.91,1.721,4.168c0.375,1.256,0.628,2.216,0.761,2.877h-3.838c-0.485-2.47-1.322-4.741-2.515-6.813
					c-1.188-2.073-2.7-3.869-4.53-5.392c-1.831-1.522-3.981-2.713-6.451-3.574c-2.472-0.86-5.228-1.289-8.27-1.289
					c-3.926,0-7.477,0.793-10.652,2.382c-3.175,1.587-5.876,3.728-8.104,6.419c-2.229,2.689-3.937,5.82-5.127,9.393
					c-1.191,3.572-1.786,7.365-1.786,11.381c0,3.881,0.539,7.652,1.62,11.313c1.081,3.662,2.713,6.903,4.896,9.724
					c2.182,2.825,4.883,5.096,8.104,6.817c3.221,1.721,6.99,2.578,11.313,2.578c2.34,0,4.499-0.354,6.484-1.058
					c1.984-0.704,3.794-1.654,5.426-2.845c1.631-1.191,3.076-2.57,4.332-4.136c1.259-1.563,2.327-3.198,3.211-4.896
					c0.882-1.699,1.565-3.406,2.05-5.128c0.484-1.719,0.771-3.329,0.861-4.828h3.902
					C403.313,329.357,403.015,331.076,402.552,332.972z"/>
				<path fill="#4F4F4F" d="M411.715,352.621v-63.844h3.374v63.844H411.715z"/>
				<path fill="#4F4F4F" d="M464.975,329.067c0,3.573-0.465,6.871-1.391,9.893c-0.926,3.021-2.272,5.636-4.037,7.84
					c-1.764,2.206-3.936,3.926-6.517,5.16c-2.58,1.232-5.524,1.852-8.831,1.852c-3.133,0-5.957-0.639-8.469-1.917
					c-2.515-1.279-4.678-3.022-6.484-5.228c-1.809-2.203-3.198-4.819-4.168-7.841c-0.971-3.021-1.456-6.273-1.456-9.759
					c0-3.041,0.452-5.985,1.356-8.832c0.904-2.844,2.226-5.346,3.969-7.506c1.743-2.163,3.894-3.893,6.451-5.195
					c2.559-1.301,5.492-1.95,8.801-1.95c3.175,0,6.042,0.592,8.6,1.786c2.558,1.188,4.742,2.844,6.549,4.961
					c1.809,2.116,3.198,4.607,4.168,7.474C464.487,322.675,464.975,325.762,464.975,329.067z M461.665,329.067
					c0-2.6-0.386-5.137-1.158-7.605c-0.771-2.473-1.896-4.666-3.373-6.586c-1.481-1.917-3.299-3.448-5.459-4.596
					c-2.161-1.149-4.653-1.722-7.475-1.722c-2.605,0-4.961,0.563-7.08,1.688c-2.117,1.126-3.937,2.637-5.458,4.532
					c-1.523,1.897-2.701,4.08-3.54,6.55c-0.839,2.469-1.256,5.051-1.256,7.739c0,2.691,0.34,5.338,1.025,7.939
					c0.684,2.604,1.741,4.92,3.176,6.948c1.431,2.028,3.229,3.661,5.392,4.895c2.16,1.234,4.74,1.853,7.742,1.853
					c2.91,0,5.456-0.618,7.64-1.853c2.184-1.233,4.002-2.866,5.46-4.895c1.455-2.028,2.546-4.344,3.274-6.948
					C461.301,334.405,461.665,331.759,461.665,329.067z"/>
				<path fill="#4F4F4F" d="M504.934,352.621v-10.055c-1.281,3.703-3.363,6.481-6.252,8.337c-2.889,1.85-6.275,2.777-10.154,2.777
					c-5.338,0-9.308-1.489-11.909-4.466s-3.903-7.399-3.903-13.266v-29.242h3.375v29.242c0,2.69,0.305,4.974,0.924,6.848
					c0.618,1.876,1.48,3.396,2.583,4.565c1.1,1.168,2.414,2.017,3.937,2.548c1.52,0.527,3.185,0.792,4.994,0.792
					c2.821,0,5.271-0.539,7.344-1.621c2.072-1.078,3.78-2.479,5.127-4.201c1.344-1.718,2.336-3.647,2.977-5.787
					c0.639-2.14,0.959-4.269,0.959-6.386v-26h3.508v45.914H504.934z"/>
				<path fill="#4F4F4F" d="M553.031,352.621V342.3h-0.13c-0.179,0.619-0.609,1.557-1.292,2.812
					c-0.684,1.259-1.708,2.527-3.075,3.806c-1.368,1.279-3.089,2.393-5.162,3.342c-2.073,0.947-4.586,1.422-7.542,1.422
					c-1.058,0-2.259-0.111-3.606-0.332c-1.345-0.22-2.746-0.661-4.2-1.322c-1.457-0.662-2.878-1.564-4.269-2.712
					c-1.389-1.148-2.634-2.658-3.739-4.532c-1.102-1.873-1.994-4.146-2.678-6.815c-0.686-2.668-1.025-5.831-1.025-9.493
					c0-3.177,0.395-6.152,1.189-8.932c0.795-2.779,1.997-5.203,3.607-7.277c1.61-2.074,3.638-3.706,6.088-4.895
					c2.446-1.194,5.326-1.786,8.632-1.786c1.854,0,3.662,0.229,5.426,0.693c1.764,0.462,3.407,1.147,4.929,2.05
					c1.521,0.904,2.866,2.042,4.034,3.408c1.169,1.367,2.063,2.934,2.682,4.696h0.13v-27.654h3.375v63.844H553.031z
					 M552.901,328.474c0-2.867-0.342-5.524-1.026-7.972c-0.685-2.45-1.73-4.555-3.143-6.319c-1.411-1.764-3.188-3.142-5.325-4.135
					c-2.141-0.992-4.664-1.489-7.577-1.489c-2.691,0-5.05,0.563-7.078,1.688c-2.03,1.126-3.728,2.613-5.095,4.468
					c-1.369,1.851-2.394,3.98-3.077,6.383c-0.684,2.404-1.026,4.863-1.026,7.377c0,2.645,0.297,5.293,0.895,7.939
					c0.597,2.646,1.543,5.027,2.845,7.146c1.299,2.115,2.977,3.836,5.027,5.158c2.052,1.322,4.554,1.984,7.509,1.984
					c3.044,0,5.645-0.627,7.807-1.885c2.16-1.257,3.925-2.909,5.293-4.961c1.365-2.05,2.369-4.41,3.011-7.081
					C552.579,334.108,552.901,331.342,552.901,328.474z"/>
			</g>
		</g>
	</g>
</g>
</svg>
