<?xml version="1.0" encoding="utf-8"?>
<!-- Generator: Adobe Illustrator 16.0.0, SVG Export Plug-In . SVG Version: 6.00 Build 0)  -->
<!DOCTYPE svg PUBLIC "-//W3C//DTD SVG 1.1//EN" "http://www.w3.org/Graphics/SVG/1.1/DTD/svg11.dtd">
<svg version="1.1" id="Layer_1" xmlns="http://www.w3.org/2000/svg" xmlns:xlink="http://www.w3.org/1999/xlink" x="0px" y="0px"
	 width="197.397px" height="123.383px" viewBox="0 0 197.397 123.383" enable-background="new 0 0 197.397 123.383"
	 xml:space="preserve">
<g>
	<g>
		<linearGradient id="SVGID_1_" gradientUnits="userSpaceOnUse" x1="42.2583" y1="101.5713" x2="65.957" y2="101.5713">
			<stop  offset="0" style="stop-color:#263678"/>
			<stop  offset="0.4401" style="stop-color:#263779"/>
			<stop  offset="0.5986" style="stop-color:#263B7C"/>
			<stop  offset="0.7115" style="stop-color:#254282"/>
			<stop  offset="0.8029" style="stop-color:#254C8B"/>
			<stop  offset="0.8811" style="stop-color:#245898"/>
			<stop  offset="0.9492" style="stop-color:#2167A9"/>
			<stop  offset="0.9946" style="stop-color:#1C75BC"/>
		</linearGradient>
		<path fill="url(#SVGID_1_)" d="M55.779,114.42h-3.345L42.258,89.647l3.858-0.926l7.341,18.17c0.16,0.338,0.288,0.677,0.397,1
			c0.105,0.323,0.193,0.627,0.258,0.902c0.084-0.313,0.182-0.617,0.279-0.924c0.087-0.311,0.215-0.641,0.365-0.979l7.39-18.17
			l3.81,0.926L55.779,114.42z"/>
		<linearGradient id="SVGID_2_" gradientUnits="userSpaceOnUse" x1="65.957" y1="101.7568" x2="94.6641" y2="101.7568">
			<stop  offset="0" style="stop-color:#263678"/>
			<stop  offset="0.1965" style="stop-color:#254080"/>
			<stop  offset="0.5822" style="stop-color:#245898"/>
			<stop  offset="0.9677" style="stop-color:#1C75BC"/>
		</linearGradient>
		<path fill="url(#SVGID_2_)" d="M90.626,114.42c-0.026-0.188-0.135-0.784-0.302-1.786c-0.168-1.011-0.366-2.209-0.58-3.604
			c-0.214-1.391-0.436-2.891-0.649-4.507c-0.215-1.613-0.387-3.112-0.507-4.508c-0.063-0.492-0.108-1.073-0.14-1.743
			c-0.032-0.664-0.05-1.204-0.05-1.602c-0.153,0.436-0.316,1.014-0.466,1.742c-0.153,0.727-0.323,1.357-0.506,1.881
			c-0.528,1.391-1.115,2.914-1.748,4.553c-0.636,1.648-1.222,3.18-1.759,4.604c-0.55,1.42-1.193,3.078-1.93,4.97h-3.396
			c-0.342-0.871-0.729-1.854-1.182-2.975c-0.452-1.112-0.921-2.29-1.397-3.526c-0.474-1.244-0.958-2.512-1.442-3.813
			c-0.473-1.304-0.935-2.588-1.37-3.856c-0.18-0.527-0.357-1.146-0.513-1.861c-0.15-0.703-0.313-1.302-0.464-1.764
			c-0.03,0.402-0.061,0.952-0.084,1.648c-0.042,0.701-0.083,1.309-0.144,1.836c-0.159,1.395-0.344,2.877-0.56,4.465
			c-0.21,1.576-0.436,3.066-0.647,4.457c-0.221,1.395-0.408,2.593-0.563,3.604c-0.15,1.002-0.247,1.598-0.281,1.786h-3.99
			l3.896-25.326h3.169c0.582,1.616,1.152,3.151,1.689,4.608c0.541,1.453,1.059,2.829,1.558,4.133c0.4,1.111,0.797,2.204,1.188,3.273
			c0.383,1.072,0.74,2.047,1.065,2.92c0.317,0.889,0.603,1.616,0.835,2.191c0.235,0.574,0.383,0.926,0.44,1.048
			c0.064,0.216,0.141,0.495,0.238,0.833c0.089,0.339,0.182,0.669,0.277,0.973c0.065-0.304,0.141-0.634,0.228-0.973
			c0.098-0.338,0.172-0.617,0.235-0.833c0.033-0.122,0.152-0.474,0.347-1.048c0.202-0.575,0.471-1.303,0.792-2.191
			c0.326-0.873,0.696-1.848,1.11-2.92c0.425-1.069,0.847-2.162,1.279-3.273c0.501-1.304,1.012-2.68,1.533-4.133
			c0.529-1.457,1.103-2.992,1.716-4.608h3.211l3.897,25.326H90.626z"/>
		<linearGradient id="SVGID_3_" gradientUnits="userSpaceOnUse" x1="97.1826" y1="104.0615" x2="114.834" y2="104.0615">
			<stop  offset="0" style="stop-color:#1C75BC"/>
			<stop  offset="0.0665" style="stop-color:#1C75BC"/>
			<stop  offset="0.9677" style="stop-color:#1C75BC"/>
		</linearGradient>
		<path fill="url(#SVGID_3_)" d="M114.33,113.933c-0.286,0.182-0.646,0.316-1.099,0.391c-0.452,0.075-0.902,0.045-1.363-0.096
			c-0.465-0.139-0.912-0.393-1.326-0.764c-0.425-0.366-0.742-0.915-0.952-1.625c-1.188,1.111-2.485,1.852-3.911,2.205
			c-1.419,0.354-2.768,0.383-4.032,0.07c-1.282-0.305-2.341-0.91-3.191-1.814c-0.854-0.893-1.274-2.051-1.274-3.479
			c0-1.392,0.307-2.576,0.926-3.533c0.624-0.963,1.484-1.732,2.582-2.322c1.095-0.593,2.376-1.006,3.853-1.258
			c1.47-0.25,3.047-0.365,4.72-0.365c-0.066-0.129-0.108-0.304-0.142-0.516c-0.032-0.219-0.053-0.426-0.053-0.627
			c0-0.205,0-0.387,0-0.56c0-0.167,0-0.268,0-0.302c0-0.492-0.248-0.951-0.764-1.364c-0.505-0.42-1.216-0.722-2.135-0.889
			c-0.909-0.165-2.008-0.165-3.275,0.029c-1.274,0.183-2.647,0.632-4.138,1.349l-0.833-2.748c0.896-0.495,1.889-0.904,2.976-1.227
			c1.081-0.334,2.167-0.549,3.275-0.656c1.097-0.113,2.163-0.092,3.184,0.047c1.017,0.141,1.93,0.433,2.744,0.878
			c0.797,0.45,1.44,1.054,1.924,1.794c0.476,0.746,0.721,1.69,0.721,2.829v10.504c0,1.18,0.696,1.769,2.087,1.769L114.33,113.933z
			 M109.306,103.526c-2.917,0.277-5.035,0.803-6.362,1.6c-1.334,0.785-2.001,1.885-2.001,3.271c0,0.748,0.231,1.344,0.705,1.797
			c0.462,0.44,1.074,0.742,1.85,0.875c0.773,0.14,1.655,0.113,2.63-0.09c0.972-0.2,1.956-0.566,2.941-1.095v-5.394
			C109.069,104.31,109.155,103.986,109.306,103.526z"/>
		<linearGradient id="SVGID_4_" gradientUnits="userSpaceOnUse" x1="116.6948" y1="104.0615" x2="134.353" y2="104.0615">
			<stop  offset="0" style="stop-color:#1C75BC"/>
			<stop  offset="0.2275" style="stop-color:#1E7EC2"/>
			<stop  offset="0.6701" style="stop-color:#2296D4"/>
			<stop  offset="0.9677" style="stop-color:#27AAE1"/>
		</linearGradient>
		<path fill="url(#SVGID_4_)" d="M133.844,113.933c-0.282,0.182-0.647,0.316-1.094,0.391c-0.448,0.075-0.908,0.045-1.371-0.096
			c-0.461-0.139-0.916-0.393-1.325-0.764c-0.422-0.366-0.74-0.915-0.947-1.625c-1.188,1.111-2.49,1.852-3.913,2.205
			c-1.421,0.354-2.772,0.383-4.034,0.07c-1.277-0.305-2.334-0.91-3.185-1.814c-0.86-0.893-1.281-2.051-1.281-3.479
			c0-1.392,0.309-2.576,0.926-3.533c0.624-0.963,1.484-1.732,2.582-2.322c1.097-0.593,2.387-1.006,3.856-1.258
			c1.468-0.25,3.051-0.365,4.715-0.365c-0.061-0.129-0.106-0.304-0.138-0.516c-0.033-0.219-0.048-0.426-0.048-0.627
			c0-0.205,0-0.387,0-0.56c0-0.167,0-0.268,0-0.302c0-0.492-0.254-0.951-0.759-1.364c-0.516-0.42-1.226-0.722-2.14-0.889
			c-0.916-0.165-2.012-0.165-3.281,0.029c-1.271,0.183-2.646,0.632-4.131,1.349l-0.838-2.748c0.903-0.495,1.886-0.904,2.977-1.227
			c1.079-0.334,2.174-0.549,3.272-0.656c1.099-0.113,2.158-0.092,3.185,0.047c1.022,0.141,1.935,0.433,2.742,0.878
			c0.802,0.45,1.442,1.054,1.926,1.794c0.478,0.746,0.719,1.69,0.719,2.829v10.504c0,1.18,0.699,1.769,2.093,1.769L133.844,113.933z
			 M128.823,103.526c-2.914,0.277-5.037,0.803-6.367,1.6c-1.327,0.785-1.995,1.885-1.995,3.271c0,0.748,0.227,1.344,0.7,1.797
			c0.46,0.44,1.08,0.742,1.847,0.875c0.778,0.14,1.66,0.113,2.633-0.09c0.972-0.2,1.961-0.566,2.947-1.095v-5.394
			C128.588,104.31,128.667,103.986,128.823,103.526z"/>
		<linearGradient id="SVGID_5_" gradientUnits="userSpaceOnUse" x1="136.0693" y1="101.3047" x2="153.7319" y2="101.3047">
			<stop  offset="0" style="stop-color:#1C75BC"/>
			<stop  offset="0.0556" style="stop-color:#2585C7"/>
			<stop  offset="0.123" style="stop-color:#2D96D3"/>
			<stop  offset="0.2003" style="stop-color:#34A4DC"/>
			<stop  offset="0.2907" style="stop-color:#3AAFE4"/>
			<stop  offset="0.4025" style="stop-color:#3FB7E9"/>
			<stop  offset="0.5593" style="stop-color:#41BBEC"/>
			<stop  offset="0.9946" style="stop-color:#42BDED"/>
		</linearGradient>
		<path fill="url(#SVGID_5_)" d="M153.732,106.442c0,1.805-0.513,3.354-1.517,4.654c-1,1.301-2.335,2.226-3.992,2.785
			c-1.66,0.562-3.538,0.68-5.647,0.378c-2.108-0.313-4.276-1.185-6.506-2.606l1.3-3.859c1.954,1.334,3.696,2.141,5.229,2.442
			c1.531,0.296,2.83,0.279,3.903-0.042c1.066-0.334,1.872-0.85,2.421-1.561c0.538-0.715,0.797-1.422,0.766-2.139
			c-0.034-0.562-0.176-1.024-0.428-1.422c-0.241-0.383-0.554-0.709-0.924-0.968c-0.37-0.263-0.78-0.484-1.232-0.652
			c-0.452-0.171-0.892-0.337-1.324-0.487c-0.993-0.314-2.011-0.625-3.043-0.953c-1.044-0.328-1.98-0.758-2.829-1.307
			c-0.862-0.537-1.55-1.232-2.099-2.086c-0.542-0.85-0.811-1.959-0.811-3.325c0-1.673,0.479-3.089,1.436-4.247
			c0.958-1.164,2.206-1.981,3.744-2.444c1.537-0.462,3.268-0.542,5.206-0.226c1.937,0.309,3.877,1.114,5.83,2.409l-1.582,3.487
			c-1.397-0.959-2.742-1.621-4.044-1.969c-1.294-0.355-2.436-0.463-3.41-0.313c-0.978,0.162-1.753,0.546-2.324,1.166
			c-0.569,0.619-0.827,1.428-0.768,2.416c0.031,0.466,0.186,0.858,0.467,1.189c0.275,0.321,0.613,0.596,0.996,0.832
			c0.392,0.232,0.81,0.432,1.259,0.582c0.445,0.15,0.858,0.294,1.231,0.418c1.021,0.307,2.043,0.635,3.094,0.979
			c1.032,0.339,1.959,0.786,2.778,1.345c0.829,0.558,1.497,1.27,2.023,2.131C153.462,103.923,153.732,105.052,153.732,106.442z"/>
		<linearGradient id="SVGID_6_" gradientUnits="userSpaceOnUse" x1="0" y1="61.6914" x2="197.3975" y2="61.6914">
			<stop  offset="0" style="stop-color:#1C75BC"/>
			<stop  offset="0.9946" style="stop-color:#42BDED"/>
		</linearGradient>
		<path fill="url(#SVGID_6_)" d="M157.852,123.37c20.181-0.381,39.546-16.844,39.546-37.004c0-17.053-11.526-31.414-27.225-35.701
			c-5.706-15.189-20.357-25.988-37.541-25.988c-3.953,0-7.771,0.576-11.385,1.646C111.468,10.519,93.973,0,74.024,0
			C43.775,0,19.16,24.214,18.516,54.312C7.451,60.723,0,72.689,0,86.366c0,20.428,16.577,37.017,37.015,37.017l5.868-0.006
			l-3.917-12.333h-1.968c-13.597,0-24.652-11.049-24.652-24.678c0-11.676,8.112-21.48,19.033-24.031
			c-0.349-2.215-0.529-4.494-0.529-6.809c0-23.851,19.327-43.182,43.175-43.182c19.507,0,35.992,12.935,41.338,30.688
			c4.749-3.77,10.735-6.018,17.269-6.018c14.289,0,26.059,10.801,27.585,24.676h0.185c13.597,0,24.665,11.047,24.665,24.676
			c0,13.607-11.042,24.678-24.665,24.678l0,0l0,0l-2.667,12.339"/>
		<path fill="#676767" d="M99.996,37.671h-41c-1.752,0-3.603,1.098-3.603,2.85v29.13c0,1.753,1.851,4.122,3.603,4.122h15.72
			c0,0,0.658,5.418-5.146,5.418v1.347h19.019V79.19c-5.798,0-4.334-5.418-4.334-5.418h15.742c1.736,0,2.775-2.361,2.775-4.122
			v-29.13C102.771,38.769,101.732,37.671,99.996,37.671z M79.496,71.942c-1.236,0-2.23-0.996-2.23-2.229
			c0-1.234,0.994-2.23,2.23-2.23c1.24,0,2.24,0.996,2.24,2.23C81.736,70.946,80.736,71.942,79.496,71.942z M99.548,65.063H58.291
			V40.571h41.257V65.063z"/>
		<path fill="#676767" d="M126.205,52.274H96.757c-1.258,0-2.588,0.789-2.588,2.049v20.922c0,1.258,1.33,2.947,2.588,2.947h11.294
			c0,0,0.467,3.898-3.694,3.898v0.965h13.654v-0.965c-4.167,0-3.112-3.898-3.112-3.898h11.305c1.248,0,1.995-1.689,1.995-2.947
			V54.323C128.2,53.063,127.453,52.274,126.205,52.274z M111.49,76.891c-0.893,0-1.603-0.72-1.603-1.603
			c0-0.889,0.71-1.604,1.603-1.604c0.881,0,1.596,0.715,1.596,1.604C113.086,76.171,112.371,76.891,111.49,76.891z M125.881,71.942
			H96.256V54.356h29.625V71.942z"/>
		<g>
			<text transform="matrix(1 0 0 1 68.2144 122.4365)" font-family="'DBHelvethaicaX-UlLiExt'" font-size="9.1034">Power by</text>
			<g>
				<path d="M131.719,119.004v-0.005c0-0.336,0.269-0.614,0.608-0.614c0.345,0,0.616,0.278,0.616,0.613v0.001
					c0,0.336-0.272,0.619-0.616,0.619C131.983,119.618,131.719,119.338,131.719,119.004 M132.827,118.999L132.827,118.999
					c0-0.274-0.213-0.5-0.5-0.5c-0.276,0-0.496,0.229-0.496,0.5v0.003c0,0.274,0.215,0.499,0.496,0.499
					C132.609,119.501,132.827,119.275,132.827,118.999"/>
				<path d="M132.094,118.745c0-0.037,0.031-0.064,0.066-0.064h0.206c0.075,0,0.135,0.02,0.175,0.059
					c0.032,0.035,0.049,0.08,0.049,0.136l0,0c0,0.095-0.046,0.153-0.118,0.183l0.093,0.109c0.011,0.015,0.019,0.029,0.019,0.051
					c0,0.035-0.03,0.059-0.063,0.059c-0.028,0-0.049-0.015-0.062-0.033l-0.129-0.16h-0.104v0.128c0,0.036-0.029,0.065-0.066,0.065
					c-0.035,0-0.066-0.029-0.066-0.065V118.745z M132.358,118.968c0.065,0,0.101-0.035,0.101-0.084v-0.004
					c0-0.056-0.04-0.082-0.104-0.082h-0.129v0.17H132.358z"/>
				<path d="M112.718,123.185l-1.535-4.271c-0.02-0.06-0.049-0.136-0.049-0.205c0-0.185,0.157-0.361,0.383-0.361
					c0.194,0,0.321,0.127,0.38,0.311l1.269,3.686l1.283-3.693c0.058-0.176,0.176-0.303,0.37-0.303h0.038
					c0.207,0,0.336,0.127,0.391,0.303l1.272,3.693l1.29-3.701c0.051-0.159,0.157-0.295,0.363-0.295c0.214,0,0.371,0.165,0.371,0.351
					c0,0.068-0.028,0.148-0.051,0.208l-1.543,4.279c-0.078,0.225-0.234,0.346-0.41,0.346h-0.031c-0.194,0-0.339-0.121-0.408-0.346
					l-1.262-3.629l-1.273,3.629c-0.067,0.225-0.215,0.346-0.412,0.346h-0.017C112.952,123.53,112.794,123.409,112.718,123.185"/>
				<path d="M123.905,118.719c0-0.207,0.165-0.381,0.371-0.381c0.216,0,0.383,0.165,0.383,0.381v0.867
					c0.373-0.841,1.196-1.239,1.743-1.239c0.226,0,0.372,0.165,0.372,0.383c0,0.205-0.135,0.352-0.332,0.381
					c-0.981,0.115-1.783,0.852-1.783,2.311v1.717c0,0.207-0.159,0.385-0.372,0.385c-0.218,0-0.382-0.169-0.382-0.385V118.719"/>
				<path d="M129.194,123.569c-1.366,0-2.476-1.057-2.476-2.609v-0.018c0-1.445,1.005-2.607,2.378-2.607
					c1.468,0,2.301,1.209,2.301,2.537c0,0.206-0.16,0.35-0.344,0.35h-3.586c0.105,1.087,0.862,1.695,1.746,1.695
					c0.613,0,1.065-0.24,1.429-0.579c0.055-0.052,0.123-0.089,0.213-0.089c0.178,0,0.325,0.145,0.325,0.322
					c0,0.086-0.042,0.174-0.116,0.24C130.594,123.269,130.038,123.569,129.194,123.569 M130.66,120.672
					c-0.074-0.912-0.595-1.709-1.584-1.709c-0.861,0-1.513,0.729-1.608,1.709H130.66z"/>
				<path d="M118.558,121.999v-0.02c0-1.064,0.879-1.633,2.158-1.633c0.645,0,1.104,0.089,1.554,0.216v-0.175
					c0-0.91-0.558-1.378-1.505-1.378c-0.508,0-0.806,0.063-1.175,0.23c-0.047,0.021-0.095,0.028-0.133,0.028
					c-0.176,0-0.335-0.144-0.335-0.322c0-0.154,0.066-0.25,0.207-0.311c0.495-0.219,0.87-0.289,1.515-0.289
					c0.712,0,1.257,0.184,1.629,0.559c0.343,0.34,0.519,0.828,0.519,1.472v2.786c0,0.215-0.156,0.373-0.362,0.373
					c-0.215,0-0.359-0.158-0.359-0.354v-0.479c-0.353,0.459-0.939,0.869-1.828,0.869
					C119.506,123.571,118.558,123.034,118.558,121.999 M122.279,121.606v-0.486c-0.372-0.107-0.867-0.216-1.484-0.216
					c-0.947,0-1.477,0.411-1.477,1.045v0.019c0,0.635,0.589,1.008,1.273,1.008C121.515,122.976,122.279,122.411,122.279,121.606"/>
				<path d="M99.039,118.663c-0.166-0.363-0.573-0.526-0.957-0.357c-0.38,0.171-0.521,0.592-0.349,0.955l1.601,3.484
					c0.254,0.547,0.521,0.833,1.017,0.833c0.536,0,0.764-0.312,1.018-0.833c0,0,1.396-3.043,1.411-3.072
					c0.015-0.035,0.06-0.134,0.201-0.134c0.121,0,0.22,0.097,0.22,0.228v2.976c0,0.458,0.257,0.836,0.745,0.836
					c0.49,0,0.756-0.378,0.756-0.836v-2.433c0-0.473,0.336-0.777,0.795-0.777s0.763,0.315,0.763,0.777v2.433
					c0,0.458,0.254,0.836,0.745,0.836c0.488,0,0.754-0.378,0.754-0.836v-2.433c0-0.473,0.333-0.777,0.795-0.777
					c0.459,0,0.763,0.315,0.763,0.777v2.433c0,0.458,0.254,0.836,0.742,0.836s0.755-0.378,0.755-0.836v-2.772
					c0-1.019-0.818-1.73-1.801-1.73c-0.987,0-1.603,0.68-1.603,0.68c-0.327-0.424-0.778-0.68-1.545-0.68
					c-0.805,0-1.514,0.68-1.514,0.68c-0.325-0.424-0.885-0.68-1.346-0.68c-0.717,0-1.283,0.314-1.63,1.105l-1.022,2.414
					L99.039,118.663"/>
			</g>
		</g>
	</g>
</g>
</svg>
