<?xml version="1.0" encoding="utf-8"?>
<!-- Generator: Adobe Illustrator 16.0.0, SVG Export Plug-In . SVG Version: 6.00 Build 0)  -->
<!DOCTYPE svg PUBLIC "-//W3C//DTD SVG 1.1//EN" "http://www.w3.org/Graphics/SVG/1.1/DTD/svg11.dtd">
<svg version="1.1" id="Layer_1" xmlns="http://www.w3.org/2000/svg" xmlns:xlink="http://www.w3.org/1999/xlink" x="0px" y="0px"
	 width="192.093px" height="193.078px" viewBox="0 0 192.093 193.078" enable-background="new 0 0 192.093 193.078"
	 xml:space="preserve">
<g>
	<path fill="#D3D3D1" d="M182.257,147.555c0,14.498-11.75,26.242-26.246,26.242H85.5c-14.495,0-26.241-11.744-26.241-26.242V77.043
		c0-14.498,11.746-26.242,26.241-26.242h70.511c14.495,0,26.246,11.744,26.246,26.242V147.555z"/>
	<path fill="#084364" d="M156.012,175.387H85.5c-15.345,0-27.829-12.488-27.829-27.832V77.043c0-15.346,12.484-27.832,27.829-27.832
		h70.511c15.345,0,27.834,12.486,27.834,27.832v70.512C183.846,162.898,171.356,175.387,156.012,175.387z M85.5,52.39
		c-13.595,0-24.65,11.06-24.65,24.653v70.512c0,13.595,11.056,24.653,24.65,24.653h70.511c13.594,0,24.655-11.059,24.655-24.653
		V77.043c0-13.594-11.061-24.653-24.655-24.653H85.5z"/>
	<path fill="#C4C6C2" d="M146.585,140.284c0,12.611-10.221,22.829-22.829,22.829h-61.33c-12.609,0-22.826-10.218-22.826-22.829
		V78.957c0-12.609,10.217-22.828,22.826-22.828h61.33c12.607,0,22.829,10.219,22.829,22.828V140.284z"/>
	<path fill="#084364" d="M123.757,164.495h-61.33c-13.348,0-24.208-10.861-24.208-24.211V78.957
		c0-13.349,10.86-24.208,24.208-24.208h61.33c13.35,0,24.209,10.859,24.209,24.208v61.327
		C147.966,153.634,137.106,164.495,123.757,164.495z M62.427,57.513c-11.823,0-21.441,9.619-21.441,21.444v61.327
		c0,11.827,9.618,21.444,21.441,21.444h61.33c11.825,0,21.447-9.617,21.447-21.444V78.957c0-11.825-9.622-21.444-21.447-21.444
		H62.427z"/>
	<path fill="#D7E8F7" d="M189.802,60.347c0-12.792-9.992-23.172-22.314-23.172c-0.074,0-0.149,0.007-0.228,0.007
		c-0.044-10.055-7.903-18.192-17.593-18.192c-2.664,0-5.174,0.631-7.434,1.726c-4.708-10.191-14.706-17.246-26.32-17.246
		c-15.125,0-27.564,11.939-29.061,27.237c-13.979,0.075-25.286,11.866-25.286,26.406c0,14.058,10.587,25.523,23.934,26.331v0.083
		h83.484v-0.083C180.606,82.642,189.802,72.623,189.802,60.347z"/>
	<path fill="#084364" d="M169.054,85.817H83.209v-0.304c-13.523-1.935-23.937-14.154-23.937-28.401
		c0-14.872,11.354-27.448,25.551-28.612c2.464-15.662,15.63-27.329,31.09-27.329c11.246,0,21.86,6.481,27.41,16.613
		c2.048-0.721,4.178-1.088,6.344-1.088c10.195,0,18.647,7.923,19.761,18.263c12.611,1.035,22.665,12.154,22.665,25.388
		c0,12.658-8.861,23.238-20.815,25.143v0.046L169.054,85.817z M115.913,5.755c-13.86,0-25.376,10.823-26.782,25.175l-0.193,2.046
		l-2.066,0.021C74.177,33.065,63.86,43.885,63.86,57.112c0,12.745,9.566,23.308,21.779,24.046l0.854,0.077l82.336-0.077
		c10.473-0.723,18.679-9.864,18.679-20.812c0-11.515-8.979-20.882-20.02-20.882h-1.942l-0.577-2.271
		c-0.038-8.774-6.902-15.913-15.301-15.913c-2.21,0-4.376,0.506-6.432,1.505l-2.101,1.003l-0.978-2.103
		C135.681,12.006,126.171,5.755,115.913,5.755z"/>
	<g>
		<path fill="#D7E8F7" d="M115.153,159.534c0-11.269-8.802-20.413-19.652-20.413c-0.068,0-0.131,0.002-0.199,0.007
			c-0.044-8.852-6.964-16.021-15.503-16.021c-2.343,0-4.554,0.552-6.545,1.518c-4.15-8.979-12.955-15.197-23.189-15.197
			c-13.324,0-24.281,10.52-25.597,23.999c-12.315,0.062-22.279,10.454-22.279,23.26c0,12.387,9.33,22.484,21.087,23.198v0.068H96.82
			v-0.068C107.059,179.175,115.153,170.353,115.153,159.534z"/>
		<path fill="#084364" d="M96.888,182.143H21.084v-0.285C9.159,180.072,0,169.271,0,156.686c0-13.141,9.998-24.266,22.53-25.365
			c2.234-13.813,13.875-24.081,27.533-24.081c9.923,0,19.297,5.686,24.226,14.594c1.785-0.611,3.632-0.922,5.509-0.922
			c9.023,0,16.511,6.975,17.564,16.103c11.13,0.99,19.982,10.824,19.982,22.521c0,11.18-7.797,20.542-18.337,22.295v0.056
			L96.888,182.143z M50.063,111.615c-12.12,0-22.188,9.467-23.42,22.025l-0.187,1.952l-1.969,0.024
			c-11.093,0.059-20.109,9.513-20.109,21.068c0,11.14,8.356,20.368,19.027,21.015l0.758,0.069l72.509-0.069
			c9.132-0.632,16.292-8.616,16.292-18.166c0-10.047-7.833-18.222-17.463-18.222h-1.845l-0.546-2.172
			c-0.037-7.637-6.009-13.849-13.312-13.849c-1.921,0-3.803,0.438-5.59,1.306l-2.005,0.968l-0.937-2.015
			C67.355,117.085,59.034,111.615,50.063,111.615z"/>
	</g>
	<path fill="#AAB8B8" d="M149.549,75.204c0,4.912-3.973,8.887-8.88,8.887H45.518c-4.904,0-8.884-3.975-8.884-8.887V52.377
		c0-4.91,3.979-8.882,8.884-8.882h95.151c4.907,0,8.88,3.972,8.88,8.882V75.204z"/>
	<path fill="#084364" d="M140.669,86.55H45.518c-6.251,0-11.342-5.087-11.342-11.346V52.377c0-6.255,5.09-11.345,11.342-11.345
		h95.151c6.254,0,11.342,5.09,11.342,11.345v22.827C152.011,81.463,146.923,86.55,140.669,86.55z M45.518,45.953
		c-3.54,0-6.42,2.879-6.42,6.424v22.827c0,3.545,2.88,6.43,6.42,6.43h95.151c3.542,0,6.422-2.885,6.422-6.43V52.377
		c0-3.545-2.881-6.424-6.422-6.424H45.518z"/>
	<path fill="#BDD337" d="M104.964,66.637c0,1.193-0.966,2.153-2.151,2.153H79.742c-1.191,0-2.15-0.96-2.15-2.153v-5.531
		c0-1.196,0.959-2.157,2.15-2.157h23.071c1.185,0,2.151,0.961,2.151,2.157V66.637z"/>
	<path fill="#084364" d="M102.813,69.813H79.742c-1.752,0-3.174-1.428-3.174-3.177v-5.531c0-1.754,1.422-3.181,3.174-3.181h23.071
		c1.75,0,3.172,1.427,3.172,3.181v5.531C105.985,68.386,104.563,69.813,102.813,69.813z M79.742,59.972
		c-0.62,0-1.126,0.506-1.126,1.134v5.531c0,0.623,0.506,1.122,1.126,1.122h23.071c0.62,0,1.124-0.499,1.124-1.122v-5.531
		c0-0.628-0.503-1.134-1.124-1.134H79.742z"/>
	<path fill="#AAB8B8" d="M149.549,115.809c0,4.909-3.973,8.879-8.88,8.879H45.518c-4.904,0-8.884-3.97-8.884-8.879V92.975
		c0-4.907,3.979-8.884,8.884-8.884h95.151c4.907,0,8.88,3.977,8.88,8.884V115.809z"/>
	<path fill="#084364" d="M140.669,127.147H45.518c-6.251,0-11.342-5.085-11.342-11.339V92.975c0-6.254,5.09-11.341,11.342-11.341
		h95.151c6.254,0,11.342,5.087,11.342,11.341v22.834C152.011,122.063,146.923,127.147,140.669,127.147z M45.518,86.55
		c-3.54,0-6.42,2.88-6.42,6.425v22.834c0,3.538,2.88,6.418,6.42,6.418h95.151c3.542,0,6.422-2.88,6.422-6.418V92.975
		c0-3.545-2.881-6.425-6.422-6.425H45.518z"/>
	<path fill="#AAB8B8" d="M149.549,156.409c0,4.9-3.973,8.876-8.88,8.876H45.518c-4.904,0-8.884-3.976-8.884-8.876v-22.837
		c0-4.91,3.979-8.885,8.884-8.885h95.151c4.907,0,8.88,3.975,8.88,8.885V156.409z"/>
	<path fill="#084364" d="M140.669,167.747H45.518c-6.251,0-11.342-5.088-11.342-11.338v-22.837c0-6.254,5.09-11.346,11.342-11.346
		h95.151c6.254,0,11.342,5.092,11.342,11.346v22.837C152.011,162.659,146.923,167.747,140.669,167.747z M45.518,127.147
		c-3.54,0-6.42,2.88-6.42,6.425v22.837c0,3.541,2.88,6.421,6.42,6.421h95.151c3.542,0,6.422-2.88,6.422-6.421v-22.837
		c0-3.545-2.881-6.425-6.422-6.425H45.518z"/>
	<g>
		<path fill="#FFD950" d="M55.639,63.492c0,2.595-2.105,4.702-4.703,4.702c-2.594,0-4.699-2.107-4.699-4.702
			c0-2.593,2.104-4.697,4.699-4.697C53.534,58.795,55.639,60.899,55.639,63.492z"/>
		<path fill="#084364" d="M50.936,69.221c-3.153,0-5.723-2.566-5.723-5.729c0-3.158,2.57-5.725,5.723-5.725
			c3.161,0,5.724,2.566,5.724,5.725C56.659,66.654,54.096,69.221,50.936,69.221z M50.936,59.817c-2.029,0-3.674,1.647-3.674,3.675
			s1.646,3.681,3.674,3.681c2.028,0,3.682-1.653,3.682-3.681S52.963,59.817,50.936,59.817z"/>
	</g>
	<g>
		<path fill="#FFD950" d="M71.135,63.867c0,2.598-2.104,4.702-4.706,4.702c-2.588,0-4.695-2.104-4.695-4.702
			c0-2.591,2.107-4.699,4.695-4.699C69.031,59.168,71.135,61.276,71.135,63.867z"/>
		<path fill="#084364" d="M66.43,69.597c-3.153,0-5.72-2.576-5.72-5.729s2.567-5.72,5.72-5.72c3.16,0,5.73,2.566,5.73,5.72
			S69.59,69.597,66.43,69.597z M66.43,60.192c-2.022,0-3.671,1.653-3.671,3.675c0,2.024,1.649,3.674,3.671,3.674
			c2.03,0,3.682-1.649,3.682-3.674C70.112,61.846,68.46,60.192,66.43,60.192z"/>
	</g>
	<path fill="#BDD337" d="M104.964,107.233c0,1.191-0.966,2.153-2.151,2.153H79.742c-1.191,0-2.15-0.962-2.15-2.153v-5.541
		c0-1.186,0.959-2.146,2.15-2.146h23.071c1.185,0,2.151,0.961,2.151,2.146V107.233z"/>
	<path fill="#084364" d="M102.813,110.418H79.742c-1.752,0-3.174-1.435-3.174-3.185v-5.541c0-1.747,1.422-3.169,3.174-3.169h23.071
		c1.75,0,3.172,1.422,3.172,3.169v5.541C105.985,108.983,104.563,110.418,102.813,110.418z M79.742,100.569
		c-0.62,0-1.126,0.51-1.126,1.123v5.541c0,0.624,0.506,1.132,1.126,1.132h23.071c0.62,0,1.124-0.508,1.124-1.132v-5.541
		c0-0.613-0.503-1.123-1.124-1.123H79.742z"/>
	<g>
		<path fill="#FFD950" d="M55.639,104.094c0,2.597-2.105,4.694-4.703,4.694c-2.594,0-4.699-2.098-4.699-4.694
			c0-2.6,2.104-4.7,4.699-4.7C53.534,99.394,55.639,101.494,55.639,104.094z"/>
		<path fill="#084364" d="M50.936,109.812c-3.153,0-5.723-2.563-5.723-5.718c0-3.158,2.57-5.724,5.723-5.724
			c3.161,0,5.724,2.565,5.724,5.724C56.659,107.248,54.096,109.812,50.936,109.812z M50.936,100.418
			c-2.029,0-3.674,1.647-3.674,3.676c0,2.024,1.646,3.673,3.674,3.673c2.028,0,3.682-1.648,3.682-3.673
			C54.618,102.065,52.963,100.418,50.936,100.418z"/>
	</g>
	<g>
		<path fill="#FFD950" d="M71.135,104.475c0,2.588-2.104,4.689-4.706,4.689c-2.588,0-4.695-2.102-4.695-4.689
			c0-2.609,2.107-4.706,4.695-4.706C69.031,99.769,71.135,101.865,71.135,104.475z"/>
		<path fill="#084364" d="M66.43,110.188c-3.153,0-5.72-2.563-5.72-5.713c0-3.163,2.567-5.73,5.72-5.73c3.16,0,5.73,2.567,5.73,5.73
			C72.16,107.624,69.59,110.188,66.43,110.188z M66.43,100.792c-2.022,0-3.671,1.652-3.671,3.683c0,2.016,1.649,3.668,3.671,3.668
			c2.03,0,3.682-1.652,3.682-3.668C70.112,102.444,68.46,100.792,66.43,100.792z"/>
	</g>
	<path fill="#BDD337" d="M104.964,147.838c0,1.191-0.966,2.146-2.151,2.146H79.742c-1.191,0-2.15-0.955-2.15-2.146v-5.533
		c0-1.196,0.959-2.162,2.15-2.162h23.071c1.185,0,2.151,0.966,2.151,2.162V147.838z"/>
	<path fill="#084364" d="M102.813,151.009H79.742c-1.752,0-3.174-1.425-3.174-3.171v-5.533c0-1.759,1.422-3.188,3.174-3.188h23.071
		c1.75,0,3.172,1.429,3.172,3.188v5.533C105.985,149.584,104.563,151.009,102.813,151.009z M79.742,141.167
		c-0.62,0-1.126,0.509-1.126,1.138v5.533c0,0.619,0.506,1.119,1.126,1.119h23.071c0.62,0,1.124-0.5,1.124-1.119v-5.533
		c0-0.629-0.503-1.138-1.124-1.138H79.742z"/>
	<g>
		<path fill="#FFD950" d="M55.639,144.696c0,2.594-2.105,4.694-4.703,4.694c-2.594,0-4.699-2.101-4.699-4.694
			c0-2.603,2.104-4.705,4.699-4.705C53.534,139.991,55.639,142.094,55.639,144.696z"/>
		<path fill="#084364" d="M50.936,150.416c-3.153,0-5.723-2.57-5.723-5.72c0-3.167,2.57-5.728,5.723-5.728
			c3.161,0,5.724,2.561,5.724,5.728C56.659,147.846,54.096,150.416,50.936,150.416z M50.936,141.018
			c-2.029,0-3.674,1.647-3.674,3.679c0,2.024,1.646,3.674,3.674,3.674c2.028,0,3.682-1.649,3.682-3.674
			C54.618,142.665,52.963,141.018,50.936,141.018z"/>
	</g>
	<g>
		<path fill="#FFD950" d="M71.135,145.062c0,2.601-2.104,4.706-4.706,4.706c-2.588,0-4.695-2.105-4.695-4.706
			c0-2.591,2.107-4.696,4.695-4.696C69.031,140.365,71.135,142.471,71.135,145.062z"/>
		<path fill="#084364" d="M66.43,150.794c-3.153,0-5.72-2.569-5.72-5.732c0-3.147,2.567-5.721,5.72-5.721
			c3.16,0,5.73,2.573,5.73,5.721C72.16,148.225,69.59,150.794,66.43,150.794z M66.43,141.387c-2.022,0-3.671,1.655-3.671,3.675
			c0,2.026,1.649,3.681,3.671,3.681c2.03,0,3.682-1.654,3.682-3.681C70.112,143.042,68.46,141.387,66.43,141.387z"/>
	</g>
</g>
</svg>
