<?xml version="1.0" encoding="utf-8"?>
<!-- Generator: Adobe Illustrator 16.0.0, SVG Export Plug-In . SVG Version: 6.00 Build 0)  -->
<!DOCTYPE svg PUBLIC "-//W3C//DTD SVG 1.1//EN" "http://www.w3.org/Graphics/SVG/1.1/DTD/svg11.dtd">
<svg version="1.1" id="Layer_1" xmlns="http://www.w3.org/2000/svg" xmlns:xlink="http://www.w3.org/1999/xlink" x="0px" y="0px"
	 width="238.544px" height="179.033px" viewBox="0 0 238.544 179.033" enable-background="new 0 0 238.544 179.033"
	 xml:space="preserve">
<g>
	<g>
		<rect x="74.834" y="76.698" fill="#F5F6F7" width="11.807" height="33.843"/>
		<path fill="#084364" d="M88.607,112.508h-15.74V74.73h15.74V112.508z M76.802,108.574h7.871V78.665h-7.871V108.574z"/>
	</g>
	<g>
		<rect x="47.923" y="95.059" fill="#9DD9F7" width="11.806" height="43.02"/>
		<path fill="#084364" d="M61.695,140.046h-15.74V93.092h15.74V140.046z M49.89,136.111h7.872V97.025H49.89V136.111z"/>
	</g>
	<g>
		<rect x="24.944" y="85.293" fill="#FCD4D3" width="11.806" height="52.785"/>
		<path fill="#084364" d="M38.718,140.046h-15.74V83.325h15.74V140.046z M26.911,136.111h7.872V87.26h-7.872V136.111z"/>
	</g>
	<g>
		<rect x="1.967" y="70.394" fill="#F9F188" width="11.806" height="67.685"/>
		<path fill="#084364" d="M15.739,140.046H0V68.427h15.739V140.046z M3.934,136.111h7.872v-63.75H3.934V136.111z"/>
	</g>
	<path fill="#084364" d="M82.706,81.957c-45.08,0-63.68-22.098-81.667-43.466l3.008-2.536c17.409,20.686,35.41,42.068,78.659,42.068
		V81.957z"/>
	<polygon fill="#084364" points="4.51,50.966 0.576,50.966 0.576,35.256 16.358,35.256 16.358,39.19 4.51,39.19 	"/>
	<g>
		<path fill="#C4C6C2" d="M219.771,144.472c0,17.944-14.541,32.482-32.482,32.482H100.01c-17.941,0-32.482-14.538-32.482-32.482
			V57.193c0-17.945,14.541-32.482,32.482-32.482h87.278c17.941,0,32.482,14.537,32.482,32.482V144.472z"/>
		<path fill="#084364" d="M187.288,178.921H100.01c-18.994,0-34.449-15.456-34.449-34.449V57.193
			c0-18.994,15.455-34.449,34.449-34.449h87.278c18.994,0,34.449,15.455,34.449,34.449v87.278
			C221.737,163.465,206.282,178.921,187.288,178.921z M100.01,26.678c-16.827,0-30.516,13.688-30.516,30.516v87.278
			c0,16.827,13.688,30.515,30.516,30.515h87.278c16.827,0,30.516-13.688,30.516-30.515V57.193c0-16.827-13.688-30.516-30.516-30.516
			H100.01z"/>
	</g>
	<path fill="#6DC6B0" d="M128.42,60.869l-2.501-0.118l-0.384-0.02l-1.453-0.089c-0.215-0.007-0.422,0.035-0.614,0.101
		c-0.016-0.089-0.016-0.177-0.027-0.253c-0.061-0.508-0.161-1.016-0.261-1.518c-0.031-0.143-0.046-0.285-0.1-0.432
		c-0.093-0.472-0.234-0.934-0.377-1.383c0.2-0.042,0.385-0.084,0.6-0.199l3.85-1.959c0.68-0.361,1.029-1.037,0.765-1.533
		l-2.443-4.807c-0.258-0.487-1.011-0.61-1.68-0.276l-3.86,1.986c-0.208,0.093-0.361,0.234-0.5,0.38
		c-0.134-0.164-0.269-0.326-0.392-0.479c-0.173-0.228-0.354-0.477-0.576-0.703c-0.054-0.093-0.115-0.165-0.204-0.228
		c-0.157-0.207-0.342-0.353-0.507-0.533c0.05,0.05,0.093,0.076,0.139,0.111c-0.127-0.119-0.246-0.238-0.373-0.35
		c-0.119-0.115-0.219-0.25-0.346-0.361c0.035,0.039,0.089,0.092,0.111,0.131c-0.1-0.092-0.207-0.219-0.318-0.308
		c0.169-0.13,0.318-0.265,0.434-0.453l0.623-0.987h0.015l0.246-0.377l1.468-2.289c0.423-0.627,0.372-1.391-0.107-1.714l-4.515-2.915
		c-0.465-0.305-1.183-0.02-1.602,0.61l-2.355,3.638c-0.119,0.188-0.192,0.381-0.227,0.58c-0.084-0.034-0.139-0.053-0.23-0.076
		c-0.388-0.17-0.784-0.334-1.184-0.477c-0.227-0.077-0.476-0.135-0.707-0.196c-0.392-0.134-0.803-0.253-1.21-0.356
		c-0.054,0-0.115-0.012-0.165-0.043c0.065-0.169,0.131-0.365,0.139-0.588l0.065-1.172l0,0l0.038-0.656l0,0l0.135-2.514
		c0.015-0.768-0.399-1.387-0.969-1.413l-5.363-0.276c-0.564-0.035-1.056,0.561-1.083,1.325l-0.215,4.329
		c0,0.234,0.015,0.424,0.076,0.619c-0.153,0.02-0.326,0.039-0.491,0.05c-0.338,0.05-0.665,0.127-0.995,0.204
		c-0.315,0.046-0.634,0.092-0.961,0.172c-0.354,0.082-0.706,0.212-1.041,0.319c-0.042,0.012-0.076,0.016-0.104,0.034
		c-0.026-0.199-0.077-0.402-0.177-0.618l-0.53-1.033l0,0l-0.149-0.284l-1.287-2.527c-0.346-0.688-1.033-1.022-1.537-0.77
		l-4.794,2.439c-0.492,0.266-0.627,1.015-0.281,1.707l1.138,2.209l0.077,0.142l0.764,1.51c0.097,0.185,0.234,0.354,0.385,0.499
		c-0.496,0.346-0.961,0.738-1.44,1.152c-0.454,0.412-0.872,0.842-1.291,1.299c-0.119-0.146-0.266-0.314-0.446-0.438l-0.968-0.635
		l-0.568-0.346l0,0l-2.032-1.324l0,0l-0.077-0.051c-0.63-0.414-1.398-0.365-1.702,0.111l-2.924,4.511
		c-0.303,0.476-0.042,1.194,0.604,1.606l2.098,1.352l0.123,0.069l1.426,0.93c0.188,0.127,0.376,0.196,0.572,0.23
		c-0.477,1.146-0.864,2.313-1.126,3.507c-0.2-0.088-0.396-0.126-0.622-0.152l-4.326-0.208c-0.769-0.05-1.391,0.388-1.429,0.944
		l-0.27,5.367c-0.02,0.558,0.568,1.053,1.329,1.092l2.49,0.119l0,0l0.541,0.027l1.299,0.068c0.219,0.012,0.427-0.016,0.618-0.088
		c0.15,1.21,0.403,2.412,0.765,3.6c-0.181,0.008-0.392,0.068-0.596,0.165l-3.86,1.99c-0.669,0.334-1.026,1.007-0.769,1.524
		l2.459,4.779c0.249,0.508,1.018,0.619,1.687,0.289l3.857-1.979c0.203-0.097,0.36-0.23,0.507-0.377
		c0.35,0.492,0.737,0.961,1.156,1.414c0.173,0.184,0.361,0.384,0.542,0.564c-0.065-0.062-0.15-0.139-0.2-0.199
		c0.119,0.142,0.276,0.269,0.407,0.402c0.127,0.127,0.25,0.273,0.373,0.393c-0.047-0.065-0.123-0.119-0.173-0.2
		c0.119,0.108,0.227,0.238,0.342,0.35c-0.154,0.112-0.304,0.258-0.423,0.45l-0.638,0.968l0,0l-0.312,0.499l-1.406,2.167
		c-0.43,0.646-0.376,1.417,0.104,1.71l4.514,2.936c0.477,0.299,1.18,0.022,1.613-0.615l2.344-3.635
		c0.119-0.184,0.204-0.38,0.242-0.584c0.139,0.059,0.265,0.115,0.419,0.181c0.261,0.085,0.522,0.22,0.791,0.304
		c0.457,0.161,0.892,0.28,1.353,0.415c0.188,0.046,0.377,0.122,0.561,0.165c0.131,0.027,0.254,0.058,0.354,0.076
		c-0.068,0.166-0.123,0.381-0.123,0.6l-0.062,1.16l0,0l-0.038,0.661l-0.131,2.421v0.092c-0.038,0.761,0.389,1.379,0.934,1.422
		l5.387,0.261c0.557,0.034,1.041-0.546,1.083-1.313l0.216-4.322c0.011-0.234-0.023-0.434-0.077-0.619
		c0.149-0.022,0.292-0.022,0.438-0.049c0.354-0.055,0.699-0.146,1.045-0.189c0.308-0.072,0.627-0.115,0.923-0.199
		c0.396-0.088,0.76-0.223,1.152-0.338c0.016,0,0.03-0.008,0.038-0.02c0.008,0.219,0.062,0.419,0.165,0.611l0.534,1.041l0,0
		l0.292,0.6l1.152,2.221c0.342,0.688,1.022,1.014,1.537,0.76l4.787-2.443c0.487-0.25,0.638-1.01,0.272-1.697l-1.967-3.854
		c-0.101-0.188-0.234-0.338-0.381-0.48c0.973-0.742,1.867-1.553,2.728-2.486c0.112,0.182,0.266,0.323,0.446,0.438l0.979,0.646l0,0
		l0.553,0.365l2.021,1.306l0.076,0.058c0.649,0.396,1.41,0.357,1.706-0.119l2.928-4.518c0.318-0.465,0.038-1.188-0.604-1.602
		l-2.082-1.357l-0.153-0.092l-1.406-0.902c-0.181-0.127-0.389-0.181-0.584-0.234c0.173-0.4,0.346-0.783,0.491-1.184
		c0.027-0.104,0.062-0.207,0.093-0.322c0.188-0.542,0.338-1.053,0.477-1.595c0.05-0.127,0.05-0.265,0.072-0.399
		c0.192,0.084,0.396,0.135,0.607,0.146l4.341,0.223c0.757,0.03,1.406-0.389,1.426-0.941l0.272-5.367
		C129.787,61.385,129.181,60.904,128.42,60.869z M112.584,74.066c-5.989,5.417-15.194,4.948-20.569-1.029
		c-5.394-5.959-4.933-15.168,1.041-20.565c5.975-5.39,15.188-4.929,20.573,1.045C119.015,59.475,118.558,68.699,112.584,74.066z"/>
	<path fill="#084364" d="M104.182,91.658c-0.019,0-0.08,0-0.123,0l-5.359-0.27c-0.61-0.041-1.175-0.311-1.609-0.799
		c-0.507-0.553-0.772-1.34-0.711-2.17l0.192-3.77c-0.457-0.131-0.795-0.23-1.148-0.35c-0.012-0.008-0.027-0.008-0.047-0.026
		l-2.047,3.185c-0.85,1.291-2.49,1.748-3.619,1.029l-4.503-2.938c-0.507-0.3-0.868-0.818-1.007-1.46
		c-0.153-0.738,0.012-1.567,0.465-2.263l2.056-3.158c-0.026-0.038-0.062-0.058-0.088-0.093c-0.027-0.022-0.043-0.053-0.065-0.076
		l-0.276-0.281c-0.135-0.148-0.281-0.303-0.407-0.479l-3.374,1.736c-1.395,0.695-3.03,0.265-3.649-0.922l-2.447-4.79
		c-0.626-1.257-0.008-2.778,1.406-3.508l3.365-1.714c-0.092-0.403-0.185-0.804-0.257-1.21l-3.784-0.188
		c-1.575-0.069-2.767-1.218-2.705-2.608l0.266-5.363c0.084-1.345,1.286-2.34,2.785-2.34l3.965,0.192
		c0.107-0.392,0.241-0.776,0.376-1.188l-3.181-2.04c-0.691-0.449-1.168-1.129-1.337-1.875c-0.135-0.63-0.023-1.252,0.304-1.752
		l2.923-4.502c0.711-1.122,2.447-1.375,3.723-0.534l3.174,2.036c0.146-0.143,0.296-0.284,0.438-0.415
		c0.162-0.142,0.323-0.288,0.473-0.415l-1.713-3.373c-0.719-1.406-0.327-2.984,0.906-3.646l4.807-2.437
		c1.187-0.617,2.781,0.031,3.48,1.388l1.729,3.357c0.246-0.05,0.453-0.089,0.68-0.146l0.554,1.398l-0.192-1.461
		c0.054-0.011,0.115-0.026,0.161-0.026l0.2-3.792c0.073-1.521,1.176-2.712,2.497-2.712l5.479,0.272
		c1.391,0.092,2.413,1.391,2.332,2.97l-0.185,3.788l0.884,0.258c0.096,0.03,0.196,0.08,0.288,0.107l2.056-3.174
		c0.837-1.291,2.509-1.774,3.622-1.029l4.519,2.92c1.152,0.753,1.391,2.382,0.534,3.719l-1.71,2.636
		c-0.03,0.046-0.054,0.092-0.092,0.134l-0.234,0.369c0.107,0.096,0.211,0.219,0.284,0.361c0.042,0.042,0.08,0.096,0.138,0.157
		c0.023,0.004,0.188,0.228,0.204,0.246c0.062,0.05,0.107,0.127,0.173,0.192l3.389-1.729c1.341-0.691,3.031-0.277,3.623,0.918
		l2.458,4.787c0.634,1.229,0.027,2.766-1.387,3.492l-3.365,1.717c0.012,0.08,0.026,0.135,0.038,0.207
		c0,0.02,0.101,0.457,0.101,0.477c0.054,0.17,0.076,0.354,0.107,0.534l3.788,0.196c0.841,0.046,1.602,0.399,2.108,0.96
		c0.423,0.473,0.635,1.072,0.592,1.667l-0.276,5.371c-0.038,1.283-1.271,2.313-2.777,2.313l0,0l-3.942-0.195
		c-0.08,0.273-0.173,0.561-0.269,0.842l-0.1,0.318c0,0,0,0.02-0.012,0.02l3.17,2.063c0.695,0.438,1.183,1.126,1.348,1.855
		c0.135,0.631,0.008,1.249-0.307,1.748l-2.928,4.519c-0.73,1.126-2.467,1.375-3.73,0.546l-3.177-2.063
		c-0.296,0.284-0.596,0.568-0.911,0.825l1.726,3.373c0.714,1.406,0.322,3.024-0.907,3.639l-4.798,2.475
		c-1.215,0.614-2.816-0.043-3.496-1.418l-1.726-3.35c-0.23,0.061-0.441,0.096-0.684,0.153l-0.522,0.081l-0.196,3.795
		C106.595,90.463,105.511,91.658,104.182,91.658z M99.279,88.5l4.487,0.23l0.224-4.249c-0.123-0.407-0.077-0.918,0.157-1.283
		c0.227-0.36,0.6-0.646,1.029-0.702l0.58,1.31h0.023l-0.223-1.353c0.249-0.035,0.469-0.076,0.691-0.119l1.202-0.242
		c0.246-0.046,0.492-0.146,0.73-0.219l0.215-0.069c0.33-0.134,0.695-0.146,1.041-0.011c0.519,0.18,0.899,0.629,0.964,1.205
		l1.968,3.885l3.999-2.025l-1.913-3.799c-0.346-0.296-0.534-0.749-0.519-1.191c0.012-0.422,0.185-0.86,0.553-1.125
		c0.896-0.691,1.752-1.468,2.532-2.301c0.292-0.327,0.722-0.496,1.164-0.462c0.426,0.027,0.841,0.261,1.083,0.622l3.619,2.352l0,0
		l2.451-3.765l-3.577-2.321c-0.43-0.092-0.829-0.402-1.029-0.783c-0.204-0.388-0.265-0.868-0.092-1.256
		c0.161-0.361,0.318-0.719,0.434-1.096c0.012-0.012,0.1-0.287,0.107-0.307c0.15-0.484,0.308-0.961,0.419-1.445
		c0.1-0.422,0.415-0.964,0.788-1.164c0.38-0.195,0.872-0.414,1.268-0.253l4.391,0.253l0.22-4.479l-4.245-0.227
		c-0.423,0.123-0.945,0.049-1.314-0.189c-0.357-0.257-0.665-0.645-0.676-1.071c-0.089-0.63-0.185-1.118-0.27-1.591l1.291-0.707
		c-0.054,0.016-0.088,0.016-0.142,0.035l-1.233,0.296c-0.104-0.435-0.227-0.856-0.35-1.276c-0.139-0.41-0.077-0.879,0.161-1.24
		s0.618-0.604,1.045-0.676l3.896-1.955l-2.04-4.008l-3.811,1.94c-0.284,0.312-0.738,0.507-1.172,0.487
		c-0.423-0.012-0.857-0.176-1.122-0.518l-0.2-0.246c-0.011-0.016-0.269-0.315-0.272-0.331c-0.149-0.177-0.257-0.338-0.419-0.503
		c-0.011-0.012-0.184-0.238-0.184-0.238c-0.127-0.139-0.212-0.23-0.319-0.318l0.016-0.008c-0.05-0.055-0.146-0.139-0.173-0.154
		c-0.05-0.046-0.089-0.084-0.119-0.131l-0.146-0.142c-0.034-0.02-0.062-0.054-0.076-0.073c-0.039-0.038-0.062-0.072-0.112-0.107
		l0.027-0.027c-0.027-0.016-0.027-0.03-0.05-0.064l-0.031,0.045c-0.046-0.045-0.072-0.08-0.1-0.107
		c-0.026-0.045-0.073-0.084-0.096-0.123l-0.031,0.004c-0.326-0.287-0.507-0.71-0.487-1.141c0.026-0.438,0.234-0.838,0.588-1.099
		l0.706-1.075c0.031-0.039,0.051-0.063,0.062-0.104l1.629-2.486l-3.856-2.493l-2.24,3.618c-0.092,0.432-0.396,0.857-0.799,1.068
		c-0.415,0.185-0.896,0.227-1.314,0.02c-0.584-0.23-0.895-0.365-1.206-0.457l-0.972-0.288c-0.28-0.085-0.546-0.169-0.818-0.228
		c-0.411-0.1-0.86-0.395-1.049-0.787c-0.204-0.354-0.304-0.822-0.139-1.229l0.258-4.385l-4.491-0.219l-0.223,4.258
		c0.131,0.414,0.076,0.879-0.135,1.256c-0.238,0.369-0.592,0.66-1.018,0.727l-0.373,0.045c-0.388,0.035-0.657,0.104-0.91,0.146
		l-0.469,0.104c-0.204,0.02-0.381,0.073-0.58,0.111c-0.192,0.051-0.431,0.127-0.661,0.2l-0.3,0.081
		c-0.411,0.134-0.914,0.092-1.275-0.154c-0.365-0.238-0.642-0.607-0.695-1.033l-1.955-3.899l-3.996,2.048L91.2,45.51
		c0.3,0.301,0.508,0.776,0.484,1.188c-0.031,0.438-0.185,0.88-0.53,1.137c-0.445,0.342-0.892,0.703-1.317,1.084
		c-0.419,0.377-0.822,0.779-1.215,1.214c-0.291,0.319-0.71,0.503-1.141,0.454c-0.441-0.012-0.849-0.234-1.099-0.592l-3.619-2.371
		c0,0,0,0,0-0.016l-2.459,3.77l3.581,2.336c0.411,0.088,0.83,0.373,1.021,0.764c0.196,0.381,0.277,0.857,0.101,1.257
		c-0.45,1.067-0.808,2.151-1.061,3.239c-0.093,0.434-0.373,0.783-0.757,0.982c-0.381,0.192-0.846,0.208-1.222,0.027l-4.364-0.234
		l-0.23,4.476l4.249,0.234c0.419-0.142,0.914-0.089,1.291,0.149c0.364,0.23,0.63,0.607,0.706,1.045
		c0.108,1.08,0.365,2.198,0.719,3.343c0.111,0.407,0.062,0.864-0.177,1.226c-0.242,0.346-0.63,0.607-1.053,0.657l-3.903,1.952
		l2.044,3.991l3.8-1.929c0.3-0.314,0.761-0.5,1.194-0.508c0.438,0.02,0.868,0.212,1.13,0.562c0.342,0.446,0.684,0.896,1.075,1.313
		l0.512,0.52c0.03,0.022,0.034,0.03,0.054,0.057c0.076,0.081,0.149,0.162,0.165,0.162l0.092,0.088
		c0.02,0.023,0.054,0.055,0.065,0.062v0.016l0,0c0.181,0.111,0.327,0.253,0.438,0.445c0.245,0.265,0.364,0.63,0.338,1.022
		c-0.012,0.414-0.227,0.83-0.564,1.083l-2.401,3.642l3.85,2.494l2.247-3.611c0.085-0.435,0.392-0.842,0.78-1.033
		c0.392-0.196,0.856-0.273,1.26-0.107l1.095,0.445c0.411,0.146,0.822,0.261,1.222,0.373l0.335,0.107l-0.093,1.395l0.02,0.019
		l0.499-1.313c0.431,0.104,0.857,0.38,1.057,0.768c0.208,0.389,0.28,0.854,0.104,1.268l-0.23,4.342H99.279z M102.814,79.314
		c-4.519,0-8.855-1.943-11.879-5.298c-2.878-3.173-4.33-7.265-4.118-11.556c0.223-4.25,2.086-8.199,5.259-11.061
		c2.954-2.667,6.773-4.139,10.738-4.139c4.533,0,8.863,1.918,11.901,5.275c2.854,3.17,4.318,7.28,4.104,11.549
		c-0.223,4.279-2.075,8.217-5.256,11.079C110.613,77.836,106.794,79.314,102.814,79.314z M102.814,50.17
		c-3.25,0-6.374,1.207-8.786,3.396c-2.594,2.328-4.123,5.548-4.303,9.048c-0.166,3.499,1.01,6.854,3.377,9.45
		c2.47,2.755,6.016,4.322,9.712,4.322c3.262,0,6.389-1.198,8.802-3.385c2.597-2.34,4.122-5.551,4.287-9.047
		c0.181-3.523-1.015-6.877-3.357-9.463C110.06,51.738,106.518,50.17,102.814,50.17z"/>
	<path fill="#FFD950" d="M189.028,2.363L177.94,1.802c-1.156-0.062-2.162,1.161-2.255,2.755l-0.445,8.913
		c-0.089,1.575,0.779,2.9,1.955,2.946l11.084,0.538c1.16,0.089,2.163-1.152,2.243-2.712l0.111-2.405l0,0l0.077-1.38l0,0l0.258-5.136
		C191.057,3.746,190.165,2.42,189.028,2.363z"/>
	<path fill="#084364" d="M188.375,18.775c-0.042,0-0.177-0.008-0.203-0.008l-11.076-0.553c-0.926-0.063-1.81-0.484-2.471-1.211
		c-0.814-0.922-1.264-2.244-1.187-3.627l0.449-8.912C174.03,1.959,175.763,0,177.856,0l11.249,0.561
		c1.137,0.077,2.178,0.673,2.858,1.71c0.591,0.892,0.872,1.99,0.807,3.14l-0.457,8.924
		C192.194,16.823,190.457,18.775,188.375,18.775z M188.363,15.18l0.012,1.786V15.18H188.363z M177.856,3.611
		c-0.035,0.027-0.33,0.385-0.361,1.021l-0.453,8.922c-0.046,0.656,0.211,1.021,0.33,1.067l10.953,0.546
		c0.111-0.092,0.357-0.412,0.384-1.022l0.458-8.925c0.03-0.641-0.227-1.014-0.319-1.071L177.856,3.611z"/>
	<path fill="#FFD950" d="M166.558,12.936L166.558,12.936l-0.315-0.6l-2.65-5.201c-0.723-1.414-2.14-2.109-3.178-1.583l-9.877,5.06
		c-1.037,0.53-1.303,2.078-0.572,3.496l2.344,4.572l0,0l0.142,0.291l1.591,3.082c0.719,1.421,2.128,2.12,3.169,1.574l9.858-5.056
		c1.049-0.522,1.303-2.082,0.576-3.48L166.558,12.936z"/>
	<path fill="#084364" d="M156.457,25.617L156.457,25.617c-1.59,0-3.177-1.083-4.021-2.724l-4.076-7.972
		c-1.184-2.309-0.581-4.918,1.371-5.924l9.858-5.053c1.913-0.964,4.464,0.135,5.608,2.359l4.058,7.968
		c0.638,1.226,0.787,2.62,0.396,3.8c-0.3,0.945-0.926,1.69-1.768,2.113l-9.865,5.051C157.533,25.479,157.007,25.617,156.457,25.617z
		 M161.156,7.177l-9.785,5.036c-0.008,0.055-0.107,0.48,0.199,1.045l4.062,7.984c0.28,0.537,0.656,0.729,0.787,0.752l9.843-5.028
		c0-0.034,0.077-0.477-0.223-1.038l-4.072-7.967C161.687,7.377,161.248,7.177,161.156,7.177z"/>
	<path fill="#FFD950" d="M132.458,35.237l4.321,2.805l0,0l0.273,0.177l2.912,1.871c1.325,0.86,2.896,0.76,3.526-0.208l6.024-9.309
		c0.638-0.983,0.076-2.466-1.253-3.315l-2.009-1.314l0,0l-1.164-0.729l0,0l-4.173-2.708l0,0l-0.142-0.104
		c-1.322-0.85-2.904-0.758-3.527,0.211l-6.031,9.316C130.583,32.905,131.14,34.404,132.458,35.237z"/>
	<path fill="#084364" d="M141.805,42.471c-0.968,0-1.944-0.279-2.823-0.863l-7.507-4.856c-1.153-0.737-1.976-1.871-2.24-3.089
		c-0.196-0.969-0.023-1.929,0.461-2.693l6.039-9.34c1.092-1.709,3.808-2.098,5.886-0.818c0.238,0.112,0.465,0.234,0.63,0.412
		l6.996,4.525c2.187,1.391,2.974,3.949,1.798,5.797l-6.039,9.305C144.333,41.902,143.165,42.471,141.805,42.471z M138.92,23.619
		l-6.182,9.302c0,0.03,0.153,0.441,0.703,0.807l7.507,4.868c0.419,0.268,1.01,0.287,1.091,0.245l5.978-9.235
		c-0.034-0.065-0.173-0.484-0.733-0.838L139.934,24C139.496,23.72,139.185,23.619,138.92,23.619z"/>
	<path fill="#FFD950" d="M133.03,62.572l1.103,0.061l2.662,0.115c1.575,0.089,2.89-0.787,2.95-1.932l0.562-11.088
		c0.065-1.172-1.156-2.163-2.72-2.248l-8.944-0.453c-1.56-0.084-2.877,0.807-2.942,1.948l-0.562,11.099
		c-0.062,1.145,1.168,2.152,2.747,2.225L133.03,62.572L133.03,62.572z"/>
	<path fill="#084364" d="M137.006,64.577L137.006,64.577c-0.03,0-0.272-0.015-0.303-0.015l-8.929-0.462
		c-1.371-0.054-2.65-0.634-3.477-1.556c-0.673-0.738-1.003-1.648-0.961-2.594l0.584-11.057c0.097-2.109,2.044-3.66,4.526-3.66
		l9.216,0.453c1.146,0.061,2.229,0.453,3.031,1.098c0.953,0.808,1.479,1.906,1.406,3.043l-0.561,11.08
		C141.447,62.982,139.496,64.577,137.006,64.577z M128.539,48.846c-0.669,0-1.011,0.227-1.061,0.314l-0.53,11.007
		c0.031,0.026,0.377,0.296,1.015,0.35l8.925,0.441l0.118,1.79v-1.79c0.584,0,0.915-0.227,0.961-0.315l0.546-10.994
		c-0.031-0.039-0.389-0.335-1.038-0.373l-8.92-0.43C128.555,48.846,128.555,48.846,128.539,48.846z"/>
	<path fill="#FFD950" d="M229.467,66.623l1.103,0.061l2.662,0.115c1.575,0.089,2.89-0.787,2.95-1.932l0.562-11.088
		c0.065-1.172-1.156-2.163-2.72-2.248l-8.944-0.453c-1.56-0.084-2.877,0.807-2.942,1.948l-0.562,11.099
		c-0.062,1.145,1.168,2.152,2.747,2.225L229.467,66.623L229.467,66.623z"/>
	<path fill="#084364" d="M233.443,68.628L233.443,68.628c-0.03,0-0.272-0.015-0.303-0.015l-8.929-0.462
		c-1.371-0.054-2.65-0.634-3.477-1.556c-0.673-0.738-1.003-1.648-0.961-2.594l0.584-11.057c0.097-2.109,2.044-3.66,4.526-3.66
		l9.216,0.453c1.146,0.061,2.229,0.453,3.031,1.098c0.953,0.808,1.479,1.906,1.406,3.043l-0.561,11.08
		C237.884,67.033,235.933,68.628,233.443,68.628z M224.976,52.896c-0.669,0-1.011,0.227-1.061,0.314l-0.53,11.007
		c0.031,0.026,0.377,0.296,1.015,0.35l8.925,0.441l0.118,1.79v-1.79c0.584,0,0.915-0.227,0.961-0.315l0.546-10.994
		c-0.031-0.039-0.389-0.335-1.038-0.373l-8.92-0.43C224.992,52.896,224.992,52.896,224.976,52.896z"/>
	<path fill="#FFD950" d="M146.961,80.797l-5.057-9.869c-0.522-1.029-2.082-1.295-3.469-0.576l-7.968,4.088
		c-1.41,0.684-2.105,2.109-1.571,3.154l5.052,9.885c0.522,1.014,2.082,1.279,3.488,0.568l7.956-4.08
		C146.791,83.248,147.483,81.827,146.961,80.797z"/>
	<path fill="#084364" d="M135.819,90.236c-1.545,0-2.854-0.729-3.473-1.947l-5.061-9.893c-0.407-0.803-0.495-1.787-0.18-2.732
		c0.372-1.187,1.306-2.217,2.559-2.846l7.94-4.058c2.225-1.141,4.948-0.534,5.917,1.349l5.056,9.861
		c0.968,1.968-0.062,4.407-2.359,5.605l-7.956,4.072C137.475,90.045,136.646,90.236,135.819,90.236z M140.291,71.75
		c-0.499,0-0.78,0.062-1.029,0.207l-7.968,4.072c-0.592,0.3-0.772,0.703-0.772,0.799l5.025,9.805h0.272
		c0.25,0,0.53-0.05,0.799-0.199l7.957-4.061c0.583-0.305,0.775-0.715,0.775-0.834l-5.044-9.789H140.291z"/>
	<path fill="#FFD950" d="M153.898,88.484c-0.964-0.626-2.443-0.084-3.292,1.241l-1.311,2.021l0,0l-0.652,0.992l-2.908,4.482
		c-0.846,1.338-0.746,2.912,0.219,3.531l9.32,6.039c0.979,0.63,2.462,0.069,3.308-1.26l4.859-7.488
		c0.854-1.321,0.757-2.904-0.227-3.526L153.898,88.484z"/>
	<path fill="#084364" d="M156.177,108.85L156.177,108.85c-0.672,0-1.325-0.18-1.879-0.553l-9.327-6.031
		c-0.765-0.492-1.307-1.307-1.521-2.248c-0.254-1.24,0.034-2.582,0.776-3.769l4.852-7.491c1.356-2.109,4.042-2.916,5.798-1.795
		l9.323,6.04c1.833,1.19,2.163,3.83,0.757,6.024l-4.859,7.498C159.158,107.979,157.66,108.85,156.177,108.85z M152.935,89.998
		c-0.081,0.039-0.484,0.196-0.83,0.719l-4.852,7.488c-0.347,0.549-0.304,1.002-0.254,1.094l9.209,5.947
		c0.157-0.022,0.541-0.199,0.86-0.672l4.859-7.507c0.327-0.53,0.319-0.991,0.25-1.11L152.935,89.998z"/>
	<path fill="#FFD950" d="M184.161,98.254l-11.1-0.561c-1.16-0.064-2.151,1.16-2.239,2.729l-0.115,2.396l0,0l-0.077,1.371l0,0
		l-0.254,4.979l0,0v0.188c-0.076,1.56,0.792,2.873,1.944,2.951l11.061,0.561c1.184,0.064,2.183-1.172,2.263-2.732l0.449-8.936
		C186.189,99.618,185.313,98.324,184.161,98.254z"/>
	<path fill="#084364" d="M183.48,114.663L183.48,114.663c-0.022,0-0.149-0.008-0.181-0.008l-11.064-0.562
		c-2.182-0.119-3.807-2.231-3.661-4.813l0.457-8.944c0.131-2.536,1.829-4.448,3.961-4.448l11.245,0.568
		c2.198,0.127,3.792,2.255,3.65,4.84l-0.454,8.925C187.326,112.711,185.578,114.663,183.48,114.663z M172.97,99.488
		c-0.027,0.019-0.312,0.372-0.334,1.021l-0.446,8.771c-0.05,0.795,0.212,1.183,0.304,1.225l10.945,0.542
		c0.127-0.069,0.377-0.411,0.423-1.026l0.438-8.92c0.023-0.653-0.234-1.015-0.326-1.068L172.97,99.488z"/>
	<path fill="#FFD950" d="M207.312,92.604c-0.719-1.395-2.125-2.098-3.162-1.575l-9.896,5.071c-1.025,0.507-1.283,2.078-0.561,3.465
		l1.095,2.151l0,0l0.638,1.222l0,0l2.344,4.596c0.703,1.409,2.12,2.104,3.15,1.574l9.877-5.048c1.045-0.522,1.287-2.09,0.572-3.481
		L207.312,92.604z"/>
	<path fill="#084364" d="M200.185,111.086L200.185,111.086c-1.605,0-3.181-1.076-4.022-2.742l-4.076-7.969
		c-0.641-1.21-0.779-2.593-0.403-3.776c0.308-0.948,0.934-1.69,1.775-2.112l9.865-5.057c1.948-0.968,4.445,0.131,5.587,2.363
		l4.072,7.952c0.622,1.241,0.779,2.644,0.392,3.815c-0.315,0.938-0.938,1.686-1.764,2.105l-9.865,5.047
		C201.28,110.947,200.734,111.086,200.185,111.086z M204.872,92.664l-9.789,5.041c-0.008,0.039-0.081,0.473,0.215,1.037l4.068,7.987
		c0.273,0.511,0.649,0.715,0.796,0.753l9.808-5.044c0.02-0.034,0.097-0.48-0.203-1.064l-4.057-7.948
		C205.414,92.846,204.991,92.664,204.872,92.664z"/>
	<path fill="#FFD950" d="M228.883,79.434l-4.321-2.816l0,0l-0.28-0.173l-2.916-1.882c-1.314-0.85-2.882-0.762-3.512,0.227
		l-6.039,9.305c-0.627,0.972-0.065,2.451,1.252,3.308l2.021,1.317c-0.015,0-0.015,0-0.015,0l1.172,0.738l0,0l4.18,2.693l0,0
		l0.142,0.111c1.326,0.849,2.904,0.756,3.512-0.219l6.063-9.316C230.773,81.758,230.197,80.283,228.883,79.434z"/>
	<path fill="#084364" d="M222.429,94.639L222.429,94.639c-0.956,0-1.971-0.311-2.827-0.871l-7.526-4.856
		c-2.159-1.409-2.97-3.945-1.767-5.778l6.027-9.332c1.141-1.748,3.934-2.108,6.017-0.76l7.515,4.863
		c0.96,0.631,1.687,1.529,2.043,2.49c0.446,1.152,0.347,2.377-0.28,3.33l-6.023,9.293C224.941,94.048,223.789,94.639,222.429,94.639
		z M219.521,75.772l-6.185,9.293c0.022,0.03,0.161,0.469,0.706,0.83l7.365,4.764c0.642,0.407,1.172,0.384,1.226,0.346l5.985-9.263
		c-0.016-0.023-0.188-0.453-0.715-0.826l-7.521-4.84C220.112,75.898,219.801,75.772,219.521,75.772z"/>
	<path fill="#FFD950" d="M214.373,33.857l5.04,9.886c0.526,1.045,2.09,1.294,3.496,0.568l7.956-4.064
		c1.414-0.722,2.105-2.136,1.595-3.173l-5.075-9.874c-0.515-1.019-2.082-1.279-3.477-0.584l-7.979,4.064
		C214.542,31.414,213.858,32.824,214.373,33.857z"/>
	<path fill="#084364" d="M221.3,46.521L221.3,46.521c-1.567,0-2.854-0.726-3.496-1.979l-5.025-9.874
		c-0.999-1.924,0.023-4.395,2.344-5.578l7.956-4.068c2.263-1.137,4.964-0.511,5.913,1.36l5.056,9.854
		c0.534,1.041,0.503,2.24-0.058,3.354c-0.48,0.941-1.283,1.74-2.31,2.26l-7.944,4.076C222.979,46.31,222.118,46.521,221.3,46.521z
		 M225.787,28.026c-0.522,0-0.788,0.081-1.061,0.211l-7.968,4.065c-0.576,0.291-0.765,0.703-0.765,0.822l5.04,9.784h0.266
		c0.249,0,0.53-0.054,0.779-0.204l7.968-4.064c0.577-0.314,0.78-0.722,0.78-0.826L225.787,28.026z"/>
	<path fill="#FFD950" d="M207.427,26.186c0.976,0.627,2.459,0.077,3.308-1.248l1.325-2.021l0,0l0.52-0.803l3.027-4.69
		c0.856-1.31,0.745-2.886-0.22-3.508l-9.328-6.039c-0.968-0.626-2.454-0.065-3.296,1.237l-4.871,7.521
		c-0.846,1.33-0.741,2.882,0.234,3.512L207.427,26.186z"/>
	<path fill="#084364" d="M208.345,28.237L208.345,28.237c-0.684,0-1.325-0.177-1.886-0.538l-9.316-6.031
		c-0.78-0.5-1.326-1.318-1.529-2.285c-0.258-1.211,0.016-2.574,0.772-3.73l4.859-7.523c1.36-2.074,4.046-2.908,5.809-1.774
		l9.316,6.028c0.78,0.521,1.318,1.344,1.521,2.301c0.258,1.222-0.022,2.566-0.791,3.73l-4.853,7.491
		C211.311,27.357,209.824,28.237,208.345,28.237z M205.091,9.382c-0.058,0.038-0.487,0.2-0.818,0.715l-4.867,7.507
		c-0.357,0.549-0.296,1.006-0.25,1.083l9.205,5.947c0.161-0.008,0.55-0.173,0.868-0.68l4.86-7.503
		c0.36-0.546,0.33-0.977,0.257-1.088L205.091,9.382z"/>
	<path fill="#6DC6B0" d="M218.318,79.699c0.02,0,0.034-0.023,0.034-0.031c0.357-0.568,0.638-1.18,0.949-1.764
		c0.357-0.688,0.733-1.355,1.061-2.028c0.119-0.234,0.188-0.461,0.3-0.681c0.465-1.098,0.918-2.154,1.306-3.269
		c0.065-0.177,0.111-0.373,0.177-0.554c0.407-1.156,0.73-2.309,1.037-3.473c0.085-0.361,0.131-0.711,0.228-1.08
		c0.203-0.994,0.434-2.001,0.591-3c0.077-0.664,0.123-1.318,0.188-1.959c0.085-0.75,0.169-1.438,0.215-2.163
		c0.051-0.896,0.016-1.802,0.016-2.716c-0.016-0.465,0.016-0.941,0-1.395c-0.038-1.053-0.131-2.083-0.265-3.128
		c-0.031-0.334-0.046-0.673-0.093-0.995c-0.142-1.083-0.35-2.136-0.576-3.203c-0.065-0.289-0.092-0.604-0.173-0.893
		c-0.242-1.014-0.545-2.023-0.849-3.027c-0.104-0.342-0.188-0.68-0.292-1.002c-0.323-0.914-0.691-1.825-1.064-2.739
		c-0.165-0.407-0.308-0.814-0.495-1.218c-0.357-0.787-0.78-1.602-1.211-2.405c-0.242-0.465-0.473-0.941-0.753-1.409
		c-0.407-0.719-0.876-1.43-1.317-2.117c-0.338-0.53-0.642-1.045-1.011-1.537c-0.483-0.656-1.014-1.299-1.528-1.951
		c-0.389-0.508-0.769-0.984-1.199-1.472c-0.142-0.157-0.272-0.361-0.423-0.519c-0.334-0.381-0.718-0.715-1.087-1.076
		c0.104,0.088,0.196,0.158,0.272,0.242c-0.223-0.276-0.515-0.492-0.761-0.757c-0.249-0.249-0.469-0.507-0.733-0.757
		c0.092,0.092,0.153,0.188,0.23,0.273c-0.526-0.523-1.061-1.045-1.637-1.545c-0.392-0.354-0.787-0.66-1.187-0.977
		c-0.742-0.587-1.456-1.187-2.213-1.717c-0.407-0.28-0.83-0.553-1.249-0.818c-0.776-0.522-1.563-1.041-2.358-1.506
		c-0.411-0.227-0.857-0.453-1.287-0.66c-0.834-0.446-1.629-0.869-2.471-1.265c-0.457-0.188-0.922-0.346-1.364-0.564
		c-0.841-0.327-1.689-0.673-2.539-0.96c-0.484-0.162-0.968-0.297-1.452-0.428c-0.845-0.257-1.702-0.533-2.559-0.74
		c-0.515-0.111-1.033-0.196-1.537-0.293c-0.853-0.176-1.701-0.342-2.535-0.465c-0.55-0.072-1.11-0.1-1.671-0.157
		c-0.811-0.093-1.652-0.181-2.467-0.212c-0.6-0.037-1.194,0-1.786,0c-0.772,0-1.583-0.037-2.359,0.016
		c-0.646,0.031-1.283,0.119-1.925,0.17c-0.733,0.064-1.475,0.127-2.217,0.242c-0.688,0.104-1.363,0.23-2.044,0.38
		c-0.672,0.138-1.375,0.245-2.066,0.403c-0.711,0.188-1.414,0.415-2.132,0.63c-0.623,0.204-1.265,0.361-1.887,0.565
		c-0.78,0.265-1.514,0.614-2.247,0.918c-0.573,0.219-1.138,0.438-1.702,0.688c-0.796,0.384-1.575,0.811-2.348,1.232
		c-0.477,0.273-0.976,0.5-1.452,0.773c-0.868,0.506-1.69,1.094-2.535,1.67c-0.361,0.258-0.757,0.462-1.106,0.75
		c-1.172,0.864-2.324,1.794-3.435,2.801c-17.961,16.213-19.375,43.904-3.15,61.861c0.357,0.414,0.765,0.795,1.152,1.193
		c-0.157-0.148-0.304-0.299-0.453-0.422c0.28,0.288,0.576,0.553,0.872,0.826c0.269,0.272,0.534,0.58,0.822,0.826
		c-0.135-0.123-0.262-0.262-0.4-0.396c0.339,0.334,0.657,0.677,1.019,0.992c2.271,2.082,4.694,3.868,7.253,5.359
		c0.342,0.219,0.719,0.383,1.061,0.568c0.907,0.518,1.798,0.99,2.709,1.437c0.803,0.384,1.617,0.669,2.428,0.976
		c0.515,0.203,0.991,0.43,1.514,0.611c0.968,0.342,1.967,0.622,2.958,0.887c0.365,0.093,0.707,0.234,1.076,0.312
		c0.998,0.242,2.036,0.423,3.058,0.61c0.361,0.039,0.711,0.146,1.087,0.196c0.941,0.139,1.902,0.228,2.866,0.292
		c0.442,0.027,0.876,0.092,1.329,0.111c0.85,0.069,1.718,0.023,2.574,0c0.55,0,1.11,0.031,1.637,0
		c0.784-0.023,1.548-0.111,2.313-0.203c0.623-0.062,1.265-0.096,1.902-0.196c0.741-0.093,1.452-0.272,2.186-0.403
		c0.642-0.119,1.307-0.227,1.952-0.392c0.811-0.196,1.582-0.462,2.396-0.692c0.546-0.156,1.106-0.314,1.652-0.51
		c1.068-0.35,2.147-0.811,3.192-1.275c0.234-0.111,0.48-0.2,0.734-0.301c5.209-2.42,10.02-5.889,14.106-10.399
		c0.016-0.007,0.016-0.022,0.016-0.022C215.164,84.505,216.886,82.165,218.318,79.699z M158.636,32.943
		c13.478-12.182,34.262-11.117,46.436,2.344c12.156,13.473,11.096,34.258-2.366,46.439c-13.484,12.176-34.254,11.111-46.425-2.366
		C144.113,65.895,145.158,45.104,158.636,32.943z"/>
	<path fill="#084364" d="M179.682,102.903c-0.423,0-0.854-0.004-1.261-0.03c-0.284,0-0.614-0.055-0.941-0.078l-0.438-0.037
		c-1.084-0.104-2.028-0.166-2.978-0.319c-0.238-0.02-0.499-0.089-0.769-0.127l-0.372-0.073c-1.249-0.223-2.217-0.381-3.17-0.622
		c-0.25-0.054-0.499-0.142-0.733-0.212l-0.393-0.107c-1.244-0.365-2.182-0.626-3.089-0.926c-0.326-0.123-0.668-0.276-1.01-0.403
		l-0.892-0.356c-0.741-0.289-1.46-0.577-2.178-0.911c-0.88-0.392-1.722-0.876-2.582-1.345l-0.657-0.342
		c-0.25-0.127-0.469-0.25-0.711-0.385c-2.688-1.566-5.201-3.457-7.545-5.601c-0.185-0.165-0.373-0.347-0.542-0.515
		c-0.034-0.023-0.065-0.055-0.088-0.069c-0.181-0.173-0.354-0.361-0.538-0.526l-1.21-1.229c-0.054-0.038-0.089-0.089-0.115-0.127
		c-0.234-0.227-0.431-0.435-0.642-0.661c-8.168-9.027-12.328-20.711-11.714-32.889c0.634-12.156,5.947-23.348,14.976-31.508
		c1.156-1.057,2.37-2.031,3.588-2.935c0.234-0.165,0.469-0.312,0.695-0.469l0.846-0.569c0.737-0.51,1.494-1.006,2.271-1.482
		c0.311-0.165,0.638-0.342,0.964-0.515l0.968-0.507c0.657-0.377,1.326-0.727,1.998-1.061c0.423-0.181,0.834-0.338,1.249-0.492
		l1.172-0.491c0.561-0.228,1.121-0.484,1.717-0.673c0.435-0.165,0.903-0.291,1.356-0.422l1.187-0.357
		c0.526-0.154,1.076-0.318,1.633-0.477c0.48-0.119,0.949-0.195,1.41-0.288l1.303-0.25c0.522-0.111,1.045-0.219,1.567-0.288
		c0.649-0.096,1.313-0.157,1.982-0.211l1.021-0.104c0.431-0.043,0.86-0.1,1.295-0.115c0.415-0.016,0.83-0.039,1.218-0.039
		l1.249,0.023l1.021-0.023c0.28,0,0.572,0.023,0.856,0.023c0.753,0.031,1.564,0.127,2.359,0.188l0.749,0.093
		c0.403,0.022,0.795,0.054,1.18,0.127c0.833,0.107,1.645,0.265,2.478,0.423l0.619,0.131c0.376,0.061,0.749,0.138,1.129,0.227
		c0.818,0.203,1.625,0.43,2.421,0.668l0.741,0.227c0.334,0.096,0.684,0.181,1.021,0.314c0.807,0.27,1.591,0.592,2.371,0.896
		l0.787,0.33c0.296,0.115,0.611,0.238,0.907,0.38c0.891,0.403,1.74,0.826,2.589,1.295c0.626,0.312,0.983,0.499,1.345,0.71
		c0.826,0.454,1.656,1.004,2.463,1.545c0.595,0.403,0.944,0.627,1.283,0.85c0.779,0.561,1.524,1.172,2.277,1.771l0.373,0.312
		c0.296,0.238,0.596,0.48,0.892,0.723c0.411,0.356,0.818,0.756,1.214,1.137c0.088,0.061,0.165,0.119,0.269,0.207
		c0.008,0,0.023,0.012,0.039,0.027l0,0c0,0,0.008,0.023,0.015,0.023c0.115,0.13,0.389,0.422,0.415,0.43l0.565,0.576
		c0.064,0.069,0.142,0.131,0.215,0.203c0.28,0.154,0.507,0.4,0.653,0.669c0.153,0.161,0.33,0.339,0.491,0.522
		c0.081,0.065,0.196,0.219,0.323,0.377c0.434,0.507,0.741,0.875,1.025,1.279l0.737,0.891c0.403,0.516,0.804,1.003,1.168,1.521
		c0.312,0.411,0.58,0.85,0.861,1.287l0.449,0.734c0.407,0.584,0.799,1.194,1.148,1.793c0.192,0.323,0.365,0.685,0.554,1.038
		l0.219,0.423c0.477,0.934,0.888,1.713,1.256,2.512l0.508,1.279c0.414,0.984,0.787,1.902,1.106,2.855l0.303,1.045
		c0.319,1.014,0.634,2.074,0.884,3.162c0.046,0.164,0.096,0.406,0.123,0.648c0.28,1.379,0.519,2.49,0.665,3.596
		c0.038,0.238,0.054,0.492,0.072,0.742c0.146,1.383,0.246,2.443,0.296,3.53c0.027,0.3,0.016,0.595,0.016,0.876l-0.016,0.568
		l0.016,0.723c0.012,0.707,0.012,1.402-0.03,2.144c-0.039,0.522-0.097,1.03-0.15,1.575l-0.131,1.21
		c-0.034,0.507-0.096,0.983-0.161,1.483c-0.153,1.045-0.38,2.113-0.604,3.139l-0.096,0.426c-0.03,0.258-0.062,0.484-0.131,0.711
		c-0.307,1.191-0.695,2.416-1.087,3.611l-0.169,0.564c-0.407,1.152-0.876,2.26-1.375,3.385c0,0.008-0.281,0.703-0.281,0.703
		c-0.272,0.568-0.553,1.068-0.856,1.613l-0.572,1.115c-0.207,0.414-0.427,0.829-0.676,1.252c-1.549,2.582-3.323,5.002-5.341,7.223
		c-0.022,0.038-0.046,0.064-0.069,0.08v0.012c-4.168,4.6-9.089,8.248-14.698,10.826l-0.461,0.17
		c-1.406,0.599-2.501,1.083-3.604,1.467c-0.407,0.135-0.842,0.277-1.249,0.381l-0.511,0.149c-0.979,0.312-1.698,0.55-2.455,0.729
		c-0.469,0.115-0.93,0.186-1.391,0.27l-1.398,0.28c-0.503,0.104-0.995,0.204-1.521,0.272c-0.465,0.089-0.934,0.119-1.418,0.158
		l-0.998,0.096c-0.638,0.047-1.287,0.139-1.952,0.177c-0.203,0-0.434,0.012-0.649,0.012l-1.021-0.012l-0.396-1.81l0.022,1.81
		L179.682,102.903z M152.154,88.146c0.065,0.073,0.154,0.143,0.216,0.223c2.17,1.979,4.51,3.704,6.969,5.164l1.053,0.545
		c1.014,0.554,1.778,0.984,2.589,1.368c0.642,0.288,1.295,0.538,1.944,0.776l1.007,0.406c0.265,0.127,0.53,0.242,0.795,0.323
		c0.842,0.288,1.702,0.53,2.528,0.769l1.352,0.392c0.872,0.212,1.76,0.368,2.644,0.522l0.78,0.143
		c0.173,0.038,0.354,0.076,0.545,0.115c0.892,0.135,1.748,0.188,2.62,0.254l0.665,0.064c0.242,0.027,0.491,0.051,0.741,0.073
		c0.377,0.015,0.733,0.015,1.08,0.015h1.075c0.008,0,0.415-0.015,0.419-0.015l1.021,0.015l0.446-0.015
		c0.603-0.022,1.187-0.101,1.748-0.157l1.125-0.1c0.393-0.059,0.788-0.063,1.188-0.127c0.434-0.055,0.872-0.158,1.31-0.25
		l1.483-0.285c0.396-0.057,0.795-0.16,1.168-0.237c0.657-0.169,1.299-0.373,1.951-0.577c0.016,0,0.335-0.092,0.354-0.092
		l0.562-0.172c0.334-0.093,0.684-0.189,1.021-0.297c1.026-0.373,2.036-0.795,3.059-1.236l0.438-0.178
		c5.383-2.47,9.908-5.828,13.746-10.026c0.02-0.038,0.034-0.062,0.062-0.077c1.875-2.09,3.53-4.314,4.925-6.688
		c0.242-0.38,0.411-0.741,0.588-1.099l0.638-1.172c0.25-0.484,0.515-0.934,0.734-1.43c0.157-0.36,0.203-0.503,0.3-0.676
		c0.418-0.976,0.856-2.021,1.244-3.065c0,0,0.157-0.538,0.157-0.55c0.373-1.099,0.707-2.197,0.987-3.315l0.089-0.465
		c0.038-0.196,0.077-0.407,0.127-0.61c0.203-0.934,0.419-1.902,0.553-2.855c0.069-0.414,0.101-0.852,0.131-1.264l0.143-1.321
		c0.046-0.445,0.107-0.907,0.123-1.372c0.038-0.648,0.038-1.264,0.034-1.912l-0.012-0.695l0.012-1.322
		c-0.038-1.006-0.157-2.017-0.269-3c0-0.023-0.031-0.404-0.031-0.427l-0.046-0.526c-0.139-1.025-0.342-2.047-0.562-3.069
		c0-0.02-0.076-0.392-0.076-0.415l-0.077-0.407c-0.242-1.03-0.519-1.982-0.83-2.931l-0.28-0.992
		c-0.292-0.83-0.626-1.686-0.983-2.539l-0.499-1.252c-0.327-0.695-0.703-1.43-1.096-2.133l-0.307-0.626
		c-0.15-0.304-0.3-0.584-0.473-0.856c-0.327-0.576-0.673-1.1-1.029-1.637l-0.484-0.776c-0.234-0.38-0.465-0.737-0.73-1.099
		c-0.346-0.484-0.703-0.945-1.075-1.391l-0.723-0.91c-0.261-0.339-0.53-0.662-0.818-0.984c-0.022-0.038-0.219-0.288-0.249-0.311
		c-0.365-0.412-0.554-0.611-0.757-0.807l-0.427-0.404c-0.065-0.068-0.119-0.131-0.149-0.195l-0.657-0.639
		c-0.062-0.064-0.1-0.111-0.15-0.148c-0.576-0.539-1.083-1.016-1.567-1.461c-0.257-0.227-0.53-0.422-0.783-0.645l-0.369-0.312
		c-0.719-0.565-1.398-1.126-2.117-1.641c-0.284-0.204-0.584-0.392-0.864-0.584l-0.311-0.181c-0.765-0.522-1.518-1.006-2.278-1.44
		c-0.315-0.192-0.626-0.354-0.922-0.499c-0.016,0-0.323-0.162-0.327-0.162c-0.779-0.434-1.579-0.842-2.382-1.214
		c-0.223-0.093-0.491-0.212-0.741-0.292l-0.562-0.23c-0.983-0.407-1.701-0.695-2.428-0.945c-0.284-0.088-0.568-0.169-0.856-0.25
		l-0.522-0.157c-0.999-0.284-1.732-0.522-2.475-0.691c-0.303-0.065-0.63-0.126-0.96-0.196l-0.488-0.084
		c-0.945-0.203-1.694-0.361-2.462-0.438c-0.327-0.063-0.646-0.089-0.969-0.111l-0.603-0.063c-0.941-0.107-1.656-0.164-2.359-0.184
		l-0.703-0.043l-1.021,0.008l-1.249-0.008c-0.334,0-0.68,0.008-1.029,0.043c-0.365,0.02-0.727,0.068-1.084,0.092l-0.761,0.069
		c-0.926,0.085-1.521,0.134-2.097,0.227c-0.496,0.069-0.941,0.165-1.388,0.257l-1.371,0.25c-0.407,0.092-0.799,0.166-1.206,0.258
		c-0.477,0.115-0.949,0.265-1.426,0.407l-1.264,0.396c-0.399,0.115-0.788,0.219-1.156,0.357c-0.516,0.177-1.007,0.377-1.491,0.588
		l-1.287,0.507c-0.326,0.142-0.68,0.272-1.014,0.415c-0.615,0.303-1.21,0.622-1.833,0.957l-1.029,0.561
		c-0.242,0.119-0.519,0.254-0.78,0.422c-0.703,0.408-1.398,0.877-2.066,1.342l-0.914,0.633c-0.166,0.093-0.347,0.204-0.508,0.331
		c-1.133,0.833-2.239,1.74-3.315,2.708c-8.321,7.504-13.22,17.811-13.796,29.01c-0.553,11.211,3.262,21.972,10.784,30.297
		c0.242,0.25,0.465,0.473,0.691,0.703l0.415,0.418c0.03,0.023,0.081,0.082,0.123,0.135l0.561,0.561
		c0.065,0.043,0.097,0.085,0.15,0.135c0,0,0.088,0.085,0.165,0.17C151.824,87.759,152.017,87.912,152.154,88.146z M180.688,92.02
		c-9.8,0-19.197-4.184-25.748-11.449c-6.196-6.881-9.374-15.751-8.89-24.982c0.465-9.256,4.503-17.784,11.384-23.977
		c6.377-5.775,14.629-8.952,23.231-8.952c9.792,0,19.178,4.165,25.732,11.429c12.801,14.196,11.698,36.152-2.482,48.973
		C197.519,88.834,189.278,92.02,180.688,92.02z M180.665,26.248c-7.711,0-15.091,2.857-20.812,8.041
		c-6.174,5.543-9.777,13.165-10.223,21.463c-0.411,8.295,2.42,16.244,7.983,22.402c5.878,6.504,14.287,10.246,23.073,10.246
		c7.699,0,15.091-2.824,20.827-8.006c12.686-11.503,13.685-31.177,2.213-43.882C197.846,29.985,189.447,26.248,180.665,26.248z"/>
	<g>
		<g>
			<path fill="#FFFFFF" d="M219.848,137.061c0,21.645-17.542,39.194-39.19,39.194c-21.645,0-39.183-17.55-39.183-39.194
				c0-21.641,17.538-39.183,39.183-39.183C202.306,97.878,219.848,115.42,219.848,137.061z"/>
			<path fill="#084364" d="M180.657,177.631c-22.363,0-40.563-18.199-40.563-40.57c0-22.367,18.199-40.565,40.563-40.565
				c22.367,0,40.565,18.198,40.565,40.565C221.223,159.432,203.024,177.631,180.657,177.631z M180.657,99.254
				c-20.842,0-37.804,16.957-37.804,37.807s16.962,37.808,37.804,37.808c20.85,0,37.807-16.958,37.807-37.808
				S201.507,99.254,180.657,99.254z"/>
		</g>
		<g>
			<path fill="#BDD337" d="M204.1,136.089c-0.761,0-1.379-0.618-1.379-1.376c0-12.162-9.896-22.066-22.063-22.066
				c-7.953,0-15.321,4.311-19.229,11.244c-0.38,0.665-1.229,0.899-1.879,0.523c-0.66-0.373-0.898-1.211-0.519-1.879
				c4.392-7.799,12.678-12.641,21.626-12.641c13.685,0,24.818,11.127,24.818,24.818C205.476,135.471,204.864,136.089,204.1,136.089z
				"/>
		</g>
		<g>
			<polygon fill="#BDD337" points="168.498,123.779 157.625,133.941 154.26,119.441 			"/>
			<path fill="#BDD337" d="M157.625,135.32c-0.138,0-0.272-0.016-0.403-0.058c-0.469-0.142-0.829-0.526-0.944-1.007l-3.362-14.498
				c-0.111-0.477,0.043-0.984,0.399-1.318c0.361-0.338,0.872-0.453,1.345-0.314l14.238,4.337c0.473,0.146,0.826,0.53,0.945,1.011
				c0.107,0.477-0.043,0.979-0.404,1.317l-10.872,10.161C158.306,135.193,157.967,135.32,157.625,135.32z M156.139,121.459
				l2.286,9.851l7.388-6.903L156.139,121.459z"/>
		</g>
		<g>
			<path fill="#BDD337" d="M180.657,164.238c-13.681,0-24.814-11.135-24.814-24.822c0-0.765,0.618-1.379,1.375-1.379
				c0.765,0,1.38,0.614,1.38,1.379c0,12.163,9.896,22.063,22.06,22.063c7.956,0,15.325-4.313,19.235-11.244
				c0.373-0.672,1.226-0.898,1.875-0.526c0.669,0.376,0.903,1.214,0.526,1.882C197.892,159.389,189.608,164.238,180.657,164.238z"/>
		</g>
		<g>
			<polygon fill="#BDD337" points="192.824,150.342 203.696,140.18 207.065,154.68 			"/>
			<path fill="#BDD337" d="M207.065,156.059c-0.134,0-0.272-0.02-0.403-0.058l-14.241-4.337c-0.469-0.143-0.826-0.527-0.938-1.008
				c-0.115-0.479,0.042-0.982,0.399-1.32l10.868-10.166c0.369-0.338,0.868-0.449,1.345-0.311c0.473,0.146,0.834,0.529,0.941,1.01
				l3.289,14.138c0.107,0.204,0.169,0.431,0.169,0.673c0,0.764-0.611,1.379-1.38,1.379
				C207.104,156.063,207.081,156.059,207.065,156.059z M195.506,149.723l9.674,2.947l-2.286-9.854L195.506,149.723z"/>
		</g>
	</g>
	<path fill="#858585" d="M150.257,130.245l-3.6-0.177l-0.542-0.027l-2.102-0.1c-0.322-0.012-0.604,0.055-0.884,0.107
		c0-0.092-0.015-0.227-0.026-0.338c-0.097-0.722-0.254-1.455-0.407-2.197c-0.035-0.191-0.065-0.407-0.127-0.596
		c-0.127-0.684-0.357-1.355-0.546-2.024c0.296-0.046,0.562-0.104,0.864-0.261l5.575-2.824c0.976-0.511,1.448-1.506,1.083-2.221
		l-3.526-6.907c-0.377-0.726-1.452-0.915-2.421-0.396l-5.586,2.835c-0.28,0.157-0.507,0.331-0.703,0.565
		c-0.185-0.234-0.372-0.469-0.561-0.703c-0.272-0.327-0.53-0.681-0.83-1.008c-0.1-0.1-0.185-0.234-0.28-0.35
		c-0.242-0.268-0.522-0.491-0.741-0.752c0.058,0.064,0.134,0.127,0.199,0.176c-0.173-0.176-0.368-0.338-0.557-0.521
		c-0.165-0.178-0.312-0.338-0.484-0.512c0.058,0.065,0.111,0.135,0.165,0.181c-0.157-0.142-0.296-0.312-0.453-0.438
		c0.219-0.168,0.438-0.395,0.607-0.66l0.941-1.398l0,0l0.342-0.561l2.12-3.27c0.592-0.941,0.522-2.029-0.153-2.49l-6.508-4.195
		c-0.657-0.441-1.722-0.057-2.298,0.857l-3.415,5.248c-0.173,0.284-0.266,0.564-0.327,0.846c-0.104-0.047-0.203-0.085-0.314-0.123
		c-0.584-0.227-1.146-0.48-1.714-0.673c-0.334-0.115-0.688-0.196-1.014-0.296c-0.573-0.173-1.142-0.346-1.733-0.477
		c-0.076-0.042-0.173-0.061-0.265-0.068c0.123-0.27,0.2-0.554,0.207-0.877l0.097-1.663l0,0l0.038-0.956l0,0l0.188-3.604
		c0.054-1.111-0.546-2.025-1.345-2.071l-7.745-0.396c-0.838-0.039-1.525,0.822-1.571,1.924l-0.326,6.229
		c-0.016,0.326,0.046,0.634,0.13,0.879c-0.234,0.035-0.477,0.051-0.718,0.097c-0.473,0.077-0.949,0.169-1.441,0.28
		c-0.469,0.077-0.906,0.158-1.371,0.258c-0.503,0.131-1.003,0.303-1.518,0.449c-0.038,0.035-0.092,0.035-0.131,0.058
		c-0.03-0.3-0.111-0.584-0.257-0.876l-0.757-1.494l0,0l-0.227-0.423l-1.871-3.649c-0.477-0.98-1.468-1.468-2.205-1.111l-6.896,3.527
		c-0.715,0.381-0.902,1.468-0.396,2.443l1.645,3.212l0.092,0.188l1.11,2.158c0.142,0.293,0.334,0.527,0.546,0.715
		c-0.696,0.527-1.388,1.092-2.06,1.684c-0.657,0.603-1.279,1.217-1.855,1.855c-0.188-0.215-0.392-0.427-0.657-0.607l-1.422-0.914
		l-0.803-0.512l0,0l-2.927-1.912l0,0l-0.093-0.051c-0.934-0.614-2.028-0.541-2.459,0.143l-4.218,6.508
		c-0.431,0.688-0.05,1.717,0.872,2.32l3.012,1.955l0.196,0.093l2.036,1.345c0.28,0.181,0.561,0.273,0.83,0.334
		c-0.688,1.633-1.237,3.319-1.645,5.025c-0.246-0.107-0.526-0.203-0.857-0.211l-6.231-0.319c-1.103-0.046-2.021,0.554-2.07,1.368
		l-0.392,7.748c-0.027,0.792,0.814,1.506,1.925,1.572l3.592,0.176l0,0l0.761,0.027l1.871,0.111c0.326,0.016,0.622-0.062,0.892-0.135
		c0.215,1.748,0.591,3.48,1.106,5.172c-0.281,0.034-0.569,0.123-0.857,0.261l-5.574,2.862c-0.964,0.473-1.468,1.467-1.083,2.186
		l3.534,6.916c0.357,0.707,1.452,0.902,2.436,0.388l5.556-2.839c0.296-0.143,0.515-0.33,0.71-0.546
		c0.522,0.691,1.068,1.391,1.668,2.044c0.261,0.288,0.534,0.537,0.803,0.803c-0.115-0.092-0.207-0.181-0.308-0.272
		c0.192,0.211,0.396,0.388,0.592,0.591c0.196,0.17,0.377,0.373,0.554,0.539c-0.101-0.085-0.166-0.182-0.273-0.27
		c0.173,0.169,0.342,0.334,0.508,0.488c-0.228,0.18-0.446,0.376-0.615,0.648l-0.922,1.418l0,0l-0.438,0.672l-2.037,3.154
		c-0.599,0.918-0.522,2.021,0.154,2.455l6.5,4.211c0.681,0.449,1.722,0.05,2.31-0.854l3.407-5.251
		c0.169-0.28,0.262-0.562,0.322-0.838c0.204,0.097,0.4,0.149,0.611,0.238c0.38,0.153,0.749,0.323,1.152,0.473
		c0.642,0.23,1.299,0.399,1.937,0.58c0.265,0.069,0.549,0.161,0.83,0.227c0.169,0.062,0.334,0.085,0.507,0.115
		c-0.119,0.272-0.196,0.546-0.204,0.864l-0.088,1.688l0,0l-0.046,0.944l-0.185,3.488v0.123c-0.065,1.103,0.553,1.998,1.371,2.052
		l7.723,0.392c0.814,0.062,1.518-0.811,1.571-1.905l0.326-6.231c0.023-0.331-0.054-0.618-0.135-0.899
		c0.22-0.008,0.431-0.03,0.635-0.068c0.522-0.055,1.006-0.174,1.514-0.277c0.445-0.08,0.883-0.146,1.337-0.262
		c0.545-0.134,1.091-0.338,1.651-0.495c0.016-0.003,0.031-0.003,0.046-0.003c0.035,0.279,0.112,0.568,0.25,0.871l0.757,1.49l0,0
		l0.446,0.85l1.651,3.212c0.484,0.987,1.483,1.472,2.205,1.099l6.912-3.527c0.71-0.376,0.895-1.451,0.392-2.428l-2.858-5.563
		c-0.143-0.304-0.326-0.508-0.53-0.711c1.383-1.053,2.689-2.225,3.915-3.542c0.173,0.223,0.376,0.453,0.649,0.606l1.395,0.915l0,0
		l0.829,0.522l2.92,1.905l0.093,0.062c0.93,0.592,2.013,0.515,2.481-0.157l4.195-6.501c0.438-0.684,0.05-1.729-0.872-2.324
		l-3.012-1.943l-0.219-0.131l-2.014-1.322c-0.265-0.16-0.561-0.268-0.83-0.334c0.238-0.561,0.484-1.113,0.688-1.682
		c0.064-0.158,0.088-0.313,0.142-0.488c0.266-0.754,0.515-1.51,0.688-2.274c0.046-0.188,0.062-0.384,0.115-0.573
		c0.258,0.089,0.538,0.189,0.876,0.196l6.247,0.315c1.079,0.062,2.006-0.557,2.044-1.353l0.384-7.753
		C152.216,131.025,151.363,130.307,150.257,130.245z M127.448,149.297c-8.613,7.787-21.88,7.111-29.651-1.486
		c-7.765-8.591-7.084-21.891,1.521-29.651c8.575-7.772,21.855-7.093,29.628,1.506C136.703,128.278,136.046,141.529,127.448,149.297z
		"/>
	<path fill="#084364" d="M115.354,174.33c-0.03,0-0.142,0-0.173,0l-7.733-0.396c-0.803-0.05-1.533-0.407-2.113-1.034
		c-0.66-0.74-1.014-1.824-0.952-2.916l0.28-5.697h-0.008c-0.6-0.164-1.226-0.334-1.832-0.545c-0.097-0.023-0.188-0.062-0.296-0.107
		l-3.074,4.76c-1.109,1.709-3.315,2.352-4.79,1.402l-6.508-4.211c-0.665-0.43-1.142-1.121-1.314-1.943
		c-0.199-0.992,0.016-2.086,0.626-3.031l3.081-4.749l-0.223-0.227c-0.065-0.046-0.111-0.111-0.142-0.157
		c-0.177-0.185-0.296-0.312-0.423-0.438c-0.25-0.281-0.484-0.539-0.719-0.842l-5.056,2.601c-1.81,0.926-4.064,0.38-4.853-1.194
		l-3.542-6.908c-0.357-0.691-0.415-1.521-0.165-2.324c0.319-0.961,1.072-1.794,2.067-2.293l5.06-2.598
		c-0.181-0.727-0.346-1.452-0.473-2.193l-5.686-0.281c-2.121-0.126-3.716-1.647-3.611-3.457l0.372-7.749
		c0.111-1.744,1.718-3.065,3.73-3.065l5.916,0.288c0.2-0.703,0.438-1.418,0.677-2.117l-4.768-3.089
		c-1.779-1.16-2.386-3.273-1.41-4.799l4.218-6.53c0.915-1.402,3.063-1.756,4.745-0.804c0.269,0.089,0.511,0.242,0.688,0.454
		l4.291,2.755c0.25-0.258,0.53-0.508,0.812-0.758c0.28-0.249,0.545-0.491,0.86-0.74l-2.59-5.057
		c-0.96-1.883-0.445-4.003,1.152-4.852l6.931-3.543c1.606-0.807,3.704,0.085,4.634,1.902l2.578,5.04c0.038,0,0.08-0.015,0.138-0.022
		c0.357-0.107,0.734-0.154,1.091-0.227l0.373-0.063c0.227-0.057,0.423-0.096,0.58-0.138l0.296-5.675
		c0.107-2.086,1.537-3.642,3.3-3.642l7.907,0.419c0.779,0.038,1.521,0.398,2.082,1.006c0.688,0.75,1.037,1.81,0.976,2.936
		l-0.28,5.697c0.062,0.02,0.123,0.039,0.199,0.058l0.016,1.875l0.469-1.74c0.296,0.092,0.58,0.165,0.853,0.257
		c0.2,0.089,0.4,0.15,0.592,0.227l3.101-4.791c1.083-1.693,3.323-2.343,4.791-1.405l6.508,4.222
		c1.525,1.007,1.829,3.166,0.684,4.949l-3.073,4.768c0.204,0.149,0.403,0.35,0.53,0.592c0.092,0.096,0.173,0.16,0.242,0.257
		c0.022,0.03,0.211,0.249,0.234,0.28c0.161,0.207,0.318,0.369,0.461,0.564l5.086-2.615c1.825-0.945,4.042-0.381,4.853,1.179
		l3.527,6.919c0.353,0.688,0.418,1.529,0.173,2.328c-0.319,0.961-1.076,1.806-2.067,2.301l-5.052,2.574
		c0.042,0.189,0.096,0.377,0.127,0.546c0.015,0.022,0.096,0.396,0.096,0.431c0.092,0.426,0.169,0.834,0.234,1.225l5.686,0.281
		c1.142,0.062,2.163,0.545,2.832,1.295c0.557,0.606,0.837,1.402,0.787,2.178l-0.38,7.715c-0.111,1.771-1.702,3.088-3.73,3.088l0,0
		l-5.89-0.295c-0.149,0.453-0.288,0.93-0.445,1.406c0,0.008-0.158,0.473-0.158,0.484c-0.03,0.088-0.046,0.152-0.092,0.249
		l4.768,3.073c0.941,0.619,1.591,1.537,1.802,2.513c0.173,0.841,0.023,1.633-0.403,2.302l-4.215,6.5
		c-0.976,1.49-3.266,1.806-4.963,0.68l-4.761-3.073c-0.53,0.511-1.091,1.007-1.667,1.483l2.59,5.063
		c0.964,1.887,0.461,4.035-1.18,4.86l-6.889,3.526c-1.587,0.788-3.707-0.061-4.622-1.882l-2.604-5.04
		c-0.062,0.019-0.123,0.022-0.188,0.041c-0.342,0.086-0.695,0.154-1.045,0.22l-0.384,0.065c-0.207,0.05-0.403,0.08-0.568,0.111
		l-0.296,5.697C118.539,172.74,117.075,174.33,115.354,174.33z M108.02,170.361l6.931,0.357l0.427-6.432
		c-0.165-0.514-0.115-1.206,0.188-1.651c0.284-0.454,0.769-0.884,1.302-0.93l0.554-0.062c0.354-0.054,0.695-0.131,1.041-0.188
		l0.807-0.157c0.258-0.043,0.538-0.107,0.792-0.154c0.426-0.131,0.817-0.242,1.198-0.361l0.384-0.122
		c0.108-0.05,0.25-0.054,0.35-0.069c0.492-0.073,0.977,0.092,1.353,0.396c0.388,0.296,0.607,0.741,0.673,1.21l2.908,5.79
		l-0.212,0.304l6.523-3.331l-2.858-5.759c-0.388-0.354-0.684-0.991-0.652-1.506c0.03-0.53,0.203-1.122,0.626-1.457
		c1.31-0.982,2.555-2.108,3.688-3.342c0.369-0.399,0.884-0.611,1.406-0.572c0.538,0.035,1.03,0.3,1.349,0.703l5.621,3.661
		l3.776-5.835l-5.355-3.566c-0.53-0.111-1.092-0.507-1.341-0.976c-0.258-0.476-0.389-1.071-0.181-1.575l0.188-0.43
		c0.165-0.4,0.311-0.769,0.461-1.172l1.84,0.123l-1.71-0.561c0.242-0.703,0.462-1.418,0.657-2.137l1.771,0.039v-0.023l-1.687-0.534
		c0.096-0.511,0.43-0.979,0.922-1.229c0.48-0.266,1.053-0.292,1.56-0.072l6.493,0.402c0.111-0.042,0.161,0,0.173,0.027l0.364-7.012
		l-6.423-0.414c-0.5,0.13-1.203,0.092-1.637-0.22c-0.438-0.292-0.872-0.71-0.945-1.233c-0.131-1.029-0.258-1.701-0.411-2.378
		l1.637-0.995l-1.748,0.393c-0.146-0.631-0.326-1.253-0.53-1.879c-0.157-0.522-0.077-1.061,0.204-1.514
		c0.28-0.438,0.749-0.742,1.279-0.822l5.858-2.9c0.069-0.062,0.135-0.084,0.181-0.062l-3.204-6.259l-5.778,2.855
		c-0.35,0.395-0.976,0.764-1.486,0.672c-0.55-0.023-1.126-0.203-1.452-0.627l-0.55-0.676c-0.312-0.377-0.546-0.656-0.795-0.938
		c0,0-0.216-0.295-0.234-0.295c-0.146-0.182-0.258-0.289-0.381-0.389l-0.326-0.322c0-0.008,0-0.008,0-0.008l-0.012-0.016
		c-0.042-0.058-0.084-0.077-0.107-0.143l-0.219-0.188c-0.016-0.012-0.123-0.131-0.2-0.208c-0.026-0.03-0.05-0.062-0.104-0.096
		c-0.381-0.357-0.803-1.099-0.772-1.622c0.023-0.537,0.062-1.248,0.484-1.559l3.588-5.448c0.046-0.093,0.085-0.115,0.127-0.115
		l-5.963-3.86l-3.495,5.378c-0.127,0.519-0.516,1.087-0.999,1.329c-0.469,0.25-1.084,0.403-1.557,0.192l0.15-1.782l-0.016-0.008
		l-0.646,1.59c-0.477-0.203-0.945-0.392-1.414-0.545c-0.219-0.063-0.426-0.143-0.642-0.188c-0.015,0-0.561-0.181-0.576-0.181
		c-0.434-0.115-0.895-0.266-1.355-0.369c-0.516-0.143-1.08-0.503-1.311-0.972c-0.242-0.469-0.392-1.057-0.188-1.529l0.393-6.5
		c-0.016-0.115,0-0.165,0.026-0.188l-7.004-0.357l-0.422,6.42c0.181,0.5,0.134,1.164-0.146,1.621
		c-0.292,0.457-0.741,0.884-1.275,0.957c-0.016,0.008-0.403,0.038-0.423,0.038c-0.591,0.077-0.918,0.138-1.244,0.227l-0.799,0.142
		c-0.285,0.066-0.577,0.119-0.873,0.178c-0.353,0.092-0.688,0.219-0.994,0.303l-0.435,0.119c-0.511,0.154-1.114,0.1-1.567-0.18
		c-0.435-0.289-0.803-0.734-0.872-1.271l-2.974-6.018l-6.266,3.221l2.869,5.731c0.393,0.38,0.681,1.007,0.673,1.528
		c-0.046,0.543-0.227,1.138-0.657,1.457c-0.646,0.491-1.291,0.998-1.917,1.57c-0.626,0.565-1.21,1.153-1.764,1.764
		c-0.354,0.381-0.938,0.562-1.391,0.568c-0.53-0.019-1.007-0.271-1.349-0.68l-5.624-3.676l-3.792,5.843l5.367,3.569
		c0.515,0.107,1.075,0.477,1.333,0.976c0.242,0.469,0.392,1.067,0.161,1.567c-0.642,1.545-1.164,3.119-1.518,4.729
		c-0.119,0.515-0.445,0.94-0.93,1.187c-0.453,0.25-1.014,0.27-1.49,0.085l-6.539-0.392c-0.119,0.012-0.161-0.023-0.181-0.047
		l-0.364,7.016l6.411,0.407c0.522-0.157,1.199-0.096,1.664,0.204c0.438,0.265,0.864,0.729,0.938,1.248
		c0.185,1.637,0.545,3.289,1.053,4.867c0.153,0.523,0.072,1.076-0.227,1.521c-0.289,0.449-0.765,0.75-1.295,0.803l-5.82,2.92
		c-0.069,0.07-0.143,0.07-0.181,0.055l3.208,6.266l5.759-2.866c0.357-0.403,1.014-0.726,1.529-0.665
		c0.529,0.035,1.113,0.216,1.437,0.635c0.499,0.641,1.014,1.303,1.56,1.913c0.169,0.181,0.326,0.342,0.484,0.483l0.272,0.289
		c0.038,0.03,0.054,0.061,0.1,0.1l0.188,0.188c0,0,0.093,0.085,0.157,0.158c0.047,0.039,0.077,0.062,0.123,0.107
		c0.016,0.008,0.016,0.031,0.043,0.039c0.487,0.322,0.821,0.883,0.821,1.514c0,0.227-0.042,0.445-0.115,0.648
		c-0.046,0.396-0.157,0.803-0.445,1.015l-3.573,5.421c-0.054,0.104-0.084,0.135-0.122,0.149l5.904,3.815l3.558-5.359
		c0.115-0.508,0.496-1.068,0.953-1.326c0.465-0.257,1.075-0.398,1.567-0.203l1.045,0.426c0.211,0.089,0.415,0.166,0.626,0.262
		c0.53,0.169,1.08,0.342,1.613,0.488l0.969,0.28c0.515,0.104,1.187,0.499,1.452,0.968c0.234,0.453,0.515,1.064,0.326,1.557
		l-0.38,6.389C107.997,170.031,108.005,170.212,108.02,170.361z M113.371,156.523c-6.435,0-12.593-2.735-16.899-7.511
		c-4.08-4.53-6.159-10.354-5.852-16.428c0.308-6.085,2.962-11.687,7.473-15.743c4.199-3.805,9.631-5.895,15.278-5.895
		c6.436,0,12.594,2.725,16.9,7.516c4.088,4.525,6.166,10.346,5.852,16.424c-0.304,6.063-2.951,11.679-7.48,15.739
		C124.451,154.441,119.026,156.523,113.371,156.523z M113.371,114.544c-4.744,0-9.316,1.774-12.858,4.948
		c-3.807,3.442-6.039,8.152-6.289,13.281c-0.272,5.117,1.476,10.012,4.91,13.818c3.627,4.02,8.824,6.328,14.237,6.328
		c4.745,0,9.316-1.756,12.859-4.964c3.811-3.423,6.031-8.13,6.296-13.239c0.266-5.129-1.486-10.035-4.921-13.842
		C123.967,116.864,118.784,114.544,113.371,114.544z"/>
</g>
</svg>
