<?xml version="1.0" encoding="utf-8"?>
<!-- Generator: Adobe Illustrator 16.0.0, SVG Export Plug-In . SVG Version: 6.00 Build 0)  -->
<!DOCTYPE svg PUBLIC "-//W3C//DTD SVG 1.1//EN" "http://www.w3.org/Graphics/SVG/1.1/DTD/svg11.dtd">
<svg version="1.1" id="Layer_1" xmlns="http://www.w3.org/2000/svg" xmlns:xlink="http://www.w3.org/1999/xlink" x="0px" y="0px"
	 width="195.915px" height="122.525px" viewBox="0 0 195.915 122.525" enable-background="new 0 0 195.915 122.525"
	 xml:space="preserve">
<g>
	<g>
		<g>
			<path fill="#FFFFFF" d="M95.942,34.184c0,0-6.613-4.473-20.828-4.473c-0.01,0-0.021,0-0.032,0c-0.021,0-0.031,0-0.054,0
				c-14.201,0-20.825,4.473-20.825,4.473s-3.389,18.744,1.137,32.349c3.418,10.299,18.305,19.015,19.742,19.829
				c1.415-0.814,16.303-9.53,19.723-19.829C99.328,52.928,95.942,34.184,95.942,34.184z"/>
			<path fill="#676767" d="M75.089,89.516l-1.363-0.771c-1.751-0.999-17.234-10.05-20.991-21.349
				c-4.683-14.104-1.372-32.906-1.233-33.699l0.21-1.135l0.958-0.648c0.299-0.203,7.482-4.947,22.358-4.947
				c14.966,0,22.157,4.744,22.455,4.947l0.955,0.648l0.204,1.135c0.144,0.793,3.462,19.596-1.232,33.699
				C93.778,78.345,79.306,87.09,76.444,88.74L75.089,89.516z M56.707,35.939c-0.634,4.334-2.354,18.926,1.239,29.721
				c2.325,7.011,11.554,14.086,17.126,17.503C80.914,79.574,89.896,72.607,92.2,65.66c3.598-10.795,1.876-25.389,1.244-29.721
				c-2.207-1.088-8.214-3.482-18.329-3.482C64.954,32.457,58.932,34.845,56.707,35.939z"/>
		</g>
		<linearGradient id="SVGID_1_" gradientUnits="userSpaceOnUse" x1="48.8442" y1="109" x2="71.2666" y2="109">
			<stop  offset="0" style="stop-color:#263678"/>
			<stop  offset="0.4401" style="stop-color:#263779"/>
			<stop  offset="0.5986" style="stop-color:#263B7C"/>
			<stop  offset="0.7115" style="stop-color:#254282"/>
			<stop  offset="0.8029" style="stop-color:#254C8B"/>
			<stop  offset="0.8811" style="stop-color:#245898"/>
			<stop  offset="0.9492" style="stop-color:#2167A9"/>
			<stop  offset="0.9946" style="stop-color:#1C75BC"/>
		</linearGradient>
		<path fill="url(#SVGID_1_)" d="M71.267,109.23c0,1.565-0.257,3.133-0.781,4.701c-0.525,1.579-1.384,2.987-2.584,4.23
			c-1.189,1.236-2.755,2.235-4.695,2.999c-1.939,0.762-4.34,1.114-7.204,1.051c-0.63,0-1.21,0-1.736,0
			c-0.535,0-1.059-0.019-1.598-0.048c-0.547-0.032-1.124-0.059-1.725-0.096c-0.602-0.031-1.298-0.08-2.101-0.146V95.975
			c1.211-0.065,2.305-0.096,3.27-0.096c0.975,0,1.778-0.015,2.411-0.045c0.376,0,0.739,0,1.074,0c0.331,0,0.64-0.02,0.932-0.049
			c1.715-0.029,3.45,0.189,5.199,0.672c1.745,0.47,3.332,1.252,4.748,2.336c1.415,1.072,2.562,2.477,3.462,4.2
			C70.828,104.701,71.267,106.789,71.267,109.23z M67.118,109.381c0-1.977-0.342-3.598-1.029-4.891
			c-0.686-1.291-1.554-2.315-2.593-3.076c-1.049-0.76-2.197-1.291-3.428-1.596c-1.246-0.307-2.415-0.457-3.496-0.457l-3.902,0.094
			c0.022,0.195,0.043,0.4,0.043,0.626c0,0.216,0,0.411,0,0.573v16.596c0,0.16,0,0.332,0,0.527c0,0.188-0.032,0.41-0.096,0.662
			c0.352,0.033,0.708,0.057,1.071,0.057c0.365,0,0.708,0.007,1.03,0.039c0.161,0.038,0.331,0.057,0.524,0.057
			c0.194,0,0.366,0,0.526,0c1.491,0.066,2.926-0.096,4.299-0.484c1.359-0.383,2.572-0.956,3.611-1.736
			c1.061-0.785,1.886-1.756,2.509-2.938C66.808,112.258,67.118,110.906,67.118,109.381z"/>
		<linearGradient id="SVGID_2_" gradientUnits="userSpaceOnUse" x1="75.1353" y1="108.9043" x2="93.3057" y2="108.9043">
			<stop  offset="0" style="stop-color:#263678"/>
			<stop  offset="0.1965" style="stop-color:#254080"/>
			<stop  offset="0.5822" style="stop-color:#245898"/>
			<stop  offset="0.9677" style="stop-color:#1C75BC"/>
		</linearGradient>
		<path fill="url(#SVGID_2_)" d="M88.545,121.977l-5.872-10.118c-0.516,0-1.147-0.005-1.911-0.021
			c-0.759-0.018-1.369-0.062-1.81-0.123c0.033,0.162,0.042,0.303,0.042,0.433c0,0.132,0,0.247,0,0.376v9.453h-3.859V96.121
			c0.665,0,1.362-0.02,2.07-0.053c0.716-0.027,1.393-0.065,2.026-0.094c0.644-0.033,1.222-0.065,1.746-0.096
			c0.528-0.033,0.935-0.045,1.212-0.045c1.92-0.033,3.538,0.252,4.867,0.859c1.34,0.6,2.378,1.395,3.129,2.357
			c0.751,0.969,1.225,2.045,1.427,3.211c0.214,1.189,0.149,2.348-0.161,3.486c-0.323,1.146-0.879,2.207-1.695,3.172
			c-0.813,0.98-1.853,1.719-3.129,2.233l6.679,10.823H88.545z M87.484,103.896c0-0.573-0.094-1.126-0.3-1.673
			c-0.214-0.537-0.536-1.03-0.964-1.46c-0.429-0.429-0.943-0.769-1.565-1.022c-0.622-0.252-1.361-0.379-2.23-0.379
			c-0.342,0-0.857,0.01-1.542,0.021c-0.687,0.021-1.34,0.059-1.982,0.119c0.063,0.191,0.094,0.363,0.094,0.502
			c0,0.145,0,0.279,0,0.408v7.059c0,0.127,0,0.272,0,0.432c0,0.156-0.031,0.318-0.094,0.471c0.705,0.072,1.381,0.11,2.024,0.122
			c0.654,0.019,1.094,0.023,1.319,0.023c0.889,0,1.672-0.134,2.336-0.404c0.664-0.271,1.211-0.62,1.64-1.046
			c0.428-0.428,0.75-0.922,0.964-1.48C87.39,105.031,87.484,104.467,87.484,103.896z"/>
		<linearGradient id="SVGID_3_" gradientUnits="userSpaceOnUse" x1="95.46" y1="111.8926" x2="113.5845" y2="111.8926">
			<stop  offset="0" style="stop-color:#1C75BC"/>
			<stop  offset="0.0665" style="stop-color:#1C75BC"/>
			<stop  offset="0.9677" style="stop-color:#1C75BC"/>
		</linearGradient>
		<path fill="url(#SVGID_3_)" d="M113.058,122.021c-0.289,0.19-0.665,0.319-1.125,0.406c-0.461,0.08-0.932,0.045-1.403-0.099
			c-0.482-0.144-0.934-0.406-1.363-0.78c-0.428-0.388-0.749-0.942-0.974-1.674c-1.211,1.143-2.54,1.899-4.008,2.266
			c-1.458,0.367-2.853,0.391-4.149,0.071c-1.307-0.317-2.39-0.929-3.27-1.866c-0.879-0.922-1.306-2.111-1.306-3.568
			c0-1.436,0.31-2.646,0.954-3.633c0.63-0.985,1.509-1.779,2.646-2.379c1.126-0.611,2.443-1.041,3.955-1.291
			c1.511-0.251,3.12-0.383,4.844-0.383c-0.063-0.127-0.117-0.299-0.147-0.523c-0.036-0.219-0.043-0.439-0.043-0.645
			c0-0.204,0-0.396,0-0.566c0-0.181,0-0.284,0-0.308c0-0.52-0.271-0.992-0.794-1.415c-0.515-0.43-1.253-0.733-2.186-0.902
			c-0.944-0.174-2.058-0.174-3.366,0.021c-1.309,0.189-2.723,0.652-4.245,1.381l-0.858-2.813c0.922-0.51,1.939-0.926,3.056-1.262
			c1.103-0.342,2.228-0.558,3.354-0.67c1.136-0.111,2.229-0.1,3.269,0.047c1.052,0.141,1.994,0.446,2.819,0.902
			c0.825,0.463,1.478,1.081,1.983,1.84c0.495,0.764,0.74,1.734,0.74,2.91v10.783c0,1.213,0.705,1.81,2.144,1.81L113.058,122.021z
			 M107.901,111.337c-2.988,0.286-5.164,0.832-6.525,1.647c-1.374,0.801-2.059,1.928-2.059,3.361c0,0.764,0.235,1.375,0.718,1.838
			c0.472,0.458,1.116,0.762,1.907,0.902c0.794,0.148,1.693,0.113,2.691-0.097c1.008-0.204,2.015-0.581,3.035-1.116v-5.535
			C107.669,112.147,107.743,111.816,107.901,111.337z"/>
		<linearGradient id="SVGID_4_" gradientUnits="userSpaceOnUse" x1="115.4917" y1="111.8926" x2="133.6167" y2="111.8926">
			<stop  offset="0" style="stop-color:#1C75BC"/>
			<stop  offset="0.2275" style="stop-color:#1E7EC2"/>
			<stop  offset="0.6701" style="stop-color:#2296D4"/>
			<stop  offset="0.9677" style="stop-color:#27AAE1"/>
		</linearGradient>
		<path fill="url(#SVGID_4_)" d="M133.091,122.021c-0.278,0.19-0.652,0.319-1.113,0.406c-0.461,0.08-0.932,0.045-1.415-0.099
			c-0.471-0.144-0.933-0.406-1.363-0.78c-0.417-0.388-0.749-0.942-0.975-1.674c-1.212,1.143-2.541,1.899-3.998,2.266
			c-1.469,0.367-2.851,0.391-4.159,0.071c-1.307-0.317-2.39-0.929-3.271-1.866c-0.867-0.922-1.307-2.111-1.307-3.568
			c0-1.436,0.312-2.646,0.955-3.633c0.631-0.985,1.521-1.779,2.646-2.379c1.127-0.611,2.445-1.041,3.957-1.291
			c1.51-0.251,3.129-0.383,4.844-0.383c-0.065-0.127-0.106-0.299-0.138-0.523c-0.032-0.219-0.053-0.439-0.053-0.645
			c0-0.204,0-0.396,0-0.566c0-0.181,0-0.284,0-0.308c0-0.52-0.26-0.992-0.785-1.415c-0.525-0.43-1.253-0.733-2.197-0.902
			c-0.932-0.174-2.058-0.174-3.367,0.021c-1.295,0.189-2.71,0.652-4.245,1.381l-0.855-2.813c0.921-0.51,1.939-0.926,3.054-1.262
			c1.115-0.342,2.23-0.558,3.355-0.67c1.136-0.111,2.23-0.1,3.28,0.047c1.038,0.141,1.981,0.446,2.809,0.902
			c0.825,0.463,1.489,1.081,1.982,1.84c0.492,0.764,0.741,1.734,0.741,2.91v10.783c0,1.213,0.718,1.81,2.142,1.81L133.091,122.021z
			 M127.935,111.337c-2.978,0.286-5.166,0.832-6.526,1.647c-1.371,0.801-2.059,1.928-2.059,3.361c0,0.764,0.248,1.375,0.719,1.838
			c0.481,0.458,1.115,0.762,1.907,0.902c0.792,0.148,1.693,0.113,2.702-0.097c0.997-0.204,2.004-0.581,3.024-1.116v-5.535
			C127.702,112.147,127.787,111.816,127.935,111.337z"/>
		<linearGradient id="SVGID_5_" gradientUnits="userSpaceOnUse" x1="135.3857" y1="109.0596" x2="153.5107" y2="109.0596">
			<stop  offset="0" style="stop-color:#1C75BC"/>
			<stop  offset="0.0556" style="stop-color:#2585C7"/>
			<stop  offset="0.123" style="stop-color:#2D96D3"/>
			<stop  offset="0.2003" style="stop-color:#34A4DC"/>
			<stop  offset="0.2907" style="stop-color:#3AAFE4"/>
			<stop  offset="0.4025" style="stop-color:#3FB7E9"/>
			<stop  offset="0.5593" style="stop-color:#41BBEC"/>
			<stop  offset="0.9946" style="stop-color:#42BDED"/>
		</linearGradient>
		<path fill="url(#SVGID_5_)" d="M153.511,114.348c0,1.84-0.514,3.43-1.544,4.766c-1.039,1.331-2.411,2.283-4.104,2.863
			c-1.703,0.568-3.632,0.698-5.799,0.376c-2.165-0.315-4.394-1.2-6.677-2.67l1.329-3.968c2.004,1.371,3.795,2.21,5.37,2.514
			c1.575,0.295,2.915,0.286,4.011-0.045c1.091-0.336,1.918-0.873,2.474-1.596c0.557-0.736,0.826-1.472,0.792-2.201
			c-0.032-0.566-0.18-1.055-0.429-1.451c-0.257-0.402-0.567-0.734-0.952-1.002c-0.387-0.27-0.805-0.496-1.267-0.677
			c-0.46-0.167-0.911-0.329-1.361-0.491c-1.018-0.322-2.057-0.642-3.119-0.979c-1.07-0.333-2.037-0.779-2.914-1.336
			c-0.881-0.558-1.588-1.274-2.146-2.151c-0.558-0.872-0.835-2.009-0.835-3.413c0-1.715,0.493-3.168,1.478-4.361
			c0.987-1.189,2.263-2.026,3.839-2.504c1.573-0.475,3.353-0.557,5.347-0.236c1.983,0.316,3.977,1.142,5.981,2.481l-1.62,3.577
			c-1.435-0.987-2.817-1.662-4.148-2.025c-1.339-0.372-2.507-0.473-3.516-0.316c-0.996,0.158-1.788,0.563-2.379,1.195
			c-0.588,0.637-0.855,1.461-0.783,2.481c0.021,0.479,0.184,0.884,0.473,1.218c0.289,0.336,0.622,0.625,1.028,0.859
			c0.397,0.235,0.827,0.442,1.287,0.602c0.462,0.153,0.88,0.295,1.264,0.422c1.051,0.318,2.101,0.65,3.173,1.003
			c1.06,0.346,2.015,0.812,2.863,1.38c0.835,0.568,1.531,1.305,2.069,2.202C153.243,111.753,153.511,112.909,153.511,114.348z"/>
		<linearGradient id="SVGID_6_" gradientUnits="userSpaceOnUse" x1="0" y1="61.1641" x2="195.7314" y2="61.1641">
			<stop  offset="0" style="stop-color:#1C75BC"/>
			<stop  offset="0.9946" style="stop-color:#42BDED"/>
		</linearGradient>
		<path fill="url(#SVGID_6_)" d="M156.513,122.32c20.011-0.384,39.218-16.705,39.218-36.691c0-16.914-11.436-31.146-27-35.398
			c-5.658-15.064-20.194-25.766-37.226-25.766c-3.913,0-7.707,0.564-11.286,1.632C110.521,10.432,93.175,0,73.4,0
			c-30,0-54.397,23.998-55.028,53.845C7.384,60.195,0,72.069,0,85.629c0,20.26,16.442,36.7,36.701,36.7l5.818-0.009l0.088-12.131
			l-5.93-0.101c-13.474,0-24.438-10.952-24.438-24.46c0-11.573,8.05-21.299,18.876-23.828c-0.354-2.193-0.524-4.454-0.524-6.75
			c0-23.652,19.164-42.824,42.809-42.824c19.336,0,35.684,12.834,40.988,30.431c4.705-3.726,10.643-5.96,17.118-5.96
			c14.17,0,25.842,10.703,27.354,24.465h0.193c13.473,0,24.447,10.952,24.447,24.467c0,13.486-10.953,24.46-24.447,24.46l0,0l0,0
			l-2.649,12.24"/>
		<path fill="#676767" d="M74.966,62.788c-3.752,0-7.021-2.09-8.704-5.176l2.755-2.757h-3.763h-4.029h-0.14v1.984v3.965v1.983
			l2.282-2.282c2.476,3.768,6.752,6.252,11.599,6.252c6.997,0,12.786-5.18,13.751-11.902h-4.021
			C83.776,59.38,79.767,62.788,74.966,62.788"/>
		<path fill="#676767" d="M74.966,38.981c-6.99,0-12.775,5.171-13.741,11.907h4.029c0.913-4.525,4.919-7.938,9.711-7.938
			c3.763,0,7.042,2.094,8.714,5.173l-2.755,2.765h1.983h1.789h4.021h0.141v-7.938l-2.285,2.281
			C84.096,41.468,79.819,38.981,74.966,38.981"/>
		<g>
			<path fill="#FFFFFF" d="M124.528,51.713c0,0-5.36-2.117-15.371,0.111c0,0-0.01,0.006-0.021,0.006
				c-0.01,0.006-0.021,0.006-0.032,0.01c-10.001,2.227-13.968,6.414-13.968,6.414s0.56,13.733,5.875,22.596
				c4.019,6.723,15.875,10.525,17.01,10.873c0.868-0.789,9.99-9.268,10.783-17.063C129.855,64.377,124.528,51.713,124.528,51.713z"
				/>
			<path fill="#676767" d="M118.717,94.807l-1.499-0.463c-2.327-0.717-14.121-4.668-18.565-12.078
				c-5.611-9.355-6.227-23.309-6.255-23.896l-0.046-1.154l0.792-0.841c0.183-0.198,4.565-4.729,15.028-7.136l0.781-0.224
				l0.075,0.028c3.072-0.648,6.029-0.98,8.801-0.98c4.78,0,7.422,0.985,7.706,1.091l1.078,0.431l0.445,1.063
				c0.229,0.547,5.589,13.439,4.481,24.295c-0.88,8.561-9.874,17.172-11.664,18.808L118.717,94.807z M97.966,59.448
				c0.291,3.522,1.424,13.371,5.393,19.991c2.828,4.715,10.653,7.954,13.975,9.148c3.453-3.418,8.243-9.322,8.742-14.203
				c0.788-7.717-2.374-17.108-3.607-20.396c-2.002-0.433-7.246-0.66-12.378,0.439l-0.682,0.141
				C103.059,56.078,99.479,58.317,97.966,59.448z"/>
		</g>
		<path fill="#676767" d="M114.248,75.15c-2.646,0.581-5.273-0.378-6.944-2.284l1.51-2.374l-2.657,0.59l-2.83,0.628l-0.097,0.023
			l0.301,1.401l0.632,2.794l0.311,1.396l1.242-1.965c2.347,2.26,5.734,3.34,9.154,2.579c4.92-1.101,8.191-5.655,7.814-10.539
			l-2.83,0.632C119.907,71.364,117.635,74.389,114.248,75.15"/>
		<path fill="#676767" d="M110.507,58.379c-4.918,1.1-8.177,5.65-7.8,10.541l2.829-0.633c-0.055-3.332,2.219-6.361,5.594-7.116
			c2.657-0.593,5.285,0.376,6.956,2.277l-1.512,2.378l1.394-0.31l1.254-0.284l2.842-0.625l0.096-0.031l-1.243-5.582l-1.245,1.965
			C117.326,58.703,113.927,57.622,110.507,58.379"/>
	</g>
</g>
</svg>
