<?xml version="1.0" encoding="utf-8"?>
<!-- Generator: Adobe Illustrator 16.0.0, SVG Export Plug-In . SVG Version: 6.00 Build 0)  -->
<!DOCTYPE svg PUBLIC "-//W3C//DTD SVG 1.1//EN" "http://www.w3.org/Graphics/SVG/1.1/DTD/svg11.dtd">
<svg version="1.1" id="Layer_1" xmlns="http://www.w3.org/2000/svg" xmlns:xlink="http://www.w3.org/1999/xlink" x="0px" y="0px"
	 width="224.1px" height="175.387px" viewBox="0 0 224.1 175.387" enable-background="new 0 0 224.1 175.387" xml:space="preserve">
<g>
	<g>
		<path fill="#FFFFFF" d="M64.859,139.258H6.535c-2.509,0-4.543-2.034-4.543-4.543V88.104c0-2.509,2.034-4.543,4.543-4.543h58.324
			c2.509,0,4.543,2.034,4.543,4.543v46.611C69.402,137.224,67.368,139.258,64.859,139.258z"/>
		<path fill="#084364" d="M64.859,141.249H6.535c-3.603,0-6.535-2.932-6.535-6.534V88.104c0-3.601,2.932-6.534,6.535-6.534h58.324
			c3.602,0,6.534,2.934,6.534,6.534v46.611C71.394,138.317,68.461,141.249,64.859,141.249z M6.535,85.551
			c-1.407,0-2.552,1.146-2.552,2.553v46.611c0,1.408,1.145,2.553,2.552,2.553h58.324c1.406,0,2.551-1.145,2.551-2.553V88.104
			c0-1.407-1.145-2.553-2.551-2.553H6.535z"/>
	</g>
	<g>
		<line fill="#FFFFFF" x1="1.992" y1="124.469" x2="69.402" y2="124.469"/>
		<rect x="1.992" y="122.478" fill="#084364" width="67.41" height="3.983"/>
	</g>
	<g>
		<path fill="#FFFFFF" d="M38.346,132.206c0,1.464-1.186,2.649-2.648,2.649c-1.466,0-2.653-1.186-2.653-2.649
			c0-1.467,1.187-2.654,2.653-2.654C37.16,129.552,38.346,130.739,38.346,132.206z"/>
		<path fill="#084364" d="M35.697,136.846c-2.563,0-4.645-2.08-4.645-4.64c0-2.561,2.082-4.645,4.645-4.645
			c2.558,0,4.64,2.084,4.64,4.645C40.337,134.766,38.255,136.846,35.697,136.846z M35.697,131.545c-0.365,0-0.661,0.295-0.661,0.661
			c-0.001,0.719,1.317,0.724,1.317,0C36.354,131.84,36.059,131.545,35.697,131.545z"/>
	</g>
	<g>
		<rect x="27.618" y="139.258" fill="#FFFFFF" width="16.158" height="8.807"/>
		<path fill="#084364" d="M45.768,150.056H25.627v-12.788h20.141V150.056z M29.609,146.073h12.175v-4.824H29.609V146.073z"/>
	</g>
	<g>
		<path fill="#FFFFFF" d="M51.104,155.284H20.294c-1.505,0-2.731-1.229-2.731-2.731v-1.758c0-1.502,1.226-2.73,2.731-2.73h30.811
			c1.501,0,2.727,1.229,2.727,2.73v1.758C53.832,154.056,52.606,155.284,51.104,155.284z"/>
		<path fill="#084364" d="M51.104,157.276H20.294c-2.604,0-4.723-2.121-4.723-4.724v-1.758c0-2.602,2.119-4.722,4.723-4.722h30.811
			c2.601,0,4.718,2.12,4.718,4.722v1.758C55.823,155.155,53.706,157.276,51.104,157.276z M20.294,150.056
			c-0.401,0-0.739,0.339-0.739,0.739v1.758c0,0.402,0.338,0.739,0.739,0.739h30.811c0.399,0,0.735-0.337,0.735-0.739v-1.758
			c0-0.4-0.335-0.739-0.735-0.739H20.294z"/>
	</g>
	<path fill="#C4C6C2" d="M221.485,140.508c0,18.168-14.722,32.887-32.889,32.887h-88.368c-18.166,0-32.888-14.719-32.888-32.887
		V52.139c0-18.17,14.722-32.889,32.888-32.889h88.368c18.167,0,32.889,14.719,32.889,32.889V140.508z"/>
	<path fill="#084364" d="M188.597,175.387h-88.368c-19.231,0-34.88-15.648-34.88-34.879V52.139c0-19.231,15.649-34.88,34.88-34.88
		h88.368c19.231,0,34.881,15.648,34.881,34.88v88.369C223.478,159.738,207.828,175.387,188.597,175.387z M100.229,21.243
		c-17.037,0-30.897,13.857-30.897,30.896v88.369c0,17.036,13.86,30.896,30.897,30.896h88.368c17.037,0,30.897-13.859,30.897-30.896
		V52.139c0-17.038-13.86-30.896-30.897-30.896H100.229z"/>
	<path fill="#D7E8F7" d="M216.837,82.179c0,44.671-36.214,80.894-80.892,80.894c-44.67,0-80.892-36.223-80.892-80.894
		c0-44.674,36.222-80.896,80.892-80.896C180.623,1.283,216.837,37.505,216.837,82.179z"/>
	<path fill="#084364" d="M135.945,164.355c-45.312,0-82.176-36.865-82.176-82.177C53.769,36.862,90.633,0,135.945,0
		s82.18,36.862,82.18,82.179C218.125,127.49,181.257,164.355,135.945,164.355z M135.945,2.572c-43.892,0-79.604,35.71-79.604,79.606
		c0,43.894,35.712,79.604,79.604,79.604c43.897,0,79.604-35.711,79.604-79.604C215.549,38.282,179.842,2.572,135.945,2.572z"/>
	<g>
		<path fill="#084364" d="M135.945,164.355c-0.708,0-1.284-0.575-1.284-1.283V1.283c0-0.712,0.576-1.283,1.284-1.283
			c0.712,0,1.288,0.571,1.288,1.283v161.789C137.232,163.78,136.657,164.355,135.945,164.355z"/>
	</g>
	<g>
		<path fill="#084364" d="M216.837,83.467H55.053c-0.708,0-1.284-0.576-1.284-1.288c0-0.708,0.576-1.284,1.284-1.284h161.784
			c0.712,0,1.288,0.576,1.288,1.284C218.125,82.891,217.549,83.467,216.837,83.467z"/>
	</g>
	<g>
		<path fill="#084364" d="M161.863,159.897c-0.14,0-0.28-0.023-0.421-0.07c-0.669-0.233-1.023-0.969-0.79-1.637
			c0.121-0.354,12.293-35.876,12.293-76.015c0-40.143-12.172-75.661-12.293-76.012c-0.233-0.672,0.121-1.403,0.79-1.637
			c0.673-0.233,1.405,0.12,1.638,0.79c0.125,0.361,12.432,36.265,12.432,76.858c0,40.59-12.307,76.5-12.432,76.857
			C162.894,159.563,162.396,159.897,161.863,159.897z"/>
	</g>
	<g>
		<path fill="#084364" d="M191.826,141.977c-0.141,0-0.28-0.021-0.42-0.069c-0.674-0.234-1.027-0.968-0.794-1.638
			c0.093-0.268,9.394-27.42,9.394-58.094c0-30.702-9.301-57.822-9.394-58.094c-0.233-0.67,0.121-1.4,0.794-1.638
			c0.676-0.23,1.399,0.127,1.637,0.797c0.094,0.272,9.534,27.801,9.534,58.935c0,31.125-9.44,58.662-9.534,58.938
			C192.857,141.643,192.358,141.977,191.826,141.977z"/>
	</g>
	<g>
		<path fill="#084364" d="M110.026,159.897c-0.532,0-1.026-0.334-1.212-0.864c-0.125-0.357-12.431-36.268-12.431-76.857
			c0-40.594,12.306-76.497,12.431-76.858c0.233-0.67,0.968-1.019,1.637-0.79c0.669,0.233,1.022,0.965,0.793,1.637
			c-0.124,0.351-12.292,35.869-12.292,76.012c0,40.159,12.167,75.66,12.292,76.015c0.229,0.668-0.124,1.403-0.793,1.637
			C110.307,159.874,110.171,159.897,110.026,159.897z"/>
	</g>
	<g>
		<path fill="#084364" d="M80.068,141.977c-0.533,0-1.031-0.334-1.218-0.863c-0.093-0.275-9.53-27.813-9.53-58.938
			c0-31.134,9.438-58.662,9.53-58.935c0.237-0.67,0.972-1.022,1.638-0.797c0.672,0.237,1.026,0.968,0.793,1.638
			c-0.093,0.271-9.39,27.41-9.39,58.094c0,30.674,9.296,57.826,9.39,58.094c0.233,0.67-0.121,1.403-0.793,1.638
			C80.349,141.955,80.208,141.977,80.068,141.977z"/>
	</g>
	<g>
		<path fill="#084364" d="M58.604,61.766c-0.529,0-1.026-0.331-1.212-0.855c-0.238-0.669,0.112-1.404,0.782-1.643
			c0.307-0.108,31.238-10.895,77.772-10.895c46.538,0,77.477,10.786,77.784,10.895c0.669,0.238,1.02,0.974,0.783,1.643
			c-0.242,0.669-0.981,1.023-1.642,0.781c-0.308-0.104-30.862-10.748-76.925-10.748c-46.06,0-76.609,10.644-76.914,10.748
			C58.892,61.741,58.743,61.766,58.604,61.766z"/>
	</g>
	<g>
		<path fill="#084364" d="M77.956,28.994c-0.525,0-1.023-0.326-1.209-0.856c-0.237-0.669,0.109-1.399,0.782-1.641
			c0.229-0.077,23.467-8.176,58.414-8.176c34.949,0,58.194,8.099,58.428,8.176c0.665,0.241,1.015,0.972,0.782,1.641
			c-0.238,0.673-0.968,1.027-1.642,0.783c-0.226-0.077-23.098-8.028-57.568-8.028c-34.472,0-57.328,7.951-57.559,8.028
			C78.243,28.971,78.101,28.994,77.956,28.994z"/>
	</g>
	<g>
		<path fill="#084364" d="M135.945,115.979c-46.534,0-77.465-10.786-77.772-10.896c-0.67-0.233-1.02-0.972-0.782-1.638
			c0.241-0.669,0.984-1.019,1.64-0.781c0.304,0.105,30.854,10.744,76.914,10.744c46.063,0,76.617-10.639,76.925-10.744
			c0.658-0.242,1.4,0.108,1.642,0.781c0.236,0.666-0.114,1.404-0.783,1.638C213.421,105.192,182.482,115.979,135.945,115.979z"/>
	</g>
	<g>
		<path fill="#084364" d="M135.941,146.03c-34.947,0-58.184-8.095-58.414-8.176c-0.673-0.237-1.019-0.972-0.782-1.642
			c0.241-0.668,0.973-1.016,1.637-0.782c0.23,0.081,23.087,8.032,57.559,8.032c34.51,0,57.343-7.951,57.568-8.032
			c0.669-0.237,1.401,0.114,1.642,0.782c0.233,0.67-0.118,1.404-0.782,1.642C194.136,137.936,170.891,146.03,135.941,146.03z"/>
	</g>
	<g>
		<g>
			<path fill="#FFFFFF" d="M222.815,136.642c0,20.183-16.356,36.548-36.544,36.548c-20.184,0-36.541-16.365-36.541-36.548
				c0-20.182,16.356-36.542,36.541-36.542C206.459,100.1,222.815,116.46,222.815,136.642z"/>
			<path fill="#084364" d="M186.271,174.474c-20.854,0-37.824-16.972-37.824-37.832c0-20.859,16.97-37.83,37.824-37.83
				c20.857,0,37.829,16.971,37.829,37.83C224.1,157.502,207.128,174.474,186.271,174.474z M186.271,101.383
				c-19.437,0-35.253,15.816-35.253,35.259c0,19.44,15.816,35.255,35.253,35.255c19.441,0,35.257-15.814,35.257-35.255
				C221.528,117.199,205.712,101.383,186.271,101.383z"/>
		</g>
		<g>
			<path fill="#BDD337" d="M208.132,135.734c-0.708,0-1.288-0.576-1.288-1.285c0-11.342-9.227-20.575-20.573-20.575
				c-7.418,0-14.288,4.019-17.932,10.486c-0.354,0.618-1.148,0.837-1.751,0.486c-0.619-0.347-0.84-1.129-0.486-1.75
				c4.096-7.275,11.825-11.79,20.168-11.79c12.763,0,23.144,10.377,23.144,23.143C209.415,135.158,208.844,135.734,208.132,135.734z
				"/>
		</g>
		<g>
			<polygon fill="#BDD337" points="174.932,124.256 164.792,133.73 161.652,120.21 			"/>
			<path fill="#BDD337" d="M164.792,135.019c-0.128,0-0.252-0.017-0.373-0.055c-0.44-0.132-0.775-0.489-0.883-0.938l-3.136-13.521
				c-0.105-0.446,0.039-0.918,0.373-1.229c0.334-0.313,0.814-0.423,1.252-0.295l13.28,4.046c0.439,0.136,0.771,0.493,0.879,0.941
				c0.101,0.443-0.039,0.913-0.377,1.229l-10.137,9.476C165.425,134.897,165.11,135.019,164.792,135.019z M163.407,122.093
				l2.131,9.184l6.89-6.438L163.407,122.093z"/>
		</g>
		<g>
			<path fill="#BDD337" d="M186.271,161.982c-12.758,0-23.141-10.382-23.141-23.144c0-0.717,0.576-1.287,1.284-1.287
				c0.712,0,1.283,0.57,1.283,1.287c0,11.342,9.23,20.572,20.574,20.572c7.417,0,14.291-4.021,17.935-10.485
				c0.351-0.628,1.145-0.839,1.751-0.491c0.623,0.35,0.84,1.132,0.491,1.753C202.344,157.463,194.618,161.982,186.271,161.982z"/>
		</g>
		<g>
			<polygon fill="#BDD337" points="197.617,149.024 207.754,139.55 210.897,153.071 			"/>
			<path fill="#BDD337" d="M210.897,154.354c-0.125,0-0.253-0.015-0.377-0.049l-13.28-4.047c-0.436-0.131-0.771-0.488-0.876-0.94
				c-0.104-0.447,0.04-0.914,0.375-1.23l10.137-9.479c0.342-0.314,0.809-0.419,1.251-0.29c0.44,0.135,0.778,0.493,0.88,0.94
				l3.065,13.188c0.101,0.187,0.159,0.4,0.159,0.626c0,0.712-0.571,1.282-1.287,1.282
				C210.932,154.359,210.913,154.354,210.897,154.354z M200.118,148.449l9.021,2.747l-2.131-9.188L200.118,148.449z"/>
		</g>
	</g>
</g>
</svg>
