<svg xmlns="http://www.w3.org/2000/svg" width="11" height="11" viewBox="0 0 11 11">
  <defs>
    <style>
      .cls-1 {
        fill: #00aff0;
        fill-rule: evenodd;
      }
    </style>
  </defs>
  <path id="Icon" class="cls-1" d="M755.928,4258.89a5.362,5.362,0,0,0,.114-1.08,4.994,4.994,0,0,0-.4-1.96,5.058,5.058,0,0,0-1.074-1.61,4.981,4.981,0,0,0-1.612-1.07,4.87,4.87,0,0,0-1.959-.4,5.75,5.75,0,0,0-1.074.11,2.691,2.691,0,0,0-1.676-.57,2.759,2.759,0,0,0-2.751,2.75,2.7,2.7,0,0,0,.573,1.68,5.193,5.193,0,0,0-.114,1.07,4.958,4.958,0,0,0,.4,1.96,5.058,5.058,0,0,0,1.074,1.61,5.173,5.173,0,0,0,1.612,1.08,5.181,5.181,0,0,0,3.034.28,2.747,2.747,0,0,0,4.426-2.18A2.651,2.651,0,0,0,755.928,4258.89Zm-2.264,1.06a1.876,1.876,0,0,1-.633.67,3.233,3.233,0,0,1-.878.38,3.687,3.687,0,0,1-1,.14,4.38,4.38,0,0,1-2.084-.47,1.354,1.354,0,0,1-.874-1.13,0.792,0.792,0,0,1,.183-0.54,0.679,0.679,0,0,1,.541-0.21,0.669,0.669,0,0,1,.386.11,1.75,1.75,0,0,1,.33.28c0.1,0.1.209,0.21,0.326,0.32a1.333,1.333,0,0,0,.465.27,1.7,1.7,0,0,0,.656.12,1.4,1.4,0,0,0,.752-0.18,0.554,0.554,0,0,0,.286-0.47,0.479,0.479,0,0,0-.229-0.43,3.7,3.7,0,0,0-.8-0.25l-1.046-.26a5.876,5.876,0,0,1-.737-0.23,2.588,2.588,0,0,1-.573-0.35,1.316,1.316,0,0,1-.4-0.54,1.983,1.983,0,0,1-.136-0.76,1.743,1.743,0,0,1,.878-1.55,3.155,3.155,0,0,1,.856-0.33,3.709,3.709,0,0,1,.945-0.12,5.02,5.02,0,0,1,1.3.17,2.81,2.81,0,0,1,1.017.48,0.905,0.905,0,0,1,.4.71,0.826,0.826,0,0,1-.2.56,0.7,0.7,0,0,1-.541.23,0.682,0.682,0,0,1-.344-0.09,1.539,1.539,0,0,1-.286-0.21q-0.129-.12-0.273-0.24a1.3,1.3,0,0,0-.386-0.2,1.586,1.586,0,0,0-.552-0.09c-0.687,0-1.031.19-1.031,0.55a0.437,0.437,0,0,0,.054.22,0.653,0.653,0,0,0,.118.15,0.546,0.546,0,0,0,.215.11c0.1,0.04.183,0.07,0.25,0.09s0.172,0.04.315,0.07l0.745,0.17c0.234,0.06.443,0.11,0.627,0.17a3.709,3.709,0,0,1,.591.24,2.356,2.356,0,0,1,.523.35,1.569,1.569,0,0,1,.347.49,1.546,1.546,0,0,1,.14.66A1.87,1.87,0,0,1,753.664,4259.95Z" transform="translate(-745.5 -4252.31)"/>
</svg>
