<svg xmlns="http://www.w3.org/2000/svg" width="14.584" height="14.067" viewBox="0 0 8.75 8.44">
  <defs>
    <style>
      .cls-1 {
        fill: #fff;
        fill-rule: evenodd;
      }
    </style>
  </defs>
  <path id="Icon" class="cls-1" d="M625.42,2207.06H625.6v-0.64h1.107v0.64h0.179v-0.64h1.158v0.64h0.179v-0.64h1.233v0.64h0.178v-0.64h1.026v-0.18h-1.026v-1.16h1.026v-0.18h-1.026v-1.05h1.026v-0.18h-1.026v-0.71h-0.178v0.71h-1.233v-0.71h-0.179v0.71h-1.158v-0.71h-0.179v0.71H625.6v-0.71H625.42v0.71h-1.181v0.18h1.181v1.05h-1.181v0.18h1.181v1.16h-1.181v0.18h1.181v0.64Zm1.463-.82v-1.16h1.159v1.16h-1.159Zm2.571,0h-1.233v-1.16h1.233v1.16Zm0-2.39v1.05h-1.233v-1.05h1.233Zm-1.412,0v1.05h-1.158v-1.05h1.158Zm-2.444,0h1.107v1.05H625.6v-1.05Zm0,1.23h1.107v1.16H625.6v-1.16Zm6.279-4.71h-1.42v0.73a0.358,0.358,0,0,1-.356.36h-0.417a0.357,0.357,0,0,1-.356-0.36v-0.73h-0.475v0.73a0.359,0.359,0,0,1-.358.36h-0.416a0.358,0.358,0,0,1-.356-0.36v-0.73h-0.5v0.73a0.358,0.358,0,0,1-.356.36h-0.417a0.359,0.359,0,0,1-.357-0.36v-0.73h-0.519v0.73a0.358,0.358,0,0,1-.357.36H624.8a0.358,0.358,0,0,1-.357-0.36v-0.73h-1.325v7.85h8.771Zm-0.618,7.23h-7.518v-5.02h7.518v5.02Zm-6.463-6.4h0.416a0.081,0.081,0,0,0,.089-0.08v-1.25a0.089,0.089,0,0,0-.089-0.09H624.8a0.089,0.089,0,0,0-.089.09v1.25A0.081,0.081,0,0,0,624.8,2201.2Zm1.649,0h0.417a0.081,0.081,0,0,0,.089-0.08v-1.25a0.091,0.091,0,0,0-.09-0.09h-0.417a0.089,0.089,0,0,0-.088.09v1.25A0.081,0.081,0,0,0,626.445,2201.2Zm1.634,0H628.5a0.082,0.082,0,0,0,.09-0.08v-1.25a0.09,0.09,0,0,0-.09-0.09h-0.416a0.089,0.089,0,0,0-.089.09v1.25A0.081,0.081,0,0,0,628.079,2201.2Zm1.605,0H630.1a0.08,0.08,0,0,0,.088-0.08v-1.25a0.089,0.089,0,0,0-.088-0.09h-0.417a0.089,0.089,0,0,0-.089.09v1.25A0.081,0.081,0,0,0,629.684,2201.2Z" transform="translate(-623.125 -2199.78)"/>
</svg>
