<?xml version="1.0" encoding="UTF-8"?>
<svg width="14px" height="14px" viewBox="0 0 14 14" version="1.1" xmlns="http://www.w3.org/2000/svg" xmlns:xlink="http://www.w3.org/1999/xlink">
    <!-- Generator: Sketch 52.6 (67491) - http://www.bohemiancoding.com/sketch -->
    <title>icon-link</title>
    <desc>Created with Sketch.</desc>
    <g id="aฟ" stroke="none" stroke-width="1" fill="none" fill-rule="evenodd">
        <g id="Artboard" transform="translate(-166.000000, -130.000000)" fill="#ED2024">
            <path d="M171.968736,131.093778 L172.656234,130.40628 C172.802067,130.260447 172.97915,130.187531 173.187483,130.187531 C173.395816,130.187531 173.572898,130.260447 173.718732,130.40628 L179.781217,136.468766 C179.92705,136.614599 179.999967,136.791681 179.999967,137.000014 C179.999967,137.208347 179.92705,137.38543 179.781217,137.531263 L173.718732,143.593749 C173.572898,143.739582 173.395816,143.812498 173.187483,143.812498 C172.97915,143.812498 172.802067,143.739582 172.656234,143.593749 L171.968736,142.90625 C171.80207,142.760417 171.723945,142.583334 171.734361,142.375001 C171.744778,142.166668 171.822903,141.989586 171.968736,141.843753 L175.718727,138.250011 L166.749998,138.250011 C166.541665,138.250011 166.364583,138.177095 166.218749,138.031262 C166.072916,137.885429 166,137.708346 166,137.500013 L166,136.500015 C166,136.291683 166.072916,136.1146 166.218749,135.968767 C166.364583,135.822934 166.541665,135.750017 166.749998,135.750017 L175.718727,135.750017 L171.968736,132.156276 C171.822903,132.010443 171.744778,131.83336 171.734361,131.625027 C171.723945,131.416694 171.80207,131.239612 171.968736,131.093778 Z" id="icon-link"></path>
        </g>
    </g>
</svg>