<?xml version="1.0" encoding="utf-8"?>
<!-- Generator: Adobe Illustrator 23.0.0, SVG Export Plug-In . SVG Version: 6.00 Build 0)  -->
<svg version="1.1" id="Layer_1" xmlns="http://www.w3.org/2000/svg" xmlns:xlink="http://www.w3.org/1999/xlink" x="0px" y="0px"
	 viewBox="0 0 56 35.5" style="enable-background:new 0 0 56 35.5;" xml:space="preserve">
<style type="text/css">
	.st0{fill-rule:evenodd;clip-rule:evenodd;fill:#212121;}
</style>
<path id="Left_arrow" class="st0" d="M54,18.8H1c-0.6,0-1-0.4-1-1s0.4-1,1-1h53c0.6,0,1,0.4,1,1S54.5,18.8,54,18.8z M39.5,35.2
	l16.3-16.3c0.4-0.4,0.4-1,0-1.4c-0.4-0.4-1-0.4-1.4,0L38,33.8c-0.4,0.4-0.3,1,0.1,1.4C38.5,35.5,39.1,35.5,39.5,35.2z M39.5,0.3
	l16.3,16.3c0.4,0.4,0.4,1,0,1.4c-0.4,0.4-1,0.4-1.4,0L38,1.7c-0.4-0.4-0.4-1,0-1.4S39.1-0.1,39.5,0.3z"/>
</svg>
