<svg xmlns="http://www.w3.org/2000/svg" width="12.31" height="12.156" viewBox="0 0 12.31 12.156">
  <defs>
    <style>
      .cls-1 {
        fill: #fcf9f9;
        fill-rule: evenodd;
      }
    </style>
  </defs>
  <path id="Icon" class="cls-1" d="M1407.44,30.037a3.012,3.012,0,0,0,2.75-3.219c0-2.465-1.23-3.219-2.75-3.219s-2.76.754-2.76,3.219A3.019,3.019,0,0,0,1407.44,30.037Zm6.08,4.737-1.39-3.125a0.669,0.669,0,0,0-.31-0.334l-2.16-1.121a0.141,0.141,0,0,0-.15.012,3.41,3.41,0,0,1-4.15,0,0.141,0.141,0,0,0-.15-0.012l-2.15,1.121a0.736,0.736,0,0,0-.32.334l-1.39,3.125a0.7,0.7,0,0,0,.06.659,0.672,0.672,0,0,0,.58.315h10.9a0.7,0.7,0,0,0,.58-0.315A0.675,0.675,0,0,0,1413.52,34.774Z" transform="translate(-1401.28 -23.594)"/>
</svg>
