<?xml version="1.0" encoding="UTF-8"?>
<svg width="26px" height="18px" viewBox="0 0 26 18" version="1.1" xmlns="http://www.w3.org/2000/svg" xmlns:xlink="http://www.w3.org/1999/xlink">
    <!-- Generator: Sketch 58 (84663) - https://sketch.com -->
    <title>icon_run</title>
    <desc>Created with Sketch.</desc>
    <g id="Web-RUNEX-Page-2" stroke="none" stroke-width="1" fill="none" fill-rule="evenodd">
        <g id="Redesign" transform="translate(-1040.000000, -31.000000)" fill="#FA6400" fill-rule="nonzero">
            <g id="Header/Non-login">
                <g id="Header/Login">
                    <g id="Avatar-Profile" transform="translate(1040.000000, 27.000000)">
                        <g id="icon_run" transform="translate(0.000000, 4.000000)">
                            <path d="M7.39099574,2 L15.6090589,2 C15.8250047,2 16,1.77614858 16,1.5 C16,1.22385142 15.8250047,1 15.6090589,1 L7.39099574,1 C7.1750499,1 7,1.22385142 7,1.5 C7,1.77614858 7.1750499,2 7.39099574,2 Z" id="Path"></path>
                            <path d="M0.390995735,6 L8.60900426,6 C8.8249501,6 9,5.77613295 9,5.49996509 C9,5.22379722 8.8249501,5 8.60900426,5 L0.390995735,5 C0.175049899,5 0,5.22379722 0,5.49996509 C0,5.77613295 0.175049899,6 0.390995735,6 Z" id="Path"></path>
                            <path d="M2,9.49993018 C2,9.77607876 2.1750499,10 2.39099574,10 L10.6090043,10 C10.8249501,10 11,9.77607876 11,9.49993018 C11,9.22378159 10.8249501,9 10.6090043,9 L2.39099574,9 C2.1750499,9 2,9.22378159 2,9.49993018 Z" id="Path"></path>
                            <path d="M7.61694872,14 L0.383051278,14 C0.171493143,14 0,14.2237972 0,14.4999651 C0,14.776133 0.171493143,15 0.383051278,15 L7.61694872,15 C7.82850686,15 8,14.776133 8,14.4999651 C8,14.2237972 7.82850686,14 7.61694872,14 Z" id="Path"></path>
                            <path d="M20.0002045,4 C21.1046402,4 22,3.10450356 22,1.99997443 C22,0.895445307 21.104589,0 20.0002045,0 C18.8955132,0 18,0.89549644 18,1.99997443 C17.9999489,3.10450356 18.8954621,4 20.0002045,4 Z" id="Path"></path>
                            <path d="M23.9554998,3.48872537 C22.7389483,5.18917958 21.10991,5.38609476 19.3569361,4.34762799 C19.2376047,4.27703473 18.70817,3.98595918 18.5909512,3.91644698 C15.7709284,2.2458841 12.95421,2.9010068 11.065221,5.54074047 C10.2625104,6.66347592 12.1190529,7.72767194 12.9127717,6.61801732 C13.8887646,5.25415132 15.1298,4.85951016 16.4870791,5.29150196 C15.792108,6.4952629 15.1845093,7.69172667 14.3271435,9.3915863 C13.4695611,11.0914459 11.5761304,12.4489337 9.75680114,11.3872241 C8.44404782,10.6215629 7.26021354,12.5034732 8.56901262,13.266756 C11.0528166,14.7153231 13.9651411,13.8258265 15.4518809,11.9428352 C15.5034485,11.9703482 15.5579412,11.9951585 15.6177423,12.016023 C16.8322896,12.4382852 18.4243856,13.5624801 18.9095112,13.960905 C19.3944743,14.3593298 20.2277354,16.389021 20.722557,17.4088395 C21.3228431,18.6462755 23.2614496,17.7449953 22.6589427,16.5023162 C22.0980365,15.3452571 21.1565484,13.0359496 20.4221973,12.4516904 C19.833124,11.9831047 18.6894821,11.1110131 17.7195018,10.6162658 C18.375743,9.3478574 19.0590139,8.09312446 19.7783063,6.86006678 C22.0711152,7.5610805 24.2504428,6.73531239 25.802563,4.56573196 C26.6059236,3.44315867 24.7498145,2.37896265 23.9554998,3.48872537 Z" id="Path"></path>
                        </g>
                    </g>
                </g>
            </g>
        </g>
    </g>
</svg>