<?xml version="1.0" encoding="UTF-8"?>
<svg width="11px" height="15px" viewBox="0 0 11 15" version="1.1" xmlns="http://www.w3.org/2000/svg" xmlns:xlink="http://www.w3.org/1999/xlink">
    <!-- Generator: Sketch 58 (84663) - https://sketch.com -->
    <title>icon_map</title>
    <desc>Created with Sketch.</desc>
    <g id="Web-RUNEX-Page-2" stroke="none" stroke-width="1" fill="none" fill-rule="evenodd" opacity="0.400000006">
        <g id="Redesign" transform="translate(-589.000000, -1589.000000)" fill="#333333" fill-rule="nonzero">
            <g id="Grid" transform="translate(250.000000, 1306.000000)">
                <g id="Events-Copy-2" transform="translate(320.000000, 2.000000)">
                    <g id="Card">
                        <g id="Location" transform="translate(19.000000, 280.000000)">
                            <g id="icon_map" transform="translate(0.000000, 1.750029)">
                                <path d="M5.24998748,-4.79616347e-14 C2.42144017,-4.79616347e-14 0.117790766,2.23580415 0.00437613821,5.03368543 L0,5.24998748 C0,7.19459344 0.65600811,7.80226945 4.13631979,13.3826509 C4.64994848,14.2062192 5.85058725,14.2052312 6.36362847,13.3826509 L7.13181919,12.1577558 C9.88453515,7.79112063 10.4753108,7.07128017 10.499204,5.36285568 L10.499975,5.24998748 C10.499975,2.34891331 8.14804423,-4.79616347e-14 5.24998748,-4.79616347e-14 Z M5.24998748,12.6874698 L2.46188322,8.25606191 C1.48821534,6.67148757 1.31249687,6.1827718 1.31249687,5.24998748 C1.31249687,3.07536346 3.07536346,1.31249687 5.24998748,1.31249687 C7.42461151,1.31249687 9.1874781,3.07536346 9.1874781,5.24998748 L9.1831765,5.48866281 C9.131808,6.79120783 8.57707246,7.35274978 5.24998748,12.6874698 Z M3.0624927,5.24998748 C3.0624927,4.04187192 4.04187192,3.0624927 5.24998748,3.0624927 C6.45810304,3.0624927 7.43748227,4.04187192 7.43748227,5.24998748 C7.43748227,6.45810304 6.45810304,7.43748227 5.24998748,7.43748227 C4.04187192,7.43748227 3.0624927,6.45810304 3.0624927,5.24998748 Z" id="m"></path>
                            </g>
                        </g>
                    </g>
                </g>
            </g>
        </g>
    </g>
</svg>