<?xml version="1.0" encoding="UTF-8"?>
<svg width="9px" height="15px" viewBox="0 0 9 15" version="1.1" xmlns="http://www.w3.org/2000/svg" xmlns:xlink="http://www.w3.org/1999/xlink">
    <!-- Generator: Sketch 58 (84663) - https://sketch.com -->
    <title>icon-virtual-run</title>
    <desc>Created with Sketch.</desc>
    <g id="Web-RUNEX-Page-2" stroke="none" stroke-width="1" fill="none" fill-rule="evenodd" opacity="0.400000006">
        <g id="Redesign" transform="translate(-270.000000, -1586.000000)" fill="#333333" fill-rule="nonzero">
            <g id="Grid" transform="translate(250.000000, 1306.000000)">
                <g id="Events-Copy-3">
                    <g id="Card">
                        <g id="Location" transform="translate(20.000000, 279.000000)">
                            <g id="icon-virtual-run" transform="translate(0.000000, 1.750029)">
                                <path d="M5.24998748,11.3749729 C5.24998748,10.8909843 4.85897813,10.499975 4.37498957,10.499975 C3.89100101,10.499975 3.49999166,10.8909843 3.49999166,11.3749729 C3.49999166,11.8589614 3.89100101,12.2499708 4.37498957,12.2499708 C4.85897813,12.2499708 5.24998748,11.8589614 5.24998748,11.3749729 Z M8.74997914,1.31249687 C8.74997914,0.587889223 8.16208992,0 7.43748227,0 L1.31249687,0 C0.587889223,0 0,0.587889223 0,1.31249687 L0,12.6874698 C0,13.4120774 0.587889223,13.9999666 1.31249687,13.9999666 L7.43748227,13.9999666 C8.16208992,13.9999666 8.74997914,13.4120774 8.74997914,12.6874698 L8.74997914,1.31249687 Z M7.43748227,12.5234076 C7.43748227,12.6136365 7.36364898,12.6874698 7.27342016,12.6874698 L1.47655898,12.6874698 C1.38633016,12.6874698 1.31249687,12.6136365 1.31249687,12.5234076 L1.31249687,1.47655898 C1.31249687,1.38633016 1.38633016,1.31249687 1.47655898,1.31249687 L7.27342016,1.31249687 C7.36364898,1.31249687 7.43748227,1.38633016 7.43748227,1.47655898 L7.43748227,12.5234076 Z"></path>
                            </g>
                        </g>
                    </g>
                </g>
            </g>
        </g>
    </g>
</svg>