<?xml version="1.0" encoding="UTF-8"?>
<svg width="26px" height="18px" viewBox="0 0 26 18" version="1.1" xmlns="http://www.w3.org/2000/svg" xmlns:xlink="http://www.w3.org/1999/xlink">
    <!-- Generator: Sketch 58 (84663) - https://sketch.com -->
    <title>icon_ticket</title>
    <desc>Created with Sketch.</desc>
    <g id="Web-RUNEX-Page-2" stroke="none" stroke-width="1" fill="none" fill-rule="evenodd">
        <g id="Redesign" transform="translate(-1123.000000, -30.000000)" fill="#FA6400" fill-rule="nonzero">
            <g id="Header/Non-login">
                <g id="Header/Login">
                    <g id="Avatar-Profile" transform="translate(1123.000000, 27.000000)">
                        <g id="icon_ticket" transform="translate(0.000000, 3.000000)">
                            <path d="M25.6048632,9.02735562 C25.8237082,9.02735562 25.9768997,8.85227964 25.9987842,8.65531915 L25.9987842,3.88449848 C25.9987842,3.6656535 25.8237082,3.51246201 25.6048632,3.49057751 L24.5544073,3.49057751 L24.0948328,0.361094225 C24.0729483,0.14224924 23.8759878,0.0109422492 23.6571429,0.0328267477 L17.7264438,0.908206687 L17.7045593,0.908206687 L0.372036474,3.51246201 C0.372036474,3.51246201 0.043768997,3.5781155 0.043768997,3.88449848 L0.043768997,8.63343465 C0.043768997,8.85227964 0.218844985,9.00547112 0.415805471,9.02735562 C1.3787234,9.02735562 2.14468085,9.79331307 2.14468085,10.756231 C2.14468085,11.7191489 1.3787234,12.4851064 0.415805471,12.4851064 C0.196960486,12.4851064 0.043768997,12.6601824 0.0218844985,12.8571429 L0.0218844985,17.606079 C0.0218844985,17.824924 0.196960486,17.9781155 0.415805471,18 L25.5829787,18 C25.8018237,18 25.9550152,17.824924 25.9768997,17.606079 L25.9768997,12.8790274 C25.9768997,12.6601824 25.8018237,12.5069909 25.6048632,12.4851064 C24.6419453,12.4851064 23.8759878,11.7191489 23.8759878,10.756231 C23.8759878,9.79331307 24.6419453,9.02735562 25.6048632,9.02735562 Z M17.4419453,1.73981763 L17.5951368,2.76838906 C17.6170213,2.96534954 17.7920973,3.09665653 17.9671733,3.09665653 L18.0328267,3.09665653 C18.2516717,3.07477204 18.3829787,2.87781155 18.3610942,2.65896657 L18.2079027,1.63039514 L23.3945289,0.86443769 L23.7884498,3.51246201 L5.60243161,3.51246201 L17.4419453,1.73981763 Z M25.2328267,13.2291793 L25.2328267,17.2559271 L19.5647416,17.2559271 L19.5647416,16.2054711 C19.5647416,15.9866261 19.3896657,15.8115502 19.1708207,15.8115502 C18.9519757,15.8115502 18.7768997,15.9866261 18.7768997,16.2054711 L18.7768997,17.2559271 L0.831610942,17.2559271 L0.831610942,13.2291793 C2.18844985,13.0103343 3.12948328,11.7410334 2.9106383,10.3841945 C2.73556231,9.3118541 1.90395137,8.45835866 0.831610942,8.30516717 L0.831610942,4.27841945 L18.7987842,4.27841945 L18.7987842,5.30699088 C18.7987842,5.52583587 18.9738602,5.70091185 19.1927052,5.70091185 C19.4115502,5.70091185 19.5866261,5.52583587 19.5866261,5.30699088 L19.5866261,4.25653495 L25.2547112,4.25653495 L25.2547112,8.28328267 C23.8978723,8.50212766 22.9568389,9.77142857 23.1756839,11.1282675 C23.3069909,12.2224924 24.1386018,13.0541033 25.2328267,13.2291793 L25.2328267,13.2291793 Z" id="Shape"></path>
                            <path d="M19.1708207,11.3471125 C18.9519757,11.3471125 18.7987842,11.5221884 18.7768997,11.7191489 L18.7768997,14.2577508 C18.7768997,14.4765957 18.9519757,14.6516717 19.1708207,14.6516717 C19.3896657,14.6516717 19.5647416,14.4765957 19.5647416,14.2577508 L19.5647416,11.7410334 C19.5647416,11.5221884 19.3896657,11.3471125 19.1708207,11.3471125 Z" id="Path"></path>
                            <path d="M19.1708207,6.88267477 C18.9519757,6.88267477 18.7987842,7.05775076 18.7768997,7.25471125 L18.7768997,9.79331307 C18.7768997,10.0121581 18.9519757,10.187234 19.1708207,10.187234 C19.3896657,10.187234 19.5647416,10.0121581 19.5647416,9.79331307 L19.5647416,7.25471125 C19.5647416,7.05775076 19.3896657,6.88267477 19.1708207,6.88267477 L19.1708207,6.88267477 Z" id="Path"></path>
                            <path d="M4.98966565,7.49544073 L9.73860182,7.49544073 C9.95744681,7.49544073 10.1325228,7.32036474 10.1325228,7.10151976 C10.1325228,6.88267477 9.95744681,6.72948328 9.73860182,6.72948328 L4.98966565,6.72948328 C4.77082067,6.72948328 4.59574468,6.90455927 4.59574468,7.12340426 C4.59574468,7.34224924 4.77082067,7.49544073 4.98966565,7.49544073 Z" id="Path"></path>
                            <path d="M14.487538,9.15866261 L4.98966565,9.15866261 C4.77082067,9.15866261 4.59574468,9.3337386 4.59574468,9.55258359 C4.59574468,9.77142857 4.77082067,9.94650456 4.98966565,9.94650456 L14.487538,9.94650456 C14.706383,9.94650456 14.881459,9.77142857 14.881459,9.55258359 C14.881459,9.3337386 14.706383,9.15866261 14.487538,9.15866261 Z" id="Path"></path>
                            <path d="M14.487538,11.5878419 L4.98966565,11.5878419 C4.77082067,11.5878419 4.59574468,11.7629179 4.59574468,11.9817629 C4.59574468,12.2006079 4.77082067,12.3756839 4.98966565,12.3756839 L14.487538,12.3756839 C14.706383,12.3756839 14.881459,12.2006079 14.881459,11.9817629 C14.881459,11.7629179 14.706383,11.5878419 14.487538,11.5878419 Z" id="Path"></path>
                            <path d="M14.487538,14.0170213 L4.98966565,14.0170213 C4.77082067,14.0170213 4.59574468,14.1920973 4.59574468,14.4109422 C4.59574468,14.6297872 4.77082067,14.8048632 4.98966565,14.8048632 L14.487538,14.8048632 C14.706383,14.8048632 14.881459,14.6297872 14.881459,14.4109422 C14.881459,14.1920973 14.706383,14.0170213 14.487538,14.0170213 Z" id="Path"></path>
                        </g>
                    </g>
                </g>
            </g>
        </g>
    </g>
</svg>