<svg xmlns="http://www.w3.org/2000/svg" width="11" height="8.69" viewBox="0 0 11 8.69">
  <defs>
    <style>
      .cls-1 {
        fill: #facb0c;
        fill-rule: evenodd;
      }
    </style>
  </defs>
  <path id="Icon" class="cls-1" d="M755.518,4231.15a0.942,0.942,0,0,0,.643-0.24l-3.116-3.13q-0.112.075-.216,0.15c-0.233.18-.422,0.31-0.568,0.41a4.032,4.032,0,0,1-.58.29,1.769,1.769,0,0,1-.675.15h-0.012a1.778,1.778,0,0,1-.676-0.15,4.141,4.141,0,0,1-.58-0.29c-0.145-.1-0.334-0.23-0.567-0.41-0.065-.04-0.138-0.1-0.216-0.15l-3.117,3.13a0.944,0.944,0,0,0,.644.24h9.036Zm-9.4-5.34a3.48,3.48,0,0,1-.62-0.54v4.76l2.747-2.76C747.7,4226.89,746.989,4226.4,746.12,4225.81Zm9.766,0c-0.836.57-1.547,1.05-2.132,1.46l2.746,2.76v-4.76A3.3,3.3,0,0,1,755.886,4225.81Zm-0.368-3.34h-9.036a0.885,0.885,0,0,0-.727.32,1.256,1.256,0,0,0-.255.8,1.483,1.483,0,0,0,.338.85,3.025,3.025,0,0,0,.718.71c0.139,0.1.558,0.39,1.258,0.88q0.567,0.39.989,0.69c0.241,0.16.448,0.31,0.619,0.43,0.02,0.01.051,0.04,0.092,0.07s0.1,0.07.169,0.12c0.133,0.1.244,0.17,0.332,0.23s0.194,0.13.319,0.2a1.732,1.732,0,0,0,.353.17,0.882,0.882,0,0,0,.307.05h0.012a0.878,0.878,0,0,0,.307-0.05,1.708,1.708,0,0,0,.353-0.17c0.125-.07.231-0.14,0.319-0.2s0.2-.13.332-0.23c0.069-.05.125-0.09,0.169-0.12s0.072-.06.092-0.07c0.133-.09.341-0.24,0.621-0.43,0.509-.36,1.258-0.88,2.251-1.57a2.864,2.864,0,0,0,.749-0.76,1.649,1.649,0,0,0,.3-0.93A0.994,0.994,0,0,0,755.518,4222.47Z" transform="translate(-745.5 -4222.47)"/>
</svg>
