<?xml version="1.0" encoding="UTF-8"?>
<svg width="79px" height="63px" viewBox="0 0 79 63" version="1.1" xmlns="http://www.w3.org/2000/svg" xmlns:xlink="http://www.w3.org/1999/xlink">
    <!-- Generator: Sketch 58 (84663) - https://sketch.com -->
    <title>BiT_2021_logo</title>
    <desc>Created with Sketch.</desc>
    <g id="Page-1" stroke="none" stroke-width="1" fill="none" fill-rule="evenodd">
        <g id="BiT_2021_logo" fill="#FFFFFF" fill-rule="nonzero">
            <path d="M18.1066,9.8896 L18.302,9.8896 L22.1469,16.4784 L25.8572,16.4784 L21.881,9.6752 C23.0052,9.3548 23.9739,8.6361 24.6057,7.6538 C25.2376,6.6715 25.4893,5.4928 25.3137,4.3384 C25.1381,3.1841 24.5472,2.1333 23.6517,1.3827 C22.7562,0.6321 21.6175,0.2333 20.4488,0.2608 L14.9025,0.2608 L14.9025,16.3216 L18.1066,16.3216 L18.1066,9.8896 Z M18.1066,3.4608 L20.436,3.4608 C20.8647,3.4608 21.2758,3.6309 21.579,3.9336 C21.8821,4.2364 22.0524,4.647 22.0524,5.0752 C22.0524,5.5034 21.8821,5.914 21.579,6.2168 C21.2758,6.5195 20.8647,6.6896 20.436,6.6896 L18.1066,6.6896 L18.1066,3.4608 Z" id="Shape"></path>
            <polygon id="Path" points="56.8085 16.3216 66.4431 16.3216 66.4431 13.1216 60.0125 13.1216 60.0125 9.8896 65.0942 9.8896 65.0942 6.6896 60.0125 6.6896 60.0125 3.4608 66.4431 3.4608 66.4431 0.2608 56.8085 0.2608"></polygon>
            <polygon id="Path" points="73.0948 13.1216 73.0948 0.2608 69.8907 0.2608 69.8907 16.3216 78.3815 16.3216 78.3815 13.1216"></polygon>
            <polygon id="Path" points="11.9258 0.2608 0.9070435 0.2608 0.9070435 3.4608 4.81601 3.4608 4.81601 16.3216 8.02007 16.3216 8.02007 3.4608 11.9258 3.4608"></polygon>
            <path d="M31.3777,14.2 L36.5651,14.2 L37.3373,16.4912 L40.7176,16.4912 L35.2514,0.2736 L32.6241,0.2736 L27.2413,16.4784 L30.6184,16.4784 L31.3777,14.2 Z M33.941,6.4496 L35.4789,11 L32.4383,11 L33.941,6.4496 Z" id="Shape"></path>
            <polygon id="Path" points="48.7791 16.376 54.1075 0.184 50.7368 0.184 47.4494 10.168 44.1076 0.184 40.7305 0.184 46.1486 16.376"></polygon>
            <path d="M36.6549,58.7888 C36.5299,58.7152 36.4114,58.6288 36.2416,58.5168 C36.3473,58.5168 36.389,58.488 36.4178,58.5008 C36.594,58.5776 36.767,58.664 36.9465,58.7408 C37.0115,58.7573 37.0781,58.7669 37.1451,58.7696 C37.1221,58.6953 37.0875,58.6251 37.0426,58.5616 C36.9615,58.483 36.876,58.4093 36.7863,58.3408 C36.5452,58.0911 36.2789,57.867 35.9917,57.672 C35.6349,57.5031 35.2625,57.3692 34.8798,57.272 C34.6487,57.1991 34.4133,57.1403 34.175,57.096 C33.7517,57.004 33.3239,56.9346 32.8933,56.888 C32.3582,56.8432 31.82,56.8464 31.2913,56.8432 C30.6152,56.8432 29.9392,56.8144 29.2695,56.8432 C28.655,56.8745 28.043,56.9429 27.4368,57.048 C26.9882,57.1216 26.5557,57.2784 26.1135,57.3904 C25.9533,57.432 25.7931,57.4544 25.6233,57.4832 C25.54,57.464 25.4695,57.512 25.3958,57.5184 C25.2356,57.5344 25.0754,57.5184 24.9088,57.5344 C24.8063,57.5344 24.7069,57.5536 24.5724,57.5664 L24.7005,57.3008 L24.5307,57.3296 C24.5788,57.2656 24.5948,57.224 24.6268,57.2016 C24.7454,57.1152 24.8703,57.0352 24.9921,56.9552 L25.2772,56.7664 C25.5144,56.6387 25.7414,56.4932 25.9565,56.3312 C26.2353,56.088 26.4788,55.8 26.7415,55.5312 C27.0042,55.2624 27.1965,55.0544 27.4368,54.8272 C27.6771,54.6 27.9366,54.4176 28.1609,54.1872 C28.4589,53.8864 28.7216,53.5472 29.01,53.2432 C29.3304,52.8848 29.6957,52.5488 30.0225,52.184 C30.3493,51.8192 30.6056,51.4896 30.878,51.128 C31.5096,50.3346 32.0723,49.4889 32.5601,48.6 C32.6554,48.4735 32.737,48.3373 32.8036,48.1936 C32.9702,47.7176 33.0515,47.2161 33.0439,46.712 C33.0482,46.5708 33.0665,46.4304 33.0984,46.2928 C33.123,46.1994 33.123,46.1013 33.0984,46.008 C33.0415,45.8843 32.959,45.7742 32.8562,45.6848 C32.7535,45.5954 32.6329,45.5289 32.5024,45.4896 C32.4253,45.4608 32.3504,45.4266 32.2781,45.3872 L32.5152,45.2368 C32.3705,45.0776 32.2057,44.9377 32.025,44.8208 C31.5736,44.5588 31.0708,44.3973 30.5512,44.3472 C30.0787,44.312 29.6042,44.312 29.1317,44.3472 C28.5215,44.3989 27.9194,44.5213 27.3375,44.712 C26.5324,44.9923 25.7549,45.3457 25.0145,45.768 C24.4378,46.088 23.8611,46.4336 23.3003,46.7952 C22.8678,47.0736 22.4577,47.3872 22.054,47.7072 C21.6022,48.0624 21.1696,48.4336 20.7371,48.808 C20.6539,48.8873 20.5884,48.9833 20.5448,49.0896 C20.4679,49.2624 20.4199,49.4448 20.3494,49.6208 C20.302,49.7243 20.2463,49.8238 20.1828,49.9184 L20.061,49.896 C20.1764,50.216 20.2693,50.4944 20.3814,50.7728 C20.484,51.0032 20.7018,51.0032 20.9101,50.9712 C21.1184,50.9392 21.0991,50.7664 21.1568,50.6288 C21.1974,50.5043 21.2717,50.3936 21.3715,50.3088 C21.5827,50.1443 21.817,50.0117 22.0668,49.9152 C22.3572,49.7726 22.6215,49.5822 22.8486,49.352 C23.3937,48.8842 23.9877,48.4765 24.6204,48.136 C25.3894,47.704 26.1103,47.176 26.9786,46.952 C27.4336,46.8272 27.8725,46.632 28.3211,46.4976 C29.159,46.2523 30.0311,46.1442 30.9036,46.1776 C31.1855,46.1776 31.2721,46.3056 31.1663,46.5744 C30.9856,47.1408 30.7268,47.6793 30.3974,48.1744 C29.936,48.7856 29.5963,49.4864 29.0356,50.0272 C29.02,50.0439 29.006,50.0621 28.994,50.0816 C28.5742,50.5968 28.1737,51.128 27.7348,51.6272 C27.2958,52.1264 26.8376,52.52 26.4275,53 C25.8277,53.6507 25.1855,54.2611 24.5051,54.8272 C24.159,55.1472 23.7874,55.4288 23.4381,55.736 C23.0889,56.0432 22.7781,56.3536 22.4384,56.648 C21.5766,57.3968 20.7051,58.1392 19.8367,58.888 C19.7278,58.9776 19.6093,59.0576 19.5163,59.1536 C19.4234,59.2496 19.3209,59.3744 19.212,59.4736 C19.103,59.5728 18.962,59.6656 18.8371,59.7648 C18.5597,60.0113 18.2688,60.242 17.9656,60.456 C17.7322,60.575 17.541,60.7627 17.4177,60.9936 C17.376,61.0896 17.3632,61.1952 17.3248,61.2912 C17.2722,61.3781 17.2444,61.4777 17.2444,61.5792 C17.2444,61.6807 17.2722,61.7803 17.3248,61.8672 C17.422,62.0525 17.5044,62.2451 17.5715,62.4432 C17.5715,62.4432 17.6163,62.4432 17.6323,62.4656 C17.8315,62.5813 18.0231,62.7096 18.2059,62.8496 C18.3693,62.9904 18.4718,62.9392 18.6224,62.8336 C18.8075,62.7127 19.0013,62.6057 19.2023,62.5136 C19.2793,62.4858 19.3543,62.4526 19.4266,62.4144 C19.8624,62.0944 20.2885,61.7744 20.7275,61.48 C20.8888,61.3752 21.058,61.2832 21.2337,61.2048 C21.4099,61.1216 21.6054,61.0736 21.772,60.9776 C22.387,60.5777 23.0434,60.2451 23.7297,59.9856 C24.0084,59.8928 24.2776,59.784 24.5563,59.6912 C25.1608,59.4779 25.7685,59.2763 26.3794,59.0864 C26.4662,59.0593 26.5552,59.04 26.6454,59.0288 C27.3343,58.9168 28.0199,58.8016 28.712,58.7088 C29.2318,58.6226 29.7559,58.5649 30.282,58.536 C30.9837,58.536 31.6918,58.5776 32.3935,58.5808 C33.356,58.5808 34.3134,58.7209 35.2355,58.9968 C35.5846,59.0865 35.9206,59.221 36.2352,59.3968 C36.4197,59.5434 36.6417,59.6354 36.876,59.6624 C37.1291,59.6624 37.1163,59.4384 37.2701,59.384 C37.2355,59.2569 37.1791,59.1367 37.1035,59.0288 C36.9635,58.9321 36.8131,58.8515 36.6549,58.7888 Z M32.1019,57.3488 C32.1628,57.3072 32.2141,57.2464 32.2781,57.2112 C32.3388,57.1849 32.4022,57.1656 32.4672,57.1536 L32.4287,57.3584 C32.7908,57.288 33.1561,57.4192 33.5405,57.4192 C33.4936,57.4978 33.4192,57.5563 33.3317,57.5835 C33.2441,57.6107 33.1496,57.6046 33.0663,57.5664 C32.8488,57.531 32.627,57.531 32.4095,57.5664 C32.2589,57.5664 32.1083,57.5472 31.9577,57.5376 L31.9577,57.4512 C32.0077,57.4198 32.0558,57.3856 32.1019,57.3488 Z M30.7658,57.128 L31.6405,57.128 C31.4739,57.336 31.7591,57.3584 31.8296,57.5504 C31.4195,57.4576 31.0253,57.6656 30.6633,57.3936 L30.7658,57.128 Z M29.9135,50.936 L29.5162,51.4608 L29.4618,51.4224 C29.5643,51.2176 29.6476,51.0064 29.9135,50.936 Z M29.0004,51.896 C29.0004,51.896 29.0388,51.912 29.1253,51.944 C28.3948,52.5488 27.9655,53.3904 27.2478,53.9664 L27.1837,53.944 C27.1837,53.8864 27.1837,53.8096 27.2093,53.7744 C27.3279,53.64 27.4688,53.5248 27.5906,53.3936 C27.7123,53.2624 27.7732,53.16 27.8693,53.0512 C27.9655,52.9424 28.0648,52.856 28.1545,52.7504 C28.2442,52.6448 28.3019,52.552 28.3724,52.4528 C28.3724,52.4336 28.3724,52.3984 28.3916,52.3888 L29.0004,51.896 Z M24.6108,55.432 C24.7197,55.2804 24.8385,55.136 24.9665,55 C25.3606,54.6064 25.7803,54.232 26.168,53.8288 C26.5557,53.4256 26.985,52.9424 27.3887,52.4944 L28.5358,51.2144 C28.6479,51.0896 28.7697,50.9744 28.8882,50.856 L28.9555,50.8976 C28.9366,50.9848 28.9053,51.0688 28.8626,51.1472 C28.5422,51.5824 28.2378,52.0112 27.9174,52.4272 C27.8469,52.5232 27.7412,52.5968 27.6707,52.6896 C27.6231,52.7681 27.5824,52.8505 27.5489,52.936 C27.5329,52.968 27.5169,53.0192 27.4913,53.0256 C27.1516,53.1216 27.0107,53.448 26.7703,53.6656 C26.3378,54.0432 25.9565,54.4784 25.5592,54.8944 C25.3752,55.1524 25.16,55.3868 24.9184,55.592 C24.7101,55.72 24.598,55.928 24.4122,56.0336 C24.1622,56.1776 24.0469,56.504 23.7265,56.5392 C23.8354,56.4144 23.9476,56.2928 24.0469,56.1648 L24.6108,55.432 Z M23.7009,56.5488 L23.2299,57.0032 L23.169,56.936 C23.2981,56.752 23.4855,56.6168 23.7009,56.552 L23.7009,56.5488 Z M22.3359,58.216 L23.2523,57.5024 C23.2994,57.4588 23.3394,57.408 23.3708,57.352 C23.3901,57.3264 23.3869,57.2816 23.4093,57.2624 C23.6848,57.0352 23.9636,56.8112 24.2423,56.5872 C24.4506,56.4208 24.6653,56.2672 24.8671,56.0912 C24.9194,56.0286 24.9577,55.9555 24.9793,55.8768 C25.0081,55.816 25.0081,55.7104 25.0466,55.6944 C25.1325,55.6799 25.2202,55.6799 25.3061,55.6944 L25.3477,55.752 C25.4031,55.6058 25.4684,55.4636 25.5432,55.3264 C25.6206,55.2023 25.7206,55.0938 25.838,55.0064 C26.0366,54.8656 26.2673,54.7728 26.4596,54.6256 C26.6016,54.4986 26.7343,54.3618 26.8569,54.216 C26.9338,54.1424 27.0203,54.0752 27.1036,54.008 L27.1709,54.0656 C27.0667,54.2166 26.9544,54.3619 26.8344,54.5008 C26.671,54.6704 26.4724,54.8208 26.309,54.9808 C26.1456,55.1408 25.9597,55.4128 25.7675,55.6208 C25.6425,55.7488 25.4278,55.7936 25.4118,56.024 C25.4118,56.0464 25.3606,56.0752 25.3253,56.0912 C24.881,56.3403 24.4788,56.6578 24.1334,57.032 C23.9251,57.2144 23.6944,57.3712 23.4766,57.5408 L22.5698,58.2448 C22.4929,58.3024 22.4064,58.3504 22.3263,58.4048 L22.2879,58.36 C22.3039,58.296 22.3071,58.2416 22.3359,58.2192 L22.3359,58.216 Z M21.112,58.7856 L21.0671,58.7312 L21.5125,58.312 L21.5733,58.3792 L21.112,58.7856 Z M32.15,57.9056 C31.6982,57.8768 31.24,57.928 30.785,57.9376 C30.6569,57.9376 30.5287,57.9376 30.4006,57.9376 C30.1859,57.9376 29.9616,57.832 29.7758,58.0528 C29.7213,58.1168 29.5771,58.1168 29.4746,58.1264 C29.0997,58.1648 28.7216,58.1872 28.3435,58.2288 C28.1591,58.258 27.9762,58.2964 27.7957,58.344 C27.2702,58.472 26.7511,58.6128 26.2225,58.7216 C25.902,58.7888 25.5816,58.8112 25.2612,58.856 L25.3574,58.9744 L24.8928,58.9744 L24.8928,59.0352 L25.0658,59.0128 C25.0658,59.0384 25.0658,59.0576 25.0466,59.0608 C24.8287,59.1472 24.6076,59.2336 24.3865,59.3104 C24.3622,59.3208 24.3361,59.3261 24.3096,59.3261 C24.2832,59.3261 24.257,59.3208 24.2327,59.3104 C24.1078,59.2368 24.0405,59.2496 23.97,59.3936 C23.8995,59.5376 23.7906,59.4608 23.6944,59.3936 C23.6373,59.3607 23.5758,59.3359 23.5118,59.32 L23.4798,59.3808 L23.6079,59.592 C23.2395,59.592 22.8293,59.416 22.6467,59.912 C22.4737,59.6944 22.3103,59.816 22.1405,59.912 C21.9707,60.008 21.7944,60.1104 21.6246,60.2096 L21.5733,60.1456 C21.6418,60.066 21.7146,59.9902 21.7912,59.9184 C22.3231,59.4768 22.839,59.0096 23.3933,58.6064 C23.7198,58.4122 24.0629,58.2473 24.4186,58.1136 C24.5008,58.0809 24.5727,58.0268 24.6268,57.9568 C24.739,57.7904 24.8415,57.7136 25.0498,57.8352 C25.1779,57.8765 25.3158,57.8765 25.4439,57.8352 C25.6137,57.8032 25.7643,57.7232 25.9405,57.6848 C26.3955,57.576 26.8472,57.4704 27.3054,57.384 C27.7636,57.2976 28.2218,57.2112 28.6832,57.1696 C29.2855,57.1152 29.8943,57.1088 30.4999,57.0832 C30.4999,57.0832 30.5223,57.0992 30.5832,57.1472 L30.3333,57.3136 L30.6056,57.3744 C30.58,57.4192 30.5704,57.4512 30.5576,57.4544 C30.2048,57.5762 29.8278,57.6113 29.4586,57.5568 C29.3631,57.5554 29.269,57.5797 29.1862,57.6272 C29.0581,57.6784 28.9299,57.7424 28.8049,57.8 L28.8049,57.8608 C29.1253,57.832 29.4457,57.8 29.7662,57.7776 C30.1699,57.7488 30.5704,57.7104 30.9741,57.7104 C31.522,57.7104 32.0667,57.7104 32.6114,57.7616 C33.076,57.7968 33.5341,57.8832 33.9923,57.9536 C34.0147,57.9536 34.0308,58.0016 34.05,58.0336 C33.4092,58.1616 32.7844,57.9536 32.15,57.9088 L32.15,57.9056 Z M34.0724,58.008 C34.1354,57.9689 34.2081,57.9481 34.2823,57.9481 C34.3565,57.9481 34.4292,57.9689 34.4922,58.008 C34.6488,58.0714 34.8093,58.1249 34.9728,58.168 C34.8219,58.2282 34.6573,58.2454 34.4972,58.2178 C34.3371,58.1901 34.1878,58.1186 34.066,58.0112 L34.0724,58.008 Z" id="Shape"></path>
            <path d="M49.5832,55.7232 L48.622,55.7232 C48.6541,55.6528 48.6989,55.6048 48.747,55.6016 C49.045,55.5856 49.3461,55.6016 49.6441,55.5664 C49.878,55.5472 50.1279,55.5312 50.2593,55.2464 L49.6473,55.2464 C49.2569,55.2192 48.8651,55.2192 48.4746,55.2464 C48.0261,55.304 47.6159,55.1408 47.193,55.1216 C47.193,55.1216 47.177,55.0992 47.1546,55.064 C47.1983,55.0437 47.2447,55.0297 47.2923,55.0224 C47.7858,54.9968 48.2824,54.9776 48.7758,54.9552 C48.936,54.9552 48.9777,54.888 48.9072,54.7376 L48.7181,54.9008 C48.4842,54.6096 48.135,54.8336 47.8627,54.6928 C47.8242,54.6736 47.7537,54.7216 47.696,54.7376 C47.6355,54.7655 47.5703,54.7818 47.5038,54.7856 C47.2571,54.7696 47.0072,54.7376 46.7573,54.7184 L44.854,54.5744 L44.2677,54.5232 L44.2677,54.456 L45.3603,53.6752 C45.6134,53.4928 45.8793,53.3232 46.1261,53.1312 C46.5073,52.8304 46.8822,52.5136 47.2571,52.2032 C47.5615,51.9504 47.8979,51.7168 48.1606,51.4384 C48.6092,50.9872 49.0321,50.5136 49.4423,50.0368 C49.6089,49.848 49.8908,49.7392 49.9165,49.432 C49.9165,49.4096 49.9517,49.3808 49.9773,49.368 C50.1824,49.2784 50.2048,49.112 50.192,48.9136 C50.19,48.8224 50.2074,48.7319 50.2433,48.648 C50.3074,48.4656 50.4515,48.2768 50.4291,48.104 C50.4154,47.9889 50.4266,47.8722 50.462,47.7617 C50.4974,47.6513 50.5561,47.5498 50.6342,47.464 C50.5316,47.3424 50.4355,47.2272 50.3426,47.1088 C50.2497,46.9904 50.1023,46.8784 50.0703,46.744 C50.0595,46.6703 50.0341,46.5996 49.9955,46.5358 C49.957,46.4721 49.9062,46.4167 49.846,46.3728 C49.6954,46.2736 49.5256,46.1904 49.3782,46.0976 C48.8512,45.747 48.2215,45.5836 47.5903,45.6336 C47.2891,45.6624 46.9847,45.6752 46.6868,45.7232 C46.3447,45.7785 46.0057,45.8512 45.6711,45.9408 C45.1603,46.0567 44.6742,46.2626 44.2357,46.5488 C44.037,46.6896 43.7711,46.7664 43.6846,47.0448 C43.6598,47.1549 43.6589,47.269 43.6821,47.3794 C43.7054,47.4898 43.7521,47.594 43.8191,47.6848 C43.9333,47.7447 44.0407,47.8165 44.1395,47.8992 C44.1936,47.9667 44.2683,48.0145 44.3523,48.0353 C44.4363,48.0561 44.5248,48.0488 44.6041,48.0144 C44.7669,47.9535 44.9398,47.9241 45.1136,47.928 C45.3352,47.9345 45.5551,47.8873 45.7544,47.7904 C46.1997,47.6252 46.6544,47.4863 47.1161,47.3744 C47.434,47.3255 47.7564,47.3115 48.0773,47.3328 C48.2919,47.3445 48.5058,47.3669 48.7181,47.4 C48.5498,47.8569 48.2904,48.275 47.9556,48.6288 C47.7313,48.8592 47.5198,49.1056 47.2859,49.3328 C46.7893,49.8192 46.2959,50.2928 45.7768,50.7696 C45.4756,51.0416 45.136,51.2624 44.8156,51.5056 C44.2997,51.8928 43.7775,52.2768 43.2648,52.6672 C42.6817,53.112 42.1114,53.5792 41.5154,54.0016 C41.1966,54.2135 40.9681,54.5363 40.8746,54.9072 C40.8265,55.1088 41.006,55.7456 41.195,55.8192 C41.2309,55.8268 41.2645,55.8426 41.2932,55.8654 C41.3219,55.8882 41.3449,55.9174 41.3605,55.9506 C41.376,55.9837 41.3836,56.0201 41.3827,56.0567 C41.3818,56.0933 41.3724,56.1292 41.3552,56.1616 C41.4641,56.2032 41.5474,56.2416 41.6307,56.2672 C41.7845,56.312 41.9512,56.4144 42.0857,56.3792 C42.3056,56.3344 42.5323,56.3344 42.7522,56.3792 C42.9539,56.4084 43.1572,56.4266 43.3609,56.4336 C44.053,56.4336 44.7451,56.456 45.4372,56.4656 C45.7146,56.4816 45.9928,56.4816 46.2702,56.4656 C46.6611,56.4208 47.0488,56.328 47.4397,56.2768 C47.9716,56.2032 48.5067,56.152 49.0418,56.0848 C49.1143,56.0702 49.183,56.0408 49.2436,55.9984 C49.3525,55.9056 49.4743,55.8064 49.5832,55.7232 Z" id="Path"></path>
            <path d="M41.8199,50.328 C41.9237,49.8642 41.906,49.3815 41.7686,48.9264 C41.6158,48.5351 41.4168,48.1634 41.1758,47.8192 C40.7952,47.1627 40.2085,46.6499 39.5065,46.36 C39.4718,46.3451 39.4385,46.3269 39.4072,46.3056 C39.2648,46.1909 39.1046,46.1001 38.933,46.0368 C38.2613,45.8977 37.5645,45.9397 36.9144,46.1584 C36.8635,46.1666 36.8116,46.1666 36.7606,46.1584 C36.4947,46.1584 36.232,46.1584 35.9692,46.1776 C35.9404,46.1776 35.9148,46.2384 35.8891,46.2704 C35.8635,46.3024 35.8186,46.3824 35.7738,46.392 C35.6998,46.4111 35.6214,46.4032 35.5527,46.3696 C35.4757,46.328 35.3877,46.3109 35.3007,46.3206 C35.2136,46.3303 35.1316,46.3664 35.0657,46.424 C34.7869,46.6 34.505,46.7792 34.2326,46.9648 C34.0692,47.0768 33.9122,47.2112 33.7616,47.3328 C34.1013,47.3712 34.4024,47.2368 34.7228,47.2848 C35.0712,47.2805 35.4124,47.1857 35.7129,47.0096 C36.1542,46.8451 36.6229,46.7658 37.0939,46.776 C37.1355,46.776 37.1804,46.8208 37.2477,46.856 C37.1984,46.9027 37.1447,46.9445 37.0875,46.9808 C36.3376,47.4037 35.6604,47.9439 35.0817,48.5808 C34.7228,48.9328 34.38,49.2976 34.0244,49.6496 C33.8161,49.8608 33.7648,50.1936 33.4701,50.3312 C33.4412,50.3312 33.4412,50.4144 33.4284,50.456 C33.4076,50.5281 33.3819,50.5986 33.3515,50.6672 C33.1176,51.1184 32.794,51.5152 32.6915,52.04 C32.6034,52.5445 32.6498,53.0632 32.826,53.544 C32.8797,53.7165 32.9517,53.8828 33.0407,54.04 C33.1561,54.2416 33.1913,54.5424 33.5598,54.472 C33.6246,54.4727 33.6886,54.4863 33.7481,54.5121 C33.8075,54.538 33.8612,54.5755 33.9058,54.6224 C34.2586,54.9349 34.7159,55.1039 35.1874,55.096 C35.3801,55.1284 35.5764,55.1337 35.7706,55.112 C36.2463,55.0071 36.7142,54.8691 37.1708,54.6992 C37.8404,54.44 38.494,54.1456 39.1413,53.8384 C39.402,53.7045 39.6452,53.539 39.8654,53.3456 C40.0512,53.192 40.1858,52.9456 40.3748,52.8272 C40.8781,52.5081 41.2542,52.0238 41.4386,51.4576 C41.6024,51.0945 41.7301,50.7161 41.8199,50.328 Z M39.231,51.608 C39.1195,51.7327 39.0267,51.8728 38.9554,52.024 C38.8561,52.024 38.7408,52.024 38.7119,52.0592 C38.494,52.3792 38.1128,52.4336 37.8116,52.5968 C37.3099,52.8531 36.784,53.0589 36.2416,53.2112 C35.9212,53.3008 35.5751,53.2112 35.2611,53.3008 C34.9168,53.3578 34.5634,53.3157 34.2422,53.1792 C34.2578,53.1076 34.2782,53.037 34.3031,52.968 C34.4871,52.5543 34.7287,52.1686 35.0208,51.8224 C35.3829,51.4192 35.7353,51.0096 36.091,50.6 C36.3697,50.28 36.6453,49.96 36.9272,49.64 C37.0009,49.5568 37.1035,49.4992 37.1868,49.4224 C37.3715,49.2308 37.5685,49.0512 37.7763,48.8848 C37.9854,48.7412 38.2128,48.626 38.4524,48.5424 C38.528,48.5254 38.5965,48.4855 38.6486,48.4283 C38.7008,48.371 38.734,48.2992 38.7439,48.2224 C38.7616,48.0892 38.8264,47.9666 38.9266,47.8768 C39.1605,47.6976 39.2117,47.5184 38.9778,47.2368 C39.1023,47.2137 39.2306,47.2228 39.3506,47.2631 C39.4706,47.3034 39.5783,47.3737 39.6635,47.4672 C40.0581,47.9069 40.2761,48.4768 40.2755,49.0672 C40.2755,49.112 40.2595,49.1696 40.2755,49.2016 C40.4101,49.3904 40.3011,49.5792 40.2531,49.752 C40.1077,50.4632 39.7516,51.1144 39.231,51.6208 L39.231,51.608 Z M40.3684,51.3392 L40.048,51.7776 C40.1185,51.4352 40.1217,51.432 40.3684,51.352 L40.3684,51.3392 Z M41.0092,51.5344 C40.8406,51.8241 40.6466,52.0983 40.4293,52.3536 C40.29,52.4645 40.1329,52.551 39.9647,52.6096 L39.8942,52.5744 C39.9807,52.4496 40.0608,52.3216 40.1505,52.2 C40.2403,52.0784 40.4197,51.9728 40.3171,51.7488 C40.2915,51.6944 40.4133,51.5728 40.4677,51.4832 L40.9772,50.6416 L40.9355,50.6 L40.7689,50.7216 C40.7425,50.6746 40.723,50.6239 40.7113,50.5712 C40.7146,50.5159 40.7243,50.4612 40.7401,50.408 L41.0381,50.4752 C41.1118,50.376 41.2079,50.2384 41.3136,50.1072 C41.3392,50.0784 41.4033,50.04 41.4193,50.0496 C41.4354,50.0592 41.4995,50.1328 41.493,50.1648 C41.4386,50.4208 41.5251,50.696 41.2912,50.9296 C41.1374,51.0928 41.1182,51.3584 41.0028,51.5472 L41.0092,51.5344 Z" id="Shape"></path>
            <path d="M58.0677,46.1488 C57.9523,45.9312 57.696,45.8288 57.6544,45.5408 C57.6544,45.4768 57.5294,45.3936 57.4525,45.3776 C57.2008,45.3298 56.9459,45.301 56.6899,45.2912 C56.642,45.3002 56.5966,45.3195 56.5568,45.3477 C56.517,45.3758 56.4837,45.4122 56.4592,45.4544 C56.2766,45.7744 56.11,46.0944 55.9338,46.4144 C55.7896,46.6704 55.6134,46.9136 55.4916,47.1792 C55.2225,47.7253 54.9619,48.2768 54.7098,48.8336 C54.3702,49.5792 54.0402,50.328 53.7101,51.0736 C53.582,51.3616 53.4698,51.6528 53.3417,51.9408 C53.1398,52.392 52.9187,52.8368 52.7297,53.2944 C52.5407,53.752 52.4093,54.1872 52.2427,54.6384 C52.0536,55.1856 51.855,55.7296 51.6916,56.2864 C51.4667,56.9522 51.3005,57.6364 51.1949,58.3312 C51.1501,58.7824 51.054,59.2272 50.9931,59.6784 C50.9322,60.1296 51.0347,60.28 51.4609,60.2992 C51.5215,60.2952 51.5786,60.269 51.6211,60.2256 C51.8443,59.9534 51.9933,59.6282 52.0536,59.2816 C52.0985,59.096 52.1081,58.8752 52.374,58.8048 C52.4251,58.7909 52.4729,58.7671 52.5147,58.7347 C52.5565,58.7023 52.5915,58.6619 52.6176,58.616 C52.8675,58.12 53.0982,57.6144 53.3321,57.112 C53.5457,56.664 53.7518,56.216 53.9504,55.768 C53.9761,55.7104 53.9985,55.6496 54.0241,55.592 C54.1683,55.2432 54.3125,54.8912 54.4599,54.5456 C54.5656,54.2992 54.6778,54.0592 54.7803,53.8192 C54.9373,53.4992 55.1007,53.1792 55.2609,52.8592 C55.4211,52.5392 55.5525,52.2192 55.6967,51.8992 C55.8408,51.5792 55.969,51.3232 56.0972,51.032 C56.2253,50.7408 56.3375,50.44 56.4785,50.1584 C56.6515,49.8128 56.8597,49.4832 57.036,49.1376 C57.1834,48.8496 57.3115,48.5456 57.4493,48.248 C57.6511,47.8096 57.9523,47.4128 58.0228,46.9168 C58.0517,46.7152 58.0933,46.52 58.1286,46.3344 C58.1123,46.2713 58.0919,46.2093 58.0677,46.1488 Z" id="Path"></path>
            <path d="M27.1708,57.9888 L27.1708,58.0496 C27.3118,58.0496 27.456,58.0496 27.597,58.0496 C27.6283,58.0501 27.6595,58.0445 27.6886,58.033 C27.7178,58.0214 27.7443,58.0042 27.7668,57.9824 C27.7956,57.9376 27.7668,57.8576 27.7668,57.784 L27.1708,57.9888 Z" id="Path"></path>
            <path d="M19.6044922,27.9335938 L25.2119141,27.9335938 L25.2119141,28.3818359 C25.2119141,29.4013723 25.0917981,30.303707 24.8515625,31.0888672 C24.6171863,31.8154333 24.2216825,32.495114 23.6650391,33.1279297 C22.4052671,34.5459055 20.8027441,35.2548828 18.8574219,35.2548828 C16.9589749,35.2548828 15.3330146,34.5693428 13.9794922,33.1982422 C12.6259698,31.8212822 11.9492188,30.168955 11.9492188,28.2412109 C11.9492188,26.2724511 12.6376884,24.6025459 14.0146484,23.2314453 C15.3916084,21.8544853 17.0673729,21.1660156 19.0419922,21.1660156 C20.1025444,21.1660156 21.0927688,21.3828103 22.0126953,21.8164062 C22.891606,22.2500022 23.7558551,22.9531201 24.6054688,23.9257812 L23.1464844,25.3232422 C22.0331976,23.8408129 20.6767658,23.0996094 19.0771484,23.0996094 C17.6415944,23.0996094 16.4375049,23.5947216 15.4648438,24.5849609 C14.4921826,25.5576221 14.0058594,26.7763599 14.0058594,28.2412109 C14.0058594,29.7529372 14.5478461,30.998042 15.6318359,31.9765625 C16.6455129,32.8847702 17.7441347,33.3388672 18.9277344,33.3388672 C19.9355519,33.3388672 20.8408163,32.9990268 21.6435547,32.3193359 C22.4462931,31.6337856 22.8945308,30.8134813 22.9882812,29.8583984 L19.6044922,29.8583984 L19.6044922,27.9335938 Z M29.3867188,26.4394531 L29.3867188,31.3525391 C29.3867188,32.7705149 29.9462835,33.4794922 31.0654297,33.4794922 C32.1845759,33.4794922 32.7441406,32.7705149 32.7441406,31.3525391 L32.7441406,26.4394531 L34.7216797,26.4394531 L34.7216797,31.3964844 C34.7216797,32.0820347 34.6367196,32.6738256 34.4667969,33.171875 C34.3027336,33.6171897 34.0185567,34.0185529 33.6142578,34.3759766 C32.9462857,34.9560576 32.0966848,35.2460938 31.0654297,35.2460938 C30.0400339,35.2460938 29.1933627,34.9560576 28.5253906,34.3759766 C28.1152323,34.0185529 27.8251962,33.6171897 27.6552734,33.171875 C27.4912101,32.7734355 27.4091797,32.1816446 27.4091797,31.3964844 L27.4091797,26.4394531 L29.3867188,26.4394531 Z M39.1953125,26.4394531 L39.1953125,35 L37.2177734,35 L37.2177734,26.4394531 L39.1953125,26.4394531 Z M36.9189453,22.8798828 C36.9189453,22.534178 37.0449206,22.2353528 37.296875,21.9833984 C37.5488294,21.7314441 37.8505842,21.6054688 38.2021484,21.6054688 C38.5595721,21.6054688 38.8642566,21.7314441 39.1162109,21.9833984 C39.3681653,22.2294934 39.4941406,22.5312482 39.4941406,22.8886719 C39.4941406,23.2460955 39.3681653,23.55078 39.1162109,23.8027344 C38.870116,24.0546888 38.5683612,24.1806641 38.2109375,24.1806641 C37.8535138,24.1806641 37.5488294,24.0546888 37.296875,23.8027344 C37.0449206,23.55078 36.9189453,23.2431659 36.9189453,22.8798828 Z M48.0107422,20.1552734 L49.9970703,20.1552734 L49.9970703,35 L48.0107422,35 L48.0107422,34.1035156 C47.2314414,34.8652382 46.3496143,35.2460938 45.3652344,35.2460938 C44.1933535,35.2460938 43.220707,34.8183637 42.4472656,33.9628906 C41.6796837,33.0898394 41.2958984,32.0000065 41.2958984,30.6933594 C41.2958984,29.4160092 41.6796837,28.3496137 42.4472656,27.4941406 C43.2089882,26.6328082 44.1669864,26.2021484 45.3212891,26.2021484 C46.3232472,26.2021484 47.2197226,26.6123006 48.0107422,27.4326172 L48.0107422,20.1552734 Z M43.3173828,30.6933594 C43.3173828,31.513676 43.5371072,32.181638 43.9765625,32.6972656 C44.4277366,33.2187526 44.9960903,33.4794922 45.6816406,33.4794922 C46.4140662,33.4794922 47.0058571,33.2275416 47.4570312,32.7236328 C47.9082054,32.2021458 48.1337891,31.5400431 48.1337891,30.7373047 C48.1337891,29.9345663 47.9082054,29.2724635 47.4570312,28.7509766 C47.0058571,28.2412084 46.4199255,27.9863281 45.6992188,27.9863281 C45.0195279,27.9863281 44.4511742,28.244138 43.9941406,28.7597656 C43.5429665,29.2812526 43.3173828,29.9257774 43.3173828,30.6933594 Z M60.2890625,31.1855469 L54.1542969,31.1855469 C54.2070315,31.8886754 54.4355449,32.4482401 54.8398438,32.8642578 C55.2441426,33.2744161 55.7626921,33.4794922 56.3955078,33.4794922 C56.8876978,33.4794922 57.2949203,33.3623059 57.6171875,33.1279297 C57.9335953,32.8935535 58.2939433,32.4599641 58.6982422,31.8271484 L60.3681641,32.7587891 C60.1103503,33.1982444 59.8378921,33.5747055 59.5507812,33.8881836 C59.2636704,34.2016617 58.9560563,34.4594716 58.6279297,34.6616211 C58.299803,34.8637705 57.9453144,35.0117183 57.5644531,35.1054688 C57.1835918,35.1992192 56.77051,35.2460938 56.3251953,35.2460938 C55.0478452,35.2460938 54.0224648,34.8359416 53.2490234,34.015625 C52.4755821,33.189449 52.0888672,32.0937568 52.0888672,30.7285156 C52.0888672,29.3749932 52.4638634,28.2793011 53.2138672,27.4414062 C53.9697303,26.6152302 54.9716734,26.2021484 56.2197266,26.2021484 C57.4794985,26.2021484 58.4755823,26.6035116 59.2080078,27.40625 C59.9345739,28.203129 60.2978516,29.3076101 60.2978516,30.7197266 L60.2890625,31.1855469 Z M58.2587891,29.5683594 C57.9833971,28.5136666 57.3183646,27.9863281 56.2636719,27.9863281 C56.0234363,27.9863281 55.7978526,28.0229489 55.5869141,28.0961914 C55.3759755,28.169434 55.1840829,28.2749017 55.0112305,28.4125977 C54.838378,28.5502937 54.6904303,28.7158193 54.5673828,28.9091797 C54.4443353,29.10254 54.3505863,29.3222644 54.2861328,29.5683594 L58.2587891,29.5683594 Z M67.4257812,27.8984375 L65.7910156,28.7685547 C65.5332018,28.2412083 65.2138691,27.9775391 64.8330078,27.9775391 C64.6513663,27.9775391 64.4960944,28.0375971 64.3671875,28.1577148 C64.2382806,28.2778326 64.1738281,28.4316397 64.1738281,28.6191406 C64.1738281,28.9220268 64.4983441,29.2224124 65.1473851,29.5203053 L65.3164062,29.5947266 C66.3652396,30.0459007 67.0712872,30.4619122 67.4345703,30.8427734 C67.7978534,31.2236347 67.9794922,31.7363249 67.9794922,32.3808594 C67.9794922,33.2070354 67.6748077,33.8984347 67.0654297,34.4550781 C66.4736299,34.9824245 65.7587933,35.2460938 64.9208984,35.2460938 C63.4853444,35.2460938 62.468753,34.5459054 61.8710938,33.1455078 L63.5585938,32.3632812 C63.7929699,32.7734396 63.9716791,33.0341791 64.0947266,33.1455078 C64.3349621,33.3681652 64.6220686,33.4794922 64.9560547,33.4794922 C65.6240268,33.4794922 65.9580078,33.1748077 65.9580078,32.5654297 C65.9580078,32.2138654 65.7001979,31.8857437 65.1845703,31.5810547 L64.8857422,31.4338379 L64.8857422,31.4338379 L64.5869141,31.2910156 C64.3876943,31.1972652 64.1855479,31.1005864 63.9804688,31.0009766 C63.4062471,30.7197252 63.0019543,30.438478 62.7675781,30.1572266 C62.4687485,29.7998029 62.3193359,29.3398466 62.3193359,28.7773438 C62.3193359,28.0331994 62.5742162,27.4179712 63.0839844,26.9316406 C63.6054714,26.4453101 64.2382775,26.2021484 64.9824219,26.2021484 C66.0781305,26.2021484 66.8925755,26.7675725 67.4257812,27.8984375 Z" id="Guides"></path>
        </g>
    </g>
</svg>