<?xml version="1.0" encoding="UTF-8" standalone="no"?>
<svg width="38px" height="34px" viewBox="0 0 38 34" version="1.1" xmlns="http://www.w3.org/2000/svg" xmlns:xlink="http://www.w3.org/1999/xlink">
    <!-- Generator: Sketch 41.2 (35397) - http://www.bohemiancoding.com/sketch -->
    <title>chat-icon</title>
    <desc>Created with Sketch.</desc>
    <defs></defs>
    <g id="Mobile" stroke="none" stroke-width="1" fill="none" fill-rule="evenodd">
        <g id="iPhone-7" transform="translate(-168.000000, -1583.000000)" fill="#0087FF">
            <g id="chat-icon" transform="translate(168.000000, 1583.000000)">
                <g id="icon-messaging">
                    <g id="Group-3" transform="translate(0.000000, 0.002768)">
                        <path d="M5.40808952,0.0525832185 C2.42125318,0.0525832185 0.000435398884,2.36209353 0.000435398884,5.20988994 L0.000435398884,22.4599531 C0.000435398884,25.3077496 2.42125318,27.6172599 5.40808952,27.6172599 L7.25708344,27.6172599 C8.05821736,27.6172599 8.70841307,28.2371883 8.70841307,29.0010288 L8.70841307,31.7685666 C8.70841307,33.0015047 10.2714951,33.6186656 11.1858327,32.7468912 L16.5659115,28.4281485 C17.1101601,27.9092351 17.8488869,27.6172599 18.6180916,27.6172599 L32.3258998,27.6172599 C35.3127361,27.6172599 37.7350052,25.3077496 37.7350052,22.4599531 L37.7350052,5.20988994 C37.7350052,2.36209353 35.3127361,0.0525832185 32.3258998,0.0525832185 L5.40808952,0.0525832185 Z M13.0619665,13.8349216 C13.0619665,15.3639862 11.7630265,16.6024593 10.1593073,16.6024593 C8.55558803,16.6024593 7.25664802,15.3639862 7.25664802,13.8349216 C7.25664802,12.3058569 8.55558803,11.0673837 10.1593073,11.0673837 C11.7630265,11.0673837 13.0619665,12.3058569 13.0619665,13.8349216 Z M21.7699441,13.8349216 C21.7699441,15.3639862 20.4710041,16.6024593 18.8672849,16.6024593 C17.2635657,16.6024593 15.9646257,15.3639862 15.9646257,13.8349216 C15.9646257,12.3058569 17.2635657,11.0673837 18.8672849,11.0673837 C20.4710041,11.0673837 21.7699441,12.3058569 21.7699441,13.8349216 Z M30.4779218,13.8349216 C30.4779218,15.3639862 29.1789818,16.6024593 27.5752625,16.6024593 C25.9715433,16.6024593 24.6726033,15.3639862 24.6726033,13.8349216 C24.6726033,12.3058569 25.9715433,11.0673837 27.5752625,11.0673837 C29.1789818,11.0673837 30.4779218,12.3058569 30.4779218,13.8349216 Z" id="Combined-Shape"></path>
                    </g>
                </g>
            </g>
        </g>
    </g>
</svg>