<?xml version="1.0" encoding="UTF-8" standalone="no"?>
<svg width="18px" height="18px" viewBox="0 0 18 18" version="1.1" xmlns="http://www.w3.org/2000/svg" xmlns:xlink="http://www.w3.org/1999/xlink">
    <!-- Generator: Sketch 41.2 (35397) - http://www.bohemiancoding.com/sketch -->
    <title>tick</title>
    <desc>Created with Sketch.</desc>
    <defs></defs>
    <g id="Page-1" stroke="none" stroke-width="1" fill="none" fill-rule="evenodd">
        <g id="Version2" transform="translate(-1017.000000, -2553.000000)" fill="#5FCF80">
            <g id="Section-Service-v2" transform="translate(0.000000, 2153.000000)">
                <g id="Package" transform="translate(992.000000, 222.000000)">
                    <g id="Group-2" transform="translate(25.000000, 148.000000)">
                        <g id="tick" transform="translate(0.000000, 30.000000)">
                            <g id="Capa_1">
                                <path d="M8.98434375,0 C4.03040625,0 0,4.0303125 0,8.98434375 C0,13.938375 4.03040625,17.9687812 8.98434375,17.9687812 C13.9382813,17.9687812 17.9686875,13.938375 17.9686875,8.98434375 C17.9686875,4.0303125 13.938375,0 8.98434375,0 Z M14.1433125,7.4668125 L8.49890625,13.1112187 C8.25890625,13.3512187 7.939875,13.4833125 7.6005,13.4833125 C7.261125,13.4833125 6.94209375,13.3512187 6.70209375,13.1112187 L3.825375,10.2345 C3.585375,9.9945 3.4531875,9.67546875 3.4531875,9.33609375 C3.4531875,8.996625 3.585375,8.67759375 3.825375,8.43759375 C4.06528125,8.19759375 4.3843125,8.06540625 4.72378125,8.06540625 C5.06315625,8.06540625 5.38228125,8.19759375 5.6221875,8.4376875 L7.60040625,10.4158125 L12.3463125,5.66990625 C12.5863125,5.42990625 12.9053438,5.2978125 13.2447188,5.2978125 C13.5840938,5.2978125 13.903125,5.42990625 14.143125,5.66990625 C14.6386875,6.16546875 14.6386875,6.9714375 14.1433125,7.4668125 Z" id="Shape"></path>
                            </g>
                        </g>
                    </g>
                </g>
            </g>
        </g>
    </g>
</svg>