<svg xmlns="http://www.w3.org/2000/svg" width="10.969" height="10.97" viewBox="0 0 10.969 10.97">
  <defs>
    <style>
      .cls-1 {
        fill: #2196f3;
        fill-rule: evenodd;
      }
    </style>
  </defs>
  <path id="Icon" class="cls-1" d="M400.48,4370.35h0a0.531,0.531,0,0,0-.346-0.14,0.516,0.516,0,0,0-.515.52,0.524,0.524,0,0,0,.168.38h0l1.644,1.5-1.644,1.51h0a0.524,0.524,0,0,0-.168.38,0.516,0.516,0,0,0,.515.52,0.531,0.531,0,0,0,.346-0.14h0l2.058-1.89a0.5,0.5,0,0,0,.167-0.38,0.491,0.491,0,0,0-.167-0.37Zm0.509-3.22a5.485,5.485,0,1,0,5.49,5.48A5.483,5.483,0,0,0,400.989,4367.13Zm0,9.95a4.465,4.465,0,1,1,4.461-4.47A4.473,4.473,0,0,1,400.989,4377.08Z" transform="translate(-395.5 -4367.12)"/>
</svg>
