<svg xmlns="http://www.w3.org/2000/svg" width="12.25" height="12.031" viewBox="0 0 12.25 12.031">
  <defs>
    <style>
      .cls-1 {
        fill: #fff;
        fill-rule: evenodd;
      }
    </style>
  </defs>
  <path id="Icon" class="cls-1" d="M556.437,28.7V27.973a0.744,0.744,0,0,1,.744-0.745h6.773a0.744,0.744,0,0,1,.744.745V28.7l0.955-.955a0.2,0.2,0,0,0,.057-0.152,0.193,0.193,0,0,0-.076-0.143l-4.609-3.589a0.746,0.746,0,0,0-.915,0L555.5,27.448a0.193,0.193,0,0,0-.076.143,0.2,0.2,0,0,0,.057.152Zm10.129-.373a0.2,0.2,0,0,0-.216.043l-5.055,5.057a1.028,1.028,0,0,1-1.455,0l-5.055-5.057a0.2,0.2,0,0,0-.338.14v6.424a0.816,0.816,0,0,0,.816.816h10.608a0.815,0.815,0,0,0,.816-0.816V28.509A0.2,0.2,0,0,0,566.566,28.326Zm-3.737.041h-4.522a0.408,0.408,0,1,0,0,.817h4.522A0.408,0.408,0,0,0,562.829,28.367Zm0,1.633h-4.522a0.408,0.408,0,1,0,0,.816h4.522A0.408,0.408,0,0,0,562.829,30Z" transform="translate(-554.438 -23.719)"/>
</svg>
