<svg xmlns="http://www.w3.org/2000/svg" width="14.06" height="14.031" viewBox="0 0 14.06 14.031">
  <defs>
    <style>
      .cls-1 {
        fill: #3b5998;
        fill-rule: evenodd;
      }
    </style>
  </defs>
  <path id="Facebook" class="cls-1" d="M1479.28,96.454a7.024,7.024,0,1,0,7.03,7.024A7.02,7.02,0,0,0,1479.28,96.454Zm0,12.951a5.927,5.927,0,1,1,5.93-5.927A5.932,5.932,0,0,1,1479.28,109.405Zm1.67-7h-1.22v-0.891a0.372,0.372,0,0,1,.41-0.337h0.79v-1.2l-0.9,0a1.387,1.387,0,0,0-1.52,1.474V102.4h-0.9v1.24h0.9v3.348h1.22v-3.348h1.03Z" transform="translate(-1472.25 -96.469)"/>
</svg>
