<svg xmlns="http://www.w3.org/2000/svg" width="22.5" height="22.47" viewBox="0 0 22.5 22.47">
  <defs>
    <style>
      .cls-1 {
        fill: #d44132;
        fill-rule: evenodd;
      }
    </style>
  </defs>
  <path id="G_" data-name="G+" class="cls-1" d="M516,4085.59a11.235,11.235,0,1,0,11.239,11.24A11.237,11.237,0,0,0,516,4085.59Zm0,20.72a9.485,9.485,0,1,1,9.483-9.48A9.485,9.485,0,0,1,516,4106.31Zm0.969-14.76a3.812,3.812,0,0,0,.55-0.35h-3.656a3,3,0,0,0-2.768,2.77c0,1.95,2.11,2.37,2.876,2.33a0.888,0.888,0,0,0,.168,1.25c0.23,0.25.183,0.32-.091,0.32s-3.672.04-3.672,2.47,4.513,2.61,6,1.3a2.441,2.441,0,0,0,.015-3.93c-1.147-.82-1.575-1.21-0.841-1.85a2.881,2.881,0,0,0,1.316-2.38,2.273,2.273,0,0,0-1-1.82A2.131,2.131,0,0,0,516.973,4091.55Zm-0.567,8.67c0,1.05-.891,1.56-2.4,1.56s-2.324-.76-2.324-1.88,1.1-1.69,3.167-1.69C515.406,4098.65,516.406,4099.17,516.406,4100.22Zm-2.187-4.4c-1.821,0-2.647-4.25-.5-4.25C515.381,4091.51,516.635,4095.82,514.219,4095.82Zm6.033-3.21v-1.38h-0.715v1.38h-1.4v0.72h1.4v1.39h0.715v-1.39h1.376v-0.72h-1.376Z" transform="translate(-504.75 -4085.59)"/>
</svg>
