<svg xmlns="http://www.w3.org/2000/svg" width="23" height="23" viewBox="0 0 23 23">
  <defs>
    <style>
      .cls-1 {
        fill: #0177b5;
        fill-rule: evenodd;
      }
    </style>
  </defs>
  <path id="LinkedIn" class="cls-1" d="M570.818,4085.16a11.5,11.5,0,1,0,11.5,11.5A11.5,11.5,0,0,0,570.818,4085.16Zm0,21.21a9.705,9.705,0,1,1,9.706-9.71A9.71,9.71,0,0,1,570.818,4106.37Zm-5.747-3.96h2.157v-8.63h-2.157v8.63Zm8.627-8.63a3.958,3.958,0,0,0-2.876,1.44v-1.44h-2.156v8.63h2.156v-5.03a1.827,1.827,0,0,1,2.157-1.44,2.026,2.026,0,0,1,1.438,1.44v5.03l2.149,0.01v-5.97A2.691,2.691,0,0,0,573.7,4093.78Zm-7.549-2.88a1.08,1.08,0,1,0,1.079,1.08A1.083,1.083,0,0,0,566.149,4090.9Z" transform="translate(-559.312 -4085.16)"/>
</svg>
