<svg xmlns="http://www.w3.org/2000/svg" width="10.906" height="10.91" viewBox="0 0 10.906 10.91">
  <defs>
    <style>
      .cls-1 {
        fill: #8ec63f;
        fill-rule: evenodd;
      }
    </style>
  </defs>
  <path id="Icon" class="cls-1" d="M756.416,4199.96a0.52,0.52,0,0,1-.162.46l-1.538,1.53a0.779,0.779,0,0,1-.271.2,1.073,1.073,0,0,1-.33.1,0.339,0.339,0,0,1-.069.01c-0.039,0-.089.01-0.151,0.01a5.6,5.6,0,0,1-.711-0.08,5.222,5.222,0,0,1-1.2-.37,9.9,9.9,0,0,1-1.613-.89,11.72,11.72,0,0,1-1.92-1.62,13.03,13.03,0,0,1-1.341-1.52,11.369,11.369,0,0,1-.855-1.35,7.436,7.436,0,0,1-.486-1.13,5.86,5.86,0,0,1-.22-0.86,2.979,2.979,0,0,1-.046-0.58c0.008-.14.012-0.21,0.012-0.23a1.079,1.079,0,0,1,.1-0.33,0.887,0.887,0,0,1,.2-0.27l1.538-1.54a0.5,0.5,0,0,1,.37-0.16,0.421,0.421,0,0,1,.266.09,0.621,0.621,0,0,1,.2.21l1.238,2.35a0.553,0.553,0,0,1,.057.4,0.7,0.7,0,0,1-.2.37l-0.567.57a0.212,0.212,0,0,0-.04.08,0.23,0.23,0,0,0-.017.08,2.008,2.008,0,0,0,.208.56,5.656,5.656,0,0,0,.428.68,8.21,8.21,0,0,0,.82.92,7.43,7.43,0,0,0,.925.82,4.9,4.9,0,0,0,.677.44,2.005,2.005,0,0,0,.416.17l0.145,0.03a0.426,0.426,0,0,0,.075-0.02,0.252,0.252,0,0,0,.075-0.04l0.659-.67a0.684,0.684,0,0,1,.486-0.19,0.569,0.569,0,0,1,.312.07H753.9l2.232,1.32A0.588,0.588,0,0,1,756.416,4199.96Z" transform="translate(-745.5 -4191.34)"/>
</svg>
