<svg xmlns="http://www.w3.org/2000/svg" width="22.5" height="22.5" viewBox="0 0 22.5 22.5">
  <defs>
    <style>
      .cls-1 {
        fill: #d50000;
        fill-rule: evenodd;
      }
    </style>
  </defs>
  <path id="Pinterest" class="cls-1" d="M626,4085.16a11.245,11.245,0,1,0,11.243,11.24A11.24,11.24,0,0,0,626,4085.16Zm0,20.73a9.485,9.485,0,1,1,9.487-9.49A9.489,9.489,0,0,1,626,4105.89Zm0.265-15.11c-3.083,0-4.638,2.2-4.638,4.03a2.482,2.482,0,0,0,1.328,2.47,0.226,0.226,0,0,0,.326-0.16c0.03-.11.1-0.4,0.132-0.52a0.313,0.313,0,0,0-.093-0.36,1.828,1.828,0,0,1-.428-1.26,3.067,3.067,0,0,1,3.194-3.1,2.426,2.426,0,0,1,2.7,2.48c0,1.86-.828,3.43-2.056,3.43a1,1,0,0,1-1.025-1.24,13.94,13.94,0,0,0,.572-2.29,0.874,0.874,0,0,0-.874-0.98,1.49,1.49,0,0,0-1.251,1.68,2.467,2.467,0,0,0,.206,1.02s-0.709,3-.834,3.52a7.192,7.192,0,0,0-.02,2.45,0.086,0.086,0,0,0,.154.04,6.847,6.847,0,0,0,1.172-2.11c0.08-.29.456-1.78,0.456-1.78a1.862,1.862,0,0,0,1.585.81c2.086,0,3.5-1.9,3.5-4.43A3.868,3.868,0,0,0,626.262,4090.78Z" transform="translate(-614.75 -4085.16)"/>
</svg>
