<svg xmlns="http://www.w3.org/2000/svg" width="24.53" height="11.03" viewBox="0 0 24.53 11.03">
  <defs>
    <style>
      .cls-1 {
        fill: #727272;
        fill-rule: evenodd;
      }
    </style>
  </defs>
  <path id="Button" class="cls-1" d="M1503.91,4210.08H1490.2a1.011,1.011,0,0,0-.95.79l-1.95,9.47a0.625,0.625,0,0,0,.62.79h13.72a1.02,1.02,0,0,0,.94-0.79l1.95-9.47A0.621,0.621,0,0,0,1503.91,4210.08Zm-1.64,3.17-6.09,2.94a0.867,0.867,0,0,1-.77,0l-4.88-2.94a0.742,0.742,0,0,1-.11-1.1,1.046,1.046,0,0,1,.81-0.44,0.757,0.757,0,0,1,.37.1l4.54,2.73,5.65-2.73a0.99,0.99,0,0,1,.41-0.1,0.64,0.64,0,0,1,.63.44A0.97,0.97,0,0,1,1502.27,4213.25Zm-20.11-1.1h5.91a0.565,0.565,0,0,0,0-1.13h-5.91A0.565,0.565,0,1,0,1482.16,4212.15Zm4.32,4.02h-5.9a0.561,0.561,0,0,0-.57.56,0.57,0.57,0,0,0,.57.57h5.9a0.57,0.57,0,0,0,.57-0.57A0.561,0.561,0,0,0,1486.48,4216.17Zm1.36-2.04a0.561,0.561,0,0,0-.56-0.57h-3.54a0.565,0.565,0,0,0,0,1.13h3.54A0.559,0.559,0,0,0,1487.84,4214.13Zm-2.15,4.58h-1.89a0.565,0.565,0,0,0,0,1.13h1.89A0.565,0.565,0,1,0,1485.69,4218.71Z" transform="translate(-1480 -4210.09)"/>
</svg>
