<svg xmlns="http://www.w3.org/2000/svg" width="14.03" height="14.031" viewBox="0 0 14.03 14.031">
  <defs>
    <style>
      .cls-1 {
        fill: #5ea9dd;
        fill-rule: evenodd;
      }
    </style>
  </defs>
  <path id="Twitter" class="cls-1" d="M1517.29,96.837a7.025,7.025,0,1,0,7.03,7.025A7.02,7.02,0,0,0,1517.29,96.837Zm0,12.952a5.927,5.927,0,1,1,5.93-5.927A5.923,5.923,0,0,1,1517.29,109.789Zm3.52-8.261a2.478,2.478,0,0,1-.81.245,1.682,1.682,0,0,0,.61-0.847,2.31,2.31,0,0,1-.91.344h0a1.384,1.384,0,0,0-1.05-.482,1.5,1.5,0,0,0-1.44,1.56,1.985,1.985,0,0,0,.03.348h0a4.094,4.094,0,0,1-3.07-1.619,1.632,1.632,0,0,0,.44,2.062,0.874,0.874,0,0,1-.63-0.176,1.488,1.488,0,0,0,1.12,1.524,1.077,1.077,0,0,1-.61.05,1.407,1.407,0,0,0,1.3,1.06,2.283,2.283,0,0,1-2.01.647,4.15,4.15,0,0,0,2.27.69,4.2,4.2,0,0,0,4.05-4.557v-0.052A2.6,2.6,0,0,0,1520.81,101.528Z" transform="translate(-1510.28 -96.844)"/>
</svg>
